M48
; DRILL file {KiCad (6.0.11)} date Tue 07 Feb 2023 02:55:30 AM
; FORMAT={-:-/ absolute / metric / decimal}
; #@! TF.CreationDate,2023-02-07T02:55:30-07:00
; #@! TF.GenerationSoftware,Kicad,Pcbnew,(6.0.11)
; #@! TF.FileFunction,Plated,1,2,PTH
FMAT,2
METRIC
; #@! TA.AperFunction,Plated,PTH,ViaDrill
T1C0.457
; #@! TA.AperFunction,Plated,PTH,ComponentDrill
T2C0.800
; #@! TA.AperFunction,Plated,PTH,ComponentDrill
T3C1.000
%
G90
G05
T1
X156.23Y-65.385
X161.945Y-61.575
X163.215Y-53.955
X165.755Y-68.56
X166.39Y-60.305
X167.66Y-61.575
X168.295Y-60.305
X172.105Y-66.655
X173.375Y-65.385
X184.805Y-66.02
X197.505Y-64.75
X224.81Y-55.225
T2
X146.11Y-45.075
X146.11Y-47.615
X146.11Y-50.155
X146.11Y-52.695
X146.11Y-55.235
X146.11Y-57.775
X146.11Y-60.315
X146.11Y-62.855
X148.61Y-41.255
X149.88Y-45.065
X149.88Y-55.225
X153.63Y-45.075
X153.63Y-47.615
X153.63Y-50.155
X153.63Y-52.695
X153.63Y-55.235
X153.63Y-57.775
X153.63Y-60.315
X153.63Y-62.855
X158.135Y-45.085
X158.135Y-47.585
X158.77Y-41.255
X161.945Y-41.265
X161.945Y-56.505
X164.485Y-41.265
X164.485Y-56.505
X167.025Y-41.265
X167.025Y-56.505
X169.555Y-45.075
X169.555Y-52.695
X169.565Y-41.265
X169.565Y-56.505
X169.565Y-63.53
X169.565Y-71.05
X172.095Y-45.075
X172.095Y-52.695
X172.105Y-41.265
X172.105Y-56.505
X172.105Y-63.53
X172.105Y-71.05
X174.635Y-45.075
X174.635Y-52.695
X174.645Y-41.265
X174.645Y-56.505
X174.645Y-63.53
X174.645Y-71.05
X177.175Y-45.075
X177.175Y-52.695
X177.185Y-41.265
X177.185Y-56.505
X177.185Y-63.53
X177.185Y-71.05
X179.715Y-45.075
X179.715Y-52.695
X179.725Y-41.265
X179.725Y-56.505
X179.725Y-63.53
X179.725Y-71.05
X182.255Y-45.075
X182.255Y-52.695
X182.265Y-41.265
X182.265Y-56.505
X182.265Y-63.53
X182.265Y-71.05
X184.795Y-45.075
X184.795Y-52.695
X184.805Y-41.265
X184.805Y-56.505
X184.805Y-63.53
X184.805Y-71.05
X187.335Y-45.075
X187.335Y-52.695
X187.345Y-41.265
X187.345Y-56.505
X187.98Y-68.58
X187.98Y-71.08
X189.875Y-45.075
X189.875Y-52.695
X189.885Y-41.265
X189.885Y-56.505
X192.425Y-41.265
X192.425Y-56.505
X194.965Y-41.265
X194.965Y-56.505
X198.755Y-45.085
X198.755Y-52.705
X198.795Y-55.86
X201.295Y-45.085
X201.295Y-52.705
X201.295Y-55.86
X203.835Y-45.085
X203.835Y-52.705
X203.855Y-57.815
X203.855Y-65.335
X206.375Y-45.085
X206.375Y-52.705
X206.395Y-57.815
X206.395Y-65.335
X208.915Y-45.085
X208.915Y-52.705
X208.935Y-57.815
X208.935Y-65.335
X211.455Y-45.085
X211.455Y-52.705
X211.475Y-57.815
X211.475Y-65.335
X213.995Y-45.085
X213.995Y-52.705
X214.015Y-57.815
X214.015Y-65.335
X216.535Y-45.085
X216.535Y-52.705
X216.555Y-57.815
X216.555Y-65.335
X219.075Y-45.085
X219.075Y-52.705
X219.095Y-57.815
X219.095Y-65.335
T3
X146.07Y-69.83
X146.07Y-72.37
X151.165Y-69.83
X151.165Y-72.375
X153.705Y-69.83
X153.705Y-72.375
X156.245Y-69.83
X156.245Y-72.375
X157.5Y-59.035
X157.5Y-61.575
X198.775Y-70.465
X201.315Y-70.465
X203.855Y-70.465
X206.395Y-70.465
X208.935Y-70.465
X211.475Y-70.465
X214.015Y-70.465
X216.555Y-70.465
X219.095Y-70.465
T0
M30
