%TF.GenerationSoftware,KiCad,Pcbnew,(6.0.11)*%
%TF.CreationDate,2023-02-07T02:55:36-07:00*%
%TF.ProjectId,FennecRAMadapt,46656e6e-6563-4524-914d-61646170742e,rev?*%
%TF.SameCoordinates,Original*%
%TF.FileFunction,Drillmap*%
%TF.FilePolarity,Positive*%
%FSLAX45Y45*%
G04 Gerber Fmt 4.5, Leading zero omitted, Abs format (unit mm)*
G04 Created by KiCad (PCBNEW (6.0.11)) date 2023-02-07 02:55:36*
%MOMM*%
%LPD*%
G01*
G04 APERTURE LIST*
%ADD10C,0.100000*%
%ADD11C,0.200000*%
%ADD12C,0.045720*%
%ADD13C,0.080000*%
G04 APERTURE END LIST*
D10*
X22737439Y-4352295D02*
X22734736Y-7338336D01*
X14276800Y-4533597D02*
X14295289Y-4512289D01*
X14276799Y-4533597D02*
G75*
G03*
X14226000Y-4668301I141501J-130293D01*
G01*
X14429200Y-4189000D02*
X14429200Y-4023900D01*
X14226264Y-7338336D02*
G75*
G03*
X14442164Y-7554236I215896J-4D01*
G01*
X22518836Y-7554236D02*
X14442164Y-7554236D01*
X14295289Y-4512289D02*
G75*
G03*
X14429200Y-4189000I-323289J323289D01*
G01*
X22737442Y-4352295D02*
G75*
G03*
X22099899Y-3717295I-611912J23185D01*
G01*
X14746700Y-3706400D02*
G75*
G03*
X14429200Y-4023900I0J-317500D01*
G01*
X22518836Y-7554236D02*
G75*
G03*
X22734736Y-7338336I4J215896D01*
G01*
X22099899Y-3717295D02*
X14746700Y-3706400D01*
X14226264Y-7338336D02*
X14226000Y-4668301D01*
D11*
D12*
X15600140Y-6515640D02*
X15645860Y-6561360D01*
X15645860Y-6515640D02*
X15600140Y-6561360D01*
X16171640Y-6134640D02*
X16217360Y-6180360D01*
X16217360Y-6134640D02*
X16171640Y-6180360D01*
X16298640Y-5372640D02*
X16344360Y-5418360D01*
X16344360Y-5372640D02*
X16298640Y-5418360D01*
X16552640Y-6833140D02*
X16598360Y-6878860D01*
X16598360Y-6833140D02*
X16552640Y-6878860D01*
X16616140Y-6007640D02*
X16661860Y-6053360D01*
X16661860Y-6007640D02*
X16616140Y-6053360D01*
X16743140Y-6134640D02*
X16788860Y-6180360D01*
X16788860Y-6134640D02*
X16743140Y-6180360D01*
X16806640Y-6007640D02*
X16852360Y-6053360D01*
X16852360Y-6007640D02*
X16806640Y-6053360D01*
X17187640Y-6642640D02*
X17233360Y-6688360D01*
X17233360Y-6642640D02*
X17187640Y-6688360D01*
X17314640Y-6515640D02*
X17360360Y-6561360D01*
X17360360Y-6515640D02*
X17314640Y-6561360D01*
X18457640Y-6579140D02*
X18503360Y-6624860D01*
X18503360Y-6579140D02*
X18457640Y-6624860D01*
X19727640Y-6452140D02*
X19773360Y-6497860D01*
X19773360Y-6452140D02*
X19727640Y-6497860D01*
X22458140Y-5499640D02*
X22503860Y-5545360D01*
X22503860Y-5499640D02*
X22458140Y-5545360D01*
D13*
X14651000Y-4507500D02*
G75*
G03*
X14651000Y-4507500I-40000J0D01*
G01*
X14651000Y-4761500D02*
G75*
G03*
X14651000Y-4761500I-40000J0D01*
G01*
X14651000Y-5015500D02*
G75*
G03*
X14651000Y-5015500I-40000J0D01*
G01*
X14651000Y-5269500D02*
G75*
G03*
X14651000Y-5269500I-40000J0D01*
G01*
X14651000Y-5523500D02*
G75*
G03*
X14651000Y-5523500I-40000J0D01*
G01*
X14651000Y-5777500D02*
G75*
G03*
X14651000Y-5777500I-40000J0D01*
G01*
X14651000Y-6031500D02*
G75*
G03*
X14651000Y-6031500I-40000J0D01*
G01*
X14651000Y-6285500D02*
G75*
G03*
X14651000Y-6285500I-40000J0D01*
G01*
X14901000Y-4125500D02*
G75*
G03*
X14901000Y-4125500I-40000J0D01*
G01*
X15028000Y-4506500D02*
G75*
G03*
X15028000Y-4506500I-40000J0D01*
G01*
X15028000Y-5522500D02*
G75*
G03*
X15028000Y-5522500I-40000J0D01*
G01*
X15403000Y-4507500D02*
G75*
G03*
X15403000Y-4507500I-40000J0D01*
G01*
X15403000Y-4761500D02*
G75*
G03*
X15403000Y-4761500I-40000J0D01*
G01*
X15403000Y-5015500D02*
G75*
G03*
X15403000Y-5015500I-40000J0D01*
G01*
X15403000Y-5269500D02*
G75*
G03*
X15403000Y-5269500I-40000J0D01*
G01*
X15403000Y-5523500D02*
G75*
G03*
X15403000Y-5523500I-40000J0D01*
G01*
X15403000Y-5777500D02*
G75*
G03*
X15403000Y-5777500I-40000J0D01*
G01*
X15403000Y-6031500D02*
G75*
G03*
X15403000Y-6031500I-40000J0D01*
G01*
X15403000Y-6285500D02*
G75*
G03*
X15403000Y-6285500I-40000J0D01*
G01*
X15853500Y-4508500D02*
G75*
G03*
X15853500Y-4508500I-40000J0D01*
G01*
X15853500Y-4758500D02*
G75*
G03*
X15853500Y-4758500I-40000J0D01*
G01*
X15917000Y-4125500D02*
G75*
G03*
X15917000Y-4125500I-40000J0D01*
G01*
X16234500Y-4126500D02*
G75*
G03*
X16234500Y-4126500I-40000J0D01*
G01*
X16234500Y-5650500D02*
G75*
G03*
X16234500Y-5650500I-40000J0D01*
G01*
X16488500Y-4126500D02*
G75*
G03*
X16488500Y-4126500I-40000J0D01*
G01*
X16488500Y-5650500D02*
G75*
G03*
X16488500Y-5650500I-40000J0D01*
G01*
X16742500Y-4126500D02*
G75*
G03*
X16742500Y-4126500I-40000J0D01*
G01*
X16742500Y-5650500D02*
G75*
G03*
X16742500Y-5650500I-40000J0D01*
G01*
X16995500Y-4507500D02*
G75*
G03*
X16995500Y-4507500I-40000J0D01*
G01*
X16995500Y-5269500D02*
G75*
G03*
X16995500Y-5269500I-40000J0D01*
G01*
X16996500Y-4126500D02*
G75*
G03*
X16996500Y-4126500I-40000J0D01*
G01*
X16996500Y-5650500D02*
G75*
G03*
X16996500Y-5650500I-40000J0D01*
G01*
X16996500Y-6353000D02*
G75*
G03*
X16996500Y-6353000I-40000J0D01*
G01*
X16996500Y-7105000D02*
G75*
G03*
X16996500Y-7105000I-40000J0D01*
G01*
X17249500Y-4507500D02*
G75*
G03*
X17249500Y-4507500I-40000J0D01*
G01*
X17249500Y-5269500D02*
G75*
G03*
X17249500Y-5269500I-40000J0D01*
G01*
X17250500Y-4126500D02*
G75*
G03*
X17250500Y-4126500I-40000J0D01*
G01*
X17250500Y-5650500D02*
G75*
G03*
X17250500Y-5650500I-40000J0D01*
G01*
X17250500Y-6353000D02*
G75*
G03*
X17250500Y-6353000I-40000J0D01*
G01*
X17250500Y-7105000D02*
G75*
G03*
X17250500Y-7105000I-40000J0D01*
G01*
X17503500Y-4507500D02*
G75*
G03*
X17503500Y-4507500I-40000J0D01*
G01*
X17503500Y-5269500D02*
G75*
G03*
X17503500Y-5269500I-40000J0D01*
G01*
X17504500Y-4126500D02*
G75*
G03*
X17504500Y-4126500I-40000J0D01*
G01*
X17504500Y-5650500D02*
G75*
G03*
X17504500Y-5650500I-40000J0D01*
G01*
X17504500Y-6353000D02*
G75*
G03*
X17504500Y-6353000I-40000J0D01*
G01*
X17504500Y-7105000D02*
G75*
G03*
X17504500Y-7105000I-40000J0D01*
G01*
X17757500Y-4507500D02*
G75*
G03*
X17757500Y-4507500I-40000J0D01*
G01*
X17757500Y-5269500D02*
G75*
G03*
X17757500Y-5269500I-40000J0D01*
G01*
X17758500Y-4126500D02*
G75*
G03*
X17758500Y-4126500I-40000J0D01*
G01*
X17758500Y-5650500D02*
G75*
G03*
X17758500Y-5650500I-40000J0D01*
G01*
X17758500Y-6353000D02*
G75*
G03*
X17758500Y-6353000I-40000J0D01*
G01*
X17758500Y-7105000D02*
G75*
G03*
X17758500Y-7105000I-40000J0D01*
G01*
X18011500Y-4507500D02*
G75*
G03*
X18011500Y-4507500I-40000J0D01*
G01*
X18011500Y-5269500D02*
G75*
G03*
X18011500Y-5269500I-40000J0D01*
G01*
X18012500Y-4126500D02*
G75*
G03*
X18012500Y-4126500I-40000J0D01*
G01*
X18012500Y-5650500D02*
G75*
G03*
X18012500Y-5650500I-40000J0D01*
G01*
X18012500Y-6353000D02*
G75*
G03*
X18012500Y-6353000I-40000J0D01*
G01*
X18012500Y-7105000D02*
G75*
G03*
X18012500Y-7105000I-40000J0D01*
G01*
X18265500Y-4507500D02*
G75*
G03*
X18265500Y-4507500I-40000J0D01*
G01*
X18265500Y-5269500D02*
G75*
G03*
X18265500Y-5269500I-40000J0D01*
G01*
X18266500Y-4126500D02*
G75*
G03*
X18266500Y-4126500I-40000J0D01*
G01*
X18266500Y-5650500D02*
G75*
G03*
X18266500Y-5650500I-40000J0D01*
G01*
X18266500Y-6353000D02*
G75*
G03*
X18266500Y-6353000I-40000J0D01*
G01*
X18266500Y-7105000D02*
G75*
G03*
X18266500Y-7105000I-40000J0D01*
G01*
X18519500Y-4507500D02*
G75*
G03*
X18519500Y-4507500I-40000J0D01*
G01*
X18519500Y-5269500D02*
G75*
G03*
X18519500Y-5269500I-40000J0D01*
G01*
X18520500Y-4126500D02*
G75*
G03*
X18520500Y-4126500I-40000J0D01*
G01*
X18520500Y-5650500D02*
G75*
G03*
X18520500Y-5650500I-40000J0D01*
G01*
X18520500Y-6353000D02*
G75*
G03*
X18520500Y-6353000I-40000J0D01*
G01*
X18520500Y-7105000D02*
G75*
G03*
X18520500Y-7105000I-40000J0D01*
G01*
X18773500Y-4507500D02*
G75*
G03*
X18773500Y-4507500I-40000J0D01*
G01*
X18773500Y-5269500D02*
G75*
G03*
X18773500Y-5269500I-40000J0D01*
G01*
X18774500Y-4126500D02*
G75*
G03*
X18774500Y-4126500I-40000J0D01*
G01*
X18774500Y-5650500D02*
G75*
G03*
X18774500Y-5650500I-40000J0D01*
G01*
X18838000Y-6858000D02*
G75*
G03*
X18838000Y-6858000I-40000J0D01*
G01*
X18838000Y-7108000D02*
G75*
G03*
X18838000Y-7108000I-40000J0D01*
G01*
X19027500Y-4507500D02*
G75*
G03*
X19027500Y-4507500I-40000J0D01*
G01*
X19027500Y-5269500D02*
G75*
G03*
X19027500Y-5269500I-40000J0D01*
G01*
X19028500Y-4126500D02*
G75*
G03*
X19028500Y-4126500I-40000J0D01*
G01*
X19028500Y-5650500D02*
G75*
G03*
X19028500Y-5650500I-40000J0D01*
G01*
X19282500Y-4126500D02*
G75*
G03*
X19282500Y-4126500I-40000J0D01*
G01*
X19282500Y-5650500D02*
G75*
G03*
X19282500Y-5650500I-40000J0D01*
G01*
X19536500Y-4126500D02*
G75*
G03*
X19536500Y-4126500I-40000J0D01*
G01*
X19536500Y-5650500D02*
G75*
G03*
X19536500Y-5650500I-40000J0D01*
G01*
X19915500Y-4508500D02*
G75*
G03*
X19915500Y-4508500I-40000J0D01*
G01*
X19915500Y-5270500D02*
G75*
G03*
X19915500Y-5270500I-40000J0D01*
G01*
X19919500Y-5586000D02*
G75*
G03*
X19919500Y-5586000I-40000J0D01*
G01*
X20169500Y-4508500D02*
G75*
G03*
X20169500Y-4508500I-40000J0D01*
G01*
X20169500Y-5270500D02*
G75*
G03*
X20169500Y-5270500I-40000J0D01*
G01*
X20169500Y-5586000D02*
G75*
G03*
X20169500Y-5586000I-40000J0D01*
G01*
X20423500Y-4508500D02*
G75*
G03*
X20423500Y-4508500I-40000J0D01*
G01*
X20423500Y-5270500D02*
G75*
G03*
X20423500Y-5270500I-40000J0D01*
G01*
X20425500Y-5781500D02*
G75*
G03*
X20425500Y-5781500I-40000J0D01*
G01*
X20425500Y-6533500D02*
G75*
G03*
X20425500Y-6533500I-40000J0D01*
G01*
X20677500Y-4508500D02*
G75*
G03*
X20677500Y-4508500I-40000J0D01*
G01*
X20677500Y-5270500D02*
G75*
G03*
X20677500Y-5270500I-40000J0D01*
G01*
X20679500Y-5781500D02*
G75*
G03*
X20679500Y-5781500I-40000J0D01*
G01*
X20679500Y-6533500D02*
G75*
G03*
X20679500Y-6533500I-40000J0D01*
G01*
X20931500Y-4508500D02*
G75*
G03*
X20931500Y-4508500I-40000J0D01*
G01*
X20931500Y-5270500D02*
G75*
G03*
X20931500Y-5270500I-40000J0D01*
G01*
X20933500Y-5781500D02*
G75*
G03*
X20933500Y-5781500I-40000J0D01*
G01*
X20933500Y-6533500D02*
G75*
G03*
X20933500Y-6533500I-40000J0D01*
G01*
X21185500Y-4508500D02*
G75*
G03*
X21185500Y-4508500I-40000J0D01*
G01*
X21185500Y-5270500D02*
G75*
G03*
X21185500Y-5270500I-40000J0D01*
G01*
X21187500Y-5781500D02*
G75*
G03*
X21187500Y-5781500I-40000J0D01*
G01*
X21187500Y-6533500D02*
G75*
G03*
X21187500Y-6533500I-40000J0D01*
G01*
X21439500Y-4508500D02*
G75*
G03*
X21439500Y-4508500I-40000J0D01*
G01*
X21439500Y-5270500D02*
G75*
G03*
X21439500Y-5270500I-40000J0D01*
G01*
X21441500Y-5781500D02*
G75*
G03*
X21441500Y-5781500I-40000J0D01*
G01*
X21441500Y-6533500D02*
G75*
G03*
X21441500Y-6533500I-40000J0D01*
G01*
X21693500Y-4508500D02*
G75*
G03*
X21693500Y-4508500I-40000J0D01*
G01*
X21693500Y-5270500D02*
G75*
G03*
X21693500Y-5270500I-40000J0D01*
G01*
X21695500Y-5781500D02*
G75*
G03*
X21695500Y-5781500I-40000J0D01*
G01*
X21695500Y-6533500D02*
G75*
G03*
X21695500Y-6533500I-40000J0D01*
G01*
X21947500Y-4508500D02*
G75*
G03*
X21947500Y-4508500I-40000J0D01*
G01*
X21947500Y-5270500D02*
G75*
G03*
X21947500Y-5270500I-40000J0D01*
G01*
X21949500Y-5781500D02*
G75*
G03*
X21949500Y-5781500I-40000J0D01*
G01*
X21949500Y-6533500D02*
G75*
G03*
X21949500Y-6533500I-40000J0D01*
G01*
D10*
X14607000Y-6933000D02*
X14607000Y-7033000D01*
X14557000Y-6983000D02*
X14657000Y-6983000D01*
X14607000Y-7187000D02*
X14607000Y-7287000D01*
X14557000Y-7237000D02*
X14657000Y-7237000D01*
X15116500Y-6933000D02*
X15116500Y-7033000D01*
X15066500Y-6983000D02*
X15166500Y-6983000D01*
X15116500Y-7187500D02*
X15116500Y-7287500D01*
X15066500Y-7237500D02*
X15166500Y-7237500D01*
X15370500Y-6933000D02*
X15370500Y-7033000D01*
X15320500Y-6983000D02*
X15420500Y-6983000D01*
X15370500Y-7187500D02*
X15370500Y-7287500D01*
X15320500Y-7237500D02*
X15420500Y-7237500D01*
X15624500Y-6933000D02*
X15624500Y-7033000D01*
X15574500Y-6983000D02*
X15674500Y-6983000D01*
X15624500Y-7187500D02*
X15624500Y-7287500D01*
X15574500Y-7237500D02*
X15674500Y-7237500D01*
X15750000Y-5853500D02*
X15750000Y-5953500D01*
X15700000Y-5903500D02*
X15800000Y-5903500D01*
X15750000Y-6107500D02*
X15750000Y-6207500D01*
X15700000Y-6157500D02*
X15800000Y-6157500D01*
X19877500Y-6996500D02*
X19877500Y-7096500D01*
X19827500Y-7046500D02*
X19927500Y-7046500D01*
X20131500Y-6996500D02*
X20131500Y-7096500D01*
X20081500Y-7046500D02*
X20181500Y-7046500D01*
X20385500Y-6996500D02*
X20385500Y-7096500D01*
X20335500Y-7046500D02*
X20435500Y-7046500D01*
X20639500Y-6996500D02*
X20639500Y-7096500D01*
X20589500Y-7046500D02*
X20689500Y-7046500D01*
X20893500Y-6996500D02*
X20893500Y-7096500D01*
X20843500Y-7046500D02*
X20943500Y-7046500D01*
X21147500Y-6996500D02*
X21147500Y-7096500D01*
X21097500Y-7046500D02*
X21197500Y-7046500D01*
X21401500Y-6996500D02*
X21401500Y-7096500D01*
X21351500Y-7046500D02*
X21451500Y-7046500D01*
X21655500Y-6996500D02*
X21655500Y-7096500D01*
X21605500Y-7046500D02*
X21705500Y-7046500D01*
X21909500Y-6996500D02*
X21909500Y-7096500D01*
X21859500Y-7046500D02*
X21959500Y-7046500D01*
D11*
X14478568Y-7869712D02*
X14478568Y-7669712D01*
X14526187Y-7669712D01*
X14554759Y-7679236D01*
X14573806Y-7698283D01*
X14583330Y-7717331D01*
X14592854Y-7755426D01*
X14592854Y-7783997D01*
X14583330Y-7822093D01*
X14573806Y-7841140D01*
X14554759Y-7860188D01*
X14526187Y-7869712D01*
X14478568Y-7869712D01*
X14678568Y-7869712D02*
X14678568Y-7736378D01*
X14678568Y-7774474D02*
X14688092Y-7755426D01*
X14697616Y-7745902D01*
X14716664Y-7736378D01*
X14735711Y-7736378D01*
X14802378Y-7869712D02*
X14802378Y-7736378D01*
X14802378Y-7669712D02*
X14792854Y-7679236D01*
X14802378Y-7688759D01*
X14811902Y-7679236D01*
X14802378Y-7669712D01*
X14802378Y-7688759D01*
X14926187Y-7869712D02*
X14907140Y-7860188D01*
X14897616Y-7841140D01*
X14897616Y-7669712D01*
X15030949Y-7869712D02*
X15011902Y-7860188D01*
X15002378Y-7841140D01*
X15002378Y-7669712D01*
X15259521Y-7869712D02*
X15259521Y-7669712D01*
X15326187Y-7812569D01*
X15392854Y-7669712D01*
X15392854Y-7869712D01*
X15573806Y-7869712D02*
X15573806Y-7764950D01*
X15564283Y-7745902D01*
X15545235Y-7736378D01*
X15507140Y-7736378D01*
X15488092Y-7745902D01*
X15573806Y-7860188D02*
X15554759Y-7869712D01*
X15507140Y-7869712D01*
X15488092Y-7860188D01*
X15478568Y-7841140D01*
X15478568Y-7822093D01*
X15488092Y-7803045D01*
X15507140Y-7793521D01*
X15554759Y-7793521D01*
X15573806Y-7783997D01*
X15669045Y-7736378D02*
X15669045Y-7936378D01*
X15669045Y-7745902D02*
X15688092Y-7736378D01*
X15726187Y-7736378D01*
X15745235Y-7745902D01*
X15754759Y-7755426D01*
X15764283Y-7774474D01*
X15764283Y-7831616D01*
X15754759Y-7850664D01*
X15745235Y-7860188D01*
X15726187Y-7869712D01*
X15688092Y-7869712D01*
X15669045Y-7860188D01*
X15849997Y-7850664D02*
X15859521Y-7860188D01*
X15849997Y-7869712D01*
X15840473Y-7860188D01*
X15849997Y-7850664D01*
X15849997Y-7869712D01*
X15849997Y-7745902D02*
X15859521Y-7755426D01*
X15849997Y-7764950D01*
X15840473Y-7755426D01*
X15849997Y-7745902D01*
X15849997Y-7764950D01*
D12*
X14175229Y-8176376D02*
X14220949Y-8222096D01*
X14220949Y-8176376D02*
X14175229Y-8222096D01*
D11*
X14516664Y-8089712D02*
X14535711Y-8089712D01*
X14554759Y-8099236D01*
X14564283Y-8108759D01*
X14573806Y-8127807D01*
X14583330Y-8165902D01*
X14583330Y-8213521D01*
X14573806Y-8251616D01*
X14564283Y-8270664D01*
X14554759Y-8280188D01*
X14535711Y-8289712D01*
X14516664Y-8289712D01*
X14497616Y-8280188D01*
X14488092Y-8270664D01*
X14478568Y-8251616D01*
X14469045Y-8213521D01*
X14469045Y-8165902D01*
X14478568Y-8127807D01*
X14488092Y-8108759D01*
X14497616Y-8099236D01*
X14516664Y-8089712D01*
X14669045Y-8270664D02*
X14678568Y-8280188D01*
X14669045Y-8289712D01*
X14659521Y-8280188D01*
X14669045Y-8270664D01*
X14669045Y-8289712D01*
X14849997Y-8156378D02*
X14849997Y-8289712D01*
X14802378Y-8080188D02*
X14754759Y-8223045D01*
X14878568Y-8223045D01*
X15049997Y-8089712D02*
X14954759Y-8089712D01*
X14945235Y-8184950D01*
X14954759Y-8175426D01*
X14973806Y-8165902D01*
X15021425Y-8165902D01*
X15040473Y-8175426D01*
X15049997Y-8184950D01*
X15059521Y-8203997D01*
X15059521Y-8251616D01*
X15049997Y-8270664D01*
X15040473Y-8280188D01*
X15021425Y-8289712D01*
X14973806Y-8289712D01*
X14954759Y-8280188D01*
X14945235Y-8270664D01*
X15126187Y-8089712D02*
X15259521Y-8089712D01*
X15173806Y-8289712D01*
X15335711Y-8289712D02*
X15335711Y-8156378D01*
X15335711Y-8175426D02*
X15345235Y-8165902D01*
X15364283Y-8156378D01*
X15392854Y-8156378D01*
X15411902Y-8165902D01*
X15421425Y-8184950D01*
X15421425Y-8289712D01*
X15421425Y-8184950D02*
X15430949Y-8165902D01*
X15449997Y-8156378D01*
X15478568Y-8156378D01*
X15497616Y-8165902D01*
X15507140Y-8184950D01*
X15507140Y-8289712D01*
X15602378Y-8289712D02*
X15602378Y-8156378D01*
X15602378Y-8175426D02*
X15611902Y-8165902D01*
X15630949Y-8156378D01*
X15659521Y-8156378D01*
X15678568Y-8165902D01*
X15688092Y-8184950D01*
X15688092Y-8289712D01*
X15688092Y-8184950D02*
X15697616Y-8165902D01*
X15716664Y-8156378D01*
X15745235Y-8156378D01*
X15764283Y-8165902D01*
X15773806Y-8184950D01*
X15773806Y-8289712D01*
X16164283Y-8080188D02*
X15992854Y-8337331D01*
X16421425Y-8089712D02*
X16440473Y-8089712D01*
X16459521Y-8099236D01*
X16469045Y-8108759D01*
X16478568Y-8127807D01*
X16488092Y-8165902D01*
X16488092Y-8213521D01*
X16478568Y-8251616D01*
X16469045Y-8270664D01*
X16459521Y-8280188D01*
X16440473Y-8289712D01*
X16421425Y-8289712D01*
X16402378Y-8280188D01*
X16392854Y-8270664D01*
X16383330Y-8251616D01*
X16373806Y-8213521D01*
X16373806Y-8165902D01*
X16383330Y-8127807D01*
X16392854Y-8108759D01*
X16402378Y-8099236D01*
X16421425Y-8089712D01*
X16573806Y-8270664D02*
X16583330Y-8280188D01*
X16573806Y-8289712D01*
X16564283Y-8280188D01*
X16573806Y-8270664D01*
X16573806Y-8289712D01*
X16707140Y-8089712D02*
X16726187Y-8089712D01*
X16745235Y-8099236D01*
X16754759Y-8108759D01*
X16764283Y-8127807D01*
X16773806Y-8165902D01*
X16773806Y-8213521D01*
X16764283Y-8251616D01*
X16754759Y-8270664D01*
X16745235Y-8280188D01*
X16726187Y-8289712D01*
X16707140Y-8289712D01*
X16688092Y-8280188D01*
X16678568Y-8270664D01*
X16669045Y-8251616D01*
X16659521Y-8213521D01*
X16659521Y-8165902D01*
X16669045Y-8127807D01*
X16678568Y-8108759D01*
X16688092Y-8099236D01*
X16707140Y-8089712D01*
X16964283Y-8289712D02*
X16849997Y-8289712D01*
X16907140Y-8289712D02*
X16907140Y-8089712D01*
X16888092Y-8118283D01*
X16869045Y-8137331D01*
X16849997Y-8146855D01*
X17078568Y-8175426D02*
X17059521Y-8165902D01*
X17049997Y-8156378D01*
X17040473Y-8137331D01*
X17040473Y-8127807D01*
X17049997Y-8108759D01*
X17059521Y-8099236D01*
X17078568Y-8089712D01*
X17116664Y-8089712D01*
X17135711Y-8099236D01*
X17145235Y-8108759D01*
X17154759Y-8127807D01*
X17154759Y-8137331D01*
X17145235Y-8156378D01*
X17135711Y-8165902D01*
X17116664Y-8175426D01*
X17078568Y-8175426D01*
X17059521Y-8184950D01*
X17049997Y-8194474D01*
X17040473Y-8213521D01*
X17040473Y-8251616D01*
X17049997Y-8270664D01*
X17059521Y-8280188D01*
X17078568Y-8289712D01*
X17116664Y-8289712D01*
X17135711Y-8280188D01*
X17145235Y-8270664D01*
X17154759Y-8251616D01*
X17154759Y-8213521D01*
X17145235Y-8194474D01*
X17135711Y-8184950D01*
X17116664Y-8175426D01*
X17278568Y-8089712D02*
X17297616Y-8089712D01*
X17316664Y-8099236D01*
X17326187Y-8108759D01*
X17335711Y-8127807D01*
X17345235Y-8165902D01*
X17345235Y-8213521D01*
X17335711Y-8251616D01*
X17326187Y-8270664D01*
X17316664Y-8280188D01*
X17297616Y-8289712D01*
X17278568Y-8289712D01*
X17259521Y-8280188D01*
X17249997Y-8270664D01*
X17240473Y-8251616D01*
X17230949Y-8213521D01*
X17230949Y-8165902D01*
X17240473Y-8127807D01*
X17249997Y-8108759D01*
X17259521Y-8099236D01*
X17278568Y-8089712D01*
X17421426Y-8089712D02*
X17421426Y-8127807D01*
X17497616Y-8089712D02*
X17497616Y-8127807D01*
X17792854Y-8365902D02*
X17783330Y-8356378D01*
X17764283Y-8327807D01*
X17754759Y-8308759D01*
X17745235Y-8280188D01*
X17735711Y-8232569D01*
X17735711Y-8194474D01*
X17745235Y-8146855D01*
X17754759Y-8118283D01*
X17764283Y-8099236D01*
X17783330Y-8070664D01*
X17792854Y-8061140D01*
X17973807Y-8289712D02*
X17859521Y-8289712D01*
X17916664Y-8289712D02*
X17916664Y-8089712D01*
X17897616Y-8118283D01*
X17878568Y-8137331D01*
X17859521Y-8146855D01*
X18049997Y-8108759D02*
X18059521Y-8099236D01*
X18078568Y-8089712D01*
X18126187Y-8089712D01*
X18145235Y-8099236D01*
X18154759Y-8108759D01*
X18164283Y-8127807D01*
X18164283Y-8146855D01*
X18154759Y-8175426D01*
X18040473Y-8289712D01*
X18164283Y-8289712D01*
X18402378Y-8289712D02*
X18402378Y-8089712D01*
X18488092Y-8289712D02*
X18488092Y-8184950D01*
X18478568Y-8165902D01*
X18459521Y-8156378D01*
X18430949Y-8156378D01*
X18411902Y-8165902D01*
X18402378Y-8175426D01*
X18611902Y-8289712D02*
X18592854Y-8280188D01*
X18583330Y-8270664D01*
X18573807Y-8251616D01*
X18573807Y-8194474D01*
X18583330Y-8175426D01*
X18592854Y-8165902D01*
X18611902Y-8156378D01*
X18640473Y-8156378D01*
X18659521Y-8165902D01*
X18669045Y-8175426D01*
X18678568Y-8194474D01*
X18678568Y-8251616D01*
X18669045Y-8270664D01*
X18659521Y-8280188D01*
X18640473Y-8289712D01*
X18611902Y-8289712D01*
X18792854Y-8289712D02*
X18773807Y-8280188D01*
X18764283Y-8261140D01*
X18764283Y-8089712D01*
X18945235Y-8280188D02*
X18926187Y-8289712D01*
X18888092Y-8289712D01*
X18869045Y-8280188D01*
X18859521Y-8261140D01*
X18859521Y-8184950D01*
X18869045Y-8165902D01*
X18888092Y-8156378D01*
X18926187Y-8156378D01*
X18945235Y-8165902D01*
X18954759Y-8184950D01*
X18954759Y-8203997D01*
X18859521Y-8223045D01*
X19030949Y-8280188D02*
X19049997Y-8289712D01*
X19088092Y-8289712D01*
X19107140Y-8280188D01*
X19116664Y-8261140D01*
X19116664Y-8251616D01*
X19107140Y-8232569D01*
X19088092Y-8223045D01*
X19059521Y-8223045D01*
X19040473Y-8213521D01*
X19030949Y-8194474D01*
X19030949Y-8184950D01*
X19040473Y-8165902D01*
X19059521Y-8156378D01*
X19088092Y-8156378D01*
X19107140Y-8165902D01*
X19183330Y-8365902D02*
X19192854Y-8356378D01*
X19211902Y-8327807D01*
X19221426Y-8308759D01*
X19230949Y-8280188D01*
X19240473Y-8232569D01*
X19240473Y-8194474D01*
X19230949Y-8146855D01*
X19221426Y-8118283D01*
X19211902Y-8099236D01*
X19192854Y-8070664D01*
X19183330Y-8061140D01*
D13*
X14220949Y-8463236D02*
G75*
G03*
X14220949Y-8463236I-40000J0D01*
G01*
D11*
X14516664Y-8353712D02*
X14535711Y-8353712D01*
X14554759Y-8363236D01*
X14564283Y-8372759D01*
X14573806Y-8391807D01*
X14583330Y-8429902D01*
X14583330Y-8477521D01*
X14573806Y-8515617D01*
X14564283Y-8534664D01*
X14554759Y-8544188D01*
X14535711Y-8553712D01*
X14516664Y-8553712D01*
X14497616Y-8544188D01*
X14488092Y-8534664D01*
X14478568Y-8515617D01*
X14469045Y-8477521D01*
X14469045Y-8429902D01*
X14478568Y-8391807D01*
X14488092Y-8372759D01*
X14497616Y-8363236D01*
X14516664Y-8353712D01*
X14669045Y-8534664D02*
X14678568Y-8544188D01*
X14669045Y-8553712D01*
X14659521Y-8544188D01*
X14669045Y-8534664D01*
X14669045Y-8553712D01*
X14792854Y-8439426D02*
X14773806Y-8429902D01*
X14764283Y-8420378D01*
X14754759Y-8401331D01*
X14754759Y-8391807D01*
X14764283Y-8372759D01*
X14773806Y-8363236D01*
X14792854Y-8353712D01*
X14830949Y-8353712D01*
X14849997Y-8363236D01*
X14859521Y-8372759D01*
X14869045Y-8391807D01*
X14869045Y-8401331D01*
X14859521Y-8420378D01*
X14849997Y-8429902D01*
X14830949Y-8439426D01*
X14792854Y-8439426D01*
X14773806Y-8448950D01*
X14764283Y-8458474D01*
X14754759Y-8477521D01*
X14754759Y-8515617D01*
X14764283Y-8534664D01*
X14773806Y-8544188D01*
X14792854Y-8553712D01*
X14830949Y-8553712D01*
X14849997Y-8544188D01*
X14859521Y-8534664D01*
X14869045Y-8515617D01*
X14869045Y-8477521D01*
X14859521Y-8458474D01*
X14849997Y-8448950D01*
X14830949Y-8439426D01*
X14992854Y-8353712D02*
X15011902Y-8353712D01*
X15030949Y-8363236D01*
X15040473Y-8372759D01*
X15049997Y-8391807D01*
X15059521Y-8429902D01*
X15059521Y-8477521D01*
X15049997Y-8515617D01*
X15040473Y-8534664D01*
X15030949Y-8544188D01*
X15011902Y-8553712D01*
X14992854Y-8553712D01*
X14973806Y-8544188D01*
X14964283Y-8534664D01*
X14954759Y-8515617D01*
X14945235Y-8477521D01*
X14945235Y-8429902D01*
X14954759Y-8391807D01*
X14964283Y-8372759D01*
X14973806Y-8363236D01*
X14992854Y-8353712D01*
X15183330Y-8353712D02*
X15202378Y-8353712D01*
X15221425Y-8363236D01*
X15230949Y-8372759D01*
X15240473Y-8391807D01*
X15249997Y-8429902D01*
X15249997Y-8477521D01*
X15240473Y-8515617D01*
X15230949Y-8534664D01*
X15221425Y-8544188D01*
X15202378Y-8553712D01*
X15183330Y-8553712D01*
X15164283Y-8544188D01*
X15154759Y-8534664D01*
X15145235Y-8515617D01*
X15135711Y-8477521D01*
X15135711Y-8429902D01*
X15145235Y-8391807D01*
X15154759Y-8372759D01*
X15164283Y-8363236D01*
X15183330Y-8353712D01*
X15335711Y-8553712D02*
X15335711Y-8420378D01*
X15335711Y-8439426D02*
X15345235Y-8429902D01*
X15364283Y-8420378D01*
X15392854Y-8420378D01*
X15411902Y-8429902D01*
X15421425Y-8448950D01*
X15421425Y-8553712D01*
X15421425Y-8448950D02*
X15430949Y-8429902D01*
X15449997Y-8420378D01*
X15478568Y-8420378D01*
X15497616Y-8429902D01*
X15507140Y-8448950D01*
X15507140Y-8553712D01*
X15602378Y-8553712D02*
X15602378Y-8420378D01*
X15602378Y-8439426D02*
X15611902Y-8429902D01*
X15630949Y-8420378D01*
X15659521Y-8420378D01*
X15678568Y-8429902D01*
X15688092Y-8448950D01*
X15688092Y-8553712D01*
X15688092Y-8448950D02*
X15697616Y-8429902D01*
X15716664Y-8420378D01*
X15745235Y-8420378D01*
X15764283Y-8429902D01*
X15773806Y-8448950D01*
X15773806Y-8553712D01*
X16164283Y-8344188D02*
X15992854Y-8601331D01*
X16421425Y-8353712D02*
X16440473Y-8353712D01*
X16459521Y-8363236D01*
X16469045Y-8372759D01*
X16478568Y-8391807D01*
X16488092Y-8429902D01*
X16488092Y-8477521D01*
X16478568Y-8515617D01*
X16469045Y-8534664D01*
X16459521Y-8544188D01*
X16440473Y-8553712D01*
X16421425Y-8553712D01*
X16402378Y-8544188D01*
X16392854Y-8534664D01*
X16383330Y-8515617D01*
X16373806Y-8477521D01*
X16373806Y-8429902D01*
X16383330Y-8391807D01*
X16392854Y-8372759D01*
X16402378Y-8363236D01*
X16421425Y-8353712D01*
X16573806Y-8534664D02*
X16583330Y-8544188D01*
X16573806Y-8553712D01*
X16564283Y-8544188D01*
X16573806Y-8534664D01*
X16573806Y-8553712D01*
X16707140Y-8353712D02*
X16726187Y-8353712D01*
X16745235Y-8363236D01*
X16754759Y-8372759D01*
X16764283Y-8391807D01*
X16773806Y-8429902D01*
X16773806Y-8477521D01*
X16764283Y-8515617D01*
X16754759Y-8534664D01*
X16745235Y-8544188D01*
X16726187Y-8553712D01*
X16707140Y-8553712D01*
X16688092Y-8544188D01*
X16678568Y-8534664D01*
X16669045Y-8515617D01*
X16659521Y-8477521D01*
X16659521Y-8429902D01*
X16669045Y-8391807D01*
X16678568Y-8372759D01*
X16688092Y-8363236D01*
X16707140Y-8353712D01*
X16840473Y-8353712D02*
X16964283Y-8353712D01*
X16897616Y-8429902D01*
X16926187Y-8429902D01*
X16945235Y-8439426D01*
X16954759Y-8448950D01*
X16964283Y-8467998D01*
X16964283Y-8515617D01*
X16954759Y-8534664D01*
X16945235Y-8544188D01*
X16926187Y-8553712D01*
X16869045Y-8553712D01*
X16849997Y-8544188D01*
X16840473Y-8534664D01*
X17154759Y-8553712D02*
X17040473Y-8553712D01*
X17097616Y-8553712D02*
X17097616Y-8353712D01*
X17078568Y-8382283D01*
X17059521Y-8401331D01*
X17040473Y-8410855D01*
X17335711Y-8353712D02*
X17240473Y-8353712D01*
X17230949Y-8448950D01*
X17240473Y-8439426D01*
X17259521Y-8429902D01*
X17307140Y-8429902D01*
X17326187Y-8439426D01*
X17335711Y-8448950D01*
X17345235Y-8467998D01*
X17345235Y-8515617D01*
X17335711Y-8534664D01*
X17326187Y-8544188D01*
X17307140Y-8553712D01*
X17259521Y-8553712D01*
X17240473Y-8544188D01*
X17230949Y-8534664D01*
X17421426Y-8353712D02*
X17421426Y-8391807D01*
X17497616Y-8353712D02*
X17497616Y-8391807D01*
X17792854Y-8629902D02*
X17783330Y-8620378D01*
X17764283Y-8591807D01*
X17754759Y-8572759D01*
X17745235Y-8544188D01*
X17735711Y-8496569D01*
X17735711Y-8458474D01*
X17745235Y-8410855D01*
X17754759Y-8382283D01*
X17764283Y-8363236D01*
X17783330Y-8334664D01*
X17792854Y-8325140D01*
X17973807Y-8553712D02*
X17859521Y-8553712D01*
X17916664Y-8553712D02*
X17916664Y-8353712D01*
X17897616Y-8382283D01*
X17878568Y-8401331D01*
X17859521Y-8410855D01*
X18164283Y-8553712D02*
X18049997Y-8553712D01*
X18107140Y-8553712D02*
X18107140Y-8353712D01*
X18088092Y-8382283D01*
X18069045Y-8401331D01*
X18049997Y-8410855D01*
X18278568Y-8439426D02*
X18259521Y-8429902D01*
X18249997Y-8420378D01*
X18240473Y-8401331D01*
X18240473Y-8391807D01*
X18249997Y-8372759D01*
X18259521Y-8363236D01*
X18278568Y-8353712D01*
X18316664Y-8353712D01*
X18335711Y-8363236D01*
X18345235Y-8372759D01*
X18354759Y-8391807D01*
X18354759Y-8401331D01*
X18345235Y-8420378D01*
X18335711Y-8429902D01*
X18316664Y-8439426D01*
X18278568Y-8439426D01*
X18259521Y-8448950D01*
X18249997Y-8458474D01*
X18240473Y-8477521D01*
X18240473Y-8515617D01*
X18249997Y-8534664D01*
X18259521Y-8544188D01*
X18278568Y-8553712D01*
X18316664Y-8553712D01*
X18335711Y-8544188D01*
X18345235Y-8534664D01*
X18354759Y-8515617D01*
X18354759Y-8477521D01*
X18345235Y-8458474D01*
X18335711Y-8448950D01*
X18316664Y-8439426D01*
X18592854Y-8553712D02*
X18592854Y-8353712D01*
X18678568Y-8553712D02*
X18678568Y-8448950D01*
X18669045Y-8429902D01*
X18649997Y-8420378D01*
X18621426Y-8420378D01*
X18602378Y-8429902D01*
X18592854Y-8439426D01*
X18802378Y-8553712D02*
X18783330Y-8544188D01*
X18773807Y-8534664D01*
X18764283Y-8515617D01*
X18764283Y-8458474D01*
X18773807Y-8439426D01*
X18783330Y-8429902D01*
X18802378Y-8420378D01*
X18830949Y-8420378D01*
X18849997Y-8429902D01*
X18859521Y-8439426D01*
X18869045Y-8458474D01*
X18869045Y-8515617D01*
X18859521Y-8534664D01*
X18849997Y-8544188D01*
X18830949Y-8553712D01*
X18802378Y-8553712D01*
X18983330Y-8553712D02*
X18964283Y-8544188D01*
X18954759Y-8525140D01*
X18954759Y-8353712D01*
X19135711Y-8544188D02*
X19116664Y-8553712D01*
X19078568Y-8553712D01*
X19059521Y-8544188D01*
X19049997Y-8525140D01*
X19049997Y-8448950D01*
X19059521Y-8429902D01*
X19078568Y-8420378D01*
X19116664Y-8420378D01*
X19135711Y-8429902D01*
X19145235Y-8448950D01*
X19145235Y-8467998D01*
X19049997Y-8487045D01*
X19221426Y-8544188D02*
X19240473Y-8553712D01*
X19278568Y-8553712D01*
X19297616Y-8544188D01*
X19307140Y-8525140D01*
X19307140Y-8515617D01*
X19297616Y-8496569D01*
X19278568Y-8487045D01*
X19249997Y-8487045D01*
X19230949Y-8477521D01*
X19221426Y-8458474D01*
X19221426Y-8448950D01*
X19230949Y-8429902D01*
X19249997Y-8420378D01*
X19278568Y-8420378D01*
X19297616Y-8429902D01*
X19373807Y-8629902D02*
X19383330Y-8620378D01*
X19402378Y-8591807D01*
X19411902Y-8572759D01*
X19421426Y-8544188D01*
X19430949Y-8496569D01*
X19430949Y-8458474D01*
X19421426Y-8410855D01*
X19411902Y-8382283D01*
X19402378Y-8363236D01*
X19383330Y-8334664D01*
X19373807Y-8325140D01*
D10*
X14170949Y-8677236D02*
X14170949Y-8777236D01*
X14120949Y-8727236D02*
X14220949Y-8727236D01*
D11*
X14583330Y-8817712D02*
X14469045Y-8817712D01*
X14526187Y-8817712D02*
X14526187Y-8617712D01*
X14507140Y-8646283D01*
X14488092Y-8665331D01*
X14469045Y-8674855D01*
X14669045Y-8798664D02*
X14678568Y-8808188D01*
X14669045Y-8817712D01*
X14659521Y-8808188D01*
X14669045Y-8798664D01*
X14669045Y-8817712D01*
X14802378Y-8617712D02*
X14821425Y-8617712D01*
X14840473Y-8627236D01*
X14849997Y-8636759D01*
X14859521Y-8655807D01*
X14869045Y-8693902D01*
X14869045Y-8741521D01*
X14859521Y-8779617D01*
X14849997Y-8798664D01*
X14840473Y-8808188D01*
X14821425Y-8817712D01*
X14802378Y-8817712D01*
X14783330Y-8808188D01*
X14773806Y-8798664D01*
X14764283Y-8779617D01*
X14754759Y-8741521D01*
X14754759Y-8693902D01*
X14764283Y-8655807D01*
X14773806Y-8636759D01*
X14783330Y-8627236D01*
X14802378Y-8617712D01*
X14992854Y-8617712D02*
X15011902Y-8617712D01*
X15030949Y-8627236D01*
X15040473Y-8636759D01*
X15049997Y-8655807D01*
X15059521Y-8693902D01*
X15059521Y-8741521D01*
X15049997Y-8779617D01*
X15040473Y-8798664D01*
X15030949Y-8808188D01*
X15011902Y-8817712D01*
X14992854Y-8817712D01*
X14973806Y-8808188D01*
X14964283Y-8798664D01*
X14954759Y-8779617D01*
X14945235Y-8741521D01*
X14945235Y-8693902D01*
X14954759Y-8655807D01*
X14964283Y-8636759D01*
X14973806Y-8627236D01*
X14992854Y-8617712D01*
X15183330Y-8617712D02*
X15202378Y-8617712D01*
X15221425Y-8627236D01*
X15230949Y-8636759D01*
X15240473Y-8655807D01*
X15249997Y-8693902D01*
X15249997Y-8741521D01*
X15240473Y-8779617D01*
X15230949Y-8798664D01*
X15221425Y-8808188D01*
X15202378Y-8817712D01*
X15183330Y-8817712D01*
X15164283Y-8808188D01*
X15154759Y-8798664D01*
X15145235Y-8779617D01*
X15135711Y-8741521D01*
X15135711Y-8693902D01*
X15145235Y-8655807D01*
X15154759Y-8636759D01*
X15164283Y-8627236D01*
X15183330Y-8617712D01*
X15335711Y-8817712D02*
X15335711Y-8684378D01*
X15335711Y-8703426D02*
X15345235Y-8693902D01*
X15364283Y-8684378D01*
X15392854Y-8684378D01*
X15411902Y-8693902D01*
X15421425Y-8712950D01*
X15421425Y-8817712D01*
X15421425Y-8712950D02*
X15430949Y-8693902D01*
X15449997Y-8684378D01*
X15478568Y-8684378D01*
X15497616Y-8693902D01*
X15507140Y-8712950D01*
X15507140Y-8817712D01*
X15602378Y-8817712D02*
X15602378Y-8684378D01*
X15602378Y-8703426D02*
X15611902Y-8693902D01*
X15630949Y-8684378D01*
X15659521Y-8684378D01*
X15678568Y-8693902D01*
X15688092Y-8712950D01*
X15688092Y-8817712D01*
X15688092Y-8712950D02*
X15697616Y-8693902D01*
X15716664Y-8684378D01*
X15745235Y-8684378D01*
X15764283Y-8693902D01*
X15773806Y-8712950D01*
X15773806Y-8817712D01*
X16164283Y-8608188D02*
X15992854Y-8865331D01*
X16421425Y-8617712D02*
X16440473Y-8617712D01*
X16459521Y-8627236D01*
X16469045Y-8636759D01*
X16478568Y-8655807D01*
X16488092Y-8693902D01*
X16488092Y-8741521D01*
X16478568Y-8779617D01*
X16469045Y-8798664D01*
X16459521Y-8808188D01*
X16440473Y-8817712D01*
X16421425Y-8817712D01*
X16402378Y-8808188D01*
X16392854Y-8798664D01*
X16383330Y-8779617D01*
X16373806Y-8741521D01*
X16373806Y-8693902D01*
X16383330Y-8655807D01*
X16392854Y-8636759D01*
X16402378Y-8627236D01*
X16421425Y-8617712D01*
X16573806Y-8798664D02*
X16583330Y-8808188D01*
X16573806Y-8817712D01*
X16564283Y-8808188D01*
X16573806Y-8798664D01*
X16573806Y-8817712D01*
X16707140Y-8617712D02*
X16726187Y-8617712D01*
X16745235Y-8627236D01*
X16754759Y-8636759D01*
X16764283Y-8655807D01*
X16773806Y-8693902D01*
X16773806Y-8741521D01*
X16764283Y-8779617D01*
X16754759Y-8798664D01*
X16745235Y-8808188D01*
X16726187Y-8817712D01*
X16707140Y-8817712D01*
X16688092Y-8808188D01*
X16678568Y-8798664D01*
X16669045Y-8779617D01*
X16659521Y-8741521D01*
X16659521Y-8693902D01*
X16669045Y-8655807D01*
X16678568Y-8636759D01*
X16688092Y-8627236D01*
X16707140Y-8617712D01*
X16840473Y-8617712D02*
X16964283Y-8617712D01*
X16897616Y-8693902D01*
X16926187Y-8693902D01*
X16945235Y-8703426D01*
X16954759Y-8712950D01*
X16964283Y-8731998D01*
X16964283Y-8779617D01*
X16954759Y-8798664D01*
X16945235Y-8808188D01*
X16926187Y-8817712D01*
X16869045Y-8817712D01*
X16849997Y-8808188D01*
X16840473Y-8798664D01*
X17059521Y-8817712D02*
X17097616Y-8817712D01*
X17116664Y-8808188D01*
X17126187Y-8798664D01*
X17145235Y-8770093D01*
X17154759Y-8731998D01*
X17154759Y-8655807D01*
X17145235Y-8636759D01*
X17135711Y-8627236D01*
X17116664Y-8617712D01*
X17078568Y-8617712D01*
X17059521Y-8627236D01*
X17049997Y-8636759D01*
X17040473Y-8655807D01*
X17040473Y-8703426D01*
X17049997Y-8722474D01*
X17059521Y-8731998D01*
X17078568Y-8741521D01*
X17116664Y-8741521D01*
X17135711Y-8731998D01*
X17145235Y-8722474D01*
X17154759Y-8703426D01*
X17326187Y-8684378D02*
X17326187Y-8817712D01*
X17278568Y-8608188D02*
X17230949Y-8751045D01*
X17354759Y-8751045D01*
X17421426Y-8617712D02*
X17421426Y-8655807D01*
X17497616Y-8617712D02*
X17497616Y-8655807D01*
X17792854Y-8893902D02*
X17783330Y-8884378D01*
X17764283Y-8855807D01*
X17754759Y-8836759D01*
X17745235Y-8808188D01*
X17735711Y-8760569D01*
X17735711Y-8722474D01*
X17745235Y-8674855D01*
X17754759Y-8646283D01*
X17764283Y-8627236D01*
X17783330Y-8598664D01*
X17792854Y-8589140D01*
X17973807Y-8817712D02*
X17859521Y-8817712D01*
X17916664Y-8817712D02*
X17916664Y-8617712D01*
X17897616Y-8646283D01*
X17878568Y-8665331D01*
X17859521Y-8674855D01*
X18069045Y-8817712D02*
X18107140Y-8817712D01*
X18126187Y-8808188D01*
X18135711Y-8798664D01*
X18154759Y-8770093D01*
X18164283Y-8731998D01*
X18164283Y-8655807D01*
X18154759Y-8636759D01*
X18145235Y-8627236D01*
X18126187Y-8617712D01*
X18088092Y-8617712D01*
X18069045Y-8627236D01*
X18059521Y-8636759D01*
X18049997Y-8655807D01*
X18049997Y-8703426D01*
X18059521Y-8722474D01*
X18069045Y-8731998D01*
X18088092Y-8741521D01*
X18126187Y-8741521D01*
X18145235Y-8731998D01*
X18154759Y-8722474D01*
X18164283Y-8703426D01*
X18402378Y-8817712D02*
X18402378Y-8617712D01*
X18488092Y-8817712D02*
X18488092Y-8712950D01*
X18478568Y-8693902D01*
X18459521Y-8684378D01*
X18430949Y-8684378D01*
X18411902Y-8693902D01*
X18402378Y-8703426D01*
X18611902Y-8817712D02*
X18592854Y-8808188D01*
X18583330Y-8798664D01*
X18573807Y-8779617D01*
X18573807Y-8722474D01*
X18583330Y-8703426D01*
X18592854Y-8693902D01*
X18611902Y-8684378D01*
X18640473Y-8684378D01*
X18659521Y-8693902D01*
X18669045Y-8703426D01*
X18678568Y-8722474D01*
X18678568Y-8779617D01*
X18669045Y-8798664D01*
X18659521Y-8808188D01*
X18640473Y-8817712D01*
X18611902Y-8817712D01*
X18792854Y-8817712D02*
X18773807Y-8808188D01*
X18764283Y-8789140D01*
X18764283Y-8617712D01*
X18945235Y-8808188D02*
X18926187Y-8817712D01*
X18888092Y-8817712D01*
X18869045Y-8808188D01*
X18859521Y-8789140D01*
X18859521Y-8712950D01*
X18869045Y-8693902D01*
X18888092Y-8684378D01*
X18926187Y-8684378D01*
X18945235Y-8693902D01*
X18954759Y-8712950D01*
X18954759Y-8731998D01*
X18859521Y-8751045D01*
X19030949Y-8808188D02*
X19049997Y-8817712D01*
X19088092Y-8817712D01*
X19107140Y-8808188D01*
X19116664Y-8789140D01*
X19116664Y-8779617D01*
X19107140Y-8760569D01*
X19088092Y-8751045D01*
X19059521Y-8751045D01*
X19040473Y-8741521D01*
X19030949Y-8722474D01*
X19030949Y-8712950D01*
X19040473Y-8693902D01*
X19059521Y-8684378D01*
X19088092Y-8684378D01*
X19107140Y-8693902D01*
X19183330Y-8893902D02*
X19192854Y-8884378D01*
X19211902Y-8855807D01*
X19221426Y-8836759D01*
X19230949Y-8808188D01*
X19240473Y-8760569D01*
X19240473Y-8722474D01*
X19230949Y-8674855D01*
X19221426Y-8646283D01*
X19211902Y-8627236D01*
X19192854Y-8598664D01*
X19183330Y-8589140D01*
M02*
