%TF.GenerationSoftware,KiCad,Pcbnew,(6.0.11)*%
%TF.CreationDate,2023-02-07T02:55:36-07:00*%
%TF.ProjectId,FennecRAMadapt,46656e6e-6563-4524-914d-61646170742e,rev?*%
%TF.SameCoordinates,Original*%
%TF.FileFunction,Drillmap*%
%TF.FilePolarity,Positive*%
%FSLAX45Y45*%
G04 Gerber Fmt 4.5, Leading zero omitted, Abs format (unit mm)*
G04 Created by KiCad (PCBNEW (6.0.11)) date 2023-02-07 02:55:36*
%MOMM*%
%LPD*%
G01*
G04 APERTURE LIST*
%ADD10C,0.100000*%
%ADD11C,0.200000*%
G04 APERTURE END LIST*
D10*
X22737439Y-4352295D02*
X22734736Y-7338336D01*
X14276800Y-4533597D02*
X14295289Y-4512289D01*
X14276799Y-4533597D02*
G75*
G03*
X14226000Y-4668301I141501J-130293D01*
G01*
X14429200Y-4189000D02*
X14429200Y-4023900D01*
X14226264Y-7338336D02*
G75*
G03*
X14442164Y-7554236I215896J-4D01*
G01*
X22518836Y-7554236D02*
X14442164Y-7554236D01*
X14295289Y-4512289D02*
G75*
G03*
X14429200Y-4189000I-323289J323289D01*
G01*
X22737442Y-4352295D02*
G75*
G03*
X22099899Y-3717295I-611912J23185D01*
G01*
X14746700Y-3706400D02*
G75*
G03*
X14429200Y-4023900I0J-317500D01*
G01*
X22518836Y-7554236D02*
G75*
G03*
X22734736Y-7338336I4J215896D01*
G01*
X22099899Y-3717295D02*
X14746700Y-3706400D01*
X14226264Y-7338336D02*
X14226000Y-4668301D01*
D11*
X14478568Y-7869712D02*
X14478568Y-7669712D01*
X14526187Y-7669712D01*
X14554759Y-7679236D01*
X14573806Y-7698283D01*
X14583330Y-7717331D01*
X14592854Y-7755426D01*
X14592854Y-7783997D01*
X14583330Y-7822093D01*
X14573806Y-7841140D01*
X14554759Y-7860188D01*
X14526187Y-7869712D01*
X14478568Y-7869712D01*
X14678568Y-7869712D02*
X14678568Y-7736378D01*
X14678568Y-7774474D02*
X14688092Y-7755426D01*
X14697616Y-7745902D01*
X14716664Y-7736378D01*
X14735711Y-7736378D01*
X14802378Y-7869712D02*
X14802378Y-7736378D01*
X14802378Y-7669712D02*
X14792854Y-7679236D01*
X14802378Y-7688759D01*
X14811902Y-7679236D01*
X14802378Y-7669712D01*
X14802378Y-7688759D01*
X14926187Y-7869712D02*
X14907140Y-7860188D01*
X14897616Y-7841140D01*
X14897616Y-7669712D01*
X15030949Y-7869712D02*
X15011902Y-7860188D01*
X15002378Y-7841140D01*
X15002378Y-7669712D01*
X15259521Y-7869712D02*
X15259521Y-7669712D01*
X15326187Y-7812569D01*
X15392854Y-7669712D01*
X15392854Y-7869712D01*
X15573806Y-7869712D02*
X15573806Y-7764950D01*
X15564283Y-7745902D01*
X15545235Y-7736378D01*
X15507140Y-7736378D01*
X15488092Y-7745902D01*
X15573806Y-7860188D02*
X15554759Y-7869712D01*
X15507140Y-7869712D01*
X15488092Y-7860188D01*
X15478568Y-7841140D01*
X15478568Y-7822093D01*
X15488092Y-7803045D01*
X15507140Y-7793521D01*
X15554759Y-7793521D01*
X15573806Y-7783997D01*
X15669045Y-7736378D02*
X15669045Y-7936378D01*
X15669045Y-7745902D02*
X15688092Y-7736378D01*
X15726187Y-7736378D01*
X15745235Y-7745902D01*
X15754759Y-7755426D01*
X15764283Y-7774474D01*
X15764283Y-7831616D01*
X15754759Y-7850664D01*
X15745235Y-7860188D01*
X15726187Y-7869712D01*
X15688092Y-7869712D01*
X15669045Y-7860188D01*
X15849997Y-7850664D02*
X15859521Y-7860188D01*
X15849997Y-7869712D01*
X15840473Y-7860188D01*
X15849997Y-7850664D01*
X15849997Y-7869712D01*
X15849997Y-7745902D02*
X15859521Y-7755426D01*
X15849997Y-7764950D01*
X15840473Y-7755426D01*
X15849997Y-7745902D01*
X15849997Y-7764950D01*
M02*
