%TF.GenerationSoftware,KiCad,Pcbnew,(6.0.11)*%
%TF.CreationDate,2023-02-07T02:55:14-07:00*%
%TF.ProjectId,FennecRAMadapt,46656e6e-6563-4524-914d-61646170742e,rev?*%
%TF.SameCoordinates,Original*%
%TF.FileFunction,Copper,L2,Bot*%
%TF.FilePolarity,Positive*%
%FSLAX46Y46*%
G04 Gerber Fmt 4.6, Leading zero omitted, Abs format (unit mm)*
G04 Created by KiCad (PCBNEW (6.0.11)) date 2023-02-07 02:55:14*
%MOMM*%
%LPD*%
G01*
G04 APERTURE LIST*
%TA.AperFunction,ComponentPad*%
%ADD10R,1.700000X1.700000*%
%TD*%
%TA.AperFunction,ComponentPad*%
%ADD11O,1.700000X1.700000*%
%TD*%
%TA.AperFunction,ComponentPad*%
%ADD12C,1.600000*%
%TD*%
%TA.AperFunction,ComponentPad*%
%ADD13O,1.270000X2.500000*%
%TD*%
%TA.AperFunction,ComponentPad*%
%ADD14R,1.270000X2.500000*%
%TD*%
%TA.AperFunction,ComponentPad*%
%ADD15R,1.600000X2.400000*%
%TD*%
%TA.AperFunction,ComponentPad*%
%ADD16O,1.600000X2.400000*%
%TD*%
%TA.AperFunction,ComponentPad*%
%ADD17O,1.600000X1.600000*%
%TD*%
%TA.AperFunction,ComponentPad*%
%ADD18R,2.540000X1.270000*%
%TD*%
%TA.AperFunction,ComponentPad*%
%ADD19O,2.540000X1.270000*%
%TD*%
%TA.AperFunction,ViaPad*%
%ADD20C,1.016000*%
%TD*%
%TA.AperFunction,Conductor*%
%ADD21C,0.508000*%
%TD*%
%TA.AperFunction,Conductor*%
%ADD22C,1.524000*%
%TD*%
%TA.AperFunction,Conductor*%
%ADD23C,1.270000*%
%TD*%
%TA.AperFunction,Conductor*%
%ADD24C,0.635000*%
%TD*%
G04 APERTURE END LIST*
D10*
X151165000Y-69830000D03*
D11*
X153705000Y-69830000D03*
X156245000Y-69830000D03*
D12*
X201295000Y-55860000D03*
X198795000Y-55860000D03*
D10*
X157500000Y-61575000D03*
D11*
X157500000Y-59035000D03*
D13*
X169565000Y-63530000D03*
X172105000Y-63530000D03*
X174645000Y-63530000D03*
X177185000Y-63530000D03*
X179725000Y-63530000D03*
X182265000Y-63530000D03*
X184805000Y-63530000D03*
X184805000Y-71050000D03*
X182265000Y-71050000D03*
X179725000Y-71050000D03*
X177185000Y-71050000D03*
X174645000Y-71050000D03*
X172105000Y-71050000D03*
D14*
X169565000Y-71050000D03*
X203855000Y-65335000D03*
D13*
X206395000Y-65335000D03*
X208935000Y-65335000D03*
X211475000Y-65335000D03*
X214015000Y-65335000D03*
X216555000Y-65335000D03*
X219095000Y-65335000D03*
X219095000Y-57815000D03*
X216555000Y-57815000D03*
X214015000Y-57815000D03*
X211475000Y-57815000D03*
X208935000Y-57815000D03*
X206395000Y-57815000D03*
X203855000Y-57815000D03*
D15*
X161945000Y-56505000D03*
D16*
X164485000Y-56505000D03*
X167025000Y-56505000D03*
X169565000Y-56505000D03*
X172105000Y-56505000D03*
X174645000Y-56505000D03*
X177185000Y-56505000D03*
X179725000Y-56505000D03*
X182265000Y-56505000D03*
X184805000Y-56505000D03*
X187345000Y-56505000D03*
X189885000Y-56505000D03*
X192425000Y-56505000D03*
X194965000Y-56505000D03*
X194965000Y-41265000D03*
X192425000Y-41265000D03*
X189885000Y-41265000D03*
X187345000Y-41265000D03*
X184805000Y-41265000D03*
X182265000Y-41265000D03*
X179725000Y-41265000D03*
X177185000Y-41265000D03*
X174645000Y-41265000D03*
X172105000Y-41265000D03*
X169565000Y-41265000D03*
X167025000Y-41265000D03*
X164485000Y-41265000D03*
X161945000Y-41265000D03*
D12*
X149880000Y-45065000D03*
D17*
X149880000Y-55225000D03*
D10*
X198775000Y-70465000D03*
D11*
X201315000Y-70465000D03*
X203855000Y-70465000D03*
X206395000Y-70465000D03*
X208935000Y-70465000D03*
X211475000Y-70465000D03*
X214015000Y-70465000D03*
X216555000Y-70465000D03*
X219095000Y-70465000D03*
X156245000Y-72375000D03*
X153705000Y-72375000D03*
D10*
X151165000Y-72375000D03*
D12*
X158135000Y-45085000D03*
X158135000Y-47585000D03*
D10*
X146070000Y-69830000D03*
D11*
X146070000Y-72370000D03*
D15*
X169555000Y-52695000D03*
D16*
X172095000Y-52695000D03*
X174635000Y-52695000D03*
X177175000Y-52695000D03*
X179715000Y-52695000D03*
X182255000Y-52695000D03*
X184795000Y-52695000D03*
X187335000Y-52695000D03*
X189875000Y-52695000D03*
X189875000Y-45075000D03*
X187335000Y-45075000D03*
X184795000Y-45075000D03*
X182255000Y-45075000D03*
X179715000Y-45075000D03*
X177175000Y-45075000D03*
X174635000Y-45075000D03*
X172095000Y-45075000D03*
X169555000Y-45075000D03*
D15*
X198755000Y-52705000D03*
D16*
X201295000Y-52705000D03*
X203835000Y-52705000D03*
X206375000Y-52705000D03*
X208915000Y-52705000D03*
X211455000Y-52705000D03*
X213995000Y-52705000D03*
X216535000Y-52705000D03*
X219075000Y-52705000D03*
X219075000Y-45085000D03*
X216535000Y-45085000D03*
X213995000Y-45085000D03*
X211455000Y-45085000D03*
X208915000Y-45085000D03*
X206375000Y-45085000D03*
X203835000Y-45085000D03*
X201295000Y-45085000D03*
X198755000Y-45085000D03*
D18*
X146110000Y-45075000D03*
D19*
X146110000Y-47615000D03*
X146110000Y-50155000D03*
X146110000Y-52695000D03*
X146110000Y-55235000D03*
X146110000Y-57775000D03*
X146110000Y-60315000D03*
X146110000Y-62855000D03*
X153630000Y-62855000D03*
X153630000Y-60315000D03*
X153630000Y-57775000D03*
X153630000Y-55235000D03*
X153630000Y-52695000D03*
X153630000Y-50155000D03*
X153630000Y-47615000D03*
X153630000Y-45075000D03*
D12*
X187980000Y-68580000D03*
X187980000Y-71080000D03*
X148610000Y-41255000D03*
D17*
X158770000Y-41255000D03*
D20*
X224810000Y-55225000D03*
X197505000Y-64750000D03*
X165755000Y-68560000D03*
X156230000Y-65385000D03*
X184805000Y-66020000D03*
X163215000Y-53955000D03*
X173375000Y-65385000D03*
X172105000Y-66655000D03*
X166390000Y-60305000D03*
X167660000Y-61575000D03*
X161945000Y-61575000D03*
X168295000Y-60305000D03*
D21*
X208935000Y-56103464D02*
X208934997Y-56039935D01*
X208935000Y-56495000D02*
X208935000Y-56135920D01*
X210205000Y-55225000D02*
X209845920Y-55225000D01*
X207665000Y-55225000D02*
X208119999Y-55225000D01*
X208935000Y-56495000D02*
X208935000Y-56103464D01*
X177185000Y-65119368D02*
X177184996Y-65229558D01*
X178430000Y-66020000D02*
X177975411Y-66020000D01*
X177185000Y-64775000D02*
X177185000Y-65119368D01*
X177185000Y-64775000D02*
X177185000Y-65168904D01*
X175940000Y-66020000D02*
X176333912Y-66020000D01*
D22*
X224810000Y-52168779D02*
G75*
G03*
X220246221Y-47605000I-4563800J-21D01*
G01*
X200035039Y-47605000D02*
X220246221Y-47605000D01*
X224810000Y-52168779D02*
X224810000Y-55225000D01*
D21*
X201875048Y-60304979D02*
G75*
G02*
X203220000Y-60622501I-48J-3007421D01*
G01*
X204564951Y-60940021D02*
G75*
G02*
X203220000Y-60622499I49J3007421D01*
G01*
X214555001Y-60940000D02*
G75*
G02*
X216555000Y-62939998I-1J-2000000D01*
G01*
X201632500Y-62210000D02*
G75*
G02*
X201315000Y-61892500I0J317500D01*
G01*
X200997500Y-61575000D02*
G75*
G02*
X201315000Y-61892500I0J-317500D01*
G01*
X207372500Y-62210000D02*
G75*
G02*
X208935000Y-63772500I0J-1562500D01*
G01*
X204564951Y-59670021D02*
G75*
G02*
X203220000Y-59352499I49J3007421D01*
G01*
X156865016Y-58082489D02*
G75*
G02*
X156230000Y-55985237I3145884J2097289D01*
G01*
X201875048Y-59034979D02*
G75*
G02*
X203220000Y-59352501I-48J-3007421D01*
G01*
X166390000Y-59670000D02*
G75*
G02*
X167025000Y-59035000I635000J0D01*
G01*
X156229975Y-43944903D02*
G75*
G02*
X157500000Y-41890001I2297425J3D01*
G01*
X213087500Y-59670000D02*
G75*
G03*
X214015000Y-58742500I0J927500D01*
G01*
X154700529Y-68826567D02*
G75*
G02*
X156865000Y-67925000I2164471J-2147433D01*
G01*
X160134998Y-73005000D02*
G75*
G02*
X158135000Y-71005001I2J2000000D01*
G01*
X192425000Y-73005000D02*
G75*
G03*
X194330000Y-71100000I0J1905000D01*
G01*
X195917501Y-67925002D02*
G75*
G02*
X199495441Y-66241239I5306899J-6633598D01*
G01*
X194330003Y-71100000D02*
G75*
G02*
X195817555Y-68004955I3963597J0D01*
G01*
X156865000Y-67925000D02*
G75*
G02*
X158135000Y-69195000I0J-1270000D01*
G01*
X156934972Y-74275033D02*
G75*
G02*
X154650000Y-73325000I28J3222933D01*
G01*
X193600001Y-74275000D02*
G75*
G03*
X195600000Y-72275001I-1J2000000D01*
G01*
X196870000Y-68877500D02*
G75*
G02*
X199727500Y-67925000I2857500J-3810000D01*
G01*
X210180000Y-67925000D02*
G75*
G03*
X211475000Y-66630000I0J1295000D01*
G01*
X195600000Y-71417500D02*
G75*
G02*
X196870000Y-68877500I3175000J0D01*
G01*
X192425000Y-40620000D02*
G75*
G02*
X193695000Y-39350000I1270000J0D01*
G01*
X206936447Y-39349958D02*
G75*
G02*
X208928030Y-41348540I-47J-1991642D01*
G01*
X189885000Y-39985000D02*
G75*
G02*
X191790000Y-38080000I1905000J0D01*
G01*
X209476184Y-38079999D02*
G75*
G02*
X211469293Y-40078806I16J-1993101D01*
G01*
X194017500Y-43160000D02*
G75*
G03*
X194965000Y-42212500I0J947500D01*
G01*
X187340013Y-44117500D02*
G75*
G02*
X188302513Y-43160000I962487J-5000D01*
G01*
X145529998Y-66655000D02*
G75*
G02*
X143530000Y-64655001I2J2000000D01*
G01*
X143529991Y-56515009D02*
G75*
G02*
X144820000Y-55230001I1285009J9D01*
G01*
X165214998Y-65385000D02*
G75*
G02*
X163215000Y-63385001I2J2000000D01*
G01*
D23*
X147335158Y-65385055D02*
G75*
G02*
X146090001Y-64120000I42J1245355D01*
G01*
D21*
X175890000Y-66020000D02*
G75*
G02*
X174645000Y-64775000I0J1245000D01*
G01*
D23*
X159087500Y-50145000D02*
G75*
G02*
X160040000Y-51097500I0J-952500D01*
G01*
X160040000Y-51097500D02*
G75*
G02*
X160992500Y-50145000I952500J0D01*
G01*
X159087500Y-50145000D02*
G75*
G02*
X158135000Y-49192500I0J952500D01*
G01*
D21*
X208119999Y-55225003D02*
G75*
G02*
X208934997Y-56039935I1J-814997D01*
G01*
X208935000Y-56135920D02*
G75*
G02*
X209845920Y-55225000I910900J20D01*
G01*
D23*
X221634941Y-64114753D02*
G75*
G02*
X220365000Y-65360000I-1245441J-47D01*
G01*
D21*
X206395000Y-56495000D02*
G75*
G02*
X207665000Y-55225000I1270000J0D01*
G01*
X217834960Y-55224939D02*
G75*
G03*
X219085000Y-53965000I40J1250039D01*
G01*
D23*
X188609990Y-50144991D02*
G75*
G02*
X189879999Y-51420000I10J-1270009D01*
G01*
X189880010Y-51420000D02*
G75*
G02*
X191160009Y-50145000I1279990J-5000D01*
G01*
D21*
X177185000Y-65168904D02*
G75*
G02*
X176333912Y-66020000I-851100J4D01*
G01*
X177975411Y-66020004D02*
G75*
G02*
X177184996Y-65229558I-11J790404D01*
G01*
D23*
X192621859Y-50145046D02*
G75*
G02*
X194965000Y-52144998I159041J-2186254D01*
G01*
X194965000Y-52144998D02*
G75*
G02*
X196964998Y-50145000I2000000J-2D01*
G01*
X158135000Y-65385000D02*
G75*
G03*
X160040000Y-63480000I0J1905000D01*
G01*
X217825000Y-50144984D02*
G75*
G02*
X219085077Y-51414961I0J-1260116D01*
G01*
X219085039Y-51414961D02*
G75*
G02*
X220365000Y-50145000I1279961J-10039D01*
G01*
X220365000Y-50145000D02*
G75*
G02*
X221635000Y-51414993I0J-1270000D01*
G01*
X159087500Y-50145000D02*
X160992500Y-50145000D01*
D21*
X207665000Y-55225000D02*
X210205000Y-55225000D01*
D23*
X188609990Y-50145000D02*
X191160009Y-50145000D01*
D21*
X178430000Y-66020000D02*
X175940000Y-66020000D01*
D23*
X192621856Y-50145000D02*
X196964998Y-50145000D01*
X217825000Y-50145000D02*
X220365000Y-50145000D01*
D22*
X198765061Y-46345000D02*
G75*
G02*
X197514960Y-47605000I-1250061J-9900D01*
G01*
D23*
X200035039Y-47604940D02*
G75*
G02*
X198765000Y-46345000I-39J1270040D01*
G01*
D21*
X149879998Y-44112500D02*
G75*
G03*
X149351647Y-42367473I-3145898J0D01*
G01*
D23*
X161944955Y-43477500D02*
G75*
G02*
X160357521Y-45073333I-1595855J0D01*
G01*
X160357521Y-45073333D02*
G75*
G02*
X163532498Y-45067086I2539079J-483610767D01*
G01*
X163532498Y-45067099D02*
G75*
G02*
X161945000Y-43477500I2102J1589599D01*
G01*
X190202500Y-68569991D02*
G75*
G03*
X194203017Y-67226486I-30200J6717791D01*
G01*
D22*
X170830009Y-47605009D02*
G75*
G02*
X169560001Y-46340000I-9J1270009D01*
G01*
X200035039Y-47605000D02*
X197514960Y-47605000D01*
D23*
X171469998Y-68562068D02*
X167660000Y-68560000D01*
X161945000Y-43477500D02*
X161945000Y-41890000D01*
D22*
X169555000Y-45075000D02*
X169560000Y-46340000D01*
D23*
X197505000Y-64750000D02*
X194203017Y-67226486D01*
X169555000Y-45075000D02*
X163532498Y-45067086D01*
D22*
X197514960Y-47605000D02*
X170830009Y-47605000D01*
D23*
X160357521Y-45073333D02*
X158135000Y-45085000D01*
X198765000Y-46345000D02*
X198755000Y-45085000D01*
X187980000Y-68580000D02*
X171469998Y-68562068D01*
X187980000Y-68580000D02*
X190202500Y-68570000D01*
D21*
X149880000Y-44112500D02*
X149880000Y-45065000D01*
X149351648Y-42367472D02*
X148610000Y-41255000D01*
D23*
X167660000Y-68560000D02*
X165755000Y-68560000D01*
X221635000Y-64114753D02*
X221635000Y-51414993D01*
D21*
X177185000Y-64775000D02*
X177185000Y-63530000D01*
D23*
X189880000Y-51420000D02*
X189875000Y-52695000D01*
D21*
X208935000Y-56495000D02*
X208935000Y-57815000D01*
X174645000Y-64775000D02*
X174645000Y-63530000D01*
X184805000Y-66020000D02*
X178430000Y-66020000D01*
D23*
X146090000Y-64120000D02*
X146110000Y-62855000D01*
D21*
X219075000Y-52705000D02*
X219085000Y-53965000D01*
D23*
X158135000Y-49192500D02*
X158135000Y-47585000D01*
X196964998Y-50145000D02*
X217825000Y-50145000D01*
D21*
X175890000Y-66020000D02*
X175940000Y-66020000D01*
D23*
X220365000Y-65360000D02*
X219095000Y-65335000D01*
X191160009Y-50145000D02*
X192621856Y-50145000D01*
D21*
X210205000Y-55225000D02*
X217834960Y-55225000D01*
D23*
X194965000Y-56505000D02*
X194965000Y-52144998D01*
X194965000Y-56505000D02*
X198795000Y-55860000D01*
D21*
X206395000Y-56495000D02*
X206395000Y-57815000D01*
D23*
X219075000Y-52705000D02*
X219085078Y-51414961D01*
X147335158Y-65385000D02*
X156230000Y-65385000D01*
X158135000Y-65385000D02*
X156230000Y-65385000D01*
X160992500Y-50145000D02*
X188609990Y-50145000D01*
X160040000Y-51097500D02*
X160040000Y-63480000D01*
D21*
X163215000Y-63385001D02*
X163215000Y-53955000D01*
X165214998Y-65385000D02*
X173375000Y-65385000D01*
X145529998Y-66655000D02*
X172105000Y-66655000D01*
X143530000Y-64655001D02*
X143530000Y-56515009D01*
X144820000Y-55230000D02*
X146110000Y-55235000D01*
D24*
X153630000Y-47615000D02*
X153630000Y-62855000D01*
D21*
X146070000Y-69830000D02*
X151165000Y-69830000D01*
X146070000Y-72370000D02*
X151165000Y-72375000D01*
X187340000Y-44117500D02*
X187335000Y-45075000D01*
X194017500Y-43160000D02*
X188302513Y-43160000D01*
X194965000Y-42212500D02*
X194965000Y-41265000D01*
X211469293Y-40078806D02*
X211455000Y-45085000D01*
X189885000Y-39985000D02*
X189885000Y-41890000D01*
X191790000Y-38080000D02*
X209476184Y-38080000D01*
X193695000Y-39350000D02*
X206936447Y-39350000D01*
X208928030Y-41348540D02*
X208915000Y-45085000D01*
X192425000Y-40620000D02*
X192425000Y-41890000D01*
X154650000Y-73325000D02*
X153705000Y-72375000D01*
X211475000Y-65335000D02*
X211475000Y-66630000D01*
X199727500Y-67925000D02*
X210180000Y-67925000D01*
X211475000Y-65335000D02*
X214015000Y-65335000D01*
X156934972Y-74275000D02*
X193600001Y-74275000D01*
X195600000Y-72275001D02*
X195600000Y-71417500D01*
X199495441Y-66241238D02*
X203855000Y-65335000D01*
X158135000Y-71005001D02*
X158135000Y-69195000D01*
X160134998Y-73005000D02*
X192425000Y-73005000D01*
X195917499Y-67924999D02*
X195817555Y-68004955D01*
X154700530Y-68826568D02*
X153705000Y-69830000D01*
X203855000Y-65335000D02*
X206395000Y-65335000D01*
X156865000Y-58082500D02*
X157500000Y-59035000D01*
X204564951Y-59670000D02*
X213087500Y-59670000D01*
X166390000Y-59670000D02*
X166390000Y-60305000D01*
X156230000Y-55985237D02*
X156230000Y-43944903D01*
X214015000Y-58742500D02*
X214015000Y-57815000D01*
X201875048Y-59035000D02*
X167025000Y-59035000D01*
X157500000Y-41890000D02*
X158770000Y-41255000D01*
X208935000Y-63772500D02*
X208935000Y-65335000D01*
X200997500Y-61575000D02*
X167660000Y-61575000D01*
X161945000Y-61575000D02*
X161945000Y-56505000D01*
X201632500Y-62210000D02*
X207372500Y-62210000D01*
X168295000Y-60305000D02*
X201875048Y-60305000D01*
X216555000Y-62939998D02*
X216555000Y-65335000D01*
X204564951Y-60940000D02*
X214555001Y-60940000D01*
X172105000Y-71050000D02*
X174645000Y-71050000D01*
%TA.AperFunction,Conductor*%
G36*
X173375847Y-64880395D02*
G01*
X173378383Y-64883766D01*
X173626384Y-65379768D01*
X173627019Y-65388700D01*
X173626384Y-65390232D01*
X173378383Y-65886234D01*
X173371618Y-65892102D01*
X173367443Y-65892692D01*
X173201183Y-65885910D01*
X173200100Y-65885816D01*
X173140873Y-65877778D01*
X173058964Y-65866663D01*
X173057799Y-65866444D01*
X172940720Y-65838259D01*
X172939709Y-65837967D01*
X172838391Y-65803694D01*
X172837799Y-65803476D01*
X172744000Y-65766000D01*
X172650046Y-65728462D01*
X172650036Y-65728458D01*
X172649910Y-65728408D01*
X172547792Y-65693863D01*
X172429620Y-65665416D01*
X172429322Y-65665376D01*
X172429319Y-65665375D01*
X172382321Y-65658998D01*
X172287365Y-65646112D01*
X172124222Y-65639458D01*
X172116097Y-65635697D01*
X172113000Y-65627768D01*
X172113000Y-65142232D01*
X172116427Y-65133959D01*
X172124222Y-65130542D01*
X172287365Y-65123888D01*
X172382321Y-65111002D01*
X172429319Y-65104625D01*
X172429322Y-65104624D01*
X172429620Y-65104584D01*
X172547792Y-65076136D01*
X172649910Y-65041592D01*
X172650036Y-65041542D01*
X172650046Y-65041538D01*
X172744000Y-65004000D01*
X172837799Y-64966524D01*
X172838391Y-64966306D01*
X172939709Y-64932032D01*
X172940720Y-64931740D01*
X173057799Y-64903556D01*
X173058964Y-64903337D01*
X173140873Y-64892222D01*
X173200100Y-64884184D01*
X173201183Y-64884090D01*
X173367442Y-64877308D01*
X173375847Y-64880395D01*
G37*
%TD.AperFunction*%
%TA.AperFunction,Conductor*%
G36*
X163220232Y-53703616D02*
G01*
X163716234Y-53951617D01*
X163722102Y-53958382D01*
X163722692Y-53962559D01*
X163715911Y-54128809D01*
X163715815Y-54129905D01*
X163696663Y-54271035D01*
X163696444Y-54272200D01*
X163668259Y-54389279D01*
X163667967Y-54390290D01*
X163633694Y-54491608D01*
X163633476Y-54492200D01*
X163596000Y-54586000D01*
X163558408Y-54680089D01*
X163523863Y-54782207D01*
X163495416Y-54900379D01*
X163476112Y-55042634D01*
X163476101Y-55042904D01*
X163469458Y-55205777D01*
X163465697Y-55213903D01*
X163457768Y-55217000D01*
X162972232Y-55217000D01*
X162963959Y-55213573D01*
X162960542Y-55205777D01*
X162953899Y-55042904D01*
X162953888Y-55042634D01*
X162934584Y-54900379D01*
X162906136Y-54782207D01*
X162871592Y-54680089D01*
X162834000Y-54586000D01*
X162796524Y-54492200D01*
X162796306Y-54491608D01*
X162762032Y-54390290D01*
X162761740Y-54389279D01*
X162733556Y-54272200D01*
X162733337Y-54271035D01*
X162714185Y-54129905D01*
X162714089Y-54128809D01*
X162707308Y-53962559D01*
X162710395Y-53954153D01*
X162713766Y-53951617D01*
X163209768Y-53703616D01*
X163218700Y-53702981D01*
X163220232Y-53703616D01*
G37*
%TD.AperFunction*%
%TA.AperFunction,Conductor*%
G36*
X172105847Y-66150395D02*
G01*
X172108383Y-66153766D01*
X172356384Y-66649768D01*
X172357019Y-66658700D01*
X172356384Y-66660232D01*
X172108383Y-67156234D01*
X172101618Y-67162102D01*
X172097443Y-67162692D01*
X171931183Y-67155910D01*
X171930100Y-67155816D01*
X171870873Y-67147778D01*
X171788964Y-67136663D01*
X171787799Y-67136444D01*
X171670720Y-67108258D01*
X171669709Y-67107966D01*
X171568391Y-67073694D01*
X171567799Y-67073476D01*
X171474000Y-67036000D01*
X171380046Y-66998462D01*
X171380036Y-66998458D01*
X171379910Y-66998408D01*
X171277792Y-66963863D01*
X171159620Y-66935416D01*
X171159322Y-66935376D01*
X171159319Y-66935375D01*
X171112321Y-66928998D01*
X171017365Y-66916112D01*
X170854222Y-66909458D01*
X170846097Y-66905697D01*
X170843000Y-66897768D01*
X170843000Y-66412232D01*
X170846427Y-66403959D01*
X170854222Y-66400542D01*
X171017365Y-66393888D01*
X171112321Y-66381002D01*
X171159319Y-66374625D01*
X171159322Y-66374624D01*
X171159620Y-66374584D01*
X171277792Y-66346136D01*
X171379910Y-66311592D01*
X171380036Y-66311542D01*
X171380046Y-66311538D01*
X171474000Y-66274000D01*
X171567799Y-66236524D01*
X171568391Y-66236306D01*
X171669709Y-66202032D01*
X171670720Y-66201740D01*
X171787799Y-66173556D01*
X171788964Y-66173337D01*
X171870873Y-66162222D01*
X171930100Y-66154184D01*
X171931183Y-66154090D01*
X172097442Y-66147308D01*
X172105847Y-66150395D01*
G37*
%TD.AperFunction*%
%TA.AperFunction,Conductor*%
G36*
X219094743Y-51425038D02*
G01*
X219708237Y-51429831D01*
X219716483Y-51433323D01*
X219719844Y-51441666D01*
X219718477Y-51559939D01*
X219718457Y-51559987D01*
X219718476Y-51559987D01*
X219716588Y-51680453D01*
X219715089Y-51791562D01*
X219715089Y-51791621D01*
X219714783Y-51883659D01*
X219714750Y-51893555D01*
X219716345Y-51986672D01*
X219720646Y-52071154D01*
X219728425Y-52147241D01*
X219740454Y-52215175D01*
X219757507Y-52275195D01*
X219757665Y-52275557D01*
X219777320Y-52320590D01*
X219777489Y-52329543D01*
X219775245Y-52333151D01*
X219430597Y-52711348D01*
X219312321Y-52841136D01*
X219312320Y-52841137D01*
X219071876Y-53104987D01*
X218380650Y-52322258D01*
X218377742Y-52313788D01*
X218378771Y-52309666D01*
X218399128Y-52264942D01*
X218399128Y-52264941D01*
X218399290Y-52264586D01*
X218417279Y-52204839D01*
X218430368Y-52137101D01*
X218438153Y-52071154D01*
X218439317Y-52061290D01*
X218439318Y-52061281D01*
X218439334Y-52061144D01*
X218444302Y-51986540D01*
X218444947Y-51976845D01*
X218444954Y-51976740D01*
X218448004Y-51883659D01*
X218449259Y-51781673D01*
X218449496Y-51670554D01*
X218449491Y-51550073D01*
X218449972Y-51431744D01*
X218453433Y-51423486D01*
X218461763Y-51420093D01*
X219094743Y-51425038D01*
G37*
%TD.AperFunction*%
%TA.AperFunction,Conductor*%
G36*
X206558473Y-55464226D02*
G01*
X206559265Y-55464900D01*
X206913728Y-55795118D01*
X206917446Y-55803265D01*
X206914950Y-55810911D01*
X206757719Y-56010771D01*
X206757439Y-56011363D01*
X206757436Y-56011368D01*
X206708445Y-56114966D01*
X206669103Y-56198157D01*
X206642089Y-56371872D01*
X206642190Y-56372680D01*
X206642190Y-56372682D01*
X206662944Y-56538618D01*
X206663014Y-56539176D01*
X206718210Y-56707332D01*
X206718312Y-56707570D01*
X206793985Y-56883531D01*
X206793992Y-56883547D01*
X206794014Y-56883599D01*
X206876601Y-57074869D01*
X206876887Y-57075595D01*
X206952554Y-57288866D01*
X206952935Y-57290179D01*
X207008226Y-57532836D01*
X207008484Y-57534540D01*
X207029398Y-57807158D01*
X207026614Y-57815669D01*
X207022964Y-57818518D01*
X206404554Y-58127723D01*
X206395623Y-58128358D01*
X206389376Y-58123418D01*
X206200578Y-57818518D01*
X205934663Y-57389080D01*
X205933221Y-57380242D01*
X205935374Y-57375737D01*
X206096288Y-57168840D01*
X206096664Y-57168357D01*
X206193394Y-56968691D01*
X206213451Y-56883599D01*
X206237840Y-56780130D01*
X206237841Y-56780124D01*
X206237958Y-56779627D01*
X206247744Y-56597632D01*
X206240142Y-56419171D01*
X206232563Y-56241274D01*
X206232569Y-56240150D01*
X206234783Y-56198986D01*
X206242269Y-56059756D01*
X206242564Y-56057700D01*
X206286593Y-55870905D01*
X206287452Y-55868488D01*
X206383083Y-55671093D01*
X206384377Y-55669011D01*
X206542055Y-55466278D01*
X206549839Y-55461851D01*
X206558473Y-55464226D01*
G37*
%TD.AperFunction*%
%TA.AperFunction,Conductor*%
G36*
X197032820Y-56800705D02*
G01*
X196985576Y-56809491D01*
X196985574Y-56809491D01*
X196765978Y-56850328D01*
X196548033Y-56899748D01*
X196366760Y-56949016D01*
X196209936Y-56998182D01*
X196065337Y-57047298D01*
X195920858Y-57096372D01*
X195920624Y-57096449D01*
X195880582Y-57109002D01*
X195764125Y-57145512D01*
X195763694Y-57145638D01*
X195582879Y-57194782D01*
X195582397Y-57194902D01*
X195364933Y-57244213D01*
X195364485Y-57244306D01*
X195283496Y-57259368D01*
X195105100Y-57292544D01*
X195096341Y-57290687D01*
X195093511Y-57287939D01*
X194728084Y-56787260D01*
X194728083Y-56787259D01*
X194570555Y-56571427D01*
X194832146Y-55716109D01*
X195100522Y-55675597D01*
X195322631Y-55650909D01*
X195510042Y-55638088D01*
X195674318Y-55633179D01*
X195827029Y-55632225D01*
X195979739Y-55631271D01*
X195979766Y-55631270D01*
X195979783Y-55631270D01*
X196143918Y-55626365D01*
X196143922Y-55626365D01*
X196144016Y-55626362D01*
X196144088Y-55626357D01*
X196144111Y-55626356D01*
X196331300Y-55613549D01*
X196331315Y-55613548D01*
X196331426Y-55613540D01*
X196442102Y-55601238D01*
X196553411Y-55588866D01*
X196553417Y-55588865D01*
X196553536Y-55588852D01*
X196553629Y-55588838D01*
X196553652Y-55588835D01*
X196774337Y-55555523D01*
X196774336Y-55555523D01*
X196774410Y-55555512D01*
X196774425Y-55555509D01*
X196821913Y-55548341D01*
X197032820Y-56800705D01*
G37*
%TD.AperFunction*%
%TA.AperFunction,Conductor*%
G36*
X153944539Y-61275927D02*
G01*
X153947956Y-61283725D01*
X153956390Y-61491125D01*
X153980520Y-61669501D01*
X154016080Y-61817688D01*
X154059260Y-61945750D01*
X154059311Y-61945878D01*
X154059315Y-61945889D01*
X154106250Y-62063750D01*
X154153124Y-62181459D01*
X154153341Y-62182050D01*
X154196252Y-62309316D01*
X154196542Y-62310324D01*
X154231843Y-62457427D01*
X154232060Y-62458589D01*
X154256036Y-62635829D01*
X154256132Y-62636922D01*
X154264693Y-62847443D01*
X154261605Y-62855848D01*
X154258237Y-62858382D01*
X153635232Y-63169884D01*
X153626300Y-63170519D01*
X153624768Y-63169884D01*
X153001764Y-62858382D01*
X152995897Y-62851618D01*
X152995307Y-62847443D01*
X153003868Y-62636922D01*
X153003964Y-62635829D01*
X153027940Y-62458589D01*
X153028157Y-62457427D01*
X153063457Y-62310324D01*
X153063747Y-62309316D01*
X153106659Y-62182050D01*
X153106876Y-62181459D01*
X153153750Y-62063750D01*
X153200685Y-61945889D01*
X153200689Y-61945878D01*
X153200740Y-61945750D01*
X153243919Y-61817688D01*
X153279480Y-61669501D01*
X153303610Y-61491125D01*
X153312044Y-61283725D01*
X153315804Y-61275598D01*
X153323734Y-61272500D01*
X153936266Y-61272500D01*
X153944539Y-61275927D01*
G37*
%TD.AperFunction*%
%TA.AperFunction,Conductor*%
G36*
X146200950Y-71527451D02*
G01*
X146366591Y-71536935D01*
X146368099Y-71537121D01*
X146462384Y-71555023D01*
X146606356Y-71582360D01*
X146607933Y-71582776D01*
X146710546Y-71617600D01*
X146803745Y-71649229D01*
X146805048Y-71649760D01*
X146879185Y-71685412D01*
X146972946Y-71730500D01*
X146973677Y-71730884D01*
X147128040Y-71819038D01*
X147282762Y-71907398D01*
X147337064Y-71933511D01*
X147451331Y-71988460D01*
X147451339Y-71988463D01*
X147451665Y-71988620D01*
X147452012Y-71988738D01*
X147452015Y-71988739D01*
X147528919Y-72014838D01*
X147648926Y-72055565D01*
X147888727Y-72101096D01*
X147926256Y-72103245D01*
X148174205Y-72117444D01*
X148182269Y-72121338D01*
X148185236Y-72129136D01*
X148184760Y-72615015D01*
X148181325Y-72623285D01*
X148173707Y-72626685D01*
X147994992Y-72636566D01*
X147888571Y-72642450D01*
X147888567Y-72642450D01*
X147888196Y-72642471D01*
X147887830Y-72642540D01*
X147887828Y-72642540D01*
X147835801Y-72652313D01*
X147648307Y-72687532D01*
X147647917Y-72687663D01*
X147647915Y-72687664D01*
X147451255Y-72753975D01*
X147450914Y-72754090D01*
X147281853Y-72834980D01*
X147281664Y-72835087D01*
X147281661Y-72835089D01*
X147126957Y-72923036D01*
X146972426Y-73010885D01*
X146971694Y-73011268D01*
X146803641Y-73091675D01*
X146802329Y-73092208D01*
X146606382Y-73158279D01*
X146604804Y-73158691D01*
X146366467Y-73203460D01*
X146364953Y-73203643D01*
X146076849Y-73219574D01*
X146068399Y-73216609D01*
X146065733Y-73213114D01*
X145647612Y-72374819D01*
X145646986Y-72365886D01*
X145647622Y-72364354D01*
X146067387Y-71526879D01*
X146074158Y-71521019D01*
X146078516Y-71520441D01*
X146200950Y-71527451D01*
G37*
%TD.AperFunction*%
%TA.AperFunction,Conductor*%
G36*
X151166601Y-71528391D02*
G01*
X151169267Y-71531886D01*
X151587388Y-72370181D01*
X151588014Y-72379114D01*
X151587380Y-72380641D01*
X151398970Y-72756539D01*
X151167613Y-73218121D01*
X151160842Y-73223981D01*
X151156484Y-73224559D01*
X151044049Y-73218121D01*
X150868408Y-73208064D01*
X150866900Y-73207878D01*
X150772615Y-73189976D01*
X150628643Y-73162639D01*
X150627066Y-73162223D01*
X150524453Y-73127399D01*
X150431254Y-73095770D01*
X150429951Y-73095239D01*
X150355814Y-73059587D01*
X150262053Y-73014499D01*
X150261322Y-73014115D01*
X150106959Y-72925961D01*
X149952419Y-72837705D01*
X149952237Y-72837601D01*
X149897935Y-72811488D01*
X149783668Y-72756539D01*
X149783660Y-72756536D01*
X149783334Y-72756379D01*
X149782987Y-72756261D01*
X149782984Y-72756260D01*
X149706080Y-72730161D01*
X149586073Y-72689434D01*
X149346272Y-72643903D01*
X149305640Y-72641576D01*
X149060795Y-72627556D01*
X149052731Y-72623662D01*
X149049764Y-72615864D01*
X149050240Y-72129985D01*
X149053675Y-72121715D01*
X149061293Y-72118314D01*
X149234158Y-72108756D01*
X149346428Y-72102549D01*
X149346432Y-72102549D01*
X149346803Y-72102528D01*
X149347169Y-72102459D01*
X149347171Y-72102459D01*
X149399198Y-72092686D01*
X149586692Y-72057467D01*
X149587082Y-72057336D01*
X149587084Y-72057335D01*
X149783744Y-71991024D01*
X149784085Y-71990909D01*
X149953146Y-71910019D01*
X150108042Y-71821963D01*
X150262573Y-71734114D01*
X150263305Y-71733731D01*
X150431358Y-71653324D01*
X150432670Y-71652791D01*
X150628617Y-71586720D01*
X150630195Y-71586308D01*
X150868532Y-71541539D01*
X150870046Y-71541356D01*
X151158151Y-71525426D01*
X151166601Y-71528391D01*
G37*
%TD.AperFunction*%
%TA.AperFunction,Conductor*%
G36*
X146365778Y-68996645D02*
G01*
X146367286Y-68996830D01*
X146441281Y-69010804D01*
X146605579Y-69041833D01*
X146607157Y-69042247D01*
X146803037Y-69108509D01*
X146804348Y-69109043D01*
X146972312Y-69189611D01*
X146973044Y-69189994D01*
X147127500Y-69278000D01*
X147282127Y-69366105D01*
X147282141Y-69366113D01*
X147282309Y-69366208D01*
X147282503Y-69366301D01*
X147450961Y-69447105D01*
X147450965Y-69447107D01*
X147451291Y-69447263D01*
X147648618Y-69514016D01*
X147802094Y-69543001D01*
X147888086Y-69559241D01*
X147888089Y-69559241D01*
X147888463Y-69559312D01*
X148028594Y-69567198D01*
X148173957Y-69575379D01*
X148182025Y-69579266D01*
X148185000Y-69587061D01*
X148185000Y-70072939D01*
X148181573Y-70081212D01*
X148173957Y-70084621D01*
X148028594Y-70092802D01*
X147888463Y-70100688D01*
X147888089Y-70100759D01*
X147888086Y-70100759D01*
X147802094Y-70116999D01*
X147648618Y-70145984D01*
X147451291Y-70212736D01*
X147450965Y-70212892D01*
X147450961Y-70212894D01*
X147309800Y-70280605D01*
X147282309Y-70293792D01*
X147282141Y-70293887D01*
X147282127Y-70293895D01*
X147127500Y-70382000D01*
X146973044Y-70470006D01*
X146972312Y-70470389D01*
X146804348Y-70550956D01*
X146803037Y-70551490D01*
X146607157Y-70617753D01*
X146605579Y-70618167D01*
X146441281Y-70649196D01*
X146367286Y-70663170D01*
X146365778Y-70663355D01*
X146077680Y-70679568D01*
X146069229Y-70676611D01*
X146066559Y-70673118D01*
X145647616Y-69835232D01*
X145646981Y-69826300D01*
X145647616Y-69824768D01*
X146066559Y-68986882D01*
X146073324Y-68981014D01*
X146077680Y-68980432D01*
X146365778Y-68996645D01*
G37*
%TD.AperFunction*%
%TA.AperFunction,Conductor*%
G36*
X151165771Y-68983389D02*
G01*
X151168441Y-68986882D01*
X151587384Y-69824768D01*
X151588019Y-69833700D01*
X151587384Y-69835232D01*
X151168441Y-70673118D01*
X151161676Y-70678986D01*
X151157320Y-70679568D01*
X150869221Y-70663355D01*
X150867713Y-70663170D01*
X150793718Y-70649196D01*
X150629420Y-70618167D01*
X150627842Y-70617753D01*
X150431962Y-70551491D01*
X150430651Y-70550957D01*
X150262687Y-70470389D01*
X150261955Y-70470006D01*
X150107500Y-70382000D01*
X149952872Y-70293895D01*
X149952858Y-70293887D01*
X149952690Y-70293792D01*
X149924890Y-70280457D01*
X149784038Y-70212893D01*
X149784034Y-70212891D01*
X149783708Y-70212735D01*
X149586381Y-70145984D01*
X149432905Y-70116999D01*
X149346913Y-70100759D01*
X149346910Y-70100759D01*
X149346536Y-70100688D01*
X149206719Y-70092820D01*
X149061043Y-70084621D01*
X149052975Y-70080734D01*
X149050000Y-70072939D01*
X149050000Y-69587061D01*
X149053427Y-69578788D01*
X149061043Y-69575379D01*
X149206719Y-69567180D01*
X149346536Y-69559312D01*
X149346910Y-69559241D01*
X149346913Y-69559241D01*
X149432905Y-69543001D01*
X149586381Y-69514016D01*
X149783708Y-69447264D01*
X149784034Y-69447108D01*
X149784038Y-69447106D01*
X149952496Y-69366301D01*
X149952690Y-69366208D01*
X149952858Y-69366113D01*
X149952872Y-69366105D01*
X150107500Y-69278000D01*
X150261955Y-69189994D01*
X150262687Y-69189611D01*
X150430651Y-69109042D01*
X150431962Y-69108508D01*
X150627842Y-69042247D01*
X150629420Y-69041833D01*
X150793718Y-69010804D01*
X150867713Y-68996830D01*
X150869221Y-68996645D01*
X151157320Y-68980432D01*
X151165771Y-68983389D01*
G37*
%TD.AperFunction*%
%TA.AperFunction,Conductor*%
G36*
X153635232Y-47300116D02*
G01*
X154258236Y-47611618D01*
X154264103Y-47618382D01*
X154264693Y-47622557D01*
X154256132Y-47833077D01*
X154256036Y-47834170D01*
X154232060Y-48011410D01*
X154231843Y-48012572D01*
X154196543Y-48159675D01*
X154196253Y-48160683D01*
X154153341Y-48287949D01*
X154153124Y-48288540D01*
X154106250Y-48406250D01*
X154059260Y-48524249D01*
X154016079Y-48652311D01*
X153980520Y-48800498D01*
X153956390Y-48978874D01*
X153956379Y-48979154D01*
X153947956Y-49186275D01*
X153944196Y-49194402D01*
X153936266Y-49197500D01*
X153323734Y-49197500D01*
X153315461Y-49194073D01*
X153312044Y-49186275D01*
X153303621Y-48979154D01*
X153303610Y-48978874D01*
X153279480Y-48800498D01*
X153243920Y-48652311D01*
X153200740Y-48524249D01*
X153153750Y-48406250D01*
X153106876Y-48288540D01*
X153106659Y-48287949D01*
X153063746Y-48160683D01*
X153063456Y-48159675D01*
X153028157Y-48012572D01*
X153027940Y-48011410D01*
X153003964Y-47834170D01*
X153003868Y-47833077D01*
X152995307Y-47622557D01*
X152998395Y-47614152D01*
X153001763Y-47611618D01*
X153624768Y-47300116D01*
X153633700Y-47299481D01*
X153635232Y-47300116D01*
G37*
%TD.AperFunction*%
%TA.AperFunction,Conductor*%
G36*
X198663659Y-55074313D02*
G01*
X198666489Y-55077061D01*
X198698363Y-55120732D01*
X199185997Y-55788849D01*
X199188106Y-55797551D01*
X199187734Y-55799168D01*
X198930009Y-56641844D01*
X198924313Y-56648753D01*
X198920567Y-56649991D01*
X198659694Y-56689369D01*
X198659241Y-56689428D01*
X198513996Y-56705573D01*
X198437624Y-56714062D01*
X198437142Y-56714105D01*
X198250169Y-56726896D01*
X198249739Y-56726918D01*
X198085807Y-56731816D01*
X198085556Y-56731821D01*
X197932970Y-56732774D01*
X197780260Y-56733728D01*
X197780233Y-56733729D01*
X197780216Y-56733729D01*
X197616081Y-56738634D01*
X197616077Y-56738634D01*
X197615983Y-56738637D01*
X197615911Y-56738642D01*
X197615888Y-56738643D01*
X197428699Y-56751450D01*
X197428684Y-56751451D01*
X197428573Y-56751459D01*
X197317897Y-56763761D01*
X197206588Y-56776133D01*
X197206582Y-56776134D01*
X197206463Y-56776147D01*
X197206370Y-56776161D01*
X197206347Y-56776164D01*
X197066635Y-56797254D01*
X196938087Y-56816659D01*
X196727180Y-55564295D01*
X196774402Y-55555513D01*
X196774410Y-55555512D01*
X196994021Y-55514671D01*
X197211966Y-55465251D01*
X197393239Y-55415983D01*
X197550063Y-55366817D01*
X197694662Y-55317701D01*
X197839141Y-55268627D01*
X197839375Y-55268550D01*
X197879417Y-55255997D01*
X197995874Y-55219487D01*
X197996305Y-55219361D01*
X198177120Y-55170217D01*
X198177602Y-55170097D01*
X198395065Y-55120786D01*
X198395513Y-55120693D01*
X198420358Y-55116073D01*
X198654900Y-55072456D01*
X198663659Y-55074313D01*
G37*
%TD.AperFunction*%
%TA.AperFunction,Conductor*%
G36*
X145689947Y-54769291D02*
G01*
X146418527Y-55230551D01*
X146423683Y-55237870D01*
X146422712Y-55245708D01*
X146118765Y-55847762D01*
X146111084Y-55862976D01*
X146104297Y-55868817D01*
X146099703Y-55869365D01*
X146002924Y-55861585D01*
X145830990Y-55847762D01*
X145829288Y-55847498D01*
X145590446Y-55792181D01*
X145589131Y-55791794D01*
X145379530Y-55716511D01*
X145378800Y-55716221D01*
X145190942Y-55634134D01*
X145018045Y-55558787D01*
X145017804Y-55558682D01*
X144852416Y-55503406D01*
X144851863Y-55503333D01*
X144851862Y-55503333D01*
X144745961Y-55489394D01*
X144687451Y-55481693D01*
X144655855Y-55486332D01*
X144516410Y-55506807D01*
X144516407Y-55506808D01*
X144515582Y-55506929D01*
X144514820Y-55507279D01*
X144514821Y-55507279D01*
X144330072Y-55592227D01*
X144330070Y-55592228D01*
X144329481Y-55592499D01*
X144275204Y-55634134D01*
X144130366Y-55745237D01*
X144121716Y-55747554D01*
X144114584Y-55743820D01*
X144089518Y-55716221D01*
X143788860Y-55385188D01*
X143785835Y-55376760D01*
X143789655Y-55368661D01*
X143790433Y-55368013D01*
X143992375Y-55214257D01*
X143994408Y-55213014D01*
X144190065Y-55119282D01*
X144192420Y-55118450D01*
X144298218Y-55093360D01*
X144376687Y-55074751D01*
X144378695Y-55074455D01*
X144556033Y-55064032D01*
X144557130Y-55064020D01*
X144731677Y-55070339D01*
X144906777Y-55076679D01*
X145085673Y-55066164D01*
X145094798Y-55064000D01*
X145271547Y-55022084D01*
X145271550Y-55022083D01*
X145272157Y-55021939D01*
X145470026Y-54927149D01*
X145676600Y-54769867D01*
X145685260Y-54767582D01*
X145689947Y-54769291D01*
G37*
%TD.AperFunction*%
%TA.AperFunction,Conductor*%
G36*
X161950232Y-40867616D02*
G01*
X162738410Y-41261705D01*
X162744278Y-41268470D01*
X162744876Y-41272365D01*
X162740831Y-41511715D01*
X162740384Y-41538172D01*
X162740368Y-41538626D01*
X162727853Y-41762978D01*
X162727815Y-41763468D01*
X162709382Y-41951338D01*
X162709330Y-41951782D01*
X162686940Y-42115459D01*
X162686900Y-42115730D01*
X162662500Y-42267500D01*
X162638080Y-42419391D01*
X162615639Y-42583435D01*
X162597160Y-42771783D01*
X162584620Y-42996587D01*
X162584618Y-42996726D01*
X162580194Y-43258498D01*
X162576628Y-43266712D01*
X162568496Y-43270000D01*
X161321504Y-43270000D01*
X161313231Y-43266573D01*
X161309806Y-43258498D01*
X161305382Y-42996726D01*
X161305380Y-42996587D01*
X161292840Y-42771783D01*
X161274360Y-42583435D01*
X161251920Y-42419391D01*
X161227500Y-42267500D01*
X161203100Y-42115730D01*
X161203060Y-42115459D01*
X161180669Y-41951782D01*
X161180617Y-41951338D01*
X161162185Y-41763468D01*
X161162147Y-41762978D01*
X161149632Y-41538626D01*
X161149616Y-41538172D01*
X161149169Y-41511715D01*
X161145124Y-41272367D01*
X161148410Y-41264038D01*
X161151590Y-41261705D01*
X161939768Y-40867616D01*
X161948700Y-40866981D01*
X161950232Y-40867616D01*
G37*
%TD.AperFunction*%
%TA.AperFunction,Conductor*%
G36*
X149017339Y-41027846D02*
G01*
X149385246Y-41089630D01*
X149392837Y-41094379D01*
X149394722Y-41098595D01*
X149465289Y-41411665D01*
X149533969Y-41673530D01*
X149599939Y-41891242D01*
X149599973Y-41891341D01*
X149664102Y-42079518D01*
X149727361Y-42253077D01*
X149790580Y-42426527D01*
X149790662Y-42426760D01*
X149854723Y-42614740D01*
X149854845Y-42615121D01*
X149908523Y-42792265D01*
X149920689Y-42832416D01*
X149920809Y-42832841D01*
X149989376Y-43094274D01*
X149989472Y-43094668D01*
X149991252Y-43102564D01*
X149991255Y-43102575D01*
X150061728Y-43415225D01*
X149564528Y-43519409D01*
X149476684Y-43205986D01*
X149364954Y-42969410D01*
X149232113Y-42791809D01*
X149080937Y-42655313D01*
X148914205Y-42542050D01*
X148914079Y-42541974D01*
X148914063Y-42541964D01*
X148734806Y-42434219D01*
X148734559Y-42434066D01*
X148545609Y-42314018D01*
X148544766Y-42313429D01*
X148349016Y-42163405D01*
X148347905Y-42162437D01*
X148264087Y-42079518D01*
X148147802Y-41964482D01*
X148146739Y-41963274D01*
X147949080Y-41704929D01*
X147946774Y-41696277D01*
X147948214Y-41692015D01*
X147958706Y-41673655D01*
X148384072Y-40929264D01*
X148391152Y-40923781D01*
X148396166Y-40923531D01*
X149017339Y-41027846D01*
G37*
%TD.AperFunction*%
%TA.AperFunction,Conductor*%
G36*
X149991354Y-43103011D02*
G01*
X149991519Y-43103425D01*
X149991519Y-43103427D01*
X149992793Y-43106636D01*
X149992826Y-43106722D01*
X150076037Y-43321261D01*
X150076073Y-43321356D01*
X150144312Y-43501916D01*
X150144345Y-43502002D01*
X150202696Y-43660154D01*
X150202684Y-43660158D01*
X150202716Y-43660208D01*
X150256067Y-43807011D01*
X150309439Y-43953868D01*
X150367768Y-44111964D01*
X150367789Y-44112020D01*
X150436093Y-44292751D01*
X150436097Y-44292761D01*
X150436130Y-44292846D01*
X150519330Y-44507357D01*
X150519341Y-44507385D01*
X150619564Y-44759793D01*
X150619432Y-44768747D01*
X150616705Y-44772634D01*
X149885946Y-45459412D01*
X149877570Y-45462580D01*
X149872703Y-45461352D01*
X149086988Y-45068494D01*
X149081120Y-45061729D01*
X149080549Y-45057206D01*
X149099743Y-44784905D01*
X149099995Y-44783178D01*
X149151749Y-44551450D01*
X149152205Y-44549913D01*
X149225206Y-44354096D01*
X149225651Y-44353058D01*
X149309219Y-44181535D01*
X149309380Y-44181217D01*
X149345772Y-44111964D01*
X149392654Y-44022750D01*
X149464524Y-43866343D01*
X149513958Y-43700806D01*
X149530006Y-43514792D01*
X149504888Y-43321356D01*
X149501787Y-43297474D01*
X149501786Y-43297469D01*
X149501719Y-43296954D01*
X149418147Y-43035944D01*
X149889635Y-42846834D01*
X149991354Y-43103011D01*
G37*
%TD.AperFunction*%
%TA.AperFunction,Conductor*%
G36*
X187978103Y-67780030D02*
G01*
X187978531Y-67780036D01*
X187978542Y-67780036D01*
X187978625Y-67780037D01*
X187978631Y-67780037D01*
X188247588Y-67783405D01*
X188248020Y-67783420D01*
X188470726Y-67794931D01*
X188471219Y-67794967D01*
X188657761Y-67812561D01*
X188658198Y-67812611D01*
X188820776Y-67834274D01*
X188821050Y-67834313D01*
X188971761Y-67858031D01*
X189122603Y-67881771D01*
X189122631Y-67881775D01*
X189203045Y-67892489D01*
X189285528Y-67903480D01*
X189285628Y-67903489D01*
X189285633Y-67903490D01*
X189472415Y-67921106D01*
X189472431Y-67921107D01*
X189472546Y-67921118D01*
X189472676Y-67921125D01*
X189472680Y-67921125D01*
X189507215Y-67922910D01*
X189695726Y-67932654D01*
X189695850Y-67932656D01*
X189695863Y-67932656D01*
X189955621Y-67935909D01*
X189963850Y-67939439D01*
X189967174Y-67947555D01*
X189972785Y-69194537D01*
X189969395Y-69202826D01*
X189961338Y-69206287D01*
X189737073Y-69211114D01*
X189701618Y-69211877D01*
X189701615Y-69211877D01*
X189701482Y-69211880D01*
X189478415Y-69225423D01*
X189478278Y-69225437D01*
X189478280Y-69225437D01*
X189291655Y-69244734D01*
X189291632Y-69244737D01*
X189291563Y-69244744D01*
X189291484Y-69244755D01*
X189291470Y-69244757D01*
X189128928Y-69267906D01*
X189128897Y-69267911D01*
X189128854Y-69267917D01*
X188827670Y-69318098D01*
X188827479Y-69318127D01*
X188665096Y-69341253D01*
X188664651Y-69341308D01*
X188478244Y-69360583D01*
X188477770Y-69360621D01*
X188255175Y-69374136D01*
X188254739Y-69374155D01*
X188034665Y-69378892D01*
X187989590Y-69379862D01*
X187982193Y-69377211D01*
X187580005Y-68581799D01*
X187976370Y-67780073D01*
X187976371Y-67780109D01*
X187976839Y-67780015D01*
X187978103Y-67780030D01*
G37*
%TD.AperFunction*%
%TA.AperFunction,Conductor*%
G36*
X187980898Y-67780061D02*
G01*
X188379999Y-68580434D01*
X187981358Y-69375559D01*
X187980813Y-69376647D01*
X187972809Y-69379884D01*
X187707993Y-69375088D01*
X187707536Y-69375071D01*
X187484894Y-69362316D01*
X187484399Y-69362277D01*
X187297961Y-69343642D01*
X187297515Y-69343589D01*
X187135020Y-69321013D01*
X187134833Y-69320984D01*
X186984222Y-69296418D01*
X186833501Y-69271835D01*
X186758946Y-69261477D01*
X186670803Y-69249230D01*
X186670788Y-69249228D01*
X186670714Y-69249218D01*
X186483797Y-69230535D01*
X186260685Y-69217752D01*
X186152252Y-69215788D01*
X186000813Y-69213046D01*
X185992603Y-69209470D01*
X185989325Y-69201335D01*
X185990680Y-67954343D01*
X185994116Y-67946074D01*
X186002194Y-67942657D01*
X186261970Y-67938516D01*
X186261984Y-67938515D01*
X186262074Y-67938514D01*
X186369726Y-67932581D01*
X186485054Y-67926226D01*
X186485065Y-67926225D01*
X186485213Y-67926217D01*
X186485368Y-67926202D01*
X186485379Y-67926201D01*
X186574332Y-67917505D01*
X186672170Y-67907940D01*
X186672294Y-67907923D01*
X186672312Y-67907921D01*
X186834932Y-67885687D01*
X186834933Y-67885687D01*
X186835005Y-67885677D01*
X186985780Y-67861420D01*
X187136444Y-67837182D01*
X187136641Y-67837152D01*
X187299183Y-67814929D01*
X187299617Y-67814879D01*
X187358838Y-67809089D01*
X187486094Y-67796649D01*
X187486588Y-67796611D01*
X187709238Y-67784340D01*
X187709696Y-67784323D01*
X187976370Y-67780073D01*
X187976371Y-67780109D01*
X187976565Y-67780070D01*
X187978616Y-67780037D01*
X187978625Y-67780037D01*
X187980240Y-67780011D01*
X187980898Y-67780061D01*
G37*
%TD.AperFunction*%
%TA.AperFunction,Conductor*%
G36*
X198759642Y-44693855D02*
G01*
X198760673Y-44694870D01*
X199451286Y-45464261D01*
X199454262Y-45472706D01*
X199453286Y-45476793D01*
X199435343Y-45517523D01*
X199419611Y-45573576D01*
X199419561Y-45573864D01*
X199419560Y-45573869D01*
X199413416Y-45609352D01*
X199408441Y-45638082D01*
X199408420Y-45638294D01*
X199408419Y-45638300D01*
X199407411Y-45648384D01*
X199401144Y-45711085D01*
X199397025Y-45792628D01*
X199397024Y-45792706D01*
X199397023Y-45792722D01*
X199396842Y-45802729D01*
X199395393Y-45882754D01*
X199395393Y-45882874D01*
X199395410Y-45892819D01*
X199395557Y-45981507D01*
X199395557Y-45981547D01*
X199396824Y-46088930D01*
X199398502Y-46205066D01*
X199398502Y-46205104D01*
X199399769Y-46318221D01*
X199396435Y-46326532D01*
X199388163Y-46330052D01*
X198779230Y-46334886D01*
X198141679Y-46339947D01*
X198133379Y-46336586D01*
X198129886Y-46328302D01*
X198129355Y-46215140D01*
X198129355Y-46215102D01*
X198129189Y-46098992D01*
X198129189Y-46098944D01*
X198128751Y-45991562D01*
X198127348Y-45892869D01*
X198127344Y-45892726D01*
X198124288Y-45802820D01*
X198124285Y-45802729D01*
X198118873Y-45721262D01*
X198110417Y-45648384D01*
X198108465Y-45638082D01*
X198098281Y-45584354D01*
X198098226Y-45584062D01*
X198081606Y-45528266D01*
X198076669Y-45517523D01*
X198063019Y-45487825D01*
X198062678Y-45478877D01*
X198064820Y-45475263D01*
X198743136Y-44695009D01*
X198751150Y-44691013D01*
X198759642Y-44693855D01*
G37*
%TD.AperFunction*%
%TA.AperFunction,Conductor*%
G36*
X158281298Y-44286784D02*
G01*
X158401972Y-44288204D01*
X158402408Y-44288218D01*
X158488612Y-44292609D01*
X158625144Y-44299564D01*
X158625639Y-44299600D01*
X158812181Y-44317052D01*
X158812628Y-44317102D01*
X158975231Y-44338644D01*
X158975504Y-44338684D01*
X159126219Y-44362287D01*
X159277094Y-44385915D01*
X159277107Y-44385917D01*
X159277115Y-44385918D01*
X159439942Y-44407490D01*
X159439956Y-44407492D01*
X159440020Y-44407500D01*
X159558853Y-44418618D01*
X159626933Y-44424988D01*
X159626940Y-44424988D01*
X159627052Y-44424999D01*
X159627154Y-44425004D01*
X159627165Y-44425005D01*
X159775127Y-44432541D01*
X159850241Y-44436367D01*
X159850372Y-44436369D01*
X159850386Y-44436369D01*
X160110137Y-44439428D01*
X160118369Y-44442952D01*
X160121699Y-44451066D01*
X160128245Y-45698043D01*
X160124861Y-45706334D01*
X160116806Y-45709801D01*
X159857077Y-45715586D01*
X159857062Y-45715587D01*
X159856955Y-45715589D01*
X159856850Y-45715595D01*
X159856837Y-45715596D01*
X159634026Y-45729292D01*
X159634020Y-45729292D01*
X159633898Y-45729300D01*
X159538290Y-45739258D01*
X159447171Y-45748749D01*
X159447149Y-45748752D01*
X159447060Y-45748761D01*
X159446970Y-45748774D01*
X159446953Y-45748776D01*
X159380559Y-45758283D01*
X159284369Y-45772055D01*
X158983278Y-45822453D01*
X158983023Y-45822493D01*
X158820643Y-45845742D01*
X158820234Y-45845793D01*
X158662352Y-45862238D01*
X158633853Y-45865206D01*
X158633359Y-45865247D01*
X158410773Y-45878929D01*
X158410316Y-45878948D01*
X158266872Y-45882144D01*
X158146567Y-45884824D01*
X158138219Y-45881582D01*
X158135869Y-45878414D01*
X157737650Y-45092317D01*
X157736968Y-45083388D01*
X157737595Y-45081853D01*
X158127540Y-44291621D01*
X158134274Y-44285718D01*
X158138170Y-44285099D01*
X158281298Y-44286784D01*
G37*
%TD.AperFunction*%
%TA.AperFunction,Conductor*%
G36*
X169557008Y-44278414D02*
G01*
X169559338Y-44281597D01*
X169954999Y-45075525D01*
X169553949Y-45874999D01*
X169282577Y-45870022D01*
X169235968Y-45867341D01*
X169059714Y-45857203D01*
X169059220Y-45857164D01*
X168872767Y-45838484D01*
X168872320Y-45838430D01*
X168811901Y-45830022D01*
X168709899Y-45815826D01*
X168709669Y-45815792D01*
X168408342Y-45766573D01*
X168408288Y-45766566D01*
X168408272Y-45766563D01*
X168290758Y-45750209D01*
X168245560Y-45743919D01*
X168245440Y-45743907D01*
X168245432Y-45743906D01*
X168195066Y-45738860D01*
X168058648Y-45725193D01*
X167955700Y-45719272D01*
X167835646Y-45712366D01*
X167835639Y-45712366D01*
X167835539Y-45712360D01*
X167575669Y-45707595D01*
X167567460Y-45704017D01*
X167564183Y-45695882D01*
X167565822Y-44448889D01*
X167569260Y-44440620D01*
X167577337Y-44437205D01*
X167708925Y-44435138D01*
X167837111Y-44433124D01*
X167837124Y-44433124D01*
X167837220Y-44433122D01*
X167837338Y-44433116D01*
X167837352Y-44433115D01*
X167946115Y-44427145D01*
X168060362Y-44420875D01*
X168179155Y-44409289D01*
X168247243Y-44402649D01*
X168247251Y-44402648D01*
X168247323Y-44402641D01*
X168410163Y-44380415D01*
X168410171Y-44380414D01*
X168410190Y-44380411D01*
X168560944Y-44356193D01*
X168711575Y-44331995D01*
X168711849Y-44331954D01*
X168874346Y-44309775D01*
X168874792Y-44309723D01*
X168932402Y-44304104D01*
X169061317Y-44291531D01*
X169061763Y-44291498D01*
X169216518Y-44283004D01*
X169284416Y-44279278D01*
X169284873Y-44279261D01*
X169548682Y-44275117D01*
X169557008Y-44278414D01*
G37*
%TD.AperFunction*%
%TA.AperFunction,Conductor*%
G36*
X169821550Y-44807747D02*
G01*
X169823265Y-44808596D01*
X170348091Y-45068422D01*
X170353985Y-45075163D01*
X170354584Y-45079528D01*
X170342352Y-45309709D01*
X170342228Y-45310895D01*
X170309197Y-45522228D01*
X170309043Y-45523029D01*
X170265700Y-45712602D01*
X170265647Y-45712822D01*
X170222179Y-45884460D01*
X170188892Y-46041753D01*
X170176054Y-46188495D01*
X170193906Y-46328581D01*
X170252688Y-46465908D01*
X170362641Y-46604373D01*
X170363095Y-46604753D01*
X170525687Y-46740905D01*
X170529829Y-46748844D01*
X170527684Y-46756692D01*
X169653894Y-47975522D01*
X169646288Y-47980249D01*
X169637568Y-47978214D01*
X169636310Y-47977171D01*
X169634582Y-47975522D01*
X169427506Y-47778003D01*
X169425119Y-47774774D01*
X169316449Y-47557689D01*
X169315300Y-47553890D01*
X169287383Y-47328424D01*
X169287368Y-47325674D01*
X169313574Y-47093433D01*
X169313791Y-47092154D01*
X169367465Y-46855819D01*
X169421210Y-46619170D01*
X169421283Y-46618849D01*
X169422917Y-46604373D01*
X169447639Y-46385278D01*
X169447717Y-46384589D01*
X169440876Y-46329331D01*
X169419507Y-46156743D01*
X169419384Y-46155750D01*
X169418937Y-46154857D01*
X169418936Y-46154854D01*
X169309352Y-45935948D01*
X169308899Y-45935043D01*
X169088881Y-45725178D01*
X169553420Y-44675004D01*
X169821550Y-44807747D01*
G37*
%TD.AperFunction*%
%TA.AperFunction,Conductor*%
G36*
X177191675Y-63223398D02*
G01*
X177194609Y-63226332D01*
X177676150Y-63919514D01*
X177678056Y-63928264D01*
X177675859Y-63933265D01*
X177632169Y-63990799D01*
X177589375Y-64054942D01*
X177552407Y-64120613D01*
X177521052Y-64189501D01*
X177495101Y-64263296D01*
X177474341Y-64343687D01*
X177458563Y-64432363D01*
X177447553Y-64531015D01*
X177441103Y-64641330D01*
X177441101Y-64641468D01*
X177439196Y-64753499D01*
X177435629Y-64761713D01*
X177427498Y-64765000D01*
X176942502Y-64765000D01*
X176934229Y-64761573D01*
X176930804Y-64753499D01*
X176928898Y-64641468D01*
X176928896Y-64641330D01*
X176922446Y-64531015D01*
X176911436Y-64432363D01*
X176895658Y-64343687D01*
X176874898Y-64263296D01*
X176848947Y-64189501D01*
X176817592Y-64120613D01*
X176780624Y-64054942D01*
X176737830Y-63990799D01*
X176694141Y-63933265D01*
X176691867Y-63924603D01*
X176693850Y-63919514D01*
X177175391Y-63226332D01*
X177182925Y-63221492D01*
X177191675Y-63223398D01*
G37*
%TD.AperFunction*%
%TA.AperFunction,Conductor*%
G36*
X189879960Y-51430001D02*
G01*
X190503214Y-51432446D01*
X190511474Y-51435905D01*
X190514868Y-51444233D01*
X190514008Y-51559966D01*
X190513990Y-51559966D01*
X190514008Y-51560008D01*
X190512694Y-51678272D01*
X190511744Y-51787545D01*
X190511891Y-51887923D01*
X190511893Y-51888001D01*
X190513759Y-51974473D01*
X190513868Y-51979541D01*
X190518406Y-52062537D01*
X190526238Y-52137045D01*
X190526279Y-52137273D01*
X190526279Y-52137274D01*
X190537219Y-52198305D01*
X190538097Y-52203204D01*
X190554715Y-52261150D01*
X190573757Y-52304099D01*
X190573977Y-52313050D01*
X190571770Y-52316653D01*
X189882210Y-53085212D01*
X189874134Y-53089082D01*
X189865688Y-53086108D01*
X189864731Y-53085144D01*
X189181220Y-52311201D01*
X189178312Y-52302731D01*
X189179330Y-52298633D01*
X189198708Y-52255833D01*
X189214249Y-52203204D01*
X189215696Y-52198305D01*
X189215698Y-52198297D01*
X189215780Y-52198019D01*
X189228157Y-52131955D01*
X189236006Y-52062537D01*
X189236556Y-52057671D01*
X189236557Y-52057664D01*
X189236574Y-52057510D01*
X189241762Y-51974553D01*
X189243303Y-51922187D01*
X189244456Y-51882996D01*
X189244458Y-51882863D01*
X189245391Y-51782590D01*
X189245391Y-51782579D01*
X189245298Y-51673301D01*
X189244912Y-51554989D01*
X189244961Y-51439252D01*
X189248391Y-51430980D01*
X189256707Y-51427557D01*
X189879960Y-51430001D01*
G37*
%TD.AperFunction*%
%TA.AperFunction,Conductor*%
G36*
X209185761Y-56508427D02*
G01*
X209189186Y-56516510D01*
X209191258Y-56644358D01*
X209198238Y-56766593D01*
X209210249Y-56874464D01*
X209227596Y-56970732D01*
X209250589Y-57058158D01*
X209279535Y-57139502D01*
X209314741Y-57217523D01*
X209356515Y-57294984D01*
X209405165Y-57374643D01*
X209405200Y-57374696D01*
X209405205Y-57374704D01*
X209456367Y-57452243D01*
X209458063Y-57461036D01*
X209455821Y-57465890D01*
X208944220Y-58120699D01*
X208936426Y-58125109D01*
X208927797Y-58122716D01*
X208925780Y-58120699D01*
X208414179Y-57465890D01*
X208411786Y-57457261D01*
X208413633Y-57452243D01*
X208464794Y-57374704D01*
X208464799Y-57374696D01*
X208464834Y-57374643D01*
X208513484Y-57294984D01*
X208555258Y-57217523D01*
X208590464Y-57139502D01*
X208619410Y-57058158D01*
X208642403Y-56970732D01*
X208659750Y-56874464D01*
X208671761Y-56766593D01*
X208678741Y-56644358D01*
X208680813Y-56516509D01*
X208684373Y-56508294D01*
X208692511Y-56505000D01*
X209177488Y-56505000D01*
X209185761Y-56508427D01*
G37*
%TD.AperFunction*%
%TA.AperFunction,Conductor*%
G36*
X174654655Y-63217328D02*
G01*
X175272956Y-63526478D01*
X175278824Y-63533243D01*
X175279389Y-63537850D01*
X175259047Y-63799375D01*
X175258783Y-63801094D01*
X175221503Y-63962791D01*
X175204950Y-64034583D01*
X175204563Y-64035902D01*
X175130892Y-64241445D01*
X175130604Y-64242171D01*
X175077953Y-64363000D01*
X175050192Y-64426709D01*
X174976403Y-64596732D01*
X174922707Y-64758670D01*
X174922636Y-64759233D01*
X174922635Y-64759237D01*
X174905934Y-64891482D01*
X174902419Y-64919313D01*
X174928854Y-65085447D01*
X174929228Y-65086218D01*
X174929229Y-65086222D01*
X174984186Y-65199611D01*
X175015326Y-65263862D01*
X175114449Y-65386343D01*
X175168388Y-65452992D01*
X175170929Y-65461578D01*
X175167396Y-65468792D01*
X174818289Y-65803980D01*
X174817938Y-65804317D01*
X174809597Y-65807575D01*
X174801395Y-65803980D01*
X174800707Y-65803197D01*
X174646556Y-65610966D01*
X174645229Y-65608898D01*
X174550606Y-65420541D01*
X174549712Y-65418132D01*
X174504895Y-65239200D01*
X174504571Y-65237145D01*
X174494388Y-65086222D01*
X174492877Y-65063827D01*
X174492855Y-65062704D01*
X174497829Y-64891482D01*
X174502810Y-64719989D01*
X174502810Y-64719980D01*
X174502818Y-64719699D01*
X174491016Y-64544777D01*
X174445631Y-64363577D01*
X174349873Y-64172960D01*
X174349490Y-64172483D01*
X174349486Y-64172476D01*
X174192064Y-63976165D01*
X174189562Y-63967567D01*
X174191181Y-63962791D01*
X174288983Y-63801097D01*
X174639413Y-63221738D01*
X174646626Y-63216432D01*
X174654655Y-63217328D01*
G37*
%TD.AperFunction*%
%TA.AperFunction,Conductor*%
G36*
X184805847Y-65515395D02*
G01*
X184808383Y-65518766D01*
X185056384Y-66014768D01*
X185057019Y-66023700D01*
X185056384Y-66025232D01*
X184808383Y-66521234D01*
X184801618Y-66527102D01*
X184797443Y-66527692D01*
X184631183Y-66520910D01*
X184630100Y-66520816D01*
X184570873Y-66512778D01*
X184488964Y-66501663D01*
X184487799Y-66501444D01*
X184370720Y-66473259D01*
X184369709Y-66472967D01*
X184268391Y-66438694D01*
X184267799Y-66438476D01*
X184174000Y-66401000D01*
X184080046Y-66363462D01*
X184080036Y-66363458D01*
X184079910Y-66363408D01*
X183977792Y-66328863D01*
X183859620Y-66300416D01*
X183859322Y-66300376D01*
X183859319Y-66300375D01*
X183812321Y-66293998D01*
X183717365Y-66281112D01*
X183554222Y-66274458D01*
X183546097Y-66270697D01*
X183543000Y-66262768D01*
X183543000Y-65777232D01*
X183546427Y-65768959D01*
X183554222Y-65765542D01*
X183717365Y-65758888D01*
X183812321Y-65746002D01*
X183859319Y-65739625D01*
X183859322Y-65739624D01*
X183859620Y-65739584D01*
X183977792Y-65711136D01*
X184079910Y-65676592D01*
X184080036Y-65676542D01*
X184080046Y-65676538D01*
X184174000Y-65639000D01*
X184267799Y-65601524D01*
X184268391Y-65601306D01*
X184369709Y-65567032D01*
X184370720Y-65566740D01*
X184487799Y-65538556D01*
X184488964Y-65538337D01*
X184570873Y-65527222D01*
X184630100Y-65519184D01*
X184631183Y-65519090D01*
X184797442Y-65512308D01*
X184805847Y-65515395D01*
G37*
%TD.AperFunction*%
%TA.AperFunction,Conductor*%
G36*
X219310753Y-52842857D02*
G01*
X219383555Y-53006739D01*
X219535534Y-53348857D01*
X219535761Y-53357809D01*
X219532602Y-53362364D01*
X219337805Y-53534982D01*
X219337389Y-53535601D01*
X219215721Y-53716670D01*
X219215719Y-53716674D01*
X219215293Y-53717308D01*
X219151802Y-53902657D01*
X219127658Y-54090020D01*
X219127651Y-54090321D01*
X219123187Y-54278391D01*
X219118729Y-54466154D01*
X219118636Y-54467371D01*
X219094723Y-54652946D01*
X219094188Y-54655243D01*
X219031576Y-54838026D01*
X219030222Y-54840751D01*
X218909404Y-55020556D01*
X218907453Y-55022788D01*
X218717104Y-55191466D01*
X218708639Y-55194388D01*
X218700587Y-55190469D01*
X218699813Y-55189495D01*
X218580412Y-55021800D01*
X218418861Y-54794909D01*
X218416854Y-54786182D01*
X218420695Y-54779312D01*
X218614901Y-54609708D01*
X218724431Y-54438721D01*
X218758055Y-54268647D01*
X218732523Y-54094815D01*
X218664584Y-53912556D01*
X218570989Y-53717196D01*
X218468650Y-53504410D01*
X218468338Y-53503701D01*
X218374092Y-53269162D01*
X218373643Y-53267816D01*
X218304001Y-53006739D01*
X218303661Y-53004859D01*
X218287688Y-52841136D01*
X218275800Y-52719283D01*
X218278408Y-52710717D01*
X218282130Y-52707725D01*
X218582692Y-52554451D01*
X219071826Y-52305013D01*
X219310753Y-52842857D01*
G37*
%TD.AperFunction*%
%TA.AperFunction,Conductor*%
G36*
X195596771Y-54518427D02*
G01*
X195600196Y-54526500D01*
X195604620Y-54786377D01*
X195617160Y-55009503D01*
X195635640Y-55196440D01*
X195658080Y-55359251D01*
X195682500Y-55510000D01*
X195706920Y-55660748D01*
X195729359Y-55823559D01*
X195747840Y-56010496D01*
X195760380Y-56233622D01*
X195765000Y-56505000D01*
X194965000Y-56905000D01*
X194171590Y-56508295D01*
X194165723Y-56501531D01*
X194165125Y-56497632D01*
X194169616Y-56233871D01*
X194169632Y-56233413D01*
X194182147Y-56010727D01*
X194182186Y-56010233D01*
X194200619Y-55823776D01*
X194200672Y-55823330D01*
X194223061Y-55660888D01*
X194223102Y-55660614D01*
X194247500Y-55510000D01*
X194271906Y-55359336D01*
X194271920Y-55359251D01*
X194294359Y-55196440D01*
X194312840Y-55009503D01*
X194325380Y-54786377D01*
X194329804Y-54526501D01*
X194333371Y-54518287D01*
X194341502Y-54515000D01*
X195588498Y-54515000D01*
X195596771Y-54518427D01*
G37*
%TD.AperFunction*%
%TA.AperFunction,Conductor*%
G36*
X206395810Y-64703391D02*
G01*
X206398411Y-64706821D01*
X206709884Y-65329768D01*
X206710519Y-65338700D01*
X206709884Y-65340232D01*
X206398412Y-65963177D01*
X206391647Y-65969045D01*
X206387382Y-65969631D01*
X206225567Y-65961788D01*
X206175558Y-65959364D01*
X206174254Y-65959228D01*
X206143049Y-65954176D01*
X205996719Y-65930488D01*
X205995355Y-65930182D01*
X205906747Y-65904624D01*
X205848677Y-65887874D01*
X205847510Y-65887469D01*
X205721103Y-65836026D01*
X205720434Y-65835729D01*
X205603750Y-65779500D01*
X205486909Y-65723196D01*
X205486735Y-65723112D01*
X205486556Y-65723039D01*
X205359693Y-65671409D01*
X205359687Y-65671407D01*
X205359412Y-65671295D01*
X205359128Y-65671213D01*
X205359122Y-65671211D01*
X205211808Y-65628721D01*
X205211805Y-65628720D01*
X205211471Y-65628624D01*
X205211128Y-65628569D01*
X205211126Y-65628568D01*
X205180609Y-65623628D01*
X205032603Y-65599668D01*
X204812500Y-65589000D01*
X204812500Y-65081000D01*
X205032603Y-65070332D01*
X205211471Y-65041376D01*
X205306479Y-65013972D01*
X205359125Y-64998787D01*
X205359129Y-64998786D01*
X205359412Y-64998704D01*
X205486735Y-64946888D01*
X205603750Y-64890500D01*
X205720435Y-64834271D01*
X205721103Y-64833974D01*
X205847512Y-64782529D01*
X205848680Y-64782124D01*
X205995349Y-64739820D01*
X205996721Y-64739512D01*
X206174254Y-64710772D01*
X206175558Y-64710636D01*
X206225567Y-64708212D01*
X206387382Y-64700369D01*
X206395810Y-64703391D01*
G37*
%TD.AperFunction*%
%TA.AperFunction,Conductor*%
G36*
X208868247Y-62743272D02*
G01*
X209021159Y-62999436D01*
X209022016Y-63001188D01*
X209114159Y-63237841D01*
X209114736Y-63239826D01*
X209157003Y-63454531D01*
X209157210Y-63456258D01*
X209166293Y-63656840D01*
X209166296Y-63657819D01*
X209151111Y-64046588D01*
X209160254Y-64248533D01*
X209160337Y-64248953D01*
X209202790Y-64464606D01*
X209202792Y-64464612D01*
X209202890Y-64465111D01*
X209203076Y-64465589D01*
X209203077Y-64465592D01*
X209295586Y-64703187D01*
X209295763Y-64703641D01*
X209318078Y-64741023D01*
X209451558Y-64964632D01*
X209452856Y-64973492D01*
X209450807Y-64977735D01*
X208940875Y-65644815D01*
X208933128Y-65649306D01*
X208926348Y-65648174D01*
X208306974Y-65338487D01*
X208301106Y-65331722D01*
X208300533Y-65327222D01*
X208321916Y-65015284D01*
X208322133Y-65013705D01*
X208330912Y-64971438D01*
X208378632Y-64741668D01*
X208378974Y-64740391D01*
X208456581Y-64504786D01*
X208456851Y-64504051D01*
X208542112Y-64294446D01*
X208542116Y-64294448D01*
X208542121Y-64294423D01*
X208560902Y-64248533D01*
X208621304Y-64100939D01*
X208680605Y-63913690D01*
X208706334Y-63722502D01*
X208699556Y-63657826D01*
X208684887Y-63517874D01*
X208684814Y-63517178D01*
X208662630Y-63455386D01*
X208602555Y-63288048D01*
X208602553Y-63288044D01*
X208602365Y-63287520D01*
X208450866Y-63032678D01*
X208449584Y-63023815D01*
X208454224Y-63017106D01*
X208851502Y-62739676D01*
X208860247Y-62737749D01*
X208868247Y-62743272D01*
G37*
%TD.AperFunction*%
%TA.AperFunction,Conductor*%
G36*
X158110691Y-40815327D02*
G01*
X158722483Y-40972196D01*
X159118976Y-41073860D01*
X159126139Y-41079234D01*
X159127770Y-41085193D01*
X159127770Y-41962718D01*
X159124343Y-41970991D01*
X159120542Y-41973530D01*
X158815583Y-42099655D01*
X158813960Y-42100191D01*
X158532364Y-42170897D01*
X158530908Y-42171166D01*
X158335449Y-42194605D01*
X158274492Y-42201915D01*
X158273539Y-42201990D01*
X158233480Y-42203487D01*
X158037683Y-42210807D01*
X158037509Y-42210812D01*
X157818330Y-42215732D01*
X157818326Y-42215732D01*
X157818113Y-42215737D01*
X157817899Y-42215757D01*
X157817896Y-42215757D01*
X157760281Y-42221093D01*
X157611221Y-42234898D01*
X157610775Y-42235014D01*
X157610768Y-42235015D01*
X157503018Y-42262980D01*
X157412629Y-42286438D01*
X157412031Y-42286752D01*
X157412030Y-42286752D01*
X157218647Y-42388180D01*
X157218644Y-42388182D01*
X157218032Y-42388503D01*
X157023122Y-42559237D01*
X157022783Y-42559675D01*
X157022778Y-42559680D01*
X156830247Y-42808199D01*
X156822471Y-42812641D01*
X156814539Y-42810789D01*
X156410181Y-42543058D01*
X156405175Y-42535634D01*
X156407150Y-42526459D01*
X156506876Y-42388180D01*
X156591840Y-42270369D01*
X156592499Y-42269540D01*
X156740150Y-42100191D01*
X156769340Y-42066712D01*
X156770147Y-42065875D01*
X156935999Y-41910012D01*
X156936782Y-41909339D01*
X157095506Y-41784603D01*
X157096003Y-41784233D01*
X157251494Y-41674839D01*
X157407235Y-41565270D01*
X157566615Y-41440018D01*
X157566798Y-41439846D01*
X157566805Y-41439840D01*
X157733052Y-41283607D01*
X157733053Y-41283606D01*
X157733270Y-41283402D01*
X157910839Y-41079738D01*
X157911203Y-41079234D01*
X158098295Y-40819816D01*
X158105914Y-40815111D01*
X158110691Y-40815327D01*
G37*
%TD.AperFunction*%
%TA.AperFunction,Conductor*%
G36*
X214019141Y-57508511D02*
G01*
X214019607Y-57509571D01*
X214340484Y-58350310D01*
X214340232Y-58359261D01*
X214336754Y-58363703D01*
X214183473Y-58483336D01*
X214087128Y-58617997D01*
X214086853Y-58618801D01*
X214086852Y-58618803D01*
X214057944Y-58703344D01*
X214038592Y-58759939D01*
X214021929Y-58906737D01*
X214021928Y-58907037D01*
X214021927Y-58907046D01*
X214020480Y-59204558D01*
X214020405Y-59205821D01*
X214003958Y-59350719D01*
X214003404Y-59353185D01*
X213955833Y-59492305D01*
X213954277Y-59495327D01*
X213859916Y-59627214D01*
X213857600Y-59629629D01*
X213709231Y-59745430D01*
X213700600Y-59747819D01*
X213692809Y-59743406D01*
X213692020Y-59742261D01*
X213441461Y-59327883D01*
X213440113Y-59319031D01*
X213444443Y-59312478D01*
X213543128Y-59238319D01*
X213590202Y-59202944D01*
X213590203Y-59202943D01*
X213590883Y-59202432D01*
X213677415Y-59085164D01*
X213707845Y-58964519D01*
X213694436Y-58837993D01*
X213649449Y-58703080D01*
X213585145Y-58557274D01*
X213552311Y-58484018D01*
X213513929Y-58398387D01*
X213513661Y-58397737D01*
X213447871Y-58223582D01*
X213447470Y-58222301D01*
X213399180Y-58030343D01*
X213398871Y-58028519D01*
X213380701Y-57822933D01*
X213383387Y-57814390D01*
X213387124Y-57811438D01*
X214003444Y-57503278D01*
X214012376Y-57502643D01*
X214019141Y-57508511D01*
G37*
%TD.AperFunction*%
%TA.AperFunction,Conductor*%
G36*
X156592612Y-56864442D02*
G01*
X156597760Y-56870837D01*
X156692653Y-57157876D01*
X156811384Y-57380167D01*
X156811757Y-57380616D01*
X156811760Y-57380621D01*
X156947760Y-57544482D01*
X156948119Y-57544914D01*
X156948550Y-57545267D01*
X156948553Y-57545270D01*
X157100147Y-57669448D01*
X157100450Y-57669696D01*
X157177047Y-57717080D01*
X157265870Y-57772027D01*
X157265891Y-57772039D01*
X157265973Y-57772090D01*
X157266060Y-57772138D01*
X157266070Y-57772144D01*
X157442118Y-57869587D01*
X157442453Y-57869780D01*
X157567410Y-57944445D01*
X157626483Y-57979743D01*
X157627429Y-57980373D01*
X157816992Y-58120268D01*
X157818196Y-58121289D01*
X158011247Y-58308779D01*
X158012371Y-58310041D01*
X158202495Y-58557331D01*
X158204821Y-58565978D01*
X158203378Y-58570267D01*
X157821646Y-59238299D01*
X157739657Y-59381779D01*
X157732577Y-59387262D01*
X157727937Y-59387569D01*
X157368762Y-59339184D01*
X156684409Y-59246995D01*
X156676667Y-59242495D01*
X156674636Y-59238299D01*
X156598025Y-58938777D01*
X156598022Y-58938767D01*
X156533546Y-58685762D01*
X156533548Y-58685761D01*
X156533543Y-58685752D01*
X156504230Y-58570267D01*
X156479631Y-58473358D01*
X156432758Y-58288029D01*
X156432757Y-58288023D01*
X156346056Y-57944445D01*
X156299183Y-57759115D01*
X156245268Y-57546712D01*
X156180788Y-57293696D01*
X156146162Y-57158319D01*
X156105121Y-56997863D01*
X156106391Y-56988999D01*
X156113552Y-56983630D01*
X156296730Y-56936703D01*
X156583748Y-56863175D01*
X156592612Y-56864442D01*
G37*
%TD.AperFunction*%
%TA.AperFunction,Conductor*%
G36*
X167833816Y-61074090D02*
G01*
X167834899Y-61074184D01*
X167894126Y-61082222D01*
X167976035Y-61093337D01*
X167977200Y-61093556D01*
X168094279Y-61121741D01*
X168095290Y-61122033D01*
X168196608Y-61156306D01*
X168197200Y-61156524D01*
X168291000Y-61194000D01*
X168384953Y-61231538D01*
X168384963Y-61231542D01*
X168385089Y-61231592D01*
X168487207Y-61266135D01*
X168605379Y-61294584D01*
X168605677Y-61294624D01*
X168605680Y-61294625D01*
X168652678Y-61301002D01*
X168747634Y-61313888D01*
X168910778Y-61320542D01*
X168918903Y-61324303D01*
X168922000Y-61332232D01*
X168922000Y-61817768D01*
X168918573Y-61826041D01*
X168910778Y-61829458D01*
X168747634Y-61836112D01*
X168652678Y-61848998D01*
X168605680Y-61855375D01*
X168605677Y-61855376D01*
X168605379Y-61855416D01*
X168487207Y-61883864D01*
X168385089Y-61918408D01*
X168384963Y-61918458D01*
X168384953Y-61918462D01*
X168291000Y-61956000D01*
X168197200Y-61993476D01*
X168196608Y-61993694D01*
X168095290Y-62027966D01*
X168094279Y-62028258D01*
X167977200Y-62056444D01*
X167976035Y-62056663D01*
X167894126Y-62067778D01*
X167834899Y-62075816D01*
X167833816Y-62075910D01*
X167667558Y-62082692D01*
X167659153Y-62079605D01*
X167656617Y-62076234D01*
X167408616Y-61580232D01*
X167407981Y-61571300D01*
X167408616Y-61569768D01*
X167656617Y-61073766D01*
X167663382Y-61067898D01*
X167667557Y-61067308D01*
X167833816Y-61074090D01*
G37*
%TD.AperFunction*%
%TA.AperFunction,Conductor*%
G36*
X204024597Y-64708220D02*
G01*
X204074441Y-64710636D01*
X204075746Y-64710772D01*
X204253280Y-64739512D01*
X204254644Y-64739818D01*
X204343252Y-64765376D01*
X204401322Y-64782126D01*
X204402489Y-64782531D01*
X204528896Y-64833974D01*
X204529564Y-64834271D01*
X204646250Y-64890500D01*
X204763264Y-64946888D01*
X204890587Y-64998703D01*
X204890870Y-64998785D01*
X204890874Y-64998786D01*
X204943410Y-65013940D01*
X205038528Y-65041376D01*
X205217396Y-65070332D01*
X205437500Y-65081000D01*
X205437500Y-65589000D01*
X205217396Y-65599668D01*
X205038528Y-65628624D01*
X204943520Y-65656028D01*
X204890874Y-65671213D01*
X204890870Y-65671214D01*
X204890587Y-65671296D01*
X204763264Y-65723112D01*
X204763090Y-65723196D01*
X204646250Y-65779500D01*
X204529565Y-65835729D01*
X204528896Y-65836026D01*
X204402489Y-65887468D01*
X204401322Y-65887873D01*
X204343062Y-65904678D01*
X204254644Y-65930182D01*
X204253280Y-65930488D01*
X204106950Y-65954176D01*
X204075745Y-65959228D01*
X204074441Y-65959364D01*
X204007162Y-65962625D01*
X203920293Y-65966835D01*
X203920286Y-65966836D01*
X203855000Y-65970000D01*
X203537500Y-65335000D01*
X203800838Y-64808325D01*
X203851589Y-64706822D01*
X203858353Y-64700955D01*
X203862617Y-64700369D01*
X204024597Y-64708220D01*
G37*
%TD.AperFunction*%
%TA.AperFunction,Conductor*%
G36*
X155664875Y-67900496D02*
G01*
X155671279Y-67907052D01*
X155847253Y-68359172D01*
X155847061Y-68368125D01*
X155841346Y-68373995D01*
X155541131Y-68515736D01*
X155540712Y-68516034D01*
X155540709Y-68516036D01*
X155328745Y-68666913D01*
X155317350Y-68675024D01*
X155316930Y-68675485D01*
X155316927Y-68675488D01*
X155216027Y-68786321D01*
X155160487Y-68847328D01*
X155051164Y-69032776D01*
X155051004Y-69033169D01*
X155051002Y-69033172D01*
X155049077Y-69037885D01*
X154970005Y-69231496D01*
X154969953Y-69231649D01*
X154897675Y-69443481D01*
X154897583Y-69443741D01*
X154814841Y-69668775D01*
X154814441Y-69669731D01*
X154702043Y-69907886D01*
X154701311Y-69909208D01*
X154539881Y-70160956D01*
X154538880Y-70162295D01*
X154313512Y-70422766D01*
X154305507Y-70426781D01*
X154301011Y-70426225D01*
X153770025Y-70251559D01*
X153413645Y-70134329D01*
X153406857Y-70128489D01*
X153405601Y-70123311D01*
X153396758Y-69045789D01*
X153400117Y-69037488D01*
X153404002Y-69034875D01*
X153715897Y-68906414D01*
X153715899Y-68906413D01*
X153716028Y-68906360D01*
X153973824Y-68786388D01*
X153973942Y-68786326D01*
X153973952Y-68786321D01*
X154185349Y-68675143D01*
X154185465Y-68675082D01*
X154366336Y-68569551D01*
X154697201Y-68364333D01*
X154697419Y-68364202D01*
X154877965Y-68258862D01*
X154878415Y-68258613D01*
X155089554Y-68147570D01*
X155090063Y-68147317D01*
X155145623Y-68121461D01*
X155347405Y-68027556D01*
X155347862Y-68027357D01*
X155655876Y-67900496D01*
X155655920Y-67900478D01*
X155664875Y-67900496D01*
G37*
%TD.AperFunction*%
%TA.AperFunction,Conductor*%
G36*
X203727245Y-64716446D02*
G01*
X203730491Y-64719276D01*
X203794024Y-64799699D01*
X204165854Y-65270382D01*
X203984236Y-65956709D01*
X203841313Y-65979264D01*
X203767212Y-65990958D01*
X203765908Y-65991089D01*
X203676322Y-65995075D01*
X203586250Y-65999082D01*
X203584855Y-65999060D01*
X203499115Y-65992543D01*
X203432644Y-65987490D01*
X203431419Y-65987332D01*
X203297174Y-65962690D01*
X203296458Y-65962535D01*
X203170776Y-65931232D01*
X203044735Y-65899840D01*
X202970744Y-65886258D01*
X202909837Y-65875078D01*
X202909834Y-65875078D01*
X202909531Y-65875022D01*
X202909217Y-65874998D01*
X202909216Y-65874998D01*
X202887034Y-65873312D01*
X202756002Y-65863352D01*
X202755641Y-65863368D01*
X202755636Y-65863368D01*
X202686761Y-65866433D01*
X202574984Y-65871406D01*
X202574667Y-65871456D01*
X202368327Y-65904020D01*
X202359621Y-65901925D01*
X202355048Y-65894844D01*
X202350939Y-65875078D01*
X202256195Y-65419303D01*
X202257866Y-65410507D01*
X202264717Y-65405597D01*
X202466932Y-65353233D01*
X202466934Y-65353232D01*
X202467252Y-65353150D01*
X202467557Y-65353033D01*
X202467561Y-65353032D01*
X202636141Y-65288527D01*
X202636143Y-65288526D01*
X202636483Y-65288396D01*
X202636799Y-65288229D01*
X202636806Y-65288226D01*
X202713068Y-65247962D01*
X202772643Y-65216508D01*
X202849795Y-65164688D01*
X202886624Y-65139952D01*
X202886631Y-65139947D01*
X202886756Y-65139863D01*
X202886878Y-65139769D01*
X202886887Y-65139763D01*
X202989845Y-65060840D01*
X203092639Y-64982044D01*
X203093233Y-64981617D01*
X203206546Y-64905509D01*
X203207578Y-64904892D01*
X203342589Y-64833611D01*
X203343866Y-64833033D01*
X203511824Y-64768766D01*
X203513072Y-64768367D01*
X203600755Y-64745661D01*
X203718378Y-64715203D01*
X203727245Y-64716446D01*
G37*
%TD.AperFunction*%
%TA.AperFunction,Conductor*%
G36*
X214015810Y-64703391D02*
G01*
X214018411Y-64706821D01*
X214329884Y-65329768D01*
X214330519Y-65338700D01*
X214329884Y-65340232D01*
X214018412Y-65963177D01*
X214011647Y-65969045D01*
X214007382Y-65969631D01*
X213845567Y-65961788D01*
X213795558Y-65959364D01*
X213794254Y-65959228D01*
X213763049Y-65954176D01*
X213616719Y-65930488D01*
X213615355Y-65930182D01*
X213526747Y-65904624D01*
X213468677Y-65887874D01*
X213467510Y-65887469D01*
X213341103Y-65836026D01*
X213340434Y-65835729D01*
X213223750Y-65779500D01*
X213106909Y-65723196D01*
X213106735Y-65723112D01*
X213106556Y-65723039D01*
X212979693Y-65671409D01*
X212979687Y-65671407D01*
X212979412Y-65671295D01*
X212979128Y-65671213D01*
X212979122Y-65671211D01*
X212831808Y-65628721D01*
X212831805Y-65628720D01*
X212831471Y-65628624D01*
X212831128Y-65628569D01*
X212831126Y-65628568D01*
X212800609Y-65623628D01*
X212652603Y-65599668D01*
X212432500Y-65589000D01*
X212432500Y-65081000D01*
X212652603Y-65070332D01*
X212831471Y-65041376D01*
X212926479Y-65013972D01*
X212979125Y-64998787D01*
X212979129Y-64998786D01*
X212979412Y-64998704D01*
X213106735Y-64946888D01*
X213223750Y-64890500D01*
X213340435Y-64834271D01*
X213341103Y-64833974D01*
X213467512Y-64782529D01*
X213468680Y-64782124D01*
X213615349Y-64739820D01*
X213616721Y-64739512D01*
X213794254Y-64710772D01*
X213795558Y-64710636D01*
X213845567Y-64708212D01*
X214007382Y-64700369D01*
X214015810Y-64703391D01*
G37*
%TD.AperFunction*%
%TA.AperFunction,Conductor*%
G36*
X211644597Y-64708220D02*
G01*
X211694441Y-64710636D01*
X211695746Y-64710772D01*
X211873280Y-64739512D01*
X211874644Y-64739818D01*
X211963252Y-64765376D01*
X212021322Y-64782126D01*
X212022489Y-64782531D01*
X212148896Y-64833974D01*
X212149564Y-64834271D01*
X212266250Y-64890500D01*
X212383264Y-64946888D01*
X212510587Y-64998703D01*
X212510870Y-64998785D01*
X212510874Y-64998786D01*
X212563410Y-65013940D01*
X212658528Y-65041376D01*
X212837396Y-65070332D01*
X213057500Y-65081000D01*
X213057500Y-65589000D01*
X212837396Y-65599668D01*
X212658528Y-65628624D01*
X212563520Y-65656028D01*
X212510874Y-65671213D01*
X212510870Y-65671214D01*
X212510587Y-65671296D01*
X212383264Y-65723112D01*
X212383090Y-65723196D01*
X212266250Y-65779500D01*
X212149565Y-65835729D01*
X212148896Y-65836026D01*
X212022489Y-65887468D01*
X212021322Y-65887873D01*
X211963062Y-65904678D01*
X211874644Y-65930182D01*
X211873280Y-65930488D01*
X211840972Y-65935718D01*
X211811466Y-65940494D01*
X211811465Y-65940494D01*
X211809244Y-65940854D01*
X211695103Y-65959332D01*
X211475000Y-65970000D01*
X211157500Y-65335000D01*
X211471589Y-64706822D01*
X211478353Y-64700955D01*
X211482617Y-64700369D01*
X211644597Y-64708220D01*
G37*
%TD.AperFunction*%
%TA.AperFunction,Conductor*%
G36*
X211945840Y-65761068D02*
G01*
X211809244Y-65940854D01*
X211783218Y-65975109D01*
X211687858Y-66173674D01*
X211642945Y-66360632D01*
X211631663Y-66539851D01*
X211631672Y-66540137D01*
X211631672Y-66540138D01*
X211637197Y-66715202D01*
X211642712Y-66889996D01*
X211642695Y-66891100D01*
X211631512Y-67068761D01*
X211631211Y-67070759D01*
X211586826Y-67255517D01*
X211585997Y-67257849D01*
X211491688Y-67454227D01*
X211490457Y-67456240D01*
X211336266Y-67659187D01*
X211328534Y-67663700D01*
X211319873Y-67661424D01*
X211319101Y-67660783D01*
X211093064Y-67456240D01*
X210959869Y-67335710D01*
X210956034Y-67327619D01*
X210958425Y-67319928D01*
X211111128Y-67120256D01*
X211111520Y-67119744D01*
X211197464Y-66932750D01*
X211223114Y-66760130D01*
X211201870Y-66594511D01*
X211147130Y-66428522D01*
X211072296Y-66254790D01*
X210990921Y-66066301D01*
X210990634Y-66065569D01*
X210916169Y-65855259D01*
X210915788Y-65853943D01*
X210898180Y-65776332D01*
X210861407Y-65614254D01*
X210861152Y-65612559D01*
X210840597Y-65342838D01*
X210843385Y-65334328D01*
X210847029Y-65331485D01*
X211475000Y-65017500D01*
X211945840Y-65761068D01*
G37*
%TD.AperFunction*%
%TA.AperFunction,Conductor*%
G36*
X154309157Y-71778649D02*
G01*
X154312729Y-71781428D01*
X154532684Y-72034798D01*
X154533688Y-72036137D01*
X154557884Y-72073745D01*
X154691010Y-72280671D01*
X154691750Y-72282006D01*
X154800871Y-72513127D01*
X154801280Y-72514106D01*
X154881125Y-72732593D01*
X154881220Y-72732862D01*
X154950587Y-72939161D01*
X155028231Y-73133277D01*
X155133030Y-73315523D01*
X155133421Y-73315966D01*
X155133422Y-73315967D01*
X155283493Y-73485866D01*
X155283497Y-73485869D01*
X155283900Y-73486326D01*
X155327616Y-73518687D01*
X155499345Y-73645811D01*
X155499351Y-73645814D01*
X155499758Y-73646116D01*
X155500220Y-73646346D01*
X155789747Y-73790455D01*
X155795627Y-73797209D01*
X155795344Y-73805404D01*
X155609770Y-74253733D01*
X155603440Y-74260066D01*
X155594334Y-74260005D01*
X155295186Y-74131234D01*
X155294842Y-74131079D01*
X155286765Y-74127289D01*
X155043437Y-74013113D01*
X155043094Y-74012945D01*
X154835505Y-73906531D01*
X154835176Y-73906356D01*
X154656739Y-73807616D01*
X154656540Y-73807503D01*
X154492573Y-73712537D01*
X154377892Y-73646116D01*
X154328495Y-73617506D01*
X154328469Y-73617491D01*
X154328454Y-73617483D01*
X154149916Y-73518687D01*
X154149891Y-73518674D01*
X154149803Y-73518625D01*
X154149696Y-73518570D01*
X153941986Y-73412095D01*
X153941974Y-73412089D01*
X153941884Y-73412043D01*
X153690126Y-73293911D01*
X153690084Y-73293893D01*
X153690071Y-73293887D01*
X153387170Y-73163501D01*
X153380926Y-73157082D01*
X153380099Y-73152481D01*
X153380557Y-73132884D01*
X153389898Y-72732593D01*
X153405082Y-72081936D01*
X153408701Y-72073745D01*
X153413108Y-72071100D01*
X153891071Y-71913178D01*
X154300227Y-71777991D01*
X154309157Y-71778649D01*
G37*
%TD.AperFunction*%
%TA.AperFunction,Conductor*%
G36*
X172274597Y-70423220D02*
G01*
X172324441Y-70425636D01*
X172325746Y-70425772D01*
X172503280Y-70454512D01*
X172504644Y-70454818D01*
X172593252Y-70480376D01*
X172651322Y-70497126D01*
X172652489Y-70497531D01*
X172778896Y-70548974D01*
X172779564Y-70549271D01*
X172896250Y-70605500D01*
X173013264Y-70661888D01*
X173140587Y-70713703D01*
X173140870Y-70713785D01*
X173140874Y-70713786D01*
X173193410Y-70728940D01*
X173288528Y-70756376D01*
X173467396Y-70785332D01*
X173687500Y-70796000D01*
X173687500Y-71304000D01*
X173467396Y-71314668D01*
X173288528Y-71343624D01*
X173193520Y-71371028D01*
X173140874Y-71386213D01*
X173140870Y-71386214D01*
X173140587Y-71386296D01*
X173013264Y-71438112D01*
X173013090Y-71438196D01*
X172896250Y-71494500D01*
X172779565Y-71550729D01*
X172778896Y-71551026D01*
X172652489Y-71602468D01*
X172651322Y-71602873D01*
X172593062Y-71619678D01*
X172504644Y-71645182D01*
X172503280Y-71645488D01*
X172356950Y-71669176D01*
X172325745Y-71674228D01*
X172324441Y-71674364D01*
X172274597Y-71676780D01*
X172112618Y-71684631D01*
X172104190Y-71681609D01*
X172101588Y-71678177D01*
X171790116Y-71055232D01*
X171789481Y-71046300D01*
X171790116Y-71044768D01*
X172101589Y-70421822D01*
X172108353Y-70415955D01*
X172112617Y-70415369D01*
X172274597Y-70423220D01*
G37*
%TD.AperFunction*%
%TA.AperFunction,Conductor*%
G36*
X174645810Y-70418391D02*
G01*
X174648411Y-70421821D01*
X174959884Y-71044768D01*
X174960519Y-71053700D01*
X174959884Y-71055232D01*
X174648412Y-71678177D01*
X174641647Y-71684045D01*
X174637382Y-71684631D01*
X174475567Y-71676788D01*
X174425558Y-71674364D01*
X174424254Y-71674228D01*
X174393049Y-71669176D01*
X174246719Y-71645488D01*
X174245355Y-71645182D01*
X174156747Y-71619624D01*
X174098677Y-71602874D01*
X174097510Y-71602469D01*
X173971103Y-71551026D01*
X173970434Y-71550729D01*
X173853750Y-71494500D01*
X173736909Y-71438196D01*
X173736735Y-71438112D01*
X173736556Y-71438039D01*
X173609693Y-71386409D01*
X173609687Y-71386407D01*
X173609412Y-71386295D01*
X173609128Y-71386213D01*
X173609122Y-71386211D01*
X173461808Y-71343721D01*
X173461805Y-71343720D01*
X173461471Y-71343624D01*
X173461128Y-71343569D01*
X173461126Y-71343568D01*
X173430609Y-71338628D01*
X173282603Y-71314668D01*
X173062500Y-71304000D01*
X173062500Y-70796000D01*
X173282603Y-70785332D01*
X173461471Y-70756376D01*
X173556479Y-70728972D01*
X173609125Y-70713787D01*
X173609129Y-70713786D01*
X173609412Y-70713704D01*
X173736735Y-70661888D01*
X173853750Y-70605500D01*
X173970435Y-70549271D01*
X173971103Y-70548974D01*
X174097512Y-70497529D01*
X174098680Y-70497124D01*
X174245349Y-70454820D01*
X174246721Y-70454512D01*
X174424254Y-70425772D01*
X174425558Y-70425636D01*
X174475567Y-70423212D01*
X174637382Y-70415369D01*
X174645810Y-70418391D01*
G37*
%TD.AperFunction*%
%TA.AperFunction,Conductor*%
G36*
X208921939Y-43095013D02*
G01*
X209164862Y-43095860D01*
X209173122Y-43099316D01*
X209176505Y-43106960D01*
X209190176Y-43373027D01*
X209190253Y-43374533D01*
X209230962Y-43600203D01*
X209231086Y-43600584D01*
X209290725Y-43783873D01*
X209291466Y-43786151D01*
X209365166Y-43945618D01*
X209365267Y-43945801D01*
X209365267Y-43945802D01*
X209445465Y-44091843D01*
X209525562Y-44237703D01*
X209525928Y-44238426D01*
X209599175Y-44396909D01*
X209599680Y-44398198D01*
X209659722Y-44582727D01*
X209660110Y-44584270D01*
X209700544Y-44808416D01*
X209700715Y-44809893D01*
X209714538Y-45078884D01*
X209714601Y-45080117D01*
X209711603Y-45088555D01*
X209708114Y-45091199D01*
X209237063Y-45324675D01*
X208918847Y-45482399D01*
X208909912Y-45483003D01*
X208908382Y-45482362D01*
X208121864Y-45085669D01*
X208116021Y-45078884D01*
X208115453Y-45074541D01*
X208131221Y-44804423D01*
X208131402Y-44802948D01*
X208173399Y-44579086D01*
X208173798Y-44577545D01*
X208235126Y-44393436D01*
X208235640Y-44392152D01*
X208309986Y-44234192D01*
X208310351Y-44233480D01*
X208391472Y-44088168D01*
X208472693Y-43942678D01*
X208472789Y-43942506D01*
X208547600Y-43783557D01*
X208609399Y-43598036D01*
X208651681Y-43372654D01*
X208667296Y-43105184D01*
X208671199Y-43097125D01*
X208679017Y-43094166D01*
X208921939Y-43095013D01*
G37*
%TD.AperFunction*%
%TA.AperFunction,Conductor*%
G36*
X216806127Y-63755927D02*
G01*
X216809540Y-63763633D01*
X216819668Y-63972603D01*
X216848624Y-64151471D01*
X216891296Y-64299412D01*
X216943112Y-64426735D01*
X216943196Y-64426909D01*
X216999500Y-64543750D01*
X217055729Y-64660434D01*
X217056026Y-64661103D01*
X217107468Y-64787510D01*
X217107873Y-64788677D01*
X217150181Y-64935351D01*
X217150489Y-64936724D01*
X217179228Y-65114254D01*
X217179364Y-65115558D01*
X217189631Y-65327381D01*
X217186609Y-65335810D01*
X217183179Y-65338411D01*
X216560232Y-65649884D01*
X216551300Y-65650519D01*
X216549768Y-65649884D01*
X215926822Y-65338411D01*
X215920955Y-65331647D01*
X215920369Y-65327381D01*
X215930636Y-65115558D01*
X215930772Y-65114254D01*
X215959511Y-64936724D01*
X215959819Y-64935351D01*
X216002126Y-64788677D01*
X216002531Y-64787510D01*
X216053974Y-64661103D01*
X216054271Y-64660434D01*
X216110500Y-64543750D01*
X216166804Y-64426909D01*
X216166888Y-64426735D01*
X216218703Y-64299412D01*
X216261376Y-64151471D01*
X216290332Y-63972603D01*
X216300460Y-63763633D01*
X216304283Y-63755536D01*
X216312146Y-63752500D01*
X216797854Y-63752500D01*
X216806127Y-63755927D01*
G37*
%TD.AperFunction*%
%TA.AperFunction,Conductor*%
G36*
X168468816Y-59804090D02*
G01*
X168469899Y-59804184D01*
X168529126Y-59812222D01*
X168611035Y-59823337D01*
X168612200Y-59823556D01*
X168729279Y-59851741D01*
X168730290Y-59852033D01*
X168831608Y-59886306D01*
X168832200Y-59886524D01*
X168926000Y-59924000D01*
X169019953Y-59961538D01*
X169019963Y-59961542D01*
X169020089Y-59961592D01*
X169122207Y-59996135D01*
X169240379Y-60024584D01*
X169240677Y-60024624D01*
X169240680Y-60024625D01*
X169287678Y-60031002D01*
X169382634Y-60043888D01*
X169545778Y-60050542D01*
X169553903Y-60054303D01*
X169557000Y-60062232D01*
X169557000Y-60547768D01*
X169553573Y-60556041D01*
X169545778Y-60559458D01*
X169382634Y-60566112D01*
X169287678Y-60578998D01*
X169240680Y-60585375D01*
X169240677Y-60585376D01*
X169240379Y-60585416D01*
X169122207Y-60613864D01*
X169020089Y-60648408D01*
X169019963Y-60648458D01*
X169019953Y-60648462D01*
X168926000Y-60686000D01*
X168832200Y-60723476D01*
X168831608Y-60723694D01*
X168730290Y-60757966D01*
X168729279Y-60758258D01*
X168612200Y-60786444D01*
X168611035Y-60786663D01*
X168529126Y-60797778D01*
X168469899Y-60805816D01*
X168468816Y-60805910D01*
X168302558Y-60812692D01*
X168294153Y-60809605D01*
X168291617Y-60806234D01*
X168043616Y-60310232D01*
X168042981Y-60301300D01*
X168043616Y-60299768D01*
X168291617Y-59803766D01*
X168298382Y-59797898D01*
X168302557Y-59797308D01*
X168468816Y-59804090D01*
G37*
%TD.AperFunction*%
%TA.AperFunction,Conductor*%
G36*
X161950232Y-56107616D02*
G01*
X162738129Y-56501565D01*
X162743997Y-56508330D01*
X162744579Y-56512671D01*
X162729753Y-56782834D01*
X162729578Y-56784310D01*
X162688360Y-57008327D01*
X162687966Y-57009869D01*
X162627280Y-57194191D01*
X162626770Y-57195477D01*
X162552983Y-57353680D01*
X162552616Y-57354402D01*
X162472000Y-57500000D01*
X162391296Y-57645757D01*
X162391192Y-57645944D01*
X162316935Y-57805153D01*
X162255784Y-57990889D01*
X162214288Y-58216417D01*
X162214267Y-58216800D01*
X162199607Y-58483941D01*
X162195732Y-58492014D01*
X162187925Y-58495000D01*
X161702075Y-58495000D01*
X161693802Y-58491573D01*
X161690393Y-58483941D01*
X161675733Y-58216800D01*
X161675712Y-58216417D01*
X161634216Y-57990889D01*
X161573064Y-57805153D01*
X161498808Y-57645944D01*
X161498711Y-57645768D01*
X161498705Y-57645757D01*
X161418000Y-57500000D01*
X161337387Y-57354407D01*
X161337020Y-57353686D01*
X161263228Y-57195475D01*
X161262718Y-57194188D01*
X161202034Y-57009869D01*
X161201640Y-57008327D01*
X161160422Y-56784310D01*
X161160247Y-56782834D01*
X161145421Y-56512671D01*
X161148389Y-56504223D01*
X161151871Y-56501565D01*
X161939768Y-56107616D01*
X161948700Y-56106981D01*
X161950232Y-56107616D01*
G37*
%TD.AperFunction*%
%TA.AperFunction,Conductor*%
G36*
X162196041Y-60316427D02*
G01*
X162199458Y-60324222D01*
X162206112Y-60487365D01*
X162225416Y-60629620D01*
X162253864Y-60747792D01*
X162288408Y-60849910D01*
X162288458Y-60850036D01*
X162288462Y-60850046D01*
X162326000Y-60944000D01*
X162363476Y-61037799D01*
X162363694Y-61038391D01*
X162397966Y-61139709D01*
X162398258Y-61140720D01*
X162426444Y-61257799D01*
X162426663Y-61258964D01*
X162445815Y-61400094D01*
X162445911Y-61401190D01*
X162452692Y-61567441D01*
X162449605Y-61575847D01*
X162446234Y-61578383D01*
X161950232Y-61826384D01*
X161941300Y-61827019D01*
X161939768Y-61826384D01*
X161443766Y-61578383D01*
X161437898Y-61571618D01*
X161437308Y-61567441D01*
X161444089Y-61401190D01*
X161444185Y-61400094D01*
X161463337Y-61258964D01*
X161463556Y-61257799D01*
X161491741Y-61140720D01*
X161492033Y-61139709D01*
X161526306Y-61038391D01*
X161526524Y-61037799D01*
X161564000Y-60944000D01*
X161601538Y-60850046D01*
X161601542Y-60850036D01*
X161601592Y-60849910D01*
X161636135Y-60747792D01*
X161664584Y-60629620D01*
X161683888Y-60487365D01*
X161690542Y-60324222D01*
X161694303Y-60316097D01*
X161702232Y-60313000D01*
X162187768Y-60313000D01*
X162196041Y-60316427D01*
G37*
%TD.AperFunction*%
%TA.AperFunction,Conductor*%
G36*
X194967079Y-40877042D02*
G01*
X194968073Y-40879913D01*
X195182882Y-41922341D01*
X195202854Y-42019264D01*
X195201168Y-42028058D01*
X195196428Y-42032187D01*
X195033632Y-42109755D01*
X195020110Y-42116198D01*
X194903432Y-42234220D01*
X194837691Y-42374792D01*
X194837553Y-42375469D01*
X194837552Y-42375471D01*
X194825184Y-42436027D01*
X194805908Y-42530398D01*
X194791105Y-42693520D01*
X194782112Y-42792618D01*
X194776360Y-42855997D01*
X194776172Y-42857272D01*
X194772728Y-42874137D01*
X194744796Y-43010889D01*
X194743933Y-43013499D01*
X194679634Y-43150988D01*
X194677356Y-43154257D01*
X194563536Y-43269388D01*
X194560253Y-43271722D01*
X194475652Y-43312032D01*
X194389665Y-43353003D01*
X194380722Y-43353468D01*
X194374070Y-43347474D01*
X194373470Y-43345947D01*
X194228425Y-42884107D01*
X194229215Y-42875188D01*
X194234848Y-42869905D01*
X194409314Y-42792618D01*
X194409315Y-42792618D01*
X194410264Y-42792197D01*
X194411008Y-42791474D01*
X194411010Y-42791473D01*
X194512938Y-42692463D01*
X194513989Y-42691442D01*
X194551020Y-42572345D01*
X194546392Y-42530398D01*
X194535978Y-42436027D01*
X194535907Y-42435382D01*
X194515450Y-42375471D01*
X194483286Y-42281278D01*
X194483284Y-42281272D01*
X194483200Y-42281027D01*
X194407448Y-42109755D01*
X194323334Y-41922335D01*
X194323087Y-41921743D01*
X194245242Y-41718960D01*
X194244849Y-41717740D01*
X194187669Y-41500106D01*
X194187338Y-41498248D01*
X194165765Y-41272990D01*
X194168388Y-41264428D01*
X194172180Y-41261410D01*
X194951382Y-40871809D01*
X194960314Y-40871174D01*
X194967079Y-40877042D01*
G37*
%TD.AperFunction*%
%TA.AperFunction,Conductor*%
G36*
X187924762Y-42978581D02*
G01*
X187925371Y-42980072D01*
X188077125Y-43439778D01*
X188076465Y-43448709D01*
X188070903Y-43454076D01*
X187893940Y-43535420D01*
X187789233Y-43639043D01*
X187751619Y-43760298D01*
X187766431Y-43898903D01*
X187819003Y-44054578D01*
X187894672Y-44227042D01*
X187932168Y-44311296D01*
X187978634Y-44415708D01*
X187978884Y-44416314D01*
X188056403Y-44620613D01*
X188056794Y-44621846D01*
X188113356Y-44841438D01*
X188113679Y-44843303D01*
X188134267Y-45071184D01*
X188131598Y-45079732D01*
X188127793Y-45082728D01*
X187613367Y-45336592D01*
X187346381Y-45468347D01*
X187337445Y-45468935D01*
X187330711Y-45463033D01*
X187329763Y-45460308D01*
X187086136Y-44324250D01*
X187087752Y-44315442D01*
X187092415Y-44311298D01*
X187270381Y-44223861D01*
X187388230Y-44103506D01*
X187454846Y-43961482D01*
X187487307Y-43805012D01*
X187491398Y-43761486D01*
X187502690Y-43641319D01*
X187518013Y-43478268D01*
X187518206Y-43476986D01*
X187550254Y-43322504D01*
X187551117Y-43319912D01*
X187616308Y-43180929D01*
X187618541Y-43177712D01*
X187733599Y-43060207D01*
X187736800Y-43057892D01*
X187909102Y-42973239D01*
X187918038Y-42972666D01*
X187924762Y-42978581D01*
G37*
%TD.AperFunction*%
%TA.AperFunction,Conductor*%
G36*
X192980513Y-39287185D02*
G01*
X192981060Y-39288101D01*
X193104887Y-39519108D01*
X193210020Y-39715241D01*
X193210908Y-39724152D01*
X193206275Y-39730452D01*
X193046088Y-39839089D01*
X193045535Y-39839785D01*
X193045533Y-39839787D01*
X192952079Y-39957411D01*
X192952078Y-39957413D01*
X192951340Y-39958342D01*
X192917090Y-40084256D01*
X192929671Y-40218795D01*
X192929857Y-40219385D01*
X192929858Y-40219390D01*
X192960995Y-40318170D01*
X192975417Y-40363923D01*
X192975513Y-40364155D01*
X193040657Y-40521594D01*
X193040661Y-40521603D01*
X193111589Y-40693438D01*
X193111867Y-40694184D01*
X193174749Y-40881780D01*
X193175125Y-40883186D01*
X193216527Y-41088612D01*
X193216753Y-41090586D01*
X193223068Y-41309106D01*
X193219882Y-41317475D01*
X193215914Y-41320226D01*
X192613213Y-41573948D01*
X192410743Y-41659182D01*
X192401788Y-41659234D01*
X192395420Y-41652939D01*
X192395055Y-41651951D01*
X192049737Y-40568345D01*
X192050490Y-40559422D01*
X192054437Y-40555030D01*
X192223233Y-40443535D01*
X192223232Y-40443535D01*
X192223760Y-40443187D01*
X192300680Y-40363923D01*
X192344063Y-40319217D01*
X192344527Y-40318739D01*
X192423337Y-40188497D01*
X192474174Y-40054392D01*
X192511025Y-39918356D01*
X192547730Y-39782863D01*
X192548081Y-39781780D01*
X192598335Y-39649213D01*
X192599265Y-39647303D01*
X192676839Y-39519104D01*
X192678447Y-39517021D01*
X192797404Y-39394438D01*
X192799352Y-39392823D01*
X192964303Y-39283870D01*
X192973093Y-39282170D01*
X192980513Y-39287185D01*
G37*
%TD.AperFunction*%
%TA.AperFunction,Conductor*%
G36*
X211461632Y-43095012D02*
G01*
X211703605Y-43095703D01*
X211711868Y-43099154D01*
X211715255Y-43106795D01*
X211729172Y-43374359D01*
X211770024Y-43600004D01*
X211830645Y-43785914D01*
X211904446Y-43945334D01*
X212063130Y-44233868D01*
X212065037Y-44237336D01*
X212065397Y-44238049D01*
X212137227Y-44393209D01*
X212138735Y-44396467D01*
X212139242Y-44397755D01*
X212199403Y-44582257D01*
X212199792Y-44583800D01*
X212240371Y-44807928D01*
X212240542Y-44809404D01*
X212254597Y-45079611D01*
X212251605Y-45088051D01*
X212248118Y-45090698D01*
X211459098Y-45482397D01*
X211450164Y-45483006D01*
X211448634Y-45482367D01*
X210661866Y-45086171D01*
X210656018Y-45079389D01*
X210655447Y-45075047D01*
X210671044Y-44804920D01*
X210671224Y-44803444D01*
X210713080Y-44579552D01*
X210713477Y-44578014D01*
X210774691Y-44393862D01*
X210775205Y-44392577D01*
X210781180Y-44379862D01*
X210849446Y-44234581D01*
X210849811Y-44233868D01*
X210930843Y-44088500D01*
X211010551Y-43945505D01*
X211012067Y-43942786D01*
X211086777Y-43783790D01*
X211148459Y-43598230D01*
X211190599Y-43372821D01*
X211206045Y-43105341D01*
X211209943Y-43097280D01*
X211217758Y-43094316D01*
X211461632Y-43095012D01*
G37*
%TD.AperFunction*%
%TA.AperFunction,Conductor*%
G36*
X190055340Y-38720443D02*
G01*
X190391601Y-38965575D01*
X190447156Y-39006074D01*
X190451823Y-39013716D01*
X190450249Y-39021627D01*
X190347432Y-39189953D01*
X190300228Y-39267232D01*
X190300023Y-39267825D01*
X190300022Y-39267828D01*
X190223867Y-39488554D01*
X190223609Y-39489302D01*
X190211259Y-39688450D01*
X190211408Y-39689194D01*
X190248320Y-39873976D01*
X190248322Y-39873982D01*
X190248423Y-39874489D01*
X190320347Y-40057233D01*
X190412279Y-40246495D01*
X190446094Y-40318030D01*
X190509263Y-40451665D01*
X190509628Y-40452525D01*
X190596880Y-40683122D01*
X190597322Y-40684564D01*
X190660368Y-40950644D01*
X190660648Y-40952433D01*
X190684388Y-41257148D01*
X190681614Y-41265663D01*
X190677955Y-41268522D01*
X189893779Y-41660610D01*
X189884847Y-41661245D01*
X189879151Y-41657117D01*
X189243388Y-40800268D01*
X189241210Y-40791582D01*
X189242976Y-40786917D01*
X189310028Y-40683829D01*
X189403103Y-40540730D01*
X189446280Y-40452089D01*
X189511580Y-40318030D01*
X189511581Y-40318028D01*
X189511745Y-40317691D01*
X189578448Y-40117126D01*
X189617191Y-39931545D01*
X189666665Y-39575737D01*
X189666799Y-39574970D01*
X189705322Y-39390443D01*
X189705673Y-39389142D01*
X189771919Y-39189953D01*
X189772499Y-39188527D01*
X189880494Y-38966819D01*
X189881199Y-38965575D01*
X190038641Y-38723518D01*
X190046025Y-38718451D01*
X190055340Y-38720443D01*
G37*
%TD.AperFunction*%
%TA.AperFunction,Conductor*%
G36*
X174645810Y-70418391D02*
G01*
X174648411Y-70421821D01*
X174959884Y-71044768D01*
X174960519Y-71053700D01*
X174959884Y-71055232D01*
X174648412Y-71678177D01*
X174641647Y-71684045D01*
X174637382Y-71684631D01*
X174475567Y-71676788D01*
X174425558Y-71674364D01*
X174424254Y-71674228D01*
X174393049Y-71669176D01*
X174246719Y-71645488D01*
X174245355Y-71645182D01*
X174156747Y-71619624D01*
X174098677Y-71602874D01*
X174097510Y-71602469D01*
X173971103Y-71551026D01*
X173970434Y-71550729D01*
X173853750Y-71494500D01*
X173736909Y-71438196D01*
X173736735Y-71438112D01*
X173736556Y-71438039D01*
X173609693Y-71386409D01*
X173609687Y-71386407D01*
X173609412Y-71386295D01*
X173609128Y-71386213D01*
X173609122Y-71386211D01*
X173461808Y-71343721D01*
X173461805Y-71343720D01*
X173461471Y-71343624D01*
X173461128Y-71343569D01*
X173461126Y-71343568D01*
X173430609Y-71338628D01*
X173282603Y-71314668D01*
X173062500Y-71304000D01*
X173062500Y-70796000D01*
X173282603Y-70785332D01*
X173461471Y-70756376D01*
X173556479Y-70728972D01*
X173609125Y-70713787D01*
X173609129Y-70713786D01*
X173609412Y-70713704D01*
X173736735Y-70661888D01*
X173853750Y-70605500D01*
X173970435Y-70549271D01*
X173971103Y-70548974D01*
X174097512Y-70497529D01*
X174098680Y-70497124D01*
X174245349Y-70454820D01*
X174246721Y-70454512D01*
X174424254Y-70425772D01*
X174425558Y-70425636D01*
X174475567Y-70423212D01*
X174637382Y-70415369D01*
X174645810Y-70418391D01*
G37*
%TD.AperFunction*%
%TA.AperFunction,Conductor*%
G36*
X167833816Y-61074090D02*
G01*
X167834899Y-61074184D01*
X167894126Y-61082222D01*
X167976035Y-61093337D01*
X167977200Y-61093556D01*
X168094279Y-61121741D01*
X168095290Y-61122033D01*
X168196608Y-61156306D01*
X168197200Y-61156524D01*
X168291000Y-61194000D01*
X168384953Y-61231538D01*
X168384963Y-61231542D01*
X168385089Y-61231592D01*
X168487207Y-61266135D01*
X168605379Y-61294584D01*
X168605677Y-61294624D01*
X168605680Y-61294625D01*
X168652678Y-61301002D01*
X168747634Y-61313888D01*
X168910778Y-61320542D01*
X168918903Y-61324303D01*
X168922000Y-61332232D01*
X168922000Y-61817768D01*
X168918573Y-61826041D01*
X168910778Y-61829458D01*
X168747634Y-61836112D01*
X168652678Y-61848998D01*
X168605680Y-61855375D01*
X168605677Y-61855376D01*
X168605379Y-61855416D01*
X168487207Y-61883864D01*
X168385089Y-61918408D01*
X168384963Y-61918458D01*
X168384953Y-61918462D01*
X168291000Y-61956000D01*
X168197200Y-61993476D01*
X168196608Y-61993694D01*
X168095290Y-62027966D01*
X168094279Y-62028258D01*
X167977200Y-62056444D01*
X167976035Y-62056663D01*
X167894126Y-62067778D01*
X167834899Y-62075816D01*
X167833816Y-62075910D01*
X167667558Y-62082692D01*
X167659153Y-62079605D01*
X167656617Y-62076234D01*
X167408616Y-61580232D01*
X167407981Y-61571300D01*
X167408616Y-61569768D01*
X167656617Y-61073766D01*
X167663382Y-61067898D01*
X167667557Y-61067308D01*
X167833816Y-61074090D01*
G37*
%TD.AperFunction*%
%TA.AperFunction,Conductor*%
G36*
X216806127Y-63755927D02*
G01*
X216809540Y-63763633D01*
X216819668Y-63972603D01*
X216848624Y-64151471D01*
X216891296Y-64299412D01*
X216943112Y-64426735D01*
X216943196Y-64426909D01*
X216999500Y-64543750D01*
X217055729Y-64660434D01*
X217056026Y-64661103D01*
X217107468Y-64787510D01*
X217107873Y-64788677D01*
X217150181Y-64935351D01*
X217150489Y-64936724D01*
X217179228Y-65114254D01*
X217179364Y-65115558D01*
X217189631Y-65327381D01*
X217186609Y-65335810D01*
X217183179Y-65338411D01*
X216560232Y-65649884D01*
X216551300Y-65650519D01*
X216549768Y-65649884D01*
X215926822Y-65338411D01*
X215920955Y-65331647D01*
X215920369Y-65327381D01*
X215930636Y-65115558D01*
X215930772Y-65114254D01*
X215959511Y-64936724D01*
X215959819Y-64935351D01*
X216002126Y-64788677D01*
X216002531Y-64787510D01*
X216053974Y-64661103D01*
X216054271Y-64660434D01*
X216110500Y-64543750D01*
X216166804Y-64426909D01*
X216166888Y-64426735D01*
X216218703Y-64299412D01*
X216261376Y-64151471D01*
X216290332Y-63972603D01*
X216300460Y-63763633D01*
X216304283Y-63755536D01*
X216312146Y-63752500D01*
X216797854Y-63752500D01*
X216806127Y-63755927D01*
G37*
%TD.AperFunction*%
%TA.AperFunction,Conductor*%
G36*
X168468816Y-59804090D02*
G01*
X168469899Y-59804184D01*
X168529126Y-59812222D01*
X168611035Y-59823337D01*
X168612200Y-59823556D01*
X168729279Y-59851741D01*
X168730290Y-59852033D01*
X168831608Y-59886306D01*
X168832200Y-59886524D01*
X168926000Y-59924000D01*
X169019953Y-59961538D01*
X169019963Y-59961542D01*
X169020089Y-59961592D01*
X169122207Y-59996135D01*
X169240379Y-60024584D01*
X169240677Y-60024624D01*
X169240680Y-60024625D01*
X169287678Y-60031002D01*
X169382634Y-60043888D01*
X169545778Y-60050542D01*
X169553903Y-60054303D01*
X169557000Y-60062232D01*
X169557000Y-60547768D01*
X169553573Y-60556041D01*
X169545778Y-60559458D01*
X169382634Y-60566112D01*
X169287678Y-60578998D01*
X169240680Y-60585375D01*
X169240677Y-60585376D01*
X169240379Y-60585416D01*
X169122207Y-60613864D01*
X169020089Y-60648408D01*
X169019963Y-60648458D01*
X169019953Y-60648462D01*
X168926000Y-60686000D01*
X168832200Y-60723476D01*
X168831608Y-60723694D01*
X168730290Y-60757966D01*
X168729279Y-60758258D01*
X168612200Y-60786444D01*
X168611035Y-60786663D01*
X168529126Y-60797778D01*
X168469899Y-60805816D01*
X168468816Y-60805910D01*
X168302558Y-60812692D01*
X168294153Y-60809605D01*
X168291617Y-60806234D01*
X168043616Y-60310232D01*
X168042981Y-60301300D01*
X168043616Y-60299768D01*
X168291617Y-59803766D01*
X168298382Y-59797898D01*
X168302557Y-59797308D01*
X168468816Y-59804090D01*
G37*
%TD.AperFunction*%
%TA.AperFunction,Conductor*%
G36*
X161950232Y-56107616D02*
G01*
X162738129Y-56501565D01*
X162743997Y-56508330D01*
X162744579Y-56512671D01*
X162729753Y-56782834D01*
X162729578Y-56784310D01*
X162688360Y-57008327D01*
X162687966Y-57009869D01*
X162627280Y-57194191D01*
X162626770Y-57195477D01*
X162552983Y-57353680D01*
X162552616Y-57354402D01*
X162472000Y-57500000D01*
X162391296Y-57645757D01*
X162391192Y-57645944D01*
X162316935Y-57805153D01*
X162255784Y-57990889D01*
X162214288Y-58216417D01*
X162214267Y-58216800D01*
X162199607Y-58483941D01*
X162195732Y-58492014D01*
X162187925Y-58495000D01*
X161702075Y-58495000D01*
X161693802Y-58491573D01*
X161690393Y-58483941D01*
X161675733Y-58216800D01*
X161675712Y-58216417D01*
X161634216Y-57990889D01*
X161573064Y-57805153D01*
X161498808Y-57645944D01*
X161498711Y-57645768D01*
X161498705Y-57645757D01*
X161418000Y-57500000D01*
X161337387Y-57354407D01*
X161337020Y-57353686D01*
X161263228Y-57195475D01*
X161262718Y-57194188D01*
X161202034Y-57009869D01*
X161201640Y-57008327D01*
X161160422Y-56784310D01*
X161160247Y-56782834D01*
X161145421Y-56512671D01*
X161148389Y-56504223D01*
X161151871Y-56501565D01*
X161939768Y-56107616D01*
X161948700Y-56106981D01*
X161950232Y-56107616D01*
G37*
%TD.AperFunction*%
%TA.AperFunction,Conductor*%
G36*
X162196041Y-60316427D02*
G01*
X162199458Y-60324222D01*
X162206112Y-60487365D01*
X162225416Y-60629620D01*
X162253864Y-60747792D01*
X162288408Y-60849910D01*
X162288458Y-60850036D01*
X162288462Y-60850046D01*
X162326000Y-60944000D01*
X162363476Y-61037799D01*
X162363694Y-61038391D01*
X162397966Y-61139709D01*
X162398258Y-61140720D01*
X162426444Y-61257799D01*
X162426663Y-61258964D01*
X162445815Y-61400094D01*
X162445911Y-61401190D01*
X162452692Y-61567441D01*
X162449605Y-61575847D01*
X162446234Y-61578383D01*
X161950232Y-61826384D01*
X161941300Y-61827019D01*
X161939768Y-61826384D01*
X161443766Y-61578383D01*
X161437898Y-61571618D01*
X161437308Y-61567441D01*
X161444089Y-61401190D01*
X161444185Y-61400094D01*
X161463337Y-61258964D01*
X161463556Y-61257799D01*
X161491741Y-61140720D01*
X161492033Y-61139709D01*
X161526306Y-61038391D01*
X161526524Y-61037799D01*
X161564000Y-60944000D01*
X161601538Y-60850046D01*
X161601542Y-60850036D01*
X161601592Y-60849910D01*
X161636135Y-60747792D01*
X161664584Y-60629620D01*
X161683888Y-60487365D01*
X161690542Y-60324222D01*
X161694303Y-60316097D01*
X161702232Y-60313000D01*
X162187768Y-60313000D01*
X162196041Y-60316427D01*
G37*
%TD.AperFunction*%
%TA.AperFunction,Conductor*%
G36*
X172274597Y-70423220D02*
G01*
X172324441Y-70425636D01*
X172325746Y-70425772D01*
X172503280Y-70454512D01*
X172504644Y-70454818D01*
X172593252Y-70480376D01*
X172651322Y-70497126D01*
X172652489Y-70497531D01*
X172778896Y-70548974D01*
X172779564Y-70549271D01*
X172896250Y-70605500D01*
X173013264Y-70661888D01*
X173140587Y-70713703D01*
X173140870Y-70713785D01*
X173140874Y-70713786D01*
X173193410Y-70728940D01*
X173288528Y-70756376D01*
X173467396Y-70785332D01*
X173687500Y-70796000D01*
X173687500Y-71304000D01*
X173467396Y-71314668D01*
X173288528Y-71343624D01*
X173193520Y-71371028D01*
X173140874Y-71386213D01*
X173140870Y-71386214D01*
X173140587Y-71386296D01*
X173013264Y-71438112D01*
X173013090Y-71438196D01*
X172896250Y-71494500D01*
X172779565Y-71550729D01*
X172778896Y-71551026D01*
X172652489Y-71602468D01*
X172651322Y-71602873D01*
X172593062Y-71619678D01*
X172504644Y-71645182D01*
X172503280Y-71645488D01*
X172356950Y-71669176D01*
X172325745Y-71674228D01*
X172324441Y-71674364D01*
X172274597Y-71676780D01*
X172112618Y-71684631D01*
X172104190Y-71681609D01*
X172101588Y-71678177D01*
X171790116Y-71055232D01*
X171789481Y-71046300D01*
X171790116Y-71044768D01*
X172101589Y-70421822D01*
X172108353Y-70415955D01*
X172112617Y-70415369D01*
X172274597Y-70423220D01*
G37*
%TD.AperFunction*%
%TA.AperFunction,Conductor*%
G36*
X206395810Y-64703391D02*
G01*
X206398411Y-64706821D01*
X206709884Y-65329768D01*
X206710519Y-65338700D01*
X206709884Y-65340232D01*
X206398412Y-65963177D01*
X206391647Y-65969045D01*
X206387382Y-65969631D01*
X206225567Y-65961788D01*
X206175558Y-65959364D01*
X206174254Y-65959228D01*
X206143049Y-65954176D01*
X205996719Y-65930488D01*
X205995355Y-65930182D01*
X205906747Y-65904624D01*
X205848677Y-65887874D01*
X205847510Y-65887469D01*
X205721103Y-65836026D01*
X205720434Y-65835729D01*
X205603750Y-65779500D01*
X205486909Y-65723196D01*
X205486735Y-65723112D01*
X205486556Y-65723039D01*
X205359693Y-65671409D01*
X205359687Y-65671407D01*
X205359412Y-65671295D01*
X205359128Y-65671213D01*
X205359122Y-65671211D01*
X205211808Y-65628721D01*
X205211805Y-65628720D01*
X205211471Y-65628624D01*
X205211128Y-65628569D01*
X205211126Y-65628568D01*
X205180609Y-65623628D01*
X205032603Y-65599668D01*
X204812500Y-65589000D01*
X204812500Y-65081000D01*
X205032603Y-65070332D01*
X205211471Y-65041376D01*
X205306479Y-65013972D01*
X205359125Y-64998787D01*
X205359129Y-64998786D01*
X205359412Y-64998704D01*
X205486735Y-64946888D01*
X205603750Y-64890500D01*
X205720435Y-64834271D01*
X205721103Y-64833974D01*
X205847512Y-64782529D01*
X205848680Y-64782124D01*
X205995349Y-64739820D01*
X205996721Y-64739512D01*
X206174254Y-64710772D01*
X206175558Y-64710636D01*
X206225567Y-64708212D01*
X206387382Y-64700369D01*
X206395810Y-64703391D01*
G37*
%TD.AperFunction*%
%TA.AperFunction,Conductor*%
G36*
X158110691Y-40815327D02*
G01*
X158722483Y-40972196D01*
X159118976Y-41073860D01*
X159126139Y-41079234D01*
X159127770Y-41085193D01*
X159127770Y-41962718D01*
X159124343Y-41970991D01*
X159120542Y-41973530D01*
X158815583Y-42099655D01*
X158813960Y-42100191D01*
X158532364Y-42170897D01*
X158530908Y-42171166D01*
X158335449Y-42194605D01*
X158274492Y-42201915D01*
X158273539Y-42201990D01*
X158233480Y-42203487D01*
X158037683Y-42210807D01*
X158037509Y-42210812D01*
X157818330Y-42215732D01*
X157818326Y-42215732D01*
X157818113Y-42215737D01*
X157817899Y-42215757D01*
X157817896Y-42215757D01*
X157760281Y-42221093D01*
X157611221Y-42234898D01*
X157610775Y-42235014D01*
X157610768Y-42235015D01*
X157503018Y-42262980D01*
X157412629Y-42286438D01*
X157412031Y-42286752D01*
X157412030Y-42286752D01*
X157218647Y-42388180D01*
X157218644Y-42388182D01*
X157218032Y-42388503D01*
X157023122Y-42559237D01*
X157022783Y-42559675D01*
X157022778Y-42559680D01*
X156830247Y-42808199D01*
X156822471Y-42812641D01*
X156814539Y-42810789D01*
X156410181Y-42543058D01*
X156405175Y-42535634D01*
X156407150Y-42526459D01*
X156506876Y-42388180D01*
X156591840Y-42270369D01*
X156592499Y-42269540D01*
X156740150Y-42100191D01*
X156769340Y-42066712D01*
X156770147Y-42065875D01*
X156935999Y-41910012D01*
X156936782Y-41909339D01*
X157095506Y-41784603D01*
X157096003Y-41784233D01*
X157251494Y-41674839D01*
X157407235Y-41565270D01*
X157566615Y-41440018D01*
X157566798Y-41439846D01*
X157566805Y-41439840D01*
X157733052Y-41283607D01*
X157733053Y-41283606D01*
X157733270Y-41283402D01*
X157910839Y-41079738D01*
X157911203Y-41079234D01*
X158098295Y-40819816D01*
X158105914Y-40815111D01*
X158110691Y-40815327D01*
G37*
%TD.AperFunction*%
%TA.AperFunction,Conductor*%
G36*
X214019141Y-57508511D02*
G01*
X214019607Y-57509571D01*
X214340484Y-58350310D01*
X214340232Y-58359261D01*
X214336754Y-58363703D01*
X214183473Y-58483336D01*
X214087128Y-58617997D01*
X214086853Y-58618801D01*
X214086852Y-58618803D01*
X214057944Y-58703344D01*
X214038592Y-58759939D01*
X214021929Y-58906737D01*
X214021928Y-58907037D01*
X214021927Y-58907046D01*
X214020480Y-59204558D01*
X214020405Y-59205821D01*
X214003958Y-59350719D01*
X214003404Y-59353185D01*
X213955833Y-59492305D01*
X213954277Y-59495327D01*
X213859916Y-59627214D01*
X213857600Y-59629629D01*
X213709231Y-59745430D01*
X213700600Y-59747819D01*
X213692809Y-59743406D01*
X213692020Y-59742261D01*
X213441461Y-59327883D01*
X213440113Y-59319031D01*
X213444443Y-59312478D01*
X213543128Y-59238319D01*
X213590202Y-59202944D01*
X213590203Y-59202943D01*
X213590883Y-59202432D01*
X213677415Y-59085164D01*
X213707845Y-58964519D01*
X213694436Y-58837993D01*
X213649449Y-58703080D01*
X213585145Y-58557274D01*
X213552311Y-58484018D01*
X213513929Y-58398387D01*
X213513661Y-58397737D01*
X213447871Y-58223582D01*
X213447470Y-58222301D01*
X213399180Y-58030343D01*
X213398871Y-58028519D01*
X213380701Y-57822933D01*
X213383387Y-57814390D01*
X213387124Y-57811438D01*
X214003444Y-57503278D01*
X214012376Y-57502643D01*
X214019141Y-57508511D01*
G37*
%TD.AperFunction*%
%TA.AperFunction,Conductor*%
G36*
X166707040Y-58852499D02*
G01*
X166707766Y-58854027D01*
X166849597Y-59218838D01*
X166883133Y-59305099D01*
X166882937Y-59314052D01*
X166877612Y-59319726D01*
X166775120Y-59372841D01*
X166710897Y-59439223D01*
X166685834Y-59514298D01*
X166691491Y-59598325D01*
X166719430Y-59691563D01*
X166761212Y-59794271D01*
X166808282Y-59906432D01*
X166808500Y-59906991D01*
X166852344Y-60028564D01*
X166852698Y-60029735D01*
X166885016Y-60160942D01*
X166885310Y-60162701D01*
X166897292Y-60297061D01*
X166894613Y-60305606D01*
X166890870Y-60308565D01*
X166403008Y-60552496D01*
X166394076Y-60553131D01*
X166387311Y-60547263D01*
X166386433Y-60544901D01*
X166208112Y-59840175D01*
X166209405Y-59831314D01*
X166213687Y-59827126D01*
X166330432Y-59760968D01*
X166331350Y-59760448D01*
X166406288Y-59670748D01*
X166432422Y-59597670D01*
X166443124Y-59567742D01*
X166443360Y-59567082D01*
X166455188Y-59454104D01*
X166455088Y-59439223D01*
X166453602Y-59219482D01*
X166453666Y-59218185D01*
X166465278Y-59107262D01*
X166465897Y-59104540D01*
X166501796Y-59004155D01*
X166503834Y-59000594D01*
X166576074Y-58914125D01*
X166579285Y-58911447D01*
X166680613Y-58854027D01*
X166691094Y-58848088D01*
X166699980Y-58846990D01*
X166707040Y-58852499D01*
G37*
%TD.AperFunction*%
%TA.AperFunction,Conductor*%
G36*
X156592612Y-56864442D02*
G01*
X156597760Y-56870837D01*
X156692653Y-57157876D01*
X156811384Y-57380167D01*
X156811757Y-57380616D01*
X156811760Y-57380621D01*
X156947760Y-57544482D01*
X156948119Y-57544914D01*
X156948550Y-57545267D01*
X156948553Y-57545270D01*
X157100147Y-57669448D01*
X157100450Y-57669696D01*
X157177047Y-57717080D01*
X157265870Y-57772027D01*
X157265891Y-57772039D01*
X157265973Y-57772090D01*
X157266060Y-57772138D01*
X157266070Y-57772144D01*
X157442118Y-57869587D01*
X157442453Y-57869780D01*
X157567410Y-57944445D01*
X157626483Y-57979743D01*
X157627429Y-57980373D01*
X157816992Y-58120268D01*
X157818196Y-58121289D01*
X158011247Y-58308779D01*
X158012371Y-58310041D01*
X158202495Y-58557331D01*
X158204821Y-58565978D01*
X158203378Y-58570267D01*
X157821646Y-59238299D01*
X157739657Y-59381779D01*
X157732577Y-59387262D01*
X157727937Y-59387569D01*
X157368762Y-59339184D01*
X156684409Y-59246995D01*
X156676667Y-59242495D01*
X156674636Y-59238299D01*
X156598025Y-58938777D01*
X156598022Y-58938767D01*
X156533546Y-58685762D01*
X156533548Y-58685761D01*
X156533543Y-58685752D01*
X156504230Y-58570267D01*
X156479631Y-58473358D01*
X156432758Y-58288029D01*
X156432757Y-58288023D01*
X156346056Y-57944445D01*
X156299183Y-57759115D01*
X156245268Y-57546712D01*
X156180788Y-57293696D01*
X156146162Y-57158319D01*
X156105121Y-56997863D01*
X156106391Y-56988999D01*
X156113552Y-56983630D01*
X156296730Y-56936703D01*
X156583748Y-56863175D01*
X156592612Y-56864442D01*
G37*
%TD.AperFunction*%
%TA.AperFunction,Conductor*%
G36*
X194967079Y-40877042D02*
G01*
X194968073Y-40879913D01*
X195182882Y-41922341D01*
X195202854Y-42019264D01*
X195201168Y-42028058D01*
X195196428Y-42032187D01*
X195033632Y-42109755D01*
X195020110Y-42116198D01*
X194903432Y-42234220D01*
X194837691Y-42374792D01*
X194837553Y-42375469D01*
X194837552Y-42375471D01*
X194825184Y-42436027D01*
X194805908Y-42530398D01*
X194791105Y-42693520D01*
X194782112Y-42792618D01*
X194776360Y-42855997D01*
X194776172Y-42857272D01*
X194772728Y-42874137D01*
X194744796Y-43010889D01*
X194743933Y-43013499D01*
X194679634Y-43150988D01*
X194677356Y-43154257D01*
X194563536Y-43269388D01*
X194560253Y-43271722D01*
X194475652Y-43312032D01*
X194389665Y-43353003D01*
X194380722Y-43353468D01*
X194374070Y-43347474D01*
X194373470Y-43345947D01*
X194228425Y-42884107D01*
X194229215Y-42875188D01*
X194234848Y-42869905D01*
X194409314Y-42792618D01*
X194409315Y-42792618D01*
X194410264Y-42792197D01*
X194411008Y-42791474D01*
X194411010Y-42791473D01*
X194512938Y-42692463D01*
X194513989Y-42691442D01*
X194551020Y-42572345D01*
X194546392Y-42530398D01*
X194535978Y-42436027D01*
X194535907Y-42435382D01*
X194515450Y-42375471D01*
X194483286Y-42281278D01*
X194483284Y-42281272D01*
X194483200Y-42281027D01*
X194407448Y-42109755D01*
X194323334Y-41922335D01*
X194323087Y-41921743D01*
X194245242Y-41718960D01*
X194244849Y-41717740D01*
X194187669Y-41500106D01*
X194187338Y-41498248D01*
X194165765Y-41272990D01*
X194168388Y-41264428D01*
X194172180Y-41261410D01*
X194951382Y-40871809D01*
X194960314Y-40871174D01*
X194967079Y-40877042D01*
G37*
%TD.AperFunction*%
%TA.AperFunction,Conductor*%
G36*
X204024597Y-64708220D02*
G01*
X204074441Y-64710636D01*
X204075746Y-64710772D01*
X204253280Y-64739512D01*
X204254644Y-64739818D01*
X204343252Y-64765376D01*
X204401322Y-64782126D01*
X204402489Y-64782531D01*
X204528896Y-64833974D01*
X204529564Y-64834271D01*
X204646250Y-64890500D01*
X204763264Y-64946888D01*
X204890587Y-64998703D01*
X204890870Y-64998785D01*
X204890874Y-64998786D01*
X204943410Y-65013940D01*
X205038528Y-65041376D01*
X205217396Y-65070332D01*
X205437500Y-65081000D01*
X205437500Y-65589000D01*
X205217396Y-65599668D01*
X205038528Y-65628624D01*
X204943520Y-65656028D01*
X204890874Y-65671213D01*
X204890870Y-65671214D01*
X204890587Y-65671296D01*
X204763264Y-65723112D01*
X204763090Y-65723196D01*
X204646250Y-65779500D01*
X204529565Y-65835729D01*
X204528896Y-65836026D01*
X204402489Y-65887468D01*
X204401322Y-65887873D01*
X204343062Y-65904678D01*
X204254644Y-65930182D01*
X204253280Y-65930488D01*
X204106950Y-65954176D01*
X204075745Y-65959228D01*
X204074441Y-65959364D01*
X203920293Y-65966835D01*
X203920286Y-65966836D01*
X203855000Y-65970000D01*
X203537500Y-65335000D01*
X203800838Y-64808325D01*
X203851589Y-64706822D01*
X203858353Y-64700955D01*
X203862617Y-64700369D01*
X204024597Y-64708220D01*
G37*
%TD.AperFunction*%
%TA.AperFunction,Conductor*%
G36*
X155664875Y-67900496D02*
G01*
X155671279Y-67907052D01*
X155847253Y-68359172D01*
X155847061Y-68368125D01*
X155841346Y-68373995D01*
X155541131Y-68515736D01*
X155540712Y-68516034D01*
X155540709Y-68516036D01*
X155328745Y-68666913D01*
X155317350Y-68675024D01*
X155316930Y-68675485D01*
X155316927Y-68675488D01*
X155216027Y-68786321D01*
X155160487Y-68847328D01*
X155051164Y-69032776D01*
X155051004Y-69033169D01*
X155051002Y-69033172D01*
X155049077Y-69037885D01*
X154970005Y-69231496D01*
X154969953Y-69231649D01*
X154897675Y-69443481D01*
X154897583Y-69443741D01*
X154814841Y-69668775D01*
X154814441Y-69669731D01*
X154702043Y-69907886D01*
X154701311Y-69909208D01*
X154539881Y-70160956D01*
X154538880Y-70162295D01*
X154313512Y-70422766D01*
X154305507Y-70426781D01*
X154301011Y-70426225D01*
X153770025Y-70251559D01*
X153413645Y-70134329D01*
X153406857Y-70128489D01*
X153405601Y-70123311D01*
X153396758Y-69045789D01*
X153400117Y-69037488D01*
X153404002Y-69034875D01*
X153715897Y-68906414D01*
X153715899Y-68906413D01*
X153716028Y-68906360D01*
X153973824Y-68786388D01*
X153973942Y-68786326D01*
X153973952Y-68786321D01*
X154185349Y-68675143D01*
X154185465Y-68675082D01*
X154366336Y-68569551D01*
X154697201Y-68364333D01*
X154697419Y-68364202D01*
X154877965Y-68258862D01*
X154878415Y-68258613D01*
X155089554Y-68147570D01*
X155090063Y-68147317D01*
X155145623Y-68121461D01*
X155347405Y-68027556D01*
X155347862Y-68027357D01*
X155655876Y-67900496D01*
X155655920Y-67900478D01*
X155664875Y-67900496D01*
G37*
%TD.AperFunction*%
%TA.AperFunction,Conductor*%
G36*
X203727245Y-64716446D02*
G01*
X203730491Y-64719276D01*
X203794024Y-64799699D01*
X204165854Y-65270382D01*
X203984236Y-65956709D01*
X203841313Y-65979264D01*
X203767212Y-65990958D01*
X203765908Y-65991089D01*
X203676322Y-65995075D01*
X203586250Y-65999082D01*
X203584855Y-65999060D01*
X203499115Y-65992543D01*
X203432644Y-65987490D01*
X203431419Y-65987332D01*
X203297174Y-65962690D01*
X203296458Y-65962535D01*
X203170776Y-65931232D01*
X203044735Y-65899840D01*
X202970744Y-65886258D01*
X202909837Y-65875078D01*
X202909834Y-65875078D01*
X202909531Y-65875022D01*
X202909217Y-65874998D01*
X202909216Y-65874998D01*
X202887034Y-65873312D01*
X202756002Y-65863352D01*
X202755641Y-65863368D01*
X202755636Y-65863368D01*
X202686761Y-65866433D01*
X202574984Y-65871406D01*
X202574667Y-65871456D01*
X202368327Y-65904020D01*
X202359621Y-65901925D01*
X202355048Y-65894844D01*
X202350939Y-65875078D01*
X202256195Y-65419303D01*
X202257866Y-65410507D01*
X202264717Y-65405597D01*
X202466932Y-65353233D01*
X202466934Y-65353232D01*
X202467252Y-65353150D01*
X202467557Y-65353033D01*
X202467561Y-65353032D01*
X202636141Y-65288527D01*
X202636143Y-65288526D01*
X202636483Y-65288396D01*
X202636799Y-65288229D01*
X202636806Y-65288226D01*
X202713068Y-65247962D01*
X202772643Y-65216508D01*
X202849795Y-65164688D01*
X202886624Y-65139952D01*
X202886631Y-65139947D01*
X202886756Y-65139863D01*
X202886878Y-65139769D01*
X202886887Y-65139763D01*
X202989845Y-65060840D01*
X203092639Y-64982044D01*
X203093233Y-64981617D01*
X203206546Y-64905509D01*
X203207578Y-64904892D01*
X203342589Y-64833611D01*
X203343866Y-64833033D01*
X203511824Y-64768766D01*
X203513072Y-64768367D01*
X203600755Y-64745661D01*
X203718378Y-64715203D01*
X203727245Y-64716446D01*
G37*
%TD.AperFunction*%
%TA.AperFunction,Conductor*%
G36*
X214015810Y-64703391D02*
G01*
X214018411Y-64706821D01*
X214329884Y-65329768D01*
X214330519Y-65338700D01*
X214329884Y-65340232D01*
X214018412Y-65963177D01*
X214011647Y-65969045D01*
X214007382Y-65969631D01*
X213845567Y-65961788D01*
X213795558Y-65959364D01*
X213794254Y-65959228D01*
X213763049Y-65954176D01*
X213616719Y-65930488D01*
X213615355Y-65930182D01*
X213526747Y-65904624D01*
X213468677Y-65887874D01*
X213467510Y-65887469D01*
X213341103Y-65836026D01*
X213340434Y-65835729D01*
X213223750Y-65779500D01*
X213106909Y-65723196D01*
X213106735Y-65723112D01*
X213106556Y-65723039D01*
X212979693Y-65671409D01*
X212979687Y-65671407D01*
X212979412Y-65671295D01*
X212979128Y-65671213D01*
X212979122Y-65671211D01*
X212831808Y-65628721D01*
X212831805Y-65628720D01*
X212831471Y-65628624D01*
X212831128Y-65628569D01*
X212831126Y-65628568D01*
X212800609Y-65623628D01*
X212652603Y-65599668D01*
X212432500Y-65589000D01*
X212432500Y-65081000D01*
X212652603Y-65070332D01*
X212831471Y-65041376D01*
X212926479Y-65013972D01*
X212979125Y-64998787D01*
X212979129Y-64998786D01*
X212979412Y-64998704D01*
X213106735Y-64946888D01*
X213223750Y-64890500D01*
X213340435Y-64834271D01*
X213341103Y-64833974D01*
X213467512Y-64782529D01*
X213468680Y-64782124D01*
X213615349Y-64739820D01*
X213616721Y-64739512D01*
X213794254Y-64710772D01*
X213795558Y-64710636D01*
X213845567Y-64708212D01*
X214007382Y-64700369D01*
X214015810Y-64703391D01*
G37*
%TD.AperFunction*%
%TA.AperFunction,Conductor*%
G36*
X211644597Y-64708220D02*
G01*
X211694441Y-64710636D01*
X211695746Y-64710772D01*
X211873280Y-64739512D01*
X211874644Y-64739818D01*
X211963252Y-64765376D01*
X212021322Y-64782126D01*
X212022489Y-64782531D01*
X212148896Y-64833974D01*
X212149564Y-64834271D01*
X212266250Y-64890500D01*
X212383264Y-64946888D01*
X212510587Y-64998703D01*
X212510870Y-64998785D01*
X212510874Y-64998786D01*
X212563410Y-65013940D01*
X212658528Y-65041376D01*
X212837396Y-65070332D01*
X213057500Y-65081000D01*
X213057500Y-65589000D01*
X212837396Y-65599668D01*
X212658528Y-65628624D01*
X212563520Y-65656028D01*
X212510874Y-65671213D01*
X212510870Y-65671214D01*
X212510587Y-65671296D01*
X212383264Y-65723112D01*
X212383090Y-65723196D01*
X212266250Y-65779500D01*
X212149565Y-65835729D01*
X212148896Y-65836026D01*
X212022489Y-65887468D01*
X212021322Y-65887873D01*
X211963062Y-65904678D01*
X211874644Y-65930182D01*
X211873280Y-65930488D01*
X211840972Y-65935718D01*
X211811466Y-65940494D01*
X211811465Y-65940494D01*
X211809244Y-65940854D01*
X211695103Y-65959332D01*
X211475000Y-65970000D01*
X211157500Y-65335000D01*
X211471589Y-64706822D01*
X211478353Y-64700955D01*
X211482617Y-64700369D01*
X211644597Y-64708220D01*
G37*
%TD.AperFunction*%
%TA.AperFunction,Conductor*%
G36*
X211945840Y-65761068D02*
G01*
X211809244Y-65940854D01*
X211783218Y-65975109D01*
X211687858Y-66173674D01*
X211642945Y-66360632D01*
X211631663Y-66539851D01*
X211631672Y-66540137D01*
X211631672Y-66540138D01*
X211637197Y-66715202D01*
X211642712Y-66889996D01*
X211642695Y-66891100D01*
X211631512Y-67068761D01*
X211631211Y-67070759D01*
X211586826Y-67255517D01*
X211585997Y-67257849D01*
X211491688Y-67454227D01*
X211490457Y-67456240D01*
X211336266Y-67659187D01*
X211328534Y-67663700D01*
X211319873Y-67661424D01*
X211319101Y-67660783D01*
X211093064Y-67456240D01*
X210959869Y-67335710D01*
X210956034Y-67327619D01*
X210958425Y-67319928D01*
X211111128Y-67120256D01*
X211111520Y-67119744D01*
X211197464Y-66932750D01*
X211223114Y-66760130D01*
X211201870Y-66594511D01*
X211147130Y-66428522D01*
X211072296Y-66254790D01*
X210990921Y-66066301D01*
X210990634Y-66065569D01*
X210916169Y-65855259D01*
X210915788Y-65853943D01*
X210898180Y-65776332D01*
X210861407Y-65614254D01*
X210861152Y-65612559D01*
X210840597Y-65342838D01*
X210843385Y-65334328D01*
X210847029Y-65331485D01*
X211475000Y-65017500D01*
X211945840Y-65761068D01*
G37*
%TD.AperFunction*%
%TA.AperFunction,Conductor*%
G36*
X208921939Y-43095013D02*
G01*
X209164862Y-43095860D01*
X209173122Y-43099316D01*
X209176505Y-43106960D01*
X209190176Y-43373027D01*
X209190253Y-43374533D01*
X209230962Y-43600203D01*
X209231086Y-43600584D01*
X209290725Y-43783873D01*
X209291466Y-43786151D01*
X209365166Y-43945618D01*
X209365267Y-43945801D01*
X209365267Y-43945802D01*
X209445465Y-44091843D01*
X209525562Y-44237703D01*
X209525928Y-44238426D01*
X209599175Y-44396909D01*
X209599680Y-44398198D01*
X209659722Y-44582727D01*
X209660110Y-44584270D01*
X209700544Y-44808416D01*
X209700715Y-44809893D01*
X209714538Y-45078884D01*
X209714601Y-45080117D01*
X209711603Y-45088555D01*
X209708114Y-45091199D01*
X209237063Y-45324675D01*
X208918847Y-45482399D01*
X208909912Y-45483003D01*
X208908382Y-45482362D01*
X208121864Y-45085669D01*
X208116021Y-45078884D01*
X208115453Y-45074541D01*
X208131221Y-44804423D01*
X208131402Y-44802948D01*
X208173399Y-44579086D01*
X208173798Y-44577545D01*
X208235126Y-44393436D01*
X208235640Y-44392152D01*
X208309986Y-44234192D01*
X208310351Y-44233480D01*
X208391472Y-44088168D01*
X208472693Y-43942678D01*
X208472789Y-43942506D01*
X208547600Y-43783557D01*
X208609399Y-43598036D01*
X208651681Y-43372654D01*
X208667296Y-43105184D01*
X208671199Y-43097125D01*
X208679017Y-43094166D01*
X208921939Y-43095013D01*
G37*
%TD.AperFunction*%
%TA.AperFunction,Conductor*%
G36*
X190055340Y-38720443D02*
G01*
X190391601Y-38965575D01*
X190447156Y-39006074D01*
X190451823Y-39013716D01*
X190450249Y-39021627D01*
X190347432Y-39189953D01*
X190300228Y-39267232D01*
X190300023Y-39267825D01*
X190300022Y-39267828D01*
X190223867Y-39488554D01*
X190223609Y-39489302D01*
X190211259Y-39688450D01*
X190211408Y-39689194D01*
X190248320Y-39873976D01*
X190248322Y-39873982D01*
X190248423Y-39874489D01*
X190320347Y-40057233D01*
X190412279Y-40246495D01*
X190446094Y-40318030D01*
X190509263Y-40451665D01*
X190509628Y-40452525D01*
X190596880Y-40683122D01*
X190597322Y-40684564D01*
X190660368Y-40950644D01*
X190660648Y-40952433D01*
X190684388Y-41257148D01*
X190681614Y-41265663D01*
X190677955Y-41268522D01*
X189893779Y-41660610D01*
X189884847Y-41661245D01*
X189879151Y-41657117D01*
X189243388Y-40800268D01*
X189241210Y-40791582D01*
X189242976Y-40786917D01*
X189310028Y-40683829D01*
X189403103Y-40540730D01*
X189446280Y-40452089D01*
X189511580Y-40318030D01*
X189511581Y-40318028D01*
X189511745Y-40317691D01*
X189578448Y-40117126D01*
X189617191Y-39931545D01*
X189666665Y-39575737D01*
X189666799Y-39574970D01*
X189705322Y-39390443D01*
X189705673Y-39389142D01*
X189771919Y-39189953D01*
X189772499Y-39188527D01*
X189880494Y-38966819D01*
X189881199Y-38965575D01*
X190038641Y-38723518D01*
X190046025Y-38718451D01*
X190055340Y-38720443D01*
G37*
%TD.AperFunction*%
%TA.AperFunction,Conductor*%
G36*
X211461632Y-43095012D02*
G01*
X211703605Y-43095703D01*
X211711868Y-43099154D01*
X211715255Y-43106795D01*
X211729172Y-43374359D01*
X211770024Y-43600004D01*
X211830645Y-43785914D01*
X211904446Y-43945334D01*
X212063130Y-44233868D01*
X212065037Y-44237336D01*
X212065397Y-44238049D01*
X212137227Y-44393209D01*
X212138735Y-44396467D01*
X212139242Y-44397755D01*
X212199403Y-44582257D01*
X212199792Y-44583800D01*
X212240371Y-44807928D01*
X212240542Y-44809404D01*
X212254597Y-45079611D01*
X212251605Y-45088051D01*
X212248118Y-45090698D01*
X211459098Y-45482397D01*
X211450164Y-45483006D01*
X211448634Y-45482367D01*
X210661866Y-45086171D01*
X210656018Y-45079389D01*
X210655447Y-45075047D01*
X210671044Y-44804920D01*
X210671224Y-44803444D01*
X210713080Y-44579552D01*
X210713477Y-44578014D01*
X210774691Y-44393862D01*
X210775205Y-44392577D01*
X210781180Y-44379862D01*
X210849446Y-44234581D01*
X210849811Y-44233868D01*
X210930843Y-44088500D01*
X211010551Y-43945505D01*
X211012067Y-43942786D01*
X211086777Y-43783790D01*
X211148459Y-43598230D01*
X211190599Y-43372821D01*
X211206045Y-43105341D01*
X211209943Y-43097280D01*
X211217758Y-43094316D01*
X211461632Y-43095012D01*
G37*
%TD.AperFunction*%
%TA.AperFunction,Conductor*%
G36*
X208868247Y-62743272D02*
G01*
X209021159Y-62999436D01*
X209022016Y-63001188D01*
X209114159Y-63237841D01*
X209114736Y-63239826D01*
X209157003Y-63454531D01*
X209157210Y-63456258D01*
X209166293Y-63656840D01*
X209166296Y-63657819D01*
X209151111Y-64046588D01*
X209160254Y-64248533D01*
X209160337Y-64248953D01*
X209202790Y-64464606D01*
X209202792Y-64464612D01*
X209202890Y-64465111D01*
X209203076Y-64465589D01*
X209203077Y-64465592D01*
X209295586Y-64703187D01*
X209295763Y-64703641D01*
X209318078Y-64741023D01*
X209451558Y-64964632D01*
X209452856Y-64973492D01*
X209450807Y-64977735D01*
X208940875Y-65644815D01*
X208933128Y-65649306D01*
X208926348Y-65648174D01*
X208306974Y-65338487D01*
X208301106Y-65331722D01*
X208300533Y-65327222D01*
X208321916Y-65015284D01*
X208322133Y-65013705D01*
X208330912Y-64971438D01*
X208378632Y-64741668D01*
X208378974Y-64740391D01*
X208456581Y-64504786D01*
X208456851Y-64504051D01*
X208542112Y-64294446D01*
X208542116Y-64294448D01*
X208542121Y-64294423D01*
X208560902Y-64248533D01*
X208621304Y-64100939D01*
X208680605Y-63913690D01*
X208706334Y-63722502D01*
X208699556Y-63657826D01*
X208684887Y-63517874D01*
X208684814Y-63517178D01*
X208662630Y-63455386D01*
X208602555Y-63288048D01*
X208602553Y-63288044D01*
X208602365Y-63287520D01*
X208450866Y-63032678D01*
X208449584Y-63023815D01*
X208454224Y-63017106D01*
X208851502Y-62739676D01*
X208860247Y-62737749D01*
X208868247Y-62743272D01*
G37*
%TD.AperFunction*%
%TA.AperFunction,Conductor*%
G36*
X154309157Y-71778649D02*
G01*
X154312729Y-71781428D01*
X154532684Y-72034798D01*
X154533688Y-72036137D01*
X154557884Y-72073745D01*
X154691010Y-72280671D01*
X154691750Y-72282006D01*
X154800871Y-72513127D01*
X154801280Y-72514106D01*
X154881125Y-72732593D01*
X154881220Y-72732862D01*
X154950587Y-72939161D01*
X155028231Y-73133277D01*
X155133030Y-73315523D01*
X155133421Y-73315966D01*
X155133422Y-73315967D01*
X155283493Y-73485866D01*
X155283497Y-73485869D01*
X155283900Y-73486326D01*
X155327616Y-73518687D01*
X155499345Y-73645811D01*
X155499351Y-73645814D01*
X155499758Y-73646116D01*
X155500220Y-73646346D01*
X155789747Y-73790455D01*
X155795627Y-73797209D01*
X155795344Y-73805404D01*
X155609770Y-74253733D01*
X155603440Y-74260066D01*
X155594334Y-74260005D01*
X155295186Y-74131234D01*
X155294842Y-74131079D01*
X155286765Y-74127289D01*
X155043437Y-74013113D01*
X155043094Y-74012945D01*
X154835505Y-73906531D01*
X154835176Y-73906356D01*
X154656739Y-73807616D01*
X154656540Y-73807503D01*
X154492573Y-73712537D01*
X154377892Y-73646116D01*
X154328495Y-73617506D01*
X154328469Y-73617491D01*
X154328454Y-73617483D01*
X154149916Y-73518687D01*
X154149891Y-73518674D01*
X154149803Y-73518625D01*
X154149696Y-73518570D01*
X153941986Y-73412095D01*
X153941974Y-73412089D01*
X153941884Y-73412043D01*
X153690126Y-73293911D01*
X153690084Y-73293893D01*
X153690071Y-73293887D01*
X153387170Y-73163501D01*
X153380926Y-73157082D01*
X153380099Y-73152481D01*
X153380557Y-73132884D01*
X153389898Y-72732593D01*
X153405082Y-72081936D01*
X153408701Y-72073745D01*
X153413108Y-72071100D01*
X153891071Y-71913178D01*
X154300227Y-71777991D01*
X154309157Y-71778649D01*
G37*
%TD.AperFunction*%
%TA.AperFunction,Conductor*%
G36*
X187924762Y-42978581D02*
G01*
X187925371Y-42980072D01*
X188077125Y-43439778D01*
X188076465Y-43448709D01*
X188070903Y-43454076D01*
X187893940Y-43535420D01*
X187789233Y-43639043D01*
X187751619Y-43760298D01*
X187766431Y-43898903D01*
X187819003Y-44054578D01*
X187894672Y-44227042D01*
X187932168Y-44311296D01*
X187978634Y-44415708D01*
X187978884Y-44416314D01*
X188056403Y-44620613D01*
X188056794Y-44621846D01*
X188113356Y-44841438D01*
X188113679Y-44843303D01*
X188134267Y-45071184D01*
X188131598Y-45079732D01*
X188127793Y-45082728D01*
X187613367Y-45336592D01*
X187346381Y-45468347D01*
X187337445Y-45468935D01*
X187330711Y-45463033D01*
X187329763Y-45460308D01*
X187086136Y-44324250D01*
X187087752Y-44315442D01*
X187092415Y-44311298D01*
X187270381Y-44223861D01*
X187388230Y-44103506D01*
X187454846Y-43961482D01*
X187487307Y-43805012D01*
X187491398Y-43761486D01*
X187502690Y-43641319D01*
X187518013Y-43478268D01*
X187518206Y-43476986D01*
X187550254Y-43322504D01*
X187551117Y-43319912D01*
X187616308Y-43180929D01*
X187618541Y-43177712D01*
X187733599Y-43060207D01*
X187736800Y-43057892D01*
X187909102Y-42973239D01*
X187918038Y-42972666D01*
X187924762Y-42978581D01*
G37*
%TD.AperFunction*%
%TA.AperFunction,Conductor*%
G36*
X153944539Y-61275927D02*
G01*
X153947956Y-61283725D01*
X153956390Y-61491125D01*
X153980520Y-61669501D01*
X154016080Y-61817688D01*
X154059260Y-61945750D01*
X154059311Y-61945878D01*
X154059315Y-61945889D01*
X154106250Y-62063750D01*
X154153124Y-62181459D01*
X154153341Y-62182050D01*
X154196252Y-62309316D01*
X154196542Y-62310324D01*
X154231843Y-62457427D01*
X154232060Y-62458589D01*
X154256036Y-62635829D01*
X154256132Y-62636922D01*
X154264693Y-62847443D01*
X154261605Y-62855848D01*
X154258237Y-62858382D01*
X153635232Y-63169884D01*
X153626300Y-63170519D01*
X153624768Y-63169884D01*
X153001764Y-62858382D01*
X152995897Y-62851618D01*
X152995307Y-62847443D01*
X153003868Y-62636922D01*
X153003964Y-62635829D01*
X153027940Y-62458589D01*
X153028157Y-62457427D01*
X153063457Y-62310324D01*
X153063747Y-62309316D01*
X153106659Y-62182050D01*
X153106876Y-62181459D01*
X153153750Y-62063750D01*
X153200685Y-61945889D01*
X153200689Y-61945878D01*
X153200740Y-61945750D01*
X153243919Y-61817688D01*
X153279480Y-61669501D01*
X153303610Y-61491125D01*
X153312044Y-61283725D01*
X153315804Y-61275598D01*
X153323734Y-61272500D01*
X153936266Y-61272500D01*
X153944539Y-61275927D01*
G37*
%TD.AperFunction*%
%TA.AperFunction,Conductor*%
G36*
X146200950Y-71527451D02*
G01*
X146366591Y-71536935D01*
X146368099Y-71537121D01*
X146462384Y-71555023D01*
X146606356Y-71582360D01*
X146607933Y-71582776D01*
X146710546Y-71617600D01*
X146803745Y-71649229D01*
X146805048Y-71649760D01*
X146879185Y-71685412D01*
X146972946Y-71730500D01*
X146973677Y-71730884D01*
X147128040Y-71819038D01*
X147282762Y-71907398D01*
X147337064Y-71933511D01*
X147451331Y-71988460D01*
X147451339Y-71988463D01*
X147451665Y-71988620D01*
X147452012Y-71988738D01*
X147452015Y-71988739D01*
X147528919Y-72014838D01*
X147648926Y-72055565D01*
X147888727Y-72101096D01*
X147926256Y-72103245D01*
X148174205Y-72117444D01*
X148182269Y-72121338D01*
X148185236Y-72129136D01*
X148184760Y-72615015D01*
X148181325Y-72623285D01*
X148173707Y-72626685D01*
X147994992Y-72636566D01*
X147888571Y-72642450D01*
X147888567Y-72642450D01*
X147888196Y-72642471D01*
X147887830Y-72642540D01*
X147887828Y-72642540D01*
X147835801Y-72652313D01*
X147648307Y-72687532D01*
X147647917Y-72687663D01*
X147647915Y-72687664D01*
X147451255Y-72753975D01*
X147450914Y-72754090D01*
X147281853Y-72834980D01*
X147281664Y-72835087D01*
X147281661Y-72835089D01*
X147126957Y-72923036D01*
X146972426Y-73010885D01*
X146971694Y-73011268D01*
X146803641Y-73091675D01*
X146802329Y-73092208D01*
X146606382Y-73158279D01*
X146604804Y-73158691D01*
X146366467Y-73203460D01*
X146364953Y-73203643D01*
X146076849Y-73219574D01*
X146068399Y-73216609D01*
X146065733Y-73213114D01*
X145647612Y-72374819D01*
X145646986Y-72365886D01*
X145647622Y-72364354D01*
X146067387Y-71526879D01*
X146074158Y-71521019D01*
X146078516Y-71520441D01*
X146200950Y-71527451D01*
G37*
%TD.AperFunction*%
%TA.AperFunction,Conductor*%
G36*
X151166601Y-71528391D02*
G01*
X151169267Y-71531886D01*
X151587388Y-72370181D01*
X151588014Y-72379114D01*
X151587380Y-72380641D01*
X151398970Y-72756539D01*
X151167613Y-73218121D01*
X151160842Y-73223981D01*
X151156484Y-73224559D01*
X151044049Y-73218121D01*
X150868408Y-73208064D01*
X150866900Y-73207878D01*
X150772615Y-73189976D01*
X150628643Y-73162639D01*
X150627066Y-73162223D01*
X150524453Y-73127399D01*
X150431254Y-73095770D01*
X150429951Y-73095239D01*
X150355814Y-73059587D01*
X150262053Y-73014499D01*
X150261322Y-73014115D01*
X150106959Y-72925961D01*
X149952419Y-72837705D01*
X149952237Y-72837601D01*
X149897935Y-72811488D01*
X149783668Y-72756539D01*
X149783660Y-72756536D01*
X149783334Y-72756379D01*
X149782987Y-72756261D01*
X149782984Y-72756260D01*
X149706080Y-72730161D01*
X149586073Y-72689434D01*
X149346272Y-72643903D01*
X149305640Y-72641576D01*
X149060795Y-72627556D01*
X149052731Y-72623662D01*
X149049764Y-72615864D01*
X149050240Y-72129985D01*
X149053675Y-72121715D01*
X149061293Y-72118314D01*
X149234158Y-72108756D01*
X149346428Y-72102549D01*
X149346432Y-72102549D01*
X149346803Y-72102528D01*
X149347169Y-72102459D01*
X149347171Y-72102459D01*
X149399198Y-72092686D01*
X149586692Y-72057467D01*
X149587082Y-72057336D01*
X149587084Y-72057335D01*
X149783744Y-71991024D01*
X149784085Y-71990909D01*
X149953146Y-71910019D01*
X150108042Y-71821963D01*
X150262573Y-71734114D01*
X150263305Y-71733731D01*
X150431358Y-71653324D01*
X150432670Y-71652791D01*
X150628617Y-71586720D01*
X150630195Y-71586308D01*
X150868532Y-71541539D01*
X150870046Y-71541356D01*
X151158151Y-71525426D01*
X151166601Y-71528391D01*
G37*
%TD.AperFunction*%
%TA.AperFunction,Conductor*%
G36*
X146365778Y-68996645D02*
G01*
X146367286Y-68996830D01*
X146441281Y-69010804D01*
X146605579Y-69041833D01*
X146607157Y-69042247D01*
X146803037Y-69108509D01*
X146804348Y-69109043D01*
X146972312Y-69189611D01*
X146973044Y-69189994D01*
X147127500Y-69278000D01*
X147282127Y-69366105D01*
X147282141Y-69366113D01*
X147282309Y-69366208D01*
X147282503Y-69366301D01*
X147450961Y-69447105D01*
X147450965Y-69447107D01*
X147451291Y-69447263D01*
X147648618Y-69514016D01*
X147802094Y-69543001D01*
X147888086Y-69559241D01*
X147888089Y-69559241D01*
X147888463Y-69559312D01*
X148028594Y-69567198D01*
X148173957Y-69575379D01*
X148182025Y-69579266D01*
X148185000Y-69587061D01*
X148185000Y-70072939D01*
X148181573Y-70081212D01*
X148173957Y-70084621D01*
X148028594Y-70092802D01*
X147888463Y-70100688D01*
X147888089Y-70100759D01*
X147888086Y-70100759D01*
X147802094Y-70116999D01*
X147648618Y-70145984D01*
X147451291Y-70212736D01*
X147450965Y-70212892D01*
X147450961Y-70212894D01*
X147309800Y-70280605D01*
X147282309Y-70293792D01*
X147282141Y-70293887D01*
X147282127Y-70293895D01*
X147127500Y-70382000D01*
X146973044Y-70470006D01*
X146972312Y-70470389D01*
X146804348Y-70550956D01*
X146803037Y-70551490D01*
X146607157Y-70617753D01*
X146605579Y-70618167D01*
X146441281Y-70649196D01*
X146367286Y-70663170D01*
X146365778Y-70663355D01*
X146077680Y-70679568D01*
X146069229Y-70676611D01*
X146066559Y-70673118D01*
X145647616Y-69835232D01*
X145646981Y-69826300D01*
X145647616Y-69824768D01*
X146066559Y-68986882D01*
X146073324Y-68981014D01*
X146077680Y-68980432D01*
X146365778Y-68996645D01*
G37*
%TD.AperFunction*%
%TA.AperFunction,Conductor*%
G36*
X151165771Y-68983389D02*
G01*
X151168441Y-68986882D01*
X151587384Y-69824768D01*
X151588019Y-69833700D01*
X151587384Y-69835232D01*
X151168441Y-70673118D01*
X151161676Y-70678986D01*
X151157320Y-70679568D01*
X150869221Y-70663355D01*
X150867713Y-70663170D01*
X150793718Y-70649196D01*
X150629420Y-70618167D01*
X150627842Y-70617753D01*
X150431962Y-70551491D01*
X150430651Y-70550957D01*
X150262687Y-70470389D01*
X150261955Y-70470006D01*
X150107500Y-70382000D01*
X149952872Y-70293895D01*
X149952858Y-70293887D01*
X149952690Y-70293792D01*
X149924890Y-70280457D01*
X149784038Y-70212893D01*
X149784034Y-70212891D01*
X149783708Y-70212735D01*
X149586381Y-70145984D01*
X149432905Y-70116999D01*
X149346913Y-70100759D01*
X149346910Y-70100759D01*
X149346536Y-70100688D01*
X149206719Y-70092820D01*
X149061043Y-70084621D01*
X149052975Y-70080734D01*
X149050000Y-70072939D01*
X149050000Y-69587061D01*
X149053427Y-69578788D01*
X149061043Y-69575379D01*
X149206719Y-69567180D01*
X149346536Y-69559312D01*
X149346910Y-69559241D01*
X149346913Y-69559241D01*
X149432905Y-69543001D01*
X149586381Y-69514016D01*
X149783708Y-69447264D01*
X149784034Y-69447108D01*
X149784038Y-69447106D01*
X149952496Y-69366301D01*
X149952690Y-69366208D01*
X149952858Y-69366113D01*
X149952872Y-69366105D01*
X150107500Y-69278000D01*
X150261955Y-69189994D01*
X150262687Y-69189611D01*
X150430651Y-69109042D01*
X150431962Y-69108508D01*
X150627842Y-69042247D01*
X150629420Y-69041833D01*
X150793718Y-69010804D01*
X150867713Y-68996830D01*
X150869221Y-68996645D01*
X151157320Y-68980432D01*
X151165771Y-68983389D01*
G37*
%TD.AperFunction*%
%TA.AperFunction,Conductor*%
G36*
X172105847Y-66150395D02*
G01*
X172108383Y-66153766D01*
X172356384Y-66649768D01*
X172357019Y-66658700D01*
X172356384Y-66660232D01*
X172108383Y-67156234D01*
X172101618Y-67162102D01*
X172097443Y-67162692D01*
X171931183Y-67155910D01*
X171930100Y-67155816D01*
X171870873Y-67147778D01*
X171788964Y-67136663D01*
X171787799Y-67136444D01*
X171670720Y-67108258D01*
X171669709Y-67107966D01*
X171568391Y-67073694D01*
X171567799Y-67073476D01*
X171474000Y-67036000D01*
X171380046Y-66998462D01*
X171380036Y-66998458D01*
X171379910Y-66998408D01*
X171277792Y-66963863D01*
X171159620Y-66935416D01*
X171159322Y-66935376D01*
X171159319Y-66935375D01*
X171112321Y-66928998D01*
X171017365Y-66916112D01*
X170854222Y-66909458D01*
X170846097Y-66905697D01*
X170843000Y-66897768D01*
X170843000Y-66412232D01*
X170846427Y-66403959D01*
X170854222Y-66400542D01*
X171017365Y-66393888D01*
X171112321Y-66381002D01*
X171159319Y-66374625D01*
X171159322Y-66374624D01*
X171159620Y-66374584D01*
X171277792Y-66346136D01*
X171379910Y-66311592D01*
X171380036Y-66311542D01*
X171380046Y-66311538D01*
X171474000Y-66274000D01*
X171567799Y-66236524D01*
X171568391Y-66236306D01*
X171669709Y-66202032D01*
X171670720Y-66201740D01*
X171787799Y-66173556D01*
X171788964Y-66173337D01*
X171870873Y-66162222D01*
X171930100Y-66154184D01*
X171931183Y-66154090D01*
X172097442Y-66147308D01*
X172105847Y-66150395D01*
G37*
%TD.AperFunction*%
%TA.AperFunction,Conductor*%
G36*
X145689947Y-54769291D02*
G01*
X146418527Y-55230551D01*
X146423683Y-55237870D01*
X146422712Y-55245708D01*
X146118765Y-55847762D01*
X146111084Y-55862976D01*
X146104297Y-55868817D01*
X146099703Y-55869365D01*
X146002924Y-55861585D01*
X145830990Y-55847762D01*
X145829288Y-55847498D01*
X145590446Y-55792181D01*
X145589131Y-55791794D01*
X145379530Y-55716511D01*
X145378800Y-55716221D01*
X145190942Y-55634134D01*
X145018045Y-55558787D01*
X145017804Y-55558682D01*
X144852416Y-55503406D01*
X144851863Y-55503333D01*
X144851862Y-55503333D01*
X144745961Y-55489394D01*
X144687451Y-55481693D01*
X144655855Y-55486332D01*
X144516410Y-55506807D01*
X144516407Y-55506808D01*
X144515582Y-55506929D01*
X144514820Y-55507279D01*
X144514821Y-55507279D01*
X144330072Y-55592227D01*
X144330070Y-55592228D01*
X144329481Y-55592499D01*
X144275204Y-55634134D01*
X144130366Y-55745237D01*
X144121716Y-55747554D01*
X144114584Y-55743820D01*
X144089518Y-55716221D01*
X143788860Y-55385188D01*
X143785835Y-55376760D01*
X143789655Y-55368661D01*
X143790433Y-55368013D01*
X143992375Y-55214257D01*
X143994408Y-55213014D01*
X144190065Y-55119282D01*
X144192420Y-55118450D01*
X144298218Y-55093360D01*
X144376687Y-55074751D01*
X144378695Y-55074455D01*
X144556033Y-55064032D01*
X144557130Y-55064020D01*
X144731677Y-55070339D01*
X144906777Y-55076679D01*
X145085673Y-55066164D01*
X145094798Y-55064000D01*
X145271547Y-55022084D01*
X145271550Y-55022083D01*
X145272157Y-55021939D01*
X145470026Y-54927149D01*
X145676600Y-54769867D01*
X145685260Y-54767582D01*
X145689947Y-54769291D01*
G37*
%TD.AperFunction*%
%TA.AperFunction,Conductor*%
G36*
X173375847Y-64880395D02*
G01*
X173378383Y-64883766D01*
X173626384Y-65379768D01*
X173627019Y-65388700D01*
X173626384Y-65390232D01*
X173378383Y-65886234D01*
X173371618Y-65892102D01*
X173367443Y-65892692D01*
X173201183Y-65885910D01*
X173200100Y-65885816D01*
X173140873Y-65877778D01*
X173058964Y-65866663D01*
X173057799Y-65866444D01*
X172940720Y-65838259D01*
X172939709Y-65837967D01*
X172838391Y-65803694D01*
X172837799Y-65803476D01*
X172744000Y-65766000D01*
X172650046Y-65728462D01*
X172650036Y-65728458D01*
X172649910Y-65728408D01*
X172547792Y-65693863D01*
X172429620Y-65665416D01*
X172429322Y-65665376D01*
X172429319Y-65665375D01*
X172382321Y-65658998D01*
X172287365Y-65646112D01*
X172124222Y-65639458D01*
X172116097Y-65635697D01*
X172113000Y-65627768D01*
X172113000Y-65142232D01*
X172116427Y-65133959D01*
X172124222Y-65130542D01*
X172287365Y-65123888D01*
X172382321Y-65111002D01*
X172429319Y-65104625D01*
X172429322Y-65104624D01*
X172429620Y-65104584D01*
X172547792Y-65076136D01*
X172649910Y-65041592D01*
X172650036Y-65041542D01*
X172650046Y-65041538D01*
X172744000Y-65004000D01*
X172837799Y-64966524D01*
X172838391Y-64966306D01*
X172939709Y-64932032D01*
X172940720Y-64931740D01*
X173057799Y-64903556D01*
X173058964Y-64903337D01*
X173140873Y-64892222D01*
X173200100Y-64884184D01*
X173201183Y-64884090D01*
X173367442Y-64877308D01*
X173375847Y-64880395D01*
G37*
%TD.AperFunction*%
%TA.AperFunction,Conductor*%
G36*
X163220232Y-53703616D02*
G01*
X163716234Y-53951617D01*
X163722102Y-53958382D01*
X163722692Y-53962559D01*
X163715911Y-54128809D01*
X163715815Y-54129905D01*
X163696663Y-54271035D01*
X163696444Y-54272200D01*
X163668259Y-54389279D01*
X163667967Y-54390290D01*
X163633694Y-54491608D01*
X163633476Y-54492200D01*
X163596000Y-54586000D01*
X163558408Y-54680089D01*
X163523863Y-54782207D01*
X163495416Y-54900379D01*
X163476112Y-55042634D01*
X163476101Y-55042904D01*
X163469458Y-55205777D01*
X163465697Y-55213903D01*
X163457768Y-55217000D01*
X162972232Y-55217000D01*
X162963959Y-55213573D01*
X162960542Y-55205777D01*
X162953899Y-55042904D01*
X162953888Y-55042634D01*
X162934584Y-54900379D01*
X162906136Y-54782207D01*
X162871592Y-54680089D01*
X162834000Y-54586000D01*
X162796524Y-54492200D01*
X162796306Y-54491608D01*
X162762032Y-54390290D01*
X162761740Y-54389279D01*
X162733556Y-54272200D01*
X162733337Y-54271035D01*
X162714185Y-54129905D01*
X162714089Y-54128809D01*
X162707308Y-53962559D01*
X162710395Y-53954153D01*
X162713766Y-53951617D01*
X163209768Y-53703616D01*
X163218700Y-53702981D01*
X163220232Y-53703616D01*
G37*
%TD.AperFunction*%
%TA.AperFunction,Conductor*%
G36*
X192980513Y-39287185D02*
G01*
X192981060Y-39288101D01*
X193104887Y-39519108D01*
X193210020Y-39715241D01*
X193210908Y-39724152D01*
X193206275Y-39730452D01*
X193046088Y-39839089D01*
X193045535Y-39839785D01*
X193045533Y-39839787D01*
X192952079Y-39957411D01*
X192952078Y-39957413D01*
X192951340Y-39958342D01*
X192917090Y-40084256D01*
X192929671Y-40218795D01*
X192929857Y-40219385D01*
X192929858Y-40219390D01*
X192960995Y-40318170D01*
X192975417Y-40363923D01*
X192975513Y-40364155D01*
X193040657Y-40521594D01*
X193040661Y-40521603D01*
X193111589Y-40693438D01*
X193111867Y-40694184D01*
X193174749Y-40881780D01*
X193175125Y-40883186D01*
X193216527Y-41088612D01*
X193216753Y-41090586D01*
X193223068Y-41309106D01*
X193219882Y-41317475D01*
X193215914Y-41320226D01*
X192613213Y-41573948D01*
X192410743Y-41659182D01*
X192401788Y-41659234D01*
X192395420Y-41652939D01*
X192395055Y-41651951D01*
X192049737Y-40568345D01*
X192050490Y-40559422D01*
X192054437Y-40555030D01*
X192223233Y-40443535D01*
X192223232Y-40443535D01*
X192223760Y-40443187D01*
X192300680Y-40363923D01*
X192344063Y-40319217D01*
X192344527Y-40318739D01*
X192423337Y-40188497D01*
X192474174Y-40054392D01*
X192511025Y-39918356D01*
X192547730Y-39782863D01*
X192548081Y-39781780D01*
X192598335Y-39649213D01*
X192599265Y-39647303D01*
X192676839Y-39519104D01*
X192678447Y-39517021D01*
X192797404Y-39394438D01*
X192799352Y-39392823D01*
X192964303Y-39283870D01*
X192973093Y-39282170D01*
X192980513Y-39287185D01*
G37*
%TD.AperFunction*%
%TA.AperFunction,Conductor*%
G36*
X153635232Y-47300116D02*
G01*
X154258236Y-47611618D01*
X154264103Y-47618382D01*
X154264693Y-47622557D01*
X154256132Y-47833077D01*
X154256036Y-47834170D01*
X154232060Y-48011410D01*
X154231843Y-48012572D01*
X154196543Y-48159675D01*
X154196253Y-48160683D01*
X154153341Y-48287949D01*
X154153124Y-48288540D01*
X154106250Y-48406250D01*
X154059260Y-48524249D01*
X154016079Y-48652311D01*
X153980520Y-48800498D01*
X153956390Y-48978874D01*
X153956379Y-48979154D01*
X153947956Y-49186275D01*
X153944196Y-49194402D01*
X153936266Y-49197500D01*
X153323734Y-49197500D01*
X153315461Y-49194073D01*
X153312044Y-49186275D01*
X153303621Y-48979154D01*
X153303610Y-48978874D01*
X153279480Y-48800498D01*
X153243920Y-48652311D01*
X153200740Y-48524249D01*
X153153750Y-48406250D01*
X153106876Y-48288540D01*
X153106659Y-48287949D01*
X153063746Y-48160683D01*
X153063456Y-48159675D01*
X153028157Y-48012572D01*
X153027940Y-48011410D01*
X153003964Y-47834170D01*
X153003868Y-47833077D01*
X152995307Y-47622557D01*
X152998395Y-47614152D01*
X153001763Y-47611618D01*
X153624768Y-47300116D01*
X153633700Y-47299481D01*
X153635232Y-47300116D01*
G37*
%TD.AperFunction*%
%TA.AperFunction,Conductor*%
G36*
X219094743Y-51425038D02*
G01*
X219708237Y-51429831D01*
X219716483Y-51433323D01*
X219719844Y-51441666D01*
X219718477Y-51559939D01*
X219718457Y-51559987D01*
X219718476Y-51559987D01*
X219716588Y-51680453D01*
X219715089Y-51791562D01*
X219715089Y-51791621D01*
X219714783Y-51883659D01*
X219714750Y-51893555D01*
X219716345Y-51986672D01*
X219720646Y-52071154D01*
X219728425Y-52147241D01*
X219740454Y-52215175D01*
X219757507Y-52275195D01*
X219757665Y-52275557D01*
X219777320Y-52320590D01*
X219777489Y-52329543D01*
X219775245Y-52333151D01*
X219312321Y-52841136D01*
X219312320Y-52841138D01*
X219071876Y-53104987D01*
X218380650Y-52322258D01*
X218377742Y-52313788D01*
X218378771Y-52309666D01*
X218399128Y-52264942D01*
X218399128Y-52264941D01*
X218399290Y-52264586D01*
X218417279Y-52204839D01*
X218430368Y-52137101D01*
X218438153Y-52071154D01*
X218439317Y-52061290D01*
X218439318Y-52061281D01*
X218439334Y-52061144D01*
X218444302Y-51986540D01*
X218444947Y-51976845D01*
X218444954Y-51976740D01*
X218448004Y-51883659D01*
X218449259Y-51781673D01*
X218449496Y-51670554D01*
X218449491Y-51550073D01*
X218449972Y-51431744D01*
X218453433Y-51423486D01*
X218461763Y-51420093D01*
X219094743Y-51425038D01*
G37*
%TD.AperFunction*%
%TA.AperFunction,Conductor*%
G36*
X206558473Y-55464226D02*
G01*
X206559265Y-55464900D01*
X206913728Y-55795118D01*
X206917446Y-55803265D01*
X206914950Y-55810911D01*
X206757719Y-56010771D01*
X206757439Y-56011363D01*
X206757436Y-56011368D01*
X206708445Y-56114966D01*
X206669103Y-56198157D01*
X206642089Y-56371872D01*
X206642190Y-56372680D01*
X206642190Y-56372682D01*
X206662944Y-56538618D01*
X206663014Y-56539176D01*
X206718210Y-56707332D01*
X206718312Y-56707570D01*
X206793985Y-56883531D01*
X206793992Y-56883547D01*
X206794014Y-56883599D01*
X206876601Y-57074869D01*
X206876887Y-57075595D01*
X206952554Y-57288866D01*
X206952935Y-57290179D01*
X207008226Y-57532836D01*
X207008484Y-57534540D01*
X207029398Y-57807158D01*
X207026614Y-57815669D01*
X207022964Y-57818518D01*
X206404554Y-58127723D01*
X206395623Y-58128358D01*
X206389376Y-58123418D01*
X206200578Y-57818518D01*
X205934663Y-57389080D01*
X205933221Y-57380242D01*
X205935374Y-57375737D01*
X206096288Y-57168840D01*
X206096664Y-57168357D01*
X206193394Y-56968691D01*
X206213451Y-56883599D01*
X206237840Y-56780130D01*
X206237841Y-56780124D01*
X206237958Y-56779627D01*
X206247744Y-56597632D01*
X206240142Y-56419171D01*
X206232563Y-56241274D01*
X206232569Y-56240150D01*
X206234783Y-56198986D01*
X206242269Y-56059756D01*
X206242564Y-56057700D01*
X206286593Y-55870905D01*
X206287452Y-55868488D01*
X206383083Y-55671093D01*
X206384377Y-55669011D01*
X206542055Y-55466278D01*
X206549839Y-55461851D01*
X206558473Y-55464226D01*
G37*
%TD.AperFunction*%
%TA.AperFunction,Conductor*%
G36*
X197032820Y-56800705D02*
G01*
X196985580Y-56809490D01*
X196985573Y-56809491D01*
X196765978Y-56850328D01*
X196548033Y-56899748D01*
X196366760Y-56949016D01*
X196209936Y-56998182D01*
X196065337Y-57047298D01*
X195920858Y-57096372D01*
X195920624Y-57096449D01*
X195880582Y-57109002D01*
X195764125Y-57145512D01*
X195763694Y-57145638D01*
X195582879Y-57194782D01*
X195582397Y-57194902D01*
X195364933Y-57244213D01*
X195364485Y-57244306D01*
X195283496Y-57259368D01*
X195105100Y-57292544D01*
X195096341Y-57290687D01*
X195093511Y-57287939D01*
X194728084Y-56787260D01*
X194728083Y-56787259D01*
X194570555Y-56571427D01*
X194832146Y-55716109D01*
X195100522Y-55675597D01*
X195322631Y-55650909D01*
X195510042Y-55638088D01*
X195674318Y-55633179D01*
X195827029Y-55632225D01*
X195979739Y-55631271D01*
X195979766Y-55631270D01*
X195979783Y-55631270D01*
X196143918Y-55626365D01*
X196143922Y-55626365D01*
X196144016Y-55626362D01*
X196144088Y-55626357D01*
X196144111Y-55626356D01*
X196331300Y-55613549D01*
X196331315Y-55613548D01*
X196331426Y-55613540D01*
X196442102Y-55601238D01*
X196553411Y-55588866D01*
X196553417Y-55588865D01*
X196553536Y-55588852D01*
X196553629Y-55588838D01*
X196553652Y-55588835D01*
X196774331Y-55555524D01*
X196774330Y-55555524D01*
X196774404Y-55555513D01*
X196774421Y-55555510D01*
X196821913Y-55548341D01*
X197032820Y-56800705D01*
G37*
%TD.AperFunction*%
%TA.AperFunction,Conductor*%
G36*
X169821550Y-44807747D02*
G01*
X169823265Y-44808596D01*
X170348091Y-45068422D01*
X170353985Y-45075163D01*
X170354584Y-45079528D01*
X170342352Y-45309709D01*
X170342228Y-45310895D01*
X170309197Y-45522228D01*
X170309043Y-45523029D01*
X170265700Y-45712602D01*
X170265647Y-45712822D01*
X170222179Y-45884460D01*
X170188892Y-46041753D01*
X170176054Y-46188495D01*
X170193906Y-46328581D01*
X170252688Y-46465908D01*
X170362641Y-46604373D01*
X170363095Y-46604753D01*
X170525687Y-46740905D01*
X170529829Y-46748844D01*
X170527684Y-46756692D01*
X169653894Y-47975522D01*
X169646288Y-47980249D01*
X169637568Y-47978214D01*
X169636310Y-47977171D01*
X169634582Y-47975522D01*
X169427506Y-47778003D01*
X169425119Y-47774774D01*
X169316449Y-47557689D01*
X169315300Y-47553890D01*
X169287383Y-47328424D01*
X169287368Y-47325674D01*
X169313574Y-47093433D01*
X169313791Y-47092154D01*
X169367465Y-46855819D01*
X169421210Y-46619170D01*
X169421283Y-46618849D01*
X169422917Y-46604373D01*
X169447639Y-46385278D01*
X169447717Y-46384589D01*
X169440876Y-46329331D01*
X169419507Y-46156743D01*
X169419384Y-46155750D01*
X169418937Y-46154857D01*
X169418936Y-46154854D01*
X169309352Y-45935948D01*
X169308899Y-45935043D01*
X169088881Y-45725178D01*
X169553420Y-44675004D01*
X169821550Y-44807747D01*
G37*
%TD.AperFunction*%
%TA.AperFunction,Conductor*%
G36*
X195596771Y-54518427D02*
G01*
X195600196Y-54526500D01*
X195604620Y-54786377D01*
X195617160Y-55009503D01*
X195635640Y-55196440D01*
X195658080Y-55359251D01*
X195682500Y-55510000D01*
X195706920Y-55660748D01*
X195729359Y-55823559D01*
X195747840Y-56010496D01*
X195760380Y-56233622D01*
X195765000Y-56505000D01*
X194965000Y-56905000D01*
X194171590Y-56508295D01*
X194165723Y-56501531D01*
X194165125Y-56497632D01*
X194169616Y-56233871D01*
X194169632Y-56233413D01*
X194182147Y-56010727D01*
X194182186Y-56010233D01*
X194200619Y-55823776D01*
X194200672Y-55823330D01*
X194223061Y-55660888D01*
X194223102Y-55660614D01*
X194247500Y-55510000D01*
X194271906Y-55359336D01*
X194271920Y-55359251D01*
X194294359Y-55196440D01*
X194312840Y-55009503D01*
X194325380Y-54786377D01*
X194329804Y-54526501D01*
X194333371Y-54518287D01*
X194341502Y-54515000D01*
X195588498Y-54515000D01*
X195596771Y-54518427D01*
G37*
%TD.AperFunction*%
%TA.AperFunction,Conductor*%
G36*
X158148556Y-47191778D02*
G01*
X158927918Y-47581459D01*
X158933786Y-47588224D01*
X158934346Y-47592890D01*
X158912061Y-47861907D01*
X158911814Y-47863514D01*
X158853567Y-48121855D01*
X158853281Y-48122898D01*
X158775140Y-48363320D01*
X158774981Y-48363777D01*
X158692555Y-48585746D01*
X158621624Y-48788512D01*
X158621556Y-48788798D01*
X158621554Y-48788804D01*
X158578133Y-48970728D01*
X158578132Y-48970732D01*
X158577976Y-48971388D01*
X158577319Y-49133913D01*
X158635358Y-49275627D01*
X158767801Y-49396067D01*
X158768655Y-49396446D01*
X158768657Y-49396447D01*
X158980741Y-49490511D01*
X158986914Y-49496998D01*
X158987136Y-49504786D01*
X158606085Y-50690464D01*
X158600291Y-50697292D01*
X158591366Y-50698023D01*
X158589390Y-50697181D01*
X158331225Y-50557871D01*
X158327067Y-50554095D01*
X158191678Y-50352413D01*
X158189821Y-50347624D01*
X158152935Y-50101258D01*
X158152872Y-50098287D01*
X158182463Y-49820500D01*
X158182659Y-49819275D01*
X158246002Y-49525249D01*
X158309410Y-49230918D01*
X158309474Y-49230621D01*
X158339290Y-48950720D01*
X158315048Y-48788804D01*
X158301985Y-48701559D01*
X158301985Y-48701558D01*
X158301792Y-48700271D01*
X158163323Y-48494000D01*
X157897923Y-48350786D01*
X157892269Y-48343841D01*
X157892030Y-48338077D01*
X158131875Y-47199831D01*
X158136934Y-47192442D01*
X158145736Y-47190794D01*
X158148556Y-47191778D01*
G37*
%TD.AperFunction*%
%TA.AperFunction,Conductor*%
G36*
X219310753Y-52842857D02*
G01*
X219383555Y-53006739D01*
X219535534Y-53348857D01*
X219535761Y-53357809D01*
X219532602Y-53362364D01*
X219337805Y-53534982D01*
X219337389Y-53535601D01*
X219215721Y-53716670D01*
X219215719Y-53716674D01*
X219215293Y-53717308D01*
X219151802Y-53902657D01*
X219127658Y-54090020D01*
X219127651Y-54090321D01*
X219123187Y-54278391D01*
X219118729Y-54466154D01*
X219118636Y-54467371D01*
X219094723Y-54652946D01*
X219094188Y-54655243D01*
X219031576Y-54838026D01*
X219030222Y-54840751D01*
X218909404Y-55020556D01*
X218907453Y-55022788D01*
X218717104Y-55191466D01*
X218708639Y-55194388D01*
X218700587Y-55190469D01*
X218699813Y-55189495D01*
X218580412Y-55021800D01*
X218418861Y-54794909D01*
X218416854Y-54786182D01*
X218420695Y-54779312D01*
X218614901Y-54609708D01*
X218724431Y-54438721D01*
X218758055Y-54268647D01*
X218732523Y-54094815D01*
X218664584Y-53912556D01*
X218570989Y-53717196D01*
X218468650Y-53504410D01*
X218468338Y-53503701D01*
X218374092Y-53269162D01*
X218373643Y-53267816D01*
X218304001Y-53006739D01*
X218303661Y-53004859D01*
X218287688Y-52841136D01*
X218275800Y-52719283D01*
X218278408Y-52710717D01*
X218282130Y-52707725D01*
X218582692Y-52554451D01*
X219071826Y-52305013D01*
X219310753Y-52842857D01*
G37*
%TD.AperFunction*%
%TA.AperFunction,Conductor*%
G36*
X184805847Y-65515395D02*
G01*
X184808383Y-65518766D01*
X185056384Y-66014768D01*
X185057019Y-66023700D01*
X185056384Y-66025232D01*
X184808383Y-66521234D01*
X184801618Y-66527102D01*
X184797443Y-66527692D01*
X184631183Y-66520910D01*
X184630100Y-66520816D01*
X184570873Y-66512778D01*
X184488964Y-66501663D01*
X184487799Y-66501444D01*
X184370720Y-66473259D01*
X184369709Y-66472967D01*
X184268391Y-66438694D01*
X184267799Y-66438476D01*
X184174000Y-66401000D01*
X184080046Y-66363462D01*
X184080036Y-66363458D01*
X184079910Y-66363408D01*
X183977792Y-66328863D01*
X183859620Y-66300416D01*
X183859322Y-66300376D01*
X183859319Y-66300375D01*
X183812321Y-66293998D01*
X183717365Y-66281112D01*
X183554222Y-66274458D01*
X183546097Y-66270697D01*
X183543000Y-66262768D01*
X183543000Y-65777232D01*
X183546427Y-65768959D01*
X183554222Y-65765542D01*
X183717365Y-65758888D01*
X183812321Y-65746002D01*
X183859319Y-65739625D01*
X183859322Y-65739624D01*
X183859620Y-65739584D01*
X183977792Y-65711136D01*
X184079910Y-65676592D01*
X184080036Y-65676542D01*
X184080046Y-65676538D01*
X184174000Y-65639000D01*
X184267799Y-65601524D01*
X184268391Y-65601306D01*
X184369709Y-65567032D01*
X184370720Y-65566740D01*
X184487799Y-65538556D01*
X184488964Y-65538337D01*
X184570873Y-65527222D01*
X184630100Y-65519184D01*
X184631183Y-65519090D01*
X184797442Y-65512308D01*
X184805847Y-65515395D01*
G37*
%TD.AperFunction*%
%TA.AperFunction,Conductor*%
G36*
X174654655Y-63217328D02*
G01*
X175272956Y-63526478D01*
X175278824Y-63533243D01*
X175279389Y-63537850D01*
X175259047Y-63799375D01*
X175258783Y-63801094D01*
X175221503Y-63962791D01*
X175204950Y-64034583D01*
X175204563Y-64035902D01*
X175130892Y-64241445D01*
X175130604Y-64242171D01*
X175077953Y-64363000D01*
X175050192Y-64426709D01*
X174976403Y-64596732D01*
X174922707Y-64758670D01*
X174922636Y-64759233D01*
X174922635Y-64759237D01*
X174905934Y-64891482D01*
X174902419Y-64919313D01*
X174928854Y-65085447D01*
X174929228Y-65086218D01*
X174929229Y-65086222D01*
X174984186Y-65199611D01*
X175015326Y-65263862D01*
X175114449Y-65386343D01*
X175168388Y-65452992D01*
X175170929Y-65461578D01*
X175167396Y-65468792D01*
X174818289Y-65803980D01*
X174817938Y-65804317D01*
X174809597Y-65807575D01*
X174801395Y-65803980D01*
X174800707Y-65803197D01*
X174646556Y-65610966D01*
X174645229Y-65608898D01*
X174550606Y-65420541D01*
X174549712Y-65418132D01*
X174504895Y-65239200D01*
X174504571Y-65237145D01*
X174494388Y-65086222D01*
X174492877Y-65063827D01*
X174492855Y-65062704D01*
X174497829Y-64891482D01*
X174502810Y-64719989D01*
X174502810Y-64719980D01*
X174502818Y-64719699D01*
X174491016Y-64544777D01*
X174445631Y-64363577D01*
X174349873Y-64172960D01*
X174349490Y-64172483D01*
X174349486Y-64172476D01*
X174192064Y-63976165D01*
X174189562Y-63967567D01*
X174191181Y-63962791D01*
X174288983Y-63801097D01*
X174639413Y-63221738D01*
X174646626Y-63216432D01*
X174654655Y-63217328D01*
G37*
%TD.AperFunction*%
%TA.AperFunction,Conductor*%
G36*
X209185761Y-56508427D02*
G01*
X209189186Y-56516510D01*
X209191258Y-56644358D01*
X209198238Y-56766593D01*
X209210249Y-56874464D01*
X209227596Y-56970732D01*
X209250589Y-57058158D01*
X209279535Y-57139502D01*
X209314741Y-57217523D01*
X209356515Y-57294984D01*
X209405165Y-57374643D01*
X209405200Y-57374696D01*
X209405205Y-57374704D01*
X209456367Y-57452243D01*
X209458063Y-57461036D01*
X209455821Y-57465890D01*
X208944220Y-58120699D01*
X208936426Y-58125109D01*
X208927797Y-58122716D01*
X208925780Y-58120699D01*
X208414179Y-57465890D01*
X208411786Y-57457261D01*
X208413633Y-57452243D01*
X208464794Y-57374704D01*
X208464799Y-57374696D01*
X208464834Y-57374643D01*
X208513484Y-57294984D01*
X208555258Y-57217523D01*
X208590464Y-57139502D01*
X208619410Y-57058158D01*
X208642403Y-56970732D01*
X208659750Y-56874464D01*
X208671761Y-56766593D01*
X208678741Y-56644358D01*
X208680813Y-56516509D01*
X208684373Y-56508294D01*
X208692511Y-56505000D01*
X209177488Y-56505000D01*
X209185761Y-56508427D01*
G37*
%TD.AperFunction*%
%TA.AperFunction,Conductor*%
G36*
X189879960Y-51430001D02*
G01*
X190503214Y-51432446D01*
X190511474Y-51435905D01*
X190514868Y-51444233D01*
X190514008Y-51559966D01*
X190513990Y-51559966D01*
X190514008Y-51560008D01*
X190512694Y-51678272D01*
X190511744Y-51787545D01*
X190511891Y-51887923D01*
X190511893Y-51888001D01*
X190513759Y-51974473D01*
X190513868Y-51979541D01*
X190518406Y-52062537D01*
X190526238Y-52137045D01*
X190526279Y-52137273D01*
X190526279Y-52137274D01*
X190537219Y-52198305D01*
X190538097Y-52203204D01*
X190554715Y-52261150D01*
X190573757Y-52304099D01*
X190573977Y-52313050D01*
X190571770Y-52316653D01*
X189882210Y-53085212D01*
X189874134Y-53089082D01*
X189865688Y-53086108D01*
X189864731Y-53085144D01*
X189181220Y-52311201D01*
X189178312Y-52302731D01*
X189179330Y-52298633D01*
X189198708Y-52255833D01*
X189214249Y-52203204D01*
X189215696Y-52198305D01*
X189215698Y-52198297D01*
X189215780Y-52198019D01*
X189228157Y-52131955D01*
X189236006Y-52062537D01*
X189236556Y-52057671D01*
X189236557Y-52057664D01*
X189236574Y-52057510D01*
X189241762Y-51974553D01*
X189243303Y-51922187D01*
X189244456Y-51882996D01*
X189244458Y-51882863D01*
X189245391Y-51782590D01*
X189245391Y-51782579D01*
X189245298Y-51673301D01*
X189244912Y-51554989D01*
X189244961Y-51439252D01*
X189248391Y-51430980D01*
X189256707Y-51427557D01*
X189879960Y-51430001D01*
G37*
%TD.AperFunction*%
%TA.AperFunction,Conductor*%
G36*
X177191675Y-63223398D02*
G01*
X177194609Y-63226332D01*
X177676150Y-63919514D01*
X177678056Y-63928264D01*
X177675859Y-63933265D01*
X177632169Y-63990799D01*
X177589375Y-64054942D01*
X177552407Y-64120613D01*
X177521052Y-64189501D01*
X177495101Y-64263296D01*
X177474341Y-64343687D01*
X177458563Y-64432363D01*
X177447553Y-64531015D01*
X177441103Y-64641330D01*
X177441101Y-64641468D01*
X177439196Y-64753499D01*
X177435629Y-64761713D01*
X177427498Y-64765000D01*
X176942502Y-64765000D01*
X176934229Y-64761573D01*
X176930804Y-64753499D01*
X176928898Y-64641468D01*
X176928896Y-64641330D01*
X176922446Y-64531015D01*
X176911436Y-64432363D01*
X176895658Y-64343687D01*
X176874898Y-64263296D01*
X176848947Y-64189501D01*
X176817592Y-64120613D01*
X176780624Y-64054942D01*
X176737830Y-63990799D01*
X176694141Y-63933265D01*
X176691867Y-63924603D01*
X176693850Y-63919514D01*
X177175391Y-63226332D01*
X177182925Y-63221492D01*
X177191675Y-63223398D01*
G37*
%TD.AperFunction*%
%TA.AperFunction,Conductor*%
G36*
X161950232Y-40867616D02*
G01*
X162738410Y-41261705D01*
X162744278Y-41268470D01*
X162744876Y-41272365D01*
X162740831Y-41511715D01*
X162740384Y-41538172D01*
X162740368Y-41538626D01*
X162727853Y-41762978D01*
X162727815Y-41763468D01*
X162709382Y-41951338D01*
X162709330Y-41951782D01*
X162686940Y-42115459D01*
X162686900Y-42115730D01*
X162662500Y-42267500D01*
X162638080Y-42419391D01*
X162615639Y-42583435D01*
X162597160Y-42771783D01*
X162584620Y-42996587D01*
X162584618Y-42996726D01*
X162580194Y-43258498D01*
X162576628Y-43266712D01*
X162568496Y-43270000D01*
X161321504Y-43270000D01*
X161313231Y-43266573D01*
X161309806Y-43258498D01*
X161305382Y-42996726D01*
X161305380Y-42996587D01*
X161292840Y-42771783D01*
X161274360Y-42583435D01*
X161251920Y-42419391D01*
X161227500Y-42267500D01*
X161203100Y-42115730D01*
X161203060Y-42115459D01*
X161180669Y-41951782D01*
X161180617Y-41951338D01*
X161162185Y-41763468D01*
X161162147Y-41762978D01*
X161149632Y-41538626D01*
X161149616Y-41538172D01*
X161149169Y-41511715D01*
X161145124Y-41272367D01*
X161148410Y-41264038D01*
X161151590Y-41261705D01*
X161939768Y-40867616D01*
X161948700Y-40866981D01*
X161950232Y-40867616D01*
G37*
%TD.AperFunction*%
%TA.AperFunction,Conductor*%
G36*
X198663659Y-55074313D02*
G01*
X198666489Y-55077061D01*
X198698363Y-55120732D01*
X199185997Y-55788849D01*
X199188106Y-55797551D01*
X199187734Y-55799168D01*
X198930009Y-56641844D01*
X198924313Y-56648753D01*
X198920567Y-56649991D01*
X198659694Y-56689369D01*
X198659241Y-56689428D01*
X198513996Y-56705573D01*
X198437624Y-56714062D01*
X198437142Y-56714105D01*
X198250169Y-56726896D01*
X198249739Y-56726918D01*
X198085807Y-56731816D01*
X198085556Y-56731821D01*
X197932970Y-56732774D01*
X197780260Y-56733728D01*
X197780233Y-56733729D01*
X197780216Y-56733729D01*
X197616081Y-56738634D01*
X197616077Y-56738634D01*
X197615983Y-56738637D01*
X197615911Y-56738642D01*
X197615888Y-56738643D01*
X197428699Y-56751450D01*
X197428684Y-56751451D01*
X197428573Y-56751459D01*
X197317897Y-56763761D01*
X197206588Y-56776133D01*
X197206582Y-56776134D01*
X197206463Y-56776147D01*
X197206370Y-56776161D01*
X197206347Y-56776164D01*
X197048141Y-56800046D01*
X196938087Y-56816659D01*
X196727180Y-55564295D01*
X196774411Y-55555511D01*
X196774421Y-55555510D01*
X196994021Y-55514671D01*
X197211966Y-55465251D01*
X197393239Y-55415983D01*
X197550063Y-55366817D01*
X197694662Y-55317701D01*
X197839141Y-55268627D01*
X197839375Y-55268550D01*
X197879417Y-55255997D01*
X197995874Y-55219487D01*
X197996305Y-55219361D01*
X198177120Y-55170217D01*
X198177602Y-55170097D01*
X198395065Y-55120786D01*
X198395513Y-55120693D01*
X198420358Y-55116073D01*
X198654900Y-55072456D01*
X198663659Y-55074313D01*
G37*
%TD.AperFunction*%
%TA.AperFunction,Conductor*%
G36*
X169557008Y-44278414D02*
G01*
X169559338Y-44281597D01*
X169954999Y-45075525D01*
X169553949Y-45874999D01*
X169282577Y-45870022D01*
X169235968Y-45867341D01*
X169059714Y-45857203D01*
X169059220Y-45857164D01*
X168872767Y-45838484D01*
X168872320Y-45838430D01*
X168811901Y-45830022D01*
X168709899Y-45815826D01*
X168709669Y-45815792D01*
X168408342Y-45766573D01*
X168408288Y-45766566D01*
X168408272Y-45766563D01*
X168290758Y-45750209D01*
X168245560Y-45743919D01*
X168245440Y-45743907D01*
X168245432Y-45743906D01*
X168195066Y-45738860D01*
X168058648Y-45725193D01*
X167955700Y-45719272D01*
X167835646Y-45712366D01*
X167835639Y-45712366D01*
X167835539Y-45712360D01*
X167575669Y-45707595D01*
X167567460Y-45704017D01*
X167564183Y-45695882D01*
X167565822Y-44448889D01*
X167569260Y-44440620D01*
X167577337Y-44437205D01*
X167708925Y-44435138D01*
X167837111Y-44433124D01*
X167837124Y-44433124D01*
X167837220Y-44433122D01*
X167837338Y-44433116D01*
X167837352Y-44433115D01*
X167946115Y-44427145D01*
X168060362Y-44420875D01*
X168179155Y-44409289D01*
X168247243Y-44402649D01*
X168247251Y-44402648D01*
X168247323Y-44402641D01*
X168410163Y-44380415D01*
X168410171Y-44380414D01*
X168410190Y-44380411D01*
X168560944Y-44356193D01*
X168711575Y-44331995D01*
X168711849Y-44331954D01*
X168874346Y-44309775D01*
X168874792Y-44309723D01*
X168932402Y-44304104D01*
X169061317Y-44291531D01*
X169061763Y-44291498D01*
X169216518Y-44283004D01*
X169284416Y-44279278D01*
X169284873Y-44279261D01*
X169548682Y-44275117D01*
X169557008Y-44278414D01*
G37*
%TD.AperFunction*%
%TA.AperFunction,Conductor*%
G36*
X158281298Y-44286784D02*
G01*
X158401972Y-44288204D01*
X158402408Y-44288218D01*
X158488612Y-44292609D01*
X158625144Y-44299564D01*
X158625639Y-44299600D01*
X158812181Y-44317052D01*
X158812628Y-44317102D01*
X158975231Y-44338644D01*
X158975504Y-44338684D01*
X159126219Y-44362287D01*
X159277094Y-44385915D01*
X159277107Y-44385917D01*
X159277115Y-44385918D01*
X159439942Y-44407490D01*
X159439956Y-44407492D01*
X159440020Y-44407500D01*
X159558853Y-44418618D01*
X159626933Y-44424988D01*
X159626940Y-44424988D01*
X159627052Y-44424999D01*
X159627154Y-44425004D01*
X159627165Y-44425005D01*
X159775127Y-44432541D01*
X159850241Y-44436367D01*
X159850372Y-44436369D01*
X159850386Y-44436369D01*
X160110137Y-44439428D01*
X160118369Y-44442952D01*
X160121699Y-44451066D01*
X160128245Y-45698043D01*
X160124861Y-45706334D01*
X160116806Y-45709801D01*
X159857077Y-45715586D01*
X159857062Y-45715587D01*
X159856955Y-45715589D01*
X159856850Y-45715595D01*
X159856837Y-45715596D01*
X159634026Y-45729292D01*
X159634020Y-45729292D01*
X159633898Y-45729300D01*
X159538290Y-45739258D01*
X159447171Y-45748749D01*
X159447149Y-45748752D01*
X159447060Y-45748761D01*
X159446970Y-45748774D01*
X159446953Y-45748776D01*
X159380559Y-45758283D01*
X159284369Y-45772055D01*
X158983278Y-45822453D01*
X158983023Y-45822493D01*
X158820643Y-45845742D01*
X158820234Y-45845793D01*
X158662352Y-45862238D01*
X158633853Y-45865206D01*
X158633359Y-45865247D01*
X158410773Y-45878929D01*
X158410316Y-45878948D01*
X158266872Y-45882144D01*
X158146567Y-45884824D01*
X158138219Y-45881582D01*
X158135869Y-45878414D01*
X157737650Y-45092317D01*
X157736968Y-45083388D01*
X157737595Y-45081853D01*
X158127540Y-44291621D01*
X158134274Y-44285718D01*
X158138170Y-44285099D01*
X158281298Y-44286784D01*
G37*
%TD.AperFunction*%
%TA.AperFunction,Conductor*%
G36*
X198759642Y-44693855D02*
G01*
X198760673Y-44694870D01*
X199451286Y-45464261D01*
X199454262Y-45472706D01*
X199453286Y-45476793D01*
X199435343Y-45517523D01*
X199419611Y-45573576D01*
X199419561Y-45573864D01*
X199419560Y-45573869D01*
X199413416Y-45609352D01*
X199408441Y-45638082D01*
X199408420Y-45638294D01*
X199408419Y-45638300D01*
X199407411Y-45648384D01*
X199401144Y-45711085D01*
X199397025Y-45792628D01*
X199397024Y-45792706D01*
X199397023Y-45792722D01*
X199396842Y-45802729D01*
X199395393Y-45882754D01*
X199395393Y-45882874D01*
X199395410Y-45892819D01*
X199395557Y-45981507D01*
X199395557Y-45981547D01*
X199396824Y-46088930D01*
X199398502Y-46205066D01*
X199398502Y-46205104D01*
X199399769Y-46318221D01*
X199396435Y-46326532D01*
X199388163Y-46330052D01*
X198779230Y-46334886D01*
X198141679Y-46339947D01*
X198133379Y-46336586D01*
X198129886Y-46328302D01*
X198129355Y-46215140D01*
X198129355Y-46215102D01*
X198129189Y-46098992D01*
X198129189Y-46098944D01*
X198128751Y-45991562D01*
X198127348Y-45892869D01*
X198127344Y-45892726D01*
X198124288Y-45802820D01*
X198124285Y-45802729D01*
X198118873Y-45721262D01*
X198110417Y-45648384D01*
X198108465Y-45638082D01*
X198098281Y-45584354D01*
X198098226Y-45584062D01*
X198081606Y-45528266D01*
X198076669Y-45517523D01*
X198063019Y-45487825D01*
X198062678Y-45478877D01*
X198064820Y-45475263D01*
X198743136Y-44695009D01*
X198751150Y-44691013D01*
X198759642Y-44693855D01*
G37*
%TD.AperFunction*%
%TA.AperFunction,Conductor*%
G36*
X187980898Y-67780061D02*
G01*
X188379999Y-68580434D01*
X187981358Y-69375559D01*
X187980813Y-69376647D01*
X187972809Y-69379884D01*
X187707993Y-69375088D01*
X187707536Y-69375071D01*
X187484894Y-69362316D01*
X187484399Y-69362277D01*
X187297961Y-69343642D01*
X187297515Y-69343589D01*
X187135020Y-69321013D01*
X187134833Y-69320984D01*
X186984222Y-69296418D01*
X186833501Y-69271835D01*
X186758946Y-69261477D01*
X186670803Y-69249230D01*
X186670788Y-69249228D01*
X186670714Y-69249218D01*
X186483797Y-69230535D01*
X186260685Y-69217752D01*
X186152252Y-69215788D01*
X186000813Y-69213046D01*
X185992603Y-69209470D01*
X185989325Y-69201335D01*
X185990680Y-67954343D01*
X185994116Y-67946074D01*
X186002194Y-67942657D01*
X186261970Y-67938516D01*
X186261984Y-67938515D01*
X186262074Y-67938514D01*
X186369726Y-67932581D01*
X186485054Y-67926226D01*
X186485065Y-67926225D01*
X186485213Y-67926217D01*
X186485368Y-67926202D01*
X186485379Y-67926201D01*
X186574332Y-67917505D01*
X186672170Y-67907940D01*
X186672294Y-67907923D01*
X186672312Y-67907921D01*
X186834932Y-67885687D01*
X186834933Y-67885687D01*
X186835005Y-67885677D01*
X186985780Y-67861420D01*
X187136444Y-67837182D01*
X187136641Y-67837152D01*
X187299183Y-67814929D01*
X187299617Y-67814879D01*
X187358838Y-67809089D01*
X187486094Y-67796649D01*
X187486588Y-67796611D01*
X187709238Y-67784340D01*
X187709696Y-67784323D01*
X187976370Y-67780073D01*
X187976371Y-67780109D01*
X187976565Y-67780070D01*
X187978616Y-67780037D01*
X187978625Y-67780037D01*
X187980240Y-67780011D01*
X187980898Y-67780061D01*
G37*
%TD.AperFunction*%
%TA.AperFunction,Conductor*%
G36*
X187978531Y-67780036D02*
G01*
X187978536Y-67780036D01*
X187978615Y-67780037D01*
X187978625Y-67780037D01*
X188247588Y-67783405D01*
X188248020Y-67783420D01*
X188470726Y-67794931D01*
X188471219Y-67794967D01*
X188657761Y-67812561D01*
X188658198Y-67812611D01*
X188820776Y-67834274D01*
X188821050Y-67834313D01*
X188971761Y-67858031D01*
X189122603Y-67881771D01*
X189122631Y-67881775D01*
X189203045Y-67892489D01*
X189285528Y-67903480D01*
X189285628Y-67903489D01*
X189285633Y-67903490D01*
X189472415Y-67921106D01*
X189472431Y-67921107D01*
X189472546Y-67921118D01*
X189472676Y-67921125D01*
X189472680Y-67921125D01*
X189507215Y-67922910D01*
X189695726Y-67932654D01*
X189695850Y-67932656D01*
X189695863Y-67932656D01*
X189955621Y-67935909D01*
X189963850Y-67939439D01*
X189967174Y-67947555D01*
X189972785Y-69194537D01*
X189969395Y-69202826D01*
X189961338Y-69206287D01*
X189737073Y-69211114D01*
X189701618Y-69211877D01*
X189701615Y-69211877D01*
X189701482Y-69211880D01*
X189478415Y-69225423D01*
X189478278Y-69225437D01*
X189478280Y-69225437D01*
X189291655Y-69244734D01*
X189291632Y-69244737D01*
X189291563Y-69244744D01*
X189291484Y-69244755D01*
X189291470Y-69244757D01*
X189128928Y-69267906D01*
X189128897Y-69267911D01*
X189128854Y-69267917D01*
X188827670Y-69318098D01*
X188827479Y-69318127D01*
X188665096Y-69341253D01*
X188664651Y-69341308D01*
X188478244Y-69360583D01*
X188477770Y-69360621D01*
X188255175Y-69374136D01*
X188254739Y-69374155D01*
X188034665Y-69378892D01*
X187989590Y-69379862D01*
X187982193Y-69377211D01*
X187580005Y-68581799D01*
X187976370Y-67780073D01*
X187976371Y-67780073D01*
X187976372Y-67780108D01*
X187976837Y-67780015D01*
X187978531Y-67780036D01*
G37*
%TD.AperFunction*%
%TA.AperFunction,Conductor*%
G36*
X149991354Y-43103011D02*
G01*
X149991519Y-43103425D01*
X149991519Y-43103427D01*
X149992793Y-43106636D01*
X149992826Y-43106722D01*
X150076037Y-43321261D01*
X150076073Y-43321356D01*
X150144312Y-43501916D01*
X150144345Y-43502002D01*
X150202696Y-43660154D01*
X150202684Y-43660158D01*
X150202716Y-43660208D01*
X150256067Y-43807011D01*
X150309439Y-43953868D01*
X150367768Y-44111964D01*
X150367789Y-44112020D01*
X150436093Y-44292751D01*
X150436097Y-44292761D01*
X150436130Y-44292846D01*
X150519330Y-44507357D01*
X150519341Y-44507385D01*
X150619564Y-44759793D01*
X150619432Y-44768747D01*
X150616705Y-44772634D01*
X149885946Y-45459412D01*
X149877570Y-45462580D01*
X149872703Y-45461352D01*
X149086988Y-45068494D01*
X149081120Y-45061729D01*
X149080549Y-45057206D01*
X149099743Y-44784905D01*
X149099995Y-44783178D01*
X149151749Y-44551450D01*
X149152205Y-44549913D01*
X149225206Y-44354096D01*
X149225651Y-44353058D01*
X149309219Y-44181535D01*
X149309380Y-44181217D01*
X149345772Y-44111964D01*
X149392654Y-44022750D01*
X149464524Y-43866343D01*
X149513958Y-43700806D01*
X149530006Y-43514792D01*
X149504888Y-43321356D01*
X149501787Y-43297474D01*
X149501786Y-43297469D01*
X149501719Y-43296954D01*
X149418147Y-43035944D01*
X149889635Y-42846834D01*
X149991354Y-43103011D01*
G37*
%TD.AperFunction*%
%TA.AperFunction,Conductor*%
G36*
X149017339Y-41027846D02*
G01*
X149385246Y-41089630D01*
X149392837Y-41094379D01*
X149394722Y-41098595D01*
X149465289Y-41411665D01*
X149533969Y-41673530D01*
X149599939Y-41891242D01*
X149599973Y-41891341D01*
X149664102Y-42079518D01*
X149727361Y-42253077D01*
X149790580Y-42426527D01*
X149790662Y-42426760D01*
X149854723Y-42614740D01*
X149854845Y-42615121D01*
X149908523Y-42792265D01*
X149920689Y-42832416D01*
X149920809Y-42832841D01*
X149989376Y-43094274D01*
X149989472Y-43094668D01*
X149991252Y-43102564D01*
X149991255Y-43102575D01*
X150061728Y-43415225D01*
X149564528Y-43519409D01*
X149476684Y-43205986D01*
X149364954Y-42969410D01*
X149232113Y-42791809D01*
X149080937Y-42655313D01*
X148914205Y-42542050D01*
X148914079Y-42541974D01*
X148914063Y-42541964D01*
X148734806Y-42434219D01*
X148734559Y-42434066D01*
X148545609Y-42314018D01*
X148544766Y-42313429D01*
X148349016Y-42163405D01*
X148347905Y-42162437D01*
X148264087Y-42079518D01*
X148147802Y-41964482D01*
X148146739Y-41963274D01*
X147949080Y-41704929D01*
X147946774Y-41696277D01*
X147948214Y-41692015D01*
X147958706Y-41673655D01*
X148384072Y-40929264D01*
X148391152Y-40923781D01*
X148396166Y-40923531D01*
X149017339Y-41027846D01*
G37*
%TD.AperFunction*%
M02*
