M48
; DRILL file {KiCad (6.0.1)} date Thu 17 Feb 2022 06:08:34 AM
; FORMAT={-:-/ absolute / metric / decimal}
; #@! TF.CreationDate,2022-02-17T06:08:34-07:00
; #@! TF.GenerationSoftware,Kicad,Pcbnew,(6.0.1)
; #@! TF.FileFunction,Plated,1,2,PTH
FMAT,2
METRIC
; #@! TA.AperFunction,Plated,PTH,ViaDrill
T1C0.305
; #@! TA.AperFunction,Plated,PTH,ViaDrill
T2C0.635
; #@! TA.AperFunction,Plated,PTH,ComponentDrill
T3C0.750
; #@! TA.AperFunction,Plated,PTH,ComponentDrill
T4C0.800
; #@! TA.AperFunction,Plated,PTH,ComponentDrill
T5C0.900
; #@! TA.AperFunction,Plated,PTH,ComponentDrill
T6C1.000
; #@! TA.AperFunction,Plated,PTH,ComponentDrill
T7C1.100
; #@! TA.AperFunction,Plated,PTH,ComponentDrill
T8C1.200
; #@! TA.AperFunction,Plated,PTH,ComponentDrill
T9C1.854
; #@! TA.AperFunction,Plated,PTH,ComponentDrill
T10C3.200
%
G90
G05
T1
X55.753Y-104.902
X55.88Y-134.62
X56.515Y-103.759
X56.553Y-132.639
X57.225Y-123.19
X57.404Y-100.965
X57.912Y-121.285
X58.166Y-98.298
X59.685Y-62.86
X59.69Y-120.015
X66.665Y-57.922
X70.485Y-94.615
X70.485Y-119.38
X75.565Y-95.885
X81.661Y-79.883
X82.931Y-80.645
X83.563Y-58.293
X83.82Y-76.708
X84.201Y-55.753
X84.455Y-74.168
X84.836Y-53.213
X84.908Y-71.628
X85.468Y-50.673
X85.577Y-69.088
X86.106Y-48.133
X86.247Y-66.548
X86.741Y-45.593
X86.813Y-64.008
X87.63Y-111.726
X87.63Y-114.3
X89.154Y-80.645
X89.916Y-79.883
X90.043Y-132.08
X90.17Y-118.11
X90.805Y-113.03
X90.805Y-115.57
X90.805Y-120.396
X90.805Y-129.54
X91.44Y-134.62
X91.557Y-107.95
X92.115Y-61.0
X92.329Y-127.0
X92.456Y-110.49
X94.615Y-73.025
X96.774Y-137.287
X97.194Y-122.594
X97.79Y-124.46
X97.79Y-136.525
X100.33Y-53.975
X100.33Y-67.818
X102.87Y-66.675
X103.505Y-39.37
X104.165Y-134.722
X104.926Y-135.132
X105.613Y-135.865
X106.553Y-136.144
X107.315Y-136.906
X107.95Y-55.245
X107.95Y-66.294
X107.95Y-80.645
X108.077Y-137.668
X108.966Y-127.0
X108.966Y-138.418
X110.49Y-40.64
X110.49Y-42.545
X110.49Y-68.58
X112.141Y-74.168
X113.03Y-53.975
X113.665Y-130.81
X115.57Y-82.55
X117.983Y-44.45
X117.983Y-90.805
X118.11Y-71.755
X118.11Y-135.89
X118.11Y-138.049
X118.707Y-25.4
X118.783Y-74.295
X119.253Y-61.366
X119.38Y-22.86
X119.38Y-33.02
X119.431Y-66.878
X119.507Y-83.566
X120.015Y-34.29
X120.574Y-66.446
X120.65Y-86.743
X121.183Y-62.789
X122.555Y-128.27
X124.46Y-102.108
X124.46Y-105.283
X126.365Y-27.94
X126.365Y-48.895
X126.365Y-50.165
X126.365Y-75.565
X126.365Y-85.052
X130.175Y-116.205
X130.175Y-121.92
X130.81Y-105.41
X130.81Y-113.538
X131.052Y-124.46
X131.057Y-116.84
X131.953Y-34.29
X132.588Y-55.245
X132.588Y-65.405
X132.715Y-24.13
X133.312Y-62.865
X133.35Y-57.785
X133.35Y-85.052
X133.35Y-107.95
X133.35Y-114.3
X133.35Y-135.89
X133.604Y-25.4
X133.985Y-59.055
X134.023Y-117.323
X134.023Y-127.0
X134.023Y-129.54
X134.023Y-132.08
X134.62Y-73.025
X134.62Y-86.831
X134.62Y-119.38
X134.695Y-121.92
X134.747Y-52.832
X134.874Y-136.779
X135.128Y-132.588
X135.255Y-113.411
X135.368Y-122.593
X135.509Y-60.325
X135.763Y-90.551
X135.852Y-134.62
X135.89Y-114.897
X135.89Y-118.707
X136.04Y-123.19
X136.652Y-89.789
X137.414Y-75.692
X137.414Y-87.338
X137.744Y-132.436
X139.065Y-95.466
X139.065Y-103.035
X139.065Y-128.27
X140.335Y-98.171
X140.335Y-105.41
X140.335Y-129.972
X140.335Y-130.81
X141.605Y-69.215
X142.621Y-98.171
X142.875Y-69.85
X142.875Y-89.027
X142.875Y-106.68
X142.875Y-131.445
X142.875Y-132.715
X142.875Y-95.885
X143.51Y-25.4
X143.51Y-30.48
X143.637Y-67.31
X143.637Y-88.392
X144.348Y-49.555
X144.399Y-64.77
X144.399Y-88.011
X145.128Y-76.824
X145.161Y-47.117
X145.923Y-45.72
X145.923Y-77.597
X145.923Y-79.375
X146.685Y-127.635
X149.225Y-121.882
X150.114Y-47.117
X150.495Y-94.615
X151.765Y-89.789
X151.765Y-95.25
X151.765Y-97.663
X151.765Y-120.396
X151.765Y-121.882
X152.108Y-35.56
X152.108Y-77.851
X152.146Y-86.995
X152.743Y-78.613
X152.908Y-30.48
X153.289Y-86.36
X153.378Y-71.12
X153.632Y-39.37
X153.669Y-67.308
X153.67Y-81.28
X153.67Y-97.155
X154.051Y-68.072
X154.305Y-36.83
X154.305Y-80.642
X154.305Y-118.707
X154.308Y-64.77
X154.584Y-86.436
X154.827Y-66.04
X154.94Y-80.007
X155.499Y-63.5
X155.499Y-79.35
X155.575Y-87.884
X155.702Y-49.53
X156.169Y-60.96
X156.248Y-130.175
X156.673Y-58.42
X156.87Y-123.368
X157.48Y-45.72
X157.48Y-114.808
X157.598Y-85.687
X157.861Y-41.91
X157.861Y-44.45
X158.009Y-53.34
X158.112Y-69.888
X158.115Y-102.87
X158.115Y-113.665
X158.237Y-86.322
X158.712Y-64.77
X158.75Y-50.8
X159.004Y-86.995
X159.306Y-62.23
X159.347Y-55.88
X159.385Y-122.552
X159.385Y-131.445
X159.639Y-87.63
X159.987Y-59.69
X160.017Y-48.26
X160.655Y-44.45
X161.036Y-120.904
X161.163Y-115.405
X161.293Y-54.61
X161.333Y-60.961
X161.333Y-79.375
X161.417Y-69.596
X161.925Y-104.14
X161.925Y-121.917
X162.002Y-80.01
X162.002Y-89.535
X162.56Y-94.615
X162.671Y-84.455
X162.776Y-80.493
X163.195Y-116.04
X163.322Y-77.089
X163.449Y-105.029
X164.465Y-77.851
X164.465Y-108.712
X164.719Y-119.38
X165.227Y-78.613
X165.666Y-67.31
X165.735Y-71.12
X165.735Y-116.84
X165.989Y-38.1
X165.989Y-41.91
X166.229Y-104.14
X166.37Y-69.85
X166.37Y-81.987
X166.899Y-97.155
X166.899Y-106.611
X167.005Y-68.58
X167.005Y-133.35
X167.568Y-92.075
X167.568Y-107.277
X167.64Y-75.692
X167.643Y-60.96
X167.767Y-130.302
X168.2Y-86.995
X168.2Y-107.95
X168.2Y-108.839
X168.783Y-37.846
X168.872Y-58.42
X168.91Y-123.317
X169.507Y-55.88
X169.545Y-125.476
X169.545Y-130.302
X169.545Y-133.35
X169.697Y-124.46
X170.142Y-53.34
X170.316Y-121.666
X170.777Y-50.8
X170.853Y-119.38
X171.412Y-48.26
X171.488Y-116.84
X172.047Y-45.72
X172.108Y-114.311
X172.204Y-116.167
X172.682Y-43.18
X172.751Y-111.76
X172.847Y-115.189
X173.228Y-41.021
X173.317Y-109.22
X173.317Y-113.627
X173.736Y-130.175
X173.736Y-132.588
X174.079Y-37.846
X174.625Y-130.175
X174.752Y-39.497
X175.006Y-83.185
X179.09Y-49.51
X179.121Y-79.273
X180.34Y-78.105
X180.34Y-107.95
X180.34Y-129.337
X180.34Y-132.715
X181.59Y-34.31
X181.61Y-130.175
X186.436Y-43.307
X186.436Y-76.708
X186.652Y-78.105
X187.452Y-42.164
X188.303Y-40.64
X188.468Y-108.712
X188.468Y-121.285
X188.976Y-38.1
X189.484Y-96.012
X189.724Y-35.56
X189.865Y-83.185
X190.394Y-33.02
X190.51Y-70.485
X190.754Y-76.708
X190.754Y-130.048
X191.063Y-30.48
X191.097Y-57.785
X191.643Y-130.048
X191.643Y-136.017
X191.732Y-27.94
X191.78Y-45.085
X191.897Y-25.39
X192.278Y-24.13
X192.415Y-32.385
X200.025Y-53.306
X201.422Y-52.705
X203.2Y-63.5
X203.835Y-78.105
X205.105Y-50.546
X205.105Y-65.786
X207.645Y-50.618
X207.645Y-66.675
X207.655Y-88.255
X210.82Y-51.964
X212.725Y-53.978
X216.535Y-62.738
X229.235Y-53.309
X230.505Y-53.34
X233.045Y-63.503
X234.315Y-50.8
X234.315Y-65.786
X236.855Y-50.673
X236.855Y-66.675
X239.903Y-52.197
X241.935Y-53.721
X245.745Y-62.865
X249.555Y-58.42
T2
X59.69Y-89.789
X76.2Y-139.7
X92.075Y-102.87
X94.615Y-55.245
X94.615Y-104.775
X107.823Y-139.7
X118.11Y-52.705
X125.095Y-85.725
X125.095Y-98.425
X127.635Y-99.695
X142.24Y-22.86
X196.85Y-89.916
X196.85Y-127.533
X196.85Y-134.62
X255.229Y-89.957
X255.23Y-102.83
X255.27Y-39.37
T3
X62.865Y-68.072
X64.135Y-66.802
X64.135Y-69.342
T4
X61.595Y-92.075
X61.595Y-94.575
X62.23Y-43.815
X62.23Y-99.675
X62.23Y-102.175
X62.23Y-104.795
X62.23Y-107.295
X62.23Y-116.86
X62.23Y-119.36
X62.23Y-124.48
X62.23Y-126.98
X62.23Y-129.56
X62.23Y-132.06
X62.748Y-50.302
X62.748Y-52.842
X62.748Y-55.382
X62.748Y-57.922
X62.865Y-61.312
X62.865Y-63.852
X65.405Y-116.83
X65.405Y-119.37
X65.405Y-121.91
X65.405Y-124.45
X65.405Y-126.99
X65.405Y-129.53
X65.405Y-132.07
X65.405Y-134.61
X65.415Y-92.045
X65.415Y-94.585
X65.415Y-97.125
X65.415Y-99.665
X65.415Y-102.205
X65.415Y-104.745
X65.415Y-107.285
X65.415Y-109.825
X66.675Y-61.312
X66.675Y-63.852
X69.85Y-61.312
X69.85Y-63.852
X70.368Y-50.302
X70.368Y-52.842
X70.368Y-55.382
X70.368Y-57.922
X70.485Y-113.665
X70.505Y-88.835
X72.39Y-43.815
X72.985Y-113.665
X73.005Y-88.835
X73.025Y-116.83
X73.025Y-119.37
X73.025Y-121.91
X73.025Y-124.45
X73.025Y-126.99
X73.025Y-129.53
X73.025Y-132.07
X73.025Y-134.61
X73.035Y-92.045
X73.035Y-94.585
X73.035Y-97.125
X73.035Y-99.665
X73.035Y-102.205
X73.035Y-104.745
X73.035Y-107.285
X73.035Y-109.825
X73.66Y-50.312
X73.66Y-52.812
X73.66Y-55.392
X73.66Y-57.892
X79.37Y-106.675
X79.37Y-109.215
X79.37Y-111.755
X79.37Y-114.295
X79.37Y-116.835
X79.37Y-119.375
X79.37Y-121.915
X79.37Y-124.455
X79.37Y-126.995
X79.37Y-129.535
X79.37Y-132.075
X79.37Y-134.615
X79.395Y-102.87
X81.703Y-45.593
X81.703Y-48.133
X81.703Y-50.673
X81.703Y-53.213
X81.703Y-55.753
X81.703Y-58.293
X81.703Y-64.008
X81.703Y-66.548
X81.703Y-69.088
X81.703Y-71.628
X81.703Y-74.168
X81.703Y-76.708
X81.895Y-102.87
X89.323Y-45.593
X89.323Y-48.133
X89.323Y-50.673
X89.323Y-53.213
X89.323Y-55.753
X89.323Y-58.293
X89.323Y-64.008
X89.323Y-66.548
X89.323Y-69.088
X89.323Y-71.628
X89.323Y-74.168
X89.323Y-76.708
X92.095Y-37.465
X92.095Y-50.165
X92.095Y-90.805
X92.115Y-62.865
X92.115Y-78.105
X94.595Y-37.465
X94.595Y-50.165
X94.595Y-90.805
X94.61Y-106.675
X94.61Y-109.215
X94.61Y-111.755
X94.61Y-114.295
X94.61Y-116.835
X94.61Y-119.375
X94.61Y-121.915
X94.61Y-124.455
X94.61Y-126.995
X94.61Y-129.535
X94.61Y-132.075
X94.61Y-134.615
X94.615Y-62.865
X94.615Y-78.105
X97.78Y-62.855
X97.78Y-70.475
X97.78Y-78.095
X97.78Y-85.715
X97.785Y-37.455
X97.785Y-45.075
X97.785Y-50.155
X97.785Y-57.775
X97.785Y-90.795
X97.785Y-98.415
X97.79Y-22.86
X97.79Y-30.48
X100.32Y-62.855
X100.32Y-70.475
X100.32Y-78.095
X100.32Y-85.715
X100.325Y-37.455
X100.325Y-45.075
X100.325Y-50.155
X100.325Y-57.775
X100.325Y-90.795
X100.325Y-98.415
X100.325Y-106.675
X100.325Y-109.215
X100.325Y-111.755
X100.325Y-114.295
X100.325Y-116.835
X100.325Y-119.375
X100.325Y-121.915
X100.325Y-124.455
X100.325Y-126.995
X100.325Y-129.535
X100.325Y-132.075
X100.325Y-134.615
X100.37Y-102.87
X102.86Y-62.855
X102.86Y-70.475
X102.86Y-78.095
X102.86Y-85.715
X102.865Y-37.455
X102.865Y-45.075
X102.865Y-50.155
X102.865Y-57.775
X102.865Y-90.795
X102.865Y-98.415
X102.87Y-102.87
X105.4Y-62.855
X105.4Y-70.475
X105.4Y-78.095
X105.4Y-85.715
X105.405Y-37.455
X105.405Y-45.075
X105.405Y-50.155
X105.405Y-57.775
X105.405Y-90.795
X105.405Y-98.415
X107.94Y-62.855
X107.94Y-70.475
X107.94Y-78.095
X107.94Y-85.715
X107.945Y-37.455
X107.945Y-45.075
X107.945Y-50.155
X107.945Y-57.775
X107.945Y-90.795
X107.945Y-98.415
X110.48Y-62.855
X110.48Y-70.475
X110.48Y-78.095
X110.48Y-85.715
X110.485Y-37.455
X110.485Y-45.075
X110.485Y-50.155
X110.485Y-57.775
X110.485Y-90.795
X110.485Y-98.415
X113.02Y-62.855
X113.02Y-70.475
X113.02Y-78.095
X113.02Y-85.715
X113.025Y-37.455
X113.025Y-45.075
X113.025Y-50.155
X113.025Y-57.775
X113.025Y-90.795
X113.025Y-98.415
X113.03Y-22.86
X113.03Y-30.48
X115.56Y-62.855
X115.56Y-70.475
X115.56Y-78.095
X115.56Y-85.715
X115.565Y-106.675
X115.565Y-109.215
X115.565Y-111.755
X115.565Y-114.295
X115.565Y-116.835
X115.565Y-119.375
X115.565Y-121.915
X115.565Y-124.455
X115.565Y-126.995
X115.565Y-129.535
X115.565Y-132.075
X115.565Y-134.615
X120.66Y-111.765
X120.66Y-114.305
X120.66Y-116.845
X120.66Y-119.385
X120.66Y-121.925
X120.66Y-124.465
X120.66Y-127.005
X120.66Y-129.545
X120.66Y-132.085
X120.66Y-134.625
X122.555Y-67.945
X122.555Y-70.485
X122.555Y-73.025
X122.555Y-75.565
X122.555Y-78.105
X122.555Y-80.645
X122.555Y-83.185
X122.565Y-22.855
X122.565Y-25.395
X122.565Y-27.935
X122.565Y-30.475
X122.565Y-33.015
X122.565Y-35.555
X122.565Y-38.095
X122.565Y-45.08
X122.565Y-47.62
X122.565Y-50.16
X122.565Y-52.7
X122.565Y-55.24
X122.565Y-57.78
X122.565Y-60.32
X125.095Y-41.656
X125.115Y-19.685
X125.115Y-64.135
X127.595Y-41.656
X127.615Y-19.685
X127.615Y-64.135
X128.28Y-111.765
X128.28Y-114.305
X128.28Y-116.845
X128.28Y-119.385
X128.28Y-121.925
X128.28Y-124.465
X128.28Y-127.005
X128.28Y-129.545
X128.28Y-132.085
X128.28Y-134.625
X130.175Y-67.945
X130.175Y-70.485
X130.175Y-73.025
X130.175Y-75.565
X130.175Y-78.105
X130.175Y-80.645
X130.175Y-83.185
X130.185Y-22.855
X130.185Y-25.395
X130.185Y-27.935
X130.185Y-30.475
X130.185Y-33.015
X130.185Y-35.555
X130.185Y-38.095
X130.185Y-45.08
X130.185Y-47.62
X130.185Y-50.16
X130.185Y-52.7
X130.185Y-55.24
X130.185Y-57.78
X130.185Y-60.32
X132.085Y-104.14
X132.085Y-110.49
X132.1Y-100.33
X132.12Y-92.71
X134.585Y-110.49
X134.6Y-100.33
X134.62Y-92.71
X136.525Y-19.685
X136.525Y-29.845
X136.525Y-35.56
X136.525Y-45.72
X137.795Y-110.495
X137.795Y-125.735
X137.8Y-92.7
X137.8Y-100.32
X139.7Y-19.685
X139.7Y-29.845
X139.7Y-35.56
X139.7Y-45.72
X140.335Y-110.495
X140.335Y-125.735
X140.34Y-92.7
X140.34Y-100.32
X142.245Y-104.14
X142.26Y-19.685
X142.875Y-35.56
X142.875Y-45.72
X142.875Y-110.495
X142.875Y-125.735
X142.88Y-92.7
X142.88Y-100.32
X144.76Y-19.685
X145.415Y-110.495
X145.415Y-125.735
X145.42Y-92.7
X145.42Y-100.32
X147.955Y-22.86
X147.955Y-25.4
X147.955Y-27.94
X147.955Y-30.48
X147.955Y-33.02
X147.955Y-35.56
X147.955Y-38.1
X147.955Y-40.64
X147.955Y-43.18
X147.955Y-45.72
X147.955Y-48.26
X147.955Y-50.8
X147.955Y-53.34
X147.955Y-55.88
X147.955Y-58.42
X147.955Y-60.96
X147.955Y-63.5
X147.955Y-66.04
X147.955Y-68.58
X147.955Y-71.12
X147.955Y-110.495
X147.955Y-125.735
X147.96Y-92.7
X147.96Y-100.32
X150.495Y-110.495
X150.495Y-125.735
X150.5Y-92.7
X150.5Y-100.32
X153.035Y-110.495
X153.035Y-125.735
X153.04Y-92.7
X153.04Y-100.32
X155.575Y-110.495
X155.575Y-125.735
X155.58Y-92.7
X155.58Y-100.32
X158.115Y-110.495
X158.115Y-125.735
X158.12Y-92.7
X158.12Y-100.32
X160.655Y-110.495
X160.655Y-125.735
X160.66Y-92.7
X160.66Y-100.32
X163.195Y-22.86
X163.195Y-25.4
X163.195Y-27.94
X163.195Y-30.48
X163.195Y-33.02
X163.195Y-35.56
X163.195Y-38.1
X163.195Y-40.64
X163.195Y-43.18
X163.195Y-45.72
X163.195Y-48.26
X163.195Y-50.8
X163.195Y-53.34
X163.195Y-55.88
X163.195Y-58.42
X163.195Y-60.96
X163.195Y-63.5
X163.195Y-66.04
X163.195Y-68.58
X163.195Y-71.12
X163.195Y-110.495
X163.195Y-125.735
X165.735Y-110.495
X165.735Y-125.735
X167.64Y-25.4
X167.64Y-35.56
X168.95Y-19.685
X170.815Y-25.4
X170.815Y-35.56
X171.45Y-19.685
X176.53Y-106.68
X176.53Y-109.22
X176.53Y-111.76
X176.53Y-114.3
X176.53Y-116.84
X176.53Y-119.38
X176.53Y-121.92
X176.53Y-124.46
X176.53Y-127.0
X176.53Y-129.54
X176.54Y-22.85
X176.54Y-25.39
X176.54Y-27.93
X176.54Y-30.47
X176.54Y-33.01
X176.54Y-35.55
X176.54Y-38.09
X176.54Y-40.63
X176.54Y-46.995
X176.54Y-49.535
X176.54Y-52.075
X176.54Y-54.615
X176.54Y-57.155
X176.54Y-59.695
X176.54Y-62.235
X176.54Y-64.775
X176.54Y-67.315
X176.54Y-69.855
X176.54Y-76.84
X176.54Y-79.38
X176.54Y-81.92
X176.54Y-84.46
X176.54Y-87.0
X176.54Y-89.54
X176.54Y-92.08
X176.54Y-94.62
X176.54Y-97.16
X176.54Y-99.7
X179.09Y-19.685
X179.09Y-43.815
X179.09Y-73.152
X179.09Y-102.997
X181.59Y-19.685
X181.59Y-43.815
X181.59Y-73.152
X181.59Y-102.997
X184.15Y-106.68
X184.15Y-109.22
X184.15Y-111.76
X184.15Y-114.3
X184.15Y-116.84
X184.15Y-119.38
X184.15Y-121.92
X184.15Y-124.46
X184.15Y-127.0
X184.15Y-129.54
X184.16Y-22.85
X184.16Y-25.39
X184.16Y-27.93
X184.16Y-30.47
X184.16Y-33.01
X184.16Y-35.55
X184.16Y-38.09
X184.16Y-40.63
X184.16Y-46.995
X184.16Y-49.535
X184.16Y-52.075
X184.16Y-54.615
X184.16Y-57.155
X184.16Y-59.695
X184.16Y-62.235
X184.16Y-64.775
X184.16Y-67.315
X184.16Y-69.855
X184.16Y-76.84
X184.16Y-79.38
X184.16Y-81.92
X184.16Y-84.46
X184.16Y-87.0
X184.16Y-89.54
X184.16Y-92.08
X184.16Y-94.62
X184.16Y-97.16
X184.16Y-99.7
X194.33Y-22.86
X194.33Y-35.56
X194.33Y-48.26
X194.33Y-60.96
X194.33Y-86.36
X194.33Y-99.06
X194.35Y-73.66
X194.35Y-111.76
X196.83Y-22.86
X196.83Y-35.56
X196.83Y-48.26
X196.83Y-60.96
X196.83Y-86.36
X196.83Y-99.06
X196.85Y-73.66
X196.85Y-111.76
X200.025Y-35.56
X200.025Y-43.18
X200.025Y-48.26
X200.025Y-55.88
X200.025Y-60.96
X200.025Y-68.58
X200.025Y-73.66
X200.025Y-81.28
X200.035Y-22.85
X200.035Y-30.47
X200.035Y-86.35
X200.035Y-93.97
X200.035Y-99.05
X200.035Y-106.67
X200.035Y-111.75
X200.035Y-119.37
X202.565Y-35.56
X202.565Y-43.18
X202.565Y-48.26
X202.565Y-55.88
X202.565Y-60.96
X202.565Y-68.58
X202.565Y-73.66
X202.565Y-81.28
X202.575Y-22.85
X202.575Y-30.47
X202.575Y-86.35
X202.575Y-93.97
X202.575Y-99.05
X202.575Y-106.67
X202.575Y-111.75
X202.575Y-119.37
X205.105Y-35.56
X205.105Y-43.18
X205.105Y-48.26
X205.105Y-55.88
X205.105Y-60.96
X205.105Y-68.58
X205.105Y-73.66
X205.105Y-81.28
X205.115Y-22.85
X205.115Y-30.47
X205.115Y-86.35
X205.115Y-93.97
X205.115Y-99.05
X205.115Y-106.67
X205.115Y-111.75
X205.115Y-119.37
X207.645Y-35.56
X207.645Y-43.18
X207.645Y-48.26
X207.645Y-55.88
X207.645Y-60.96
X207.645Y-68.58
X207.645Y-73.66
X207.645Y-81.28
X207.655Y-22.85
X207.655Y-30.47
X207.655Y-86.35
X207.655Y-93.97
X207.655Y-99.05
X207.655Y-106.67
X207.655Y-111.75
X207.655Y-119.37
X210.185Y-35.56
X210.185Y-43.18
X210.185Y-48.26
X210.185Y-55.88
X210.185Y-60.96
X210.185Y-68.58
X210.185Y-73.66
X210.185Y-81.28
X210.195Y-22.85
X210.195Y-30.47
X210.195Y-86.35
X210.195Y-93.97
X210.195Y-99.05
X210.195Y-106.67
X210.195Y-111.75
X210.195Y-119.37
X212.725Y-35.56
X212.725Y-43.18
X212.725Y-48.26
X212.725Y-55.88
X212.725Y-60.96
X212.725Y-68.58
X212.725Y-73.66
X212.725Y-81.28
X212.735Y-22.85
X212.735Y-30.47
X212.735Y-86.35
X212.735Y-93.97
X212.735Y-99.05
X212.735Y-106.67
X212.735Y-111.75
X212.735Y-119.37
X215.265Y-35.56
X215.265Y-43.18
X215.265Y-48.26
X215.265Y-55.88
X215.265Y-60.96
X215.265Y-68.58
X215.265Y-73.66
X215.265Y-81.28
X215.275Y-22.85
X215.275Y-30.47
X215.275Y-86.35
X215.275Y-93.97
X215.275Y-99.05
X215.275Y-106.67
X215.275Y-111.75
X215.275Y-119.37
X217.805Y-35.56
X217.805Y-43.18
X217.805Y-48.26
X217.805Y-55.88
X217.805Y-60.96
X217.805Y-68.58
X217.805Y-73.66
X217.805Y-81.28
X217.815Y-22.85
X217.815Y-30.47
X217.815Y-86.35
X217.815Y-93.97
X217.815Y-99.05
X217.815Y-106.67
X217.815Y-111.75
X217.815Y-119.37
X220.345Y-35.56
X220.345Y-43.18
X220.345Y-48.26
X220.345Y-55.88
X220.345Y-60.96
X220.345Y-68.58
X220.345Y-73.66
X220.345Y-81.28
X220.355Y-22.85
X220.355Y-30.47
X220.355Y-86.35
X220.355Y-93.97
X220.355Y-99.05
X220.355Y-106.67
X220.355Y-111.75
X220.355Y-119.37
X223.54Y-22.86
X223.54Y-35.56
X223.54Y-48.26
X223.54Y-60.96
X223.54Y-86.36
X223.54Y-99.06
X223.54Y-111.76
X223.56Y-73.66
X226.04Y-22.86
X226.04Y-35.56
X226.04Y-48.26
X226.04Y-60.96
X226.04Y-86.36
X226.04Y-99.06
X226.04Y-111.76
X226.06Y-73.66
X229.235Y-22.86
X229.235Y-30.48
X229.235Y-35.56
X229.235Y-43.18
X229.235Y-48.26
X229.235Y-55.88
X229.235Y-60.96
X229.235Y-68.58
X229.235Y-99.06
X229.235Y-106.68
X229.245Y-73.65
X229.245Y-81.27
X229.245Y-86.35
X229.245Y-93.97
X229.245Y-111.75
X229.245Y-119.37
X231.775Y-22.86
X231.775Y-30.48
X231.775Y-35.56
X231.775Y-43.18
X231.775Y-48.26
X231.775Y-55.88
X231.775Y-60.96
X231.775Y-68.58
X231.775Y-99.06
X231.775Y-106.68
X231.785Y-73.65
X231.785Y-81.27
X231.785Y-86.35
X231.785Y-93.97
X231.785Y-111.75
X231.785Y-119.37
X234.315Y-22.86
X234.315Y-30.48
X234.315Y-35.56
X234.315Y-43.18
X234.315Y-48.26
X234.315Y-55.88
X234.315Y-60.96
X234.315Y-68.58
X234.315Y-99.06
X234.315Y-106.68
X234.325Y-73.65
X234.325Y-81.27
X234.325Y-86.35
X234.325Y-93.97
X234.325Y-111.75
X234.325Y-119.37
X236.855Y-22.86
X236.855Y-30.48
X236.855Y-35.56
X236.855Y-43.18
X236.855Y-48.26
X236.855Y-55.88
X236.855Y-60.96
X236.855Y-68.58
X236.855Y-99.06
X236.855Y-106.68
X236.865Y-73.65
X236.865Y-81.27
X236.865Y-86.35
X236.865Y-93.97
X236.865Y-111.75
X236.865Y-119.37
X239.395Y-22.86
X239.395Y-30.48
X239.395Y-35.56
X239.395Y-43.18
X239.395Y-48.26
X239.395Y-55.88
X239.395Y-60.96
X239.395Y-68.58
X239.395Y-99.06
X239.395Y-106.68
X239.405Y-73.65
X239.405Y-81.27
X239.405Y-86.35
X239.405Y-93.97
X239.405Y-111.75
X239.405Y-119.37
X241.935Y-22.86
X241.935Y-30.48
X241.935Y-35.56
X241.935Y-43.18
X241.935Y-48.26
X241.935Y-55.88
X241.935Y-60.96
X241.935Y-68.58
X241.935Y-99.06
X241.935Y-106.68
X241.945Y-73.65
X241.945Y-81.27
X241.945Y-86.35
X241.945Y-93.97
X241.945Y-111.75
X241.945Y-119.37
X244.475Y-22.86
X244.475Y-30.48
X244.475Y-35.56
X244.475Y-43.18
X244.475Y-48.26
X244.475Y-55.88
X244.475Y-60.96
X244.475Y-68.58
X244.475Y-99.06
X244.475Y-106.68
X244.485Y-73.65
X244.485Y-81.27
X244.485Y-86.35
X244.485Y-93.97
X244.485Y-111.75
X244.485Y-119.37
X247.015Y-22.86
X247.015Y-30.48
X247.015Y-35.56
X247.015Y-43.18
X247.015Y-48.26
X247.015Y-55.88
X247.015Y-60.96
X247.015Y-68.58
X247.015Y-99.06
X247.015Y-106.68
X247.025Y-73.65
X247.025Y-81.27
X247.025Y-86.35
X247.025Y-93.97
X247.025Y-111.75
X247.025Y-119.37
X249.555Y-22.86
X249.555Y-30.48
X249.555Y-35.56
X249.555Y-43.18
X249.555Y-48.26
X249.555Y-55.88
X249.555Y-60.96
X249.555Y-68.58
X249.555Y-99.06
X249.555Y-106.68
X249.565Y-73.65
X249.565Y-81.27
X249.565Y-86.35
X249.565Y-93.97
X249.565Y-111.75
X249.565Y-119.37
X252.729Y-81.28
X252.729Y-93.98
X252.73Y-106.68
X252.77Y-30.48
X252.77Y-43.18
X252.77Y-55.88
X252.77Y-68.58
X252.77Y-119.38
X255.229Y-81.28
X255.229Y-93.98
X255.23Y-106.68
X255.27Y-30.48
X255.27Y-43.18
X255.27Y-55.88
X255.27Y-68.58
X255.27Y-119.38
T5
X81.28Y-34.925
X81.28Y-37.465
T6
X50.775Y-47.625
X50.775Y-50.395
X50.775Y-53.165
X50.775Y-55.935
X50.775Y-58.705
X50.775Y-61.475
X50.775Y-64.245
X50.775Y-67.015
X50.775Y-69.785
X50.775Y-72.555
X50.775Y-75.325
X50.775Y-78.095
X50.775Y-104.775
X50.775Y-107.545
X50.775Y-110.315
X50.775Y-113.085
X50.775Y-115.855
X50.775Y-118.625
X50.775Y-121.395
X50.775Y-124.165
X50.775Y-126.935
X50.775Y-129.705
X50.775Y-132.475
X50.775Y-135.245
X53.615Y-46.24
X53.615Y-49.01
X53.615Y-51.78
X53.615Y-54.55
X53.615Y-57.32
X53.615Y-60.09
X53.615Y-62.86
X53.615Y-65.63
X53.615Y-68.4
X53.615Y-71.17
X53.615Y-73.94
X53.615Y-76.71
X53.615Y-79.48
X53.615Y-103.39
X53.615Y-106.16
X53.615Y-108.93
X53.615Y-111.7
X53.615Y-114.47
X53.615Y-117.24
X53.615Y-120.01
X53.615Y-122.78
X53.615Y-125.55
X53.615Y-128.32
X53.615Y-131.09
X53.615Y-133.86
X53.615Y-136.63
X137.795Y-134.625
X137.795Y-137.165
X140.335Y-134.625
X140.335Y-137.165
X142.875Y-134.625
X142.875Y-137.165
X145.415Y-104.14
X145.415Y-134.625
X145.415Y-137.165
X147.955Y-104.14
X147.955Y-134.625
X147.955Y-137.165
X150.495Y-134.625
X150.495Y-137.165
X153.035Y-134.625
X153.035Y-137.165
X155.575Y-134.625
X155.575Y-137.165
X158.115Y-134.625
X158.115Y-137.165
X160.655Y-134.625
X160.655Y-137.165
X163.195Y-134.625
X163.195Y-137.165
X165.735Y-134.625
X165.735Y-137.165
X168.275Y-134.625
X168.275Y-137.165
X170.815Y-134.625
X170.815Y-137.165
X173.355Y-134.625
X173.355Y-137.165
X175.895Y-134.625
X175.895Y-137.165
X178.435Y-134.625
X178.435Y-137.165
X180.975Y-134.625
X180.975Y-137.165
X183.515Y-134.625
X183.515Y-137.165
X186.055Y-134.625
X186.055Y-137.165
T7
X64.171Y-73.204
X64.171Y-79.704
X68.671Y-73.204
X68.671Y-79.704
T8
X86.995Y-23.076
X86.995Y-28.076
T9
X67.716Y-17.755
X70.256Y-30.455
X70.256Y-34.265
X70.256Y-38.075
X72.796Y-17.755
T10
X52.195Y-39.31
X52.195Y-86.41
X52.195Y-96.46
X52.195Y-143.56
T6
X44.165Y-24.4G85X44.165Y-26.4
G05
X46.165Y-30.1G85X48.165Y-30.1
G05
X50.165Y-24.4G85X50.165Y-26.4
G05
T0
M30
