%TF.GenerationSoftware,KiCad,Pcbnew,(6.0.1)*%
%TF.CreationDate,2022-02-17T06:08:29-07:00*%
%TF.ProjectId,77Project,37375072-6f6a-4656-9374-2e6b69636164,rev?*%
%TF.SameCoordinates,Original*%
%TF.FileFunction,Legend,Top*%
%TF.FilePolarity,Positive*%
%FSLAX46Y46*%
G04 Gerber Fmt 4.6, Leading zero omitted, Abs format (unit mm)*
G04 Created by KiCad (PCBNEW (6.0.1)) date 2022-02-17 06:08:29*
%MOMM*%
%LPD*%
G01*
G04 APERTURE LIST*
G04 Aperture macros list*
%AMRoundRect*
0 Rectangle with rounded corners*
0 $1 Rounding radius*
0 $2 $3 $4 $5 $6 $7 $8 $9 X,Y pos of 4 corners*
0 Add a 4 corners polygon primitive as box body*
4,1,4,$2,$3,$4,$5,$6,$7,$8,$9,$2,$3,0*
0 Add four circle primitives for the rounded corners*
1,1,$1+$1,$2,$3*
1,1,$1+$1,$4,$5*
1,1,$1+$1,$6,$7*
1,1,$1+$1,$8,$9*
0 Add four rect primitives between the rounded corners*
20,1,$1+$1,$2,$3,$4,$5,0*
20,1,$1+$1,$4,$5,$6,$7,0*
20,1,$1+$1,$6,$7,$8,$9,0*
20,1,$1+$1,$8,$9,$2,$3,0*%
G04 Aperture macros list end*
%ADD10C,0.150000*%
%ADD11C,0.120000*%
%ADD12R,1.700000X1.700000*%
%ADD13O,1.700000X1.700000*%
%ADD14C,3.048000*%
%ADD15R,3.500000X3.500000*%
%ADD16RoundRect,0.750000X-0.750000X-1.000000X0.750000X-1.000000X0.750000X1.000000X-0.750000X1.000000X0*%
%ADD17RoundRect,0.875000X-0.875000X-0.875000X0.875000X-0.875000X0.875000X0.875000X-0.875000X0.875000X0*%
%ADD18R,1.600000X1.600000*%
%ADD19C,1.600000*%
%ADD20C,2.400000*%
%ADD21R,2.400000X2.400000*%
%ADD22O,1.600000X1.600000*%
%ADD23O,2.400000X1.600000*%
%ADD24R,2.400000X1.600000*%
%ADD25C,2.000000*%
%ADD26R,1.300000X1.300000*%
%ADD27C,1.300000*%
%ADD28C,4.000000*%
%ADD29C,1.800000*%
%ADD30R,1.800000X1.800000*%
%ADD31R,1.600000X2.400000*%
%ADD32O,1.600000X2.400000*%
%ADD33C,0.635000*%
%ADD34C,1.270000*%
G04 APERTURE END LIST*
D10*
X73112380Y-31543047D02*
X73826666Y-31543047D01*
X73969523Y-31590666D01*
X74064761Y-31685904D01*
X74112380Y-31828761D01*
X74112380Y-31924000D01*
X74112380Y-30590666D02*
X74112380Y-31066857D01*
X73112380Y-31066857D01*
X74017142Y-29685904D02*
X74064761Y-29733523D01*
X74112380Y-29876380D01*
X74112380Y-29971619D01*
X74064761Y-30114476D01*
X73969523Y-30209714D01*
X73874285Y-30257333D01*
X73683809Y-30304952D01*
X73540952Y-30304952D01*
X73350476Y-30257333D01*
X73255238Y-30209714D01*
X73160000Y-30114476D01*
X73112380Y-29971619D01*
X73112380Y-29876380D01*
X73160000Y-29733523D01*
X73207619Y-29685904D01*
X73112380Y-28971619D02*
X73826666Y-28971619D01*
X73969523Y-29019238D01*
X74064761Y-29114476D01*
X74112380Y-29257333D01*
X74112380Y-29352571D01*
X74112380Y-28019238D02*
X74112380Y-28495428D01*
X73112380Y-28495428D01*
X74017142Y-27114476D02*
X74064761Y-27162095D01*
X74112380Y-27304952D01*
X74112380Y-27400190D01*
X74064761Y-27543047D01*
X73969523Y-27638285D01*
X73874285Y-27685904D01*
X73683809Y-27733523D01*
X73540952Y-27733523D01*
X73350476Y-27685904D01*
X73255238Y-27638285D01*
X73160000Y-27543047D01*
X73112380Y-27400190D01*
X73112380Y-27304952D01*
X73160000Y-27162095D01*
X73207619Y-27114476D01*
X73112380Y-26400190D02*
X73826666Y-26400190D01*
X73969523Y-26447809D01*
X74064761Y-26543047D01*
X74112380Y-26685904D01*
X74112380Y-26781142D01*
X74112380Y-25447809D02*
X74112380Y-25924000D01*
X73112380Y-25924000D01*
X74017142Y-24543047D02*
X74064761Y-24590666D01*
X74112380Y-24733523D01*
X74112380Y-24828761D01*
X74064761Y-24971619D01*
X73969523Y-25066857D01*
X73874285Y-25114476D01*
X73683809Y-25162095D01*
X73540952Y-25162095D01*
X73350476Y-25114476D01*
X73255238Y-25066857D01*
X73160000Y-24971619D01*
X73112380Y-24828761D01*
X73112380Y-24733523D01*
X73160000Y-24590666D01*
X73207619Y-24543047D01*
X73112380Y-23828761D02*
X73826666Y-23828761D01*
X73969523Y-23876380D01*
X74064761Y-23971619D01*
X74112380Y-24114476D01*
X74112380Y-24209714D01*
X74112380Y-22876380D02*
X74112380Y-23352571D01*
X73112380Y-23352571D01*
X74017142Y-21971619D02*
X74064761Y-22019238D01*
X74112380Y-22162095D01*
X74112380Y-22257333D01*
X74064761Y-22400190D01*
X73969523Y-22495428D01*
X73874285Y-22543047D01*
X73683809Y-22590666D01*
X73540952Y-22590666D01*
X73350476Y-22543047D01*
X73255238Y-22495428D01*
X73160000Y-22400190D01*
X73112380Y-22257333D01*
X73112380Y-22162095D01*
X73160000Y-22019238D01*
X73207619Y-21971619D01*
X57237380Y-129960380D02*
X58046904Y-129960380D01*
X58142142Y-129912761D01*
X58189761Y-129865142D01*
X58237380Y-129769904D01*
X58237380Y-129579428D01*
X58189761Y-129484190D01*
X58142142Y-129436571D01*
X58046904Y-129388952D01*
X57237380Y-129388952D01*
X57951666Y-128960380D02*
X57951666Y-128484190D01*
X58237380Y-129055619D02*
X57237380Y-128722285D01*
X58237380Y-128388952D01*
X58237380Y-127484190D02*
X57761190Y-127817523D01*
X58237380Y-128055619D02*
X57237380Y-128055619D01*
X57237380Y-127674666D01*
X57285000Y-127579428D01*
X57332619Y-127531809D01*
X57427857Y-127484190D01*
X57570714Y-127484190D01*
X57665952Y-127531809D01*
X57713571Y-127579428D01*
X57761190Y-127674666D01*
X57761190Y-128055619D01*
X57237380Y-127198476D02*
X57237380Y-126627047D01*
X58237380Y-126912761D02*
X57237380Y-126912761D01*
X58237380Y-125008000D02*
X58237380Y-125579428D01*
X58237380Y-125293714D02*
X57237380Y-125293714D01*
X57380238Y-125388952D01*
X57475476Y-125484190D01*
X57523095Y-125579428D01*
X56348380Y-50204380D02*
X57157904Y-50204380D01*
X57253142Y-50156761D01*
X57300761Y-50109142D01*
X57348380Y-50013904D01*
X57348380Y-49823428D01*
X57300761Y-49728190D01*
X57253142Y-49680571D01*
X57157904Y-49632952D01*
X56348380Y-49632952D01*
X57062666Y-49204380D02*
X57062666Y-48728190D01*
X57348380Y-49299619D02*
X56348380Y-48966285D01*
X57348380Y-48632952D01*
X57348380Y-47728190D02*
X56872190Y-48061523D01*
X57348380Y-48299619D02*
X56348380Y-48299619D01*
X56348380Y-47918666D01*
X56396000Y-47823428D01*
X56443619Y-47775809D01*
X56538857Y-47728190D01*
X56681714Y-47728190D01*
X56776952Y-47775809D01*
X56824571Y-47823428D01*
X56872190Y-47918666D01*
X56872190Y-48299619D01*
X56348380Y-47442476D02*
X56348380Y-46871047D01*
X57348380Y-47156761D02*
X56348380Y-47156761D01*
X56443619Y-45823428D02*
X56396000Y-45775809D01*
X56348380Y-45680571D01*
X56348380Y-45442476D01*
X56396000Y-45347238D01*
X56443619Y-45299619D01*
X56538857Y-45252000D01*
X56634095Y-45252000D01*
X56776952Y-45299619D01*
X57348380Y-45871047D01*
X57348380Y-45252000D01*
%TO.C,J3*%
X133651666Y-137628384D02*
X133651666Y-138342670D01*
X133604047Y-138485527D01*
X133508809Y-138580765D01*
X133365952Y-138628384D01*
X133270714Y-138628384D01*
X134032619Y-137628384D02*
X134651666Y-137628384D01*
X134318333Y-138009337D01*
X134461190Y-138009337D01*
X134556428Y-138056956D01*
X134604047Y-138104575D01*
X134651666Y-138199813D01*
X134651666Y-138437908D01*
X134604047Y-138533146D01*
X134556428Y-138580765D01*
X134461190Y-138628384D01*
X134175476Y-138628384D01*
X134080238Y-138580765D01*
X134032619Y-138533146D01*
%TO.C,SW4*%
X77112761Y-19875333D02*
X77160380Y-19732476D01*
X77160380Y-19494380D01*
X77112761Y-19399142D01*
X77065142Y-19351523D01*
X76969904Y-19303904D01*
X76874666Y-19303904D01*
X76779428Y-19351523D01*
X76731809Y-19399142D01*
X76684190Y-19494380D01*
X76636571Y-19684857D01*
X76588952Y-19780095D01*
X76541333Y-19827714D01*
X76446095Y-19875333D01*
X76350857Y-19875333D01*
X76255619Y-19827714D01*
X76208000Y-19780095D01*
X76160380Y-19684857D01*
X76160380Y-19446761D01*
X76208000Y-19303904D01*
X76160380Y-18970571D02*
X77160380Y-18732476D01*
X76446095Y-18542000D01*
X77160380Y-18351523D01*
X76160380Y-18113428D01*
X76493714Y-17303904D02*
X77160380Y-17303904D01*
X76112761Y-17542000D02*
X76827047Y-17780095D01*
X76827047Y-17161047D01*
%TO.C,J1*%
X49831666Y-32726380D02*
X49831666Y-33440666D01*
X49784047Y-33583523D01*
X49688809Y-33678761D01*
X49545952Y-33726380D01*
X49450714Y-33726380D01*
X50831666Y-33726380D02*
X50260238Y-33726380D01*
X50545952Y-33726380D02*
X50545952Y-32726380D01*
X50450714Y-32869238D01*
X50355476Y-32964476D01*
X50260238Y-33012095D01*
%TO.C,C15*%
X164584142Y-20042142D02*
X164536523Y-20089761D01*
X164393666Y-20137380D01*
X164298428Y-20137380D01*
X164155571Y-20089761D01*
X164060333Y-19994523D01*
X164012714Y-19899285D01*
X163965095Y-19708809D01*
X163965095Y-19565952D01*
X164012714Y-19375476D01*
X164060333Y-19280238D01*
X164155571Y-19185000D01*
X164298428Y-19137380D01*
X164393666Y-19137380D01*
X164536523Y-19185000D01*
X164584142Y-19232619D01*
X165536523Y-20137380D02*
X164965095Y-20137380D01*
X165250809Y-20137380D02*
X165250809Y-19137380D01*
X165155571Y-19280238D01*
X165060333Y-19375476D01*
X164965095Y-19423095D01*
X166441285Y-19137380D02*
X165965095Y-19137380D01*
X165917476Y-19613571D01*
X165965095Y-19565952D01*
X166060333Y-19518333D01*
X166298428Y-19518333D01*
X166393666Y-19565952D01*
X166441285Y-19613571D01*
X166488904Y-19708809D01*
X166488904Y-19946904D01*
X166441285Y-20042142D01*
X166393666Y-20089761D01*
X166298428Y-20137380D01*
X166060333Y-20137380D01*
X165965095Y-20089761D01*
X165917476Y-20042142D01*
%TO.C,C18*%
X80738742Y-32030943D02*
X80691123Y-32078562D01*
X80548266Y-32126181D01*
X80453028Y-32126181D01*
X80310171Y-32078562D01*
X80214933Y-31983324D01*
X80167314Y-31888086D01*
X80119695Y-31697610D01*
X80119695Y-31554753D01*
X80167314Y-31364277D01*
X80214933Y-31269039D01*
X80310171Y-31173801D01*
X80453028Y-31126181D01*
X80548266Y-31126181D01*
X80691123Y-31173801D01*
X80738742Y-31221420D01*
X81691123Y-32126181D02*
X81119695Y-32126181D01*
X81405409Y-32126181D02*
X81405409Y-31126181D01*
X81310171Y-31269039D01*
X81214933Y-31364277D01*
X81119695Y-31411896D01*
X82262552Y-31554753D02*
X82167314Y-31507134D01*
X82119695Y-31459515D01*
X82072076Y-31364277D01*
X82072076Y-31316658D01*
X82119695Y-31221420D01*
X82167314Y-31173801D01*
X82262552Y-31126181D01*
X82453028Y-31126181D01*
X82548266Y-31173801D01*
X82595885Y-31221420D01*
X82643504Y-31316658D01*
X82643504Y-31364277D01*
X82595885Y-31459515D01*
X82548266Y-31507134D01*
X82453028Y-31554753D01*
X82262552Y-31554753D01*
X82167314Y-31602372D01*
X82119695Y-31649991D01*
X82072076Y-31745229D01*
X82072076Y-31935705D01*
X82119695Y-32030943D01*
X82167314Y-32078562D01*
X82262552Y-32126181D01*
X82453028Y-32126181D01*
X82548266Y-32078562D01*
X82595885Y-32030943D01*
X82643504Y-31935705D01*
X82643504Y-31745229D01*
X82595885Y-31649991D01*
X82548266Y-31602372D01*
X82453028Y-31554753D01*
%TO.C,SW1*%
X84340860Y-82040361D02*
X84483717Y-82087980D01*
X84721813Y-82087980D01*
X84817051Y-82040361D01*
X84864670Y-81992742D01*
X84912289Y-81897504D01*
X84912289Y-81802266D01*
X84864670Y-81707028D01*
X84817051Y-81659409D01*
X84721813Y-81611790D01*
X84531336Y-81564171D01*
X84436098Y-81516552D01*
X84388479Y-81468933D01*
X84340860Y-81373695D01*
X84340860Y-81278457D01*
X84388479Y-81183219D01*
X84436098Y-81135600D01*
X84531336Y-81087980D01*
X84769432Y-81087980D01*
X84912289Y-81135600D01*
X85245622Y-81087980D02*
X85483717Y-82087980D01*
X85674194Y-81373695D01*
X85864670Y-82087980D01*
X86102765Y-81087980D01*
X87007527Y-82087980D02*
X86436098Y-82087980D01*
X86721813Y-82087980D02*
X86721813Y-81087980D01*
X86626574Y-81230838D01*
X86531336Y-81326076D01*
X86436098Y-81373695D01*
%TO.C,SW2*%
X87515860Y-42517961D02*
X87658717Y-42565580D01*
X87896813Y-42565580D01*
X87992051Y-42517961D01*
X88039670Y-42470342D01*
X88087289Y-42375104D01*
X88087289Y-42279866D01*
X88039670Y-42184628D01*
X87992051Y-42137009D01*
X87896813Y-42089390D01*
X87706336Y-42041771D01*
X87611098Y-41994152D01*
X87563479Y-41946533D01*
X87515860Y-41851295D01*
X87515860Y-41756057D01*
X87563479Y-41660819D01*
X87611098Y-41613200D01*
X87706336Y-41565580D01*
X87944432Y-41565580D01*
X88087289Y-41613200D01*
X88420622Y-41565580D02*
X88658717Y-42565580D01*
X88849194Y-41851295D01*
X89039670Y-42565580D01*
X89277765Y-41565580D01*
X89611098Y-41660819D02*
X89658717Y-41613200D01*
X89753955Y-41565580D01*
X89992051Y-41565580D01*
X90087289Y-41613200D01*
X90134908Y-41660819D01*
X90182527Y-41756057D01*
X90182527Y-41851295D01*
X90134908Y-41994152D01*
X89563479Y-42565580D01*
X90182527Y-42565580D01*
%TO.C,U37*%
X62617504Y-47534580D02*
X62617504Y-48344104D01*
X62665123Y-48439342D01*
X62712742Y-48486961D01*
X62807980Y-48534580D01*
X62998457Y-48534580D01*
X63093695Y-48486961D01*
X63141314Y-48439342D01*
X63188933Y-48344104D01*
X63188933Y-47534580D01*
X63569885Y-47534580D02*
X64188933Y-47534580D01*
X63855600Y-47915533D01*
X63998457Y-47915533D01*
X64093695Y-47963152D01*
X64141314Y-48010771D01*
X64188933Y-48106009D01*
X64188933Y-48344104D01*
X64141314Y-48439342D01*
X64093695Y-48486961D01*
X63998457Y-48534580D01*
X63712742Y-48534580D01*
X63617504Y-48486961D01*
X63569885Y-48439342D01*
X64522266Y-47534580D02*
X65188933Y-47534580D01*
X64760361Y-48534580D01*
%TO.C,SW3*%
X62801666Y-82649961D02*
X62944523Y-82697580D01*
X63182619Y-82697580D01*
X63277857Y-82649961D01*
X63325476Y-82602342D01*
X63373095Y-82507104D01*
X63373095Y-82411866D01*
X63325476Y-82316628D01*
X63277857Y-82269009D01*
X63182619Y-82221390D01*
X62992142Y-82173771D01*
X62896904Y-82126152D01*
X62849285Y-82078533D01*
X62801666Y-81983295D01*
X62801666Y-81888057D01*
X62849285Y-81792819D01*
X62896904Y-81745200D01*
X62992142Y-81697580D01*
X63230238Y-81697580D01*
X63373095Y-81745200D01*
X63706428Y-81697580D02*
X63944523Y-82697580D01*
X64135000Y-81983295D01*
X64325476Y-82697580D01*
X64563571Y-81697580D01*
X64849285Y-81697580D02*
X65468333Y-81697580D01*
X65135000Y-82078533D01*
X65277857Y-82078533D01*
X65373095Y-82126152D01*
X65420714Y-82173771D01*
X65468333Y-82269009D01*
X65468333Y-82507104D01*
X65420714Y-82602342D01*
X65373095Y-82649961D01*
X65277857Y-82697580D01*
X64992142Y-82697580D01*
X64896904Y-82649961D01*
X64849285Y-82602342D01*
%TO.C,R12*%
X66514742Y-44318180D02*
X66181409Y-43841990D01*
X65943314Y-44318180D02*
X65943314Y-43318180D01*
X66324266Y-43318180D01*
X66419504Y-43365800D01*
X66467123Y-43413419D01*
X66514742Y-43508657D01*
X66514742Y-43651514D01*
X66467123Y-43746752D01*
X66419504Y-43794371D01*
X66324266Y-43841990D01*
X65943314Y-43841990D01*
X67467123Y-44318180D02*
X66895695Y-44318180D01*
X67181409Y-44318180D02*
X67181409Y-43318180D01*
X67086171Y-43461038D01*
X66990933Y-43556276D01*
X66895695Y-43603895D01*
X67848076Y-43413419D02*
X67895695Y-43365800D01*
X67990933Y-43318180D01*
X68229028Y-43318180D01*
X68324266Y-43365800D01*
X68371885Y-43413419D01*
X68419504Y-43508657D01*
X68419504Y-43603895D01*
X68371885Y-43746752D01*
X67800457Y-44318180D01*
X68419504Y-44318180D01*
%TO.C,R11*%
X68143380Y-67775057D02*
X67667190Y-68108390D01*
X68143380Y-68346485D02*
X67143380Y-68346485D01*
X67143380Y-67965533D01*
X67191000Y-67870295D01*
X67238619Y-67822676D01*
X67333857Y-67775057D01*
X67476714Y-67775057D01*
X67571952Y-67822676D01*
X67619571Y-67870295D01*
X67667190Y-67965533D01*
X67667190Y-68346485D01*
X68143380Y-66822676D02*
X68143380Y-67394104D01*
X68143380Y-67108390D02*
X67143380Y-67108390D01*
X67286238Y-67203628D01*
X67381476Y-67298866D01*
X67429095Y-67394104D01*
X68143380Y-65870295D02*
X68143380Y-66441723D01*
X68143380Y-66156009D02*
X67143380Y-66156009D01*
X67286238Y-66251247D01*
X67381476Y-66346485D01*
X67429095Y-66441723D01*
%TO.C,R10*%
X70937380Y-67749657D02*
X70461190Y-68082990D01*
X70937380Y-68321085D02*
X69937380Y-68321085D01*
X69937380Y-67940133D01*
X69985000Y-67844895D01*
X70032619Y-67797276D01*
X70127857Y-67749657D01*
X70270714Y-67749657D01*
X70365952Y-67797276D01*
X70413571Y-67844895D01*
X70461190Y-67940133D01*
X70461190Y-68321085D01*
X70937380Y-66797276D02*
X70937380Y-67368704D01*
X70937380Y-67082990D02*
X69937380Y-67082990D01*
X70080238Y-67178228D01*
X70175476Y-67273466D01*
X70223095Y-67368704D01*
X69937380Y-66178228D02*
X69937380Y-66082990D01*
X69985000Y-65987752D01*
X70032619Y-65940133D01*
X70127857Y-65892514D01*
X70318333Y-65844895D01*
X70556428Y-65844895D01*
X70746904Y-65892514D01*
X70842142Y-65940133D01*
X70889761Y-65987752D01*
X70937380Y-66082990D01*
X70937380Y-66178228D01*
X70889761Y-66273466D01*
X70842142Y-66321085D01*
X70746904Y-66368704D01*
X70556428Y-66416323D01*
X70318333Y-66416323D01*
X70127857Y-66368704D01*
X70032619Y-66321085D01*
X69985000Y-66273466D01*
X69937380Y-66178228D01*
%TO.C,R9*%
X69565780Y-67781466D02*
X69089590Y-68114800D01*
X69565780Y-68352895D02*
X68565780Y-68352895D01*
X68565780Y-67971942D01*
X68613400Y-67876704D01*
X68661019Y-67829085D01*
X68756257Y-67781466D01*
X68899114Y-67781466D01*
X68994352Y-67829085D01*
X69041971Y-67876704D01*
X69089590Y-67971942D01*
X69089590Y-68352895D01*
X69565780Y-67305276D02*
X69565780Y-67114800D01*
X69518161Y-67019561D01*
X69470542Y-66971942D01*
X69327685Y-66876704D01*
X69137209Y-66829085D01*
X68756257Y-66829085D01*
X68661019Y-66876704D01*
X68613400Y-66924323D01*
X68565780Y-67019561D01*
X68565780Y-67210038D01*
X68613400Y-67305276D01*
X68661019Y-67352895D01*
X68756257Y-67400514D01*
X68994352Y-67400514D01*
X69089590Y-67352895D01*
X69137209Y-67305276D01*
X69184828Y-67210038D01*
X69184828Y-67019561D01*
X69137209Y-66924323D01*
X69089590Y-66876704D01*
X68994352Y-66829085D01*
%TO.C,Q1*%
X67824361Y-69864219D02*
X67729123Y-69816600D01*
X67633885Y-69721361D01*
X67491028Y-69578504D01*
X67395790Y-69530885D01*
X67300552Y-69530885D01*
X67348171Y-69768980D02*
X67252933Y-69721361D01*
X67157695Y-69626123D01*
X67110076Y-69435647D01*
X67110076Y-69102314D01*
X67157695Y-68911838D01*
X67252933Y-68816600D01*
X67348171Y-68768980D01*
X67538647Y-68768980D01*
X67633885Y-68816600D01*
X67729123Y-68911838D01*
X67776742Y-69102314D01*
X67776742Y-69435647D01*
X67729123Y-69626123D01*
X67633885Y-69721361D01*
X67538647Y-69768980D01*
X67348171Y-69768980D01*
X68729123Y-69768980D02*
X68157695Y-69768980D01*
X68443409Y-69768980D02*
X68443409Y-68768980D01*
X68348171Y-68911838D01*
X68252933Y-69007076D01*
X68157695Y-69054695D01*
%TO.C,J4*%
X55867711Y-63193333D02*
X56581997Y-63193333D01*
X56724854Y-63240952D01*
X56820092Y-63336190D01*
X56867711Y-63479047D01*
X56867711Y-63574285D01*
X56201045Y-62288571D02*
X56867711Y-62288571D01*
X55820092Y-62526666D02*
X56534378Y-62764761D01*
X56534378Y-62145714D01*
%TO.C,J2*%
X55867711Y-120343333D02*
X56581997Y-120343333D01*
X56724854Y-120390952D01*
X56820092Y-120486190D01*
X56867711Y-120629047D01*
X56867711Y-120724285D01*
X55962950Y-119914761D02*
X55915331Y-119867142D01*
X55867711Y-119771904D01*
X55867711Y-119533809D01*
X55915331Y-119438571D01*
X55962950Y-119390952D01*
X56058188Y-119343333D01*
X56153426Y-119343333D01*
X56296283Y-119390952D01*
X56867711Y-119962380D01*
X56867711Y-119343333D01*
%TO.C,D1*%
X76300104Y-37968180D02*
X76300104Y-36968180D01*
X76538200Y-36968180D01*
X76681057Y-37015800D01*
X76776295Y-37111038D01*
X76823914Y-37206276D01*
X76871533Y-37396752D01*
X76871533Y-37539609D01*
X76823914Y-37730085D01*
X76776295Y-37825323D01*
X76681057Y-37920561D01*
X76538200Y-37968180D01*
X76300104Y-37968180D01*
X77823914Y-37968180D02*
X77252485Y-37968180D01*
X77538200Y-37968180D02*
X77538200Y-36968180D01*
X77442961Y-37111038D01*
X77347723Y-37206276D01*
X77252485Y-37253895D01*
%TO.C,C54*%
X73128142Y-61094857D02*
X73175761Y-61142476D01*
X73223380Y-61285333D01*
X73223380Y-61380571D01*
X73175761Y-61523428D01*
X73080523Y-61618666D01*
X72985285Y-61666285D01*
X72794809Y-61713904D01*
X72651952Y-61713904D01*
X72461476Y-61666285D01*
X72366238Y-61618666D01*
X72271000Y-61523428D01*
X72223380Y-61380571D01*
X72223380Y-61285333D01*
X72271000Y-61142476D01*
X72318619Y-61094857D01*
X72223380Y-60190095D02*
X72223380Y-60666285D01*
X72699571Y-60713904D01*
X72651952Y-60666285D01*
X72604333Y-60571047D01*
X72604333Y-60332952D01*
X72651952Y-60237714D01*
X72699571Y-60190095D01*
X72794809Y-60142476D01*
X73032904Y-60142476D01*
X73128142Y-60190095D01*
X73175761Y-60237714D01*
X73223380Y-60332952D01*
X73223380Y-60571047D01*
X73175761Y-60666285D01*
X73128142Y-60713904D01*
X72556714Y-59285333D02*
X73223380Y-59285333D01*
X72175761Y-59523428D02*
X72890047Y-59761523D01*
X72890047Y-59142476D01*
%TO.C,C53*%
X71517142Y-52204857D02*
X71564761Y-52252476D01*
X71612380Y-52395333D01*
X71612380Y-52490571D01*
X71564761Y-52633428D01*
X71469523Y-52728666D01*
X71374285Y-52776285D01*
X71183809Y-52823904D01*
X71040952Y-52823904D01*
X70850476Y-52776285D01*
X70755238Y-52728666D01*
X70660000Y-52633428D01*
X70612380Y-52490571D01*
X70612380Y-52395333D01*
X70660000Y-52252476D01*
X70707619Y-52204857D01*
X70612380Y-51300095D02*
X70612380Y-51776285D01*
X71088571Y-51823904D01*
X71040952Y-51776285D01*
X70993333Y-51681047D01*
X70993333Y-51442952D01*
X71040952Y-51347714D01*
X71088571Y-51300095D01*
X71183809Y-51252476D01*
X71421904Y-51252476D01*
X71517142Y-51300095D01*
X71564761Y-51347714D01*
X71612380Y-51442952D01*
X71612380Y-51681047D01*
X71564761Y-51776285D01*
X71517142Y-51823904D01*
X70612380Y-50919142D02*
X70612380Y-50300095D01*
X70993333Y-50633428D01*
X70993333Y-50490571D01*
X71040952Y-50395333D01*
X71088571Y-50347714D01*
X71183809Y-50300095D01*
X71421904Y-50300095D01*
X71517142Y-50347714D01*
X71564761Y-50395333D01*
X71612380Y-50490571D01*
X71612380Y-50776285D01*
X71564761Y-50871523D01*
X71517142Y-50919142D01*
%TO.C,C3*%
X195987942Y-38419066D02*
X196035561Y-38466685D01*
X196083180Y-38609542D01*
X196083180Y-38704780D01*
X196035561Y-38847638D01*
X195940323Y-38942876D01*
X195845085Y-38990495D01*
X195654609Y-39038114D01*
X195511752Y-39038114D01*
X195321276Y-38990495D01*
X195226038Y-38942876D01*
X195130800Y-38847638D01*
X195083180Y-38704780D01*
X195083180Y-38609542D01*
X195130800Y-38466685D01*
X195178419Y-38419066D01*
X195083180Y-38085733D02*
X195083180Y-37466685D01*
X195464133Y-37800019D01*
X195464133Y-37657161D01*
X195511752Y-37561923D01*
X195559371Y-37514304D01*
X195654609Y-37466685D01*
X195892704Y-37466685D01*
X195987942Y-37514304D01*
X196035561Y-37561923D01*
X196083180Y-37657161D01*
X196083180Y-37942876D01*
X196035561Y-38038114D01*
X195987942Y-38085733D01*
%TO.C,U19*%
X195032380Y-57118095D02*
X195841904Y-57118095D01*
X195937142Y-57070476D01*
X195984761Y-57022857D01*
X196032380Y-56927619D01*
X196032380Y-56737142D01*
X195984761Y-56641904D01*
X195937142Y-56594285D01*
X195841904Y-56546666D01*
X195032380Y-56546666D01*
X196032380Y-55546666D02*
X196032380Y-56118095D01*
X196032380Y-55832380D02*
X195032380Y-55832380D01*
X195175238Y-55927619D01*
X195270476Y-56022857D01*
X195318095Y-56118095D01*
X196032380Y-55070476D02*
X196032380Y-54880000D01*
X195984761Y-54784761D01*
X195937142Y-54737142D01*
X195794285Y-54641904D01*
X195603809Y-54594285D01*
X195222857Y-54594285D01*
X195127619Y-54641904D01*
X195080000Y-54689523D01*
X195032380Y-54784761D01*
X195032380Y-54975238D01*
X195080000Y-55070476D01*
X195127619Y-55118095D01*
X195222857Y-55165714D01*
X195460952Y-55165714D01*
X195556190Y-55118095D01*
X195603809Y-55070476D01*
X195651428Y-54975238D01*
X195651428Y-54784761D01*
X195603809Y-54689523D01*
X195556190Y-54641904D01*
X195460952Y-54594285D01*
%TO.C,U30*%
X224369380Y-82518095D02*
X225178904Y-82518095D01*
X225274142Y-82470476D01*
X225321761Y-82422857D01*
X225369380Y-82327619D01*
X225369380Y-82137142D01*
X225321761Y-82041904D01*
X225274142Y-81994285D01*
X225178904Y-81946666D01*
X224369380Y-81946666D01*
X224369380Y-81565714D02*
X224369380Y-80946666D01*
X224750333Y-81280000D01*
X224750333Y-81137142D01*
X224797952Y-81041904D01*
X224845571Y-80994285D01*
X224940809Y-80946666D01*
X225178904Y-80946666D01*
X225274142Y-80994285D01*
X225321761Y-81041904D01*
X225369380Y-81137142D01*
X225369380Y-81422857D01*
X225321761Y-81518095D01*
X225274142Y-81565714D01*
X224369380Y-80327619D02*
X224369380Y-80232380D01*
X224417000Y-80137142D01*
X224464619Y-80089523D01*
X224559857Y-80041904D01*
X224750333Y-79994285D01*
X224988428Y-79994285D01*
X225178904Y-80041904D01*
X225274142Y-80089523D01*
X225321761Y-80137142D01*
X225369380Y-80232380D01*
X225369380Y-80327619D01*
X225321761Y-80422857D01*
X225274142Y-80470476D01*
X225178904Y-80518095D01*
X224988428Y-80565714D01*
X224750333Y-80565714D01*
X224559857Y-80518095D01*
X224464619Y-80470476D01*
X224417000Y-80422857D01*
X224369380Y-80327619D01*
%TO.C,C44*%
X61825142Y-115069857D02*
X61872761Y-115117476D01*
X61920380Y-115260333D01*
X61920380Y-115355571D01*
X61872761Y-115498428D01*
X61777523Y-115593666D01*
X61682285Y-115641285D01*
X61491809Y-115688904D01*
X61348952Y-115688904D01*
X61158476Y-115641285D01*
X61063238Y-115593666D01*
X60968000Y-115498428D01*
X60920380Y-115355571D01*
X60920380Y-115260333D01*
X60968000Y-115117476D01*
X61015619Y-115069857D01*
X61253714Y-114212714D02*
X61920380Y-114212714D01*
X60872761Y-114450809D02*
X61587047Y-114688904D01*
X61587047Y-114069857D01*
X61253714Y-113260333D02*
X61920380Y-113260333D01*
X60872761Y-113498428D02*
X61587047Y-113736523D01*
X61587047Y-113117476D01*
%TO.C,U18*%
X195032380Y-44418095D02*
X195841904Y-44418095D01*
X195937142Y-44370476D01*
X195984761Y-44322857D01*
X196032380Y-44227619D01*
X196032380Y-44037142D01*
X195984761Y-43941904D01*
X195937142Y-43894285D01*
X195841904Y-43846666D01*
X195032380Y-43846666D01*
X196032380Y-42846666D02*
X196032380Y-43418095D01*
X196032380Y-43132380D02*
X195032380Y-43132380D01*
X195175238Y-43227619D01*
X195270476Y-43322857D01*
X195318095Y-43418095D01*
X195460952Y-42275238D02*
X195413333Y-42370476D01*
X195365714Y-42418095D01*
X195270476Y-42465714D01*
X195222857Y-42465714D01*
X195127619Y-42418095D01*
X195080000Y-42370476D01*
X195032380Y-42275238D01*
X195032380Y-42084761D01*
X195080000Y-41989523D01*
X195127619Y-41941904D01*
X195222857Y-41894285D01*
X195270476Y-41894285D01*
X195365714Y-41941904D01*
X195413333Y-41989523D01*
X195460952Y-42084761D01*
X195460952Y-42275238D01*
X195508571Y-42370476D01*
X195556190Y-42418095D01*
X195651428Y-42465714D01*
X195841904Y-42465714D01*
X195937142Y-42418095D01*
X195984761Y-42370476D01*
X196032380Y-42275238D01*
X196032380Y-42084761D01*
X195984761Y-41989523D01*
X195937142Y-41941904D01*
X195841904Y-41894285D01*
X195651428Y-41894285D01*
X195556190Y-41941904D01*
X195508571Y-41989523D01*
X195460952Y-42084761D01*
%TO.C,U16*%
X175291904Y-19899380D02*
X175291904Y-20708904D01*
X175339523Y-20804142D01*
X175387142Y-20851761D01*
X175482380Y-20899380D01*
X175672857Y-20899380D01*
X175768095Y-20851761D01*
X175815714Y-20804142D01*
X175863333Y-20708904D01*
X175863333Y-19899380D01*
X176863333Y-20899380D02*
X176291904Y-20899380D01*
X176577619Y-20899380D02*
X176577619Y-19899380D01*
X176482380Y-20042238D01*
X176387142Y-20137476D01*
X176291904Y-20185095D01*
X177720476Y-19899380D02*
X177530000Y-19899380D01*
X177434761Y-19947000D01*
X177387142Y-19994619D01*
X177291904Y-20137476D01*
X177244285Y-20327952D01*
X177244285Y-20708904D01*
X177291904Y-20804142D01*
X177339523Y-20851761D01*
X177434761Y-20899380D01*
X177625238Y-20899380D01*
X177720476Y-20851761D01*
X177768095Y-20804142D01*
X177815714Y-20708904D01*
X177815714Y-20470809D01*
X177768095Y-20375571D01*
X177720476Y-20327952D01*
X177625238Y-20280333D01*
X177434761Y-20280333D01*
X177339523Y-20327952D01*
X177291904Y-20375571D01*
X177244285Y-20470809D01*
%TO.C,C14*%
X93702142Y-41155857D02*
X93749761Y-41203476D01*
X93797380Y-41346333D01*
X93797380Y-41441571D01*
X93749761Y-41584428D01*
X93654523Y-41679666D01*
X93559285Y-41727285D01*
X93368809Y-41774904D01*
X93225952Y-41774904D01*
X93035476Y-41727285D01*
X92940238Y-41679666D01*
X92845000Y-41584428D01*
X92797380Y-41441571D01*
X92797380Y-41346333D01*
X92845000Y-41203476D01*
X92892619Y-41155857D01*
X93797380Y-40203476D02*
X93797380Y-40774904D01*
X93797380Y-40489190D02*
X92797380Y-40489190D01*
X92940238Y-40584428D01*
X93035476Y-40679666D01*
X93083095Y-40774904D01*
X93130714Y-39346333D02*
X93797380Y-39346333D01*
X92749761Y-39584428D02*
X93464047Y-39822523D01*
X93464047Y-39203476D01*
%TO.C,U20*%
X195032380Y-69868895D02*
X195841904Y-69868895D01*
X195937142Y-69821276D01*
X195984761Y-69773657D01*
X196032380Y-69678419D01*
X196032380Y-69487942D01*
X195984761Y-69392704D01*
X195937142Y-69345085D01*
X195841904Y-69297466D01*
X195032380Y-69297466D01*
X195127619Y-68868895D02*
X195080000Y-68821276D01*
X195032380Y-68726038D01*
X195032380Y-68487942D01*
X195080000Y-68392704D01*
X195127619Y-68345085D01*
X195222857Y-68297466D01*
X195318095Y-68297466D01*
X195460952Y-68345085D01*
X196032380Y-68916514D01*
X196032380Y-68297466D01*
X195032380Y-67678419D02*
X195032380Y-67583180D01*
X195080000Y-67487942D01*
X195127619Y-67440323D01*
X195222857Y-67392704D01*
X195413333Y-67345085D01*
X195651428Y-67345085D01*
X195841904Y-67392704D01*
X195937142Y-67440323D01*
X195984761Y-67487942D01*
X196032380Y-67583180D01*
X196032380Y-67678419D01*
X195984761Y-67773657D01*
X195937142Y-67821276D01*
X195841904Y-67868895D01*
X195651428Y-67916514D01*
X195413333Y-67916514D01*
X195222857Y-67868895D01*
X195127619Y-67821276D01*
X195080000Y-67773657D01*
X195032380Y-67678419D01*
%TO.C,C12*%
X183507142Y-45061142D02*
X183459523Y-45108761D01*
X183316666Y-45156380D01*
X183221428Y-45156380D01*
X183078571Y-45108761D01*
X182983333Y-45013523D01*
X182935714Y-44918285D01*
X182888095Y-44727809D01*
X182888095Y-44584952D01*
X182935714Y-44394476D01*
X182983333Y-44299238D01*
X183078571Y-44204000D01*
X183221428Y-44156380D01*
X183316666Y-44156380D01*
X183459523Y-44204000D01*
X183507142Y-44251619D01*
X184459523Y-45156380D02*
X183888095Y-45156380D01*
X184173809Y-45156380D02*
X184173809Y-44156380D01*
X184078571Y-44299238D01*
X183983333Y-44394476D01*
X183888095Y-44442095D01*
X184840476Y-44251619D02*
X184888095Y-44204000D01*
X184983333Y-44156380D01*
X185221428Y-44156380D01*
X185316666Y-44204000D01*
X185364285Y-44251619D01*
X185411904Y-44346857D01*
X185411904Y-44442095D01*
X185364285Y-44584952D01*
X184792857Y-45156380D01*
X185411904Y-45156380D01*
%TO.C,U35*%
X64166904Y-89114380D02*
X64166904Y-89923904D01*
X64214523Y-90019142D01*
X64262142Y-90066761D01*
X64357380Y-90114380D01*
X64547857Y-90114380D01*
X64643095Y-90066761D01*
X64690714Y-90019142D01*
X64738333Y-89923904D01*
X64738333Y-89114380D01*
X65119285Y-89114380D02*
X65738333Y-89114380D01*
X65405000Y-89495333D01*
X65547857Y-89495333D01*
X65643095Y-89542952D01*
X65690714Y-89590571D01*
X65738333Y-89685809D01*
X65738333Y-89923904D01*
X65690714Y-90019142D01*
X65643095Y-90066761D01*
X65547857Y-90114380D01*
X65262142Y-90114380D01*
X65166904Y-90066761D01*
X65119285Y-90019142D01*
X66643095Y-89114380D02*
X66166904Y-89114380D01*
X66119285Y-89590571D01*
X66166904Y-89542952D01*
X66262142Y-89495333D01*
X66500238Y-89495333D01*
X66595476Y-89542952D01*
X66643095Y-89590571D01*
X66690714Y-89685809D01*
X66690714Y-89923904D01*
X66643095Y-90019142D01*
X66595476Y-90066761D01*
X66500238Y-90114380D01*
X66262142Y-90114380D01*
X66166904Y-90066761D01*
X66119285Y-90019142D01*
%TO.C,U23*%
X224242380Y-44418095D02*
X225051904Y-44418095D01*
X225147142Y-44370476D01*
X225194761Y-44322857D01*
X225242380Y-44227619D01*
X225242380Y-44037142D01*
X225194761Y-43941904D01*
X225147142Y-43894285D01*
X225051904Y-43846666D01*
X224242380Y-43846666D01*
X224337619Y-43418095D02*
X224290000Y-43370476D01*
X224242380Y-43275238D01*
X224242380Y-43037142D01*
X224290000Y-42941904D01*
X224337619Y-42894285D01*
X224432857Y-42846666D01*
X224528095Y-42846666D01*
X224670952Y-42894285D01*
X225242380Y-43465714D01*
X225242380Y-42846666D01*
X224242380Y-42513333D02*
X224242380Y-41894285D01*
X224623333Y-42227619D01*
X224623333Y-42084761D01*
X224670952Y-41989523D01*
X224718571Y-41941904D01*
X224813809Y-41894285D01*
X225051904Y-41894285D01*
X225147142Y-41941904D01*
X225194761Y-41989523D01*
X225242380Y-42084761D01*
X225242380Y-42370476D01*
X225194761Y-42465714D01*
X225147142Y-42513333D01*
%TO.C,C23*%
X128643142Y-109958142D02*
X128595523Y-110005761D01*
X128452666Y-110053380D01*
X128357428Y-110053380D01*
X128214571Y-110005761D01*
X128119333Y-109910523D01*
X128071714Y-109815285D01*
X128024095Y-109624809D01*
X128024095Y-109481952D01*
X128071714Y-109291476D01*
X128119333Y-109196238D01*
X128214571Y-109101000D01*
X128357428Y-109053380D01*
X128452666Y-109053380D01*
X128595523Y-109101000D01*
X128643142Y-109148619D01*
X129024095Y-109148619D02*
X129071714Y-109101000D01*
X129166952Y-109053380D01*
X129405047Y-109053380D01*
X129500285Y-109101000D01*
X129547904Y-109148619D01*
X129595523Y-109243857D01*
X129595523Y-109339095D01*
X129547904Y-109481952D01*
X128976476Y-110053380D01*
X129595523Y-110053380D01*
X129928857Y-109053380D02*
X130547904Y-109053380D01*
X130214571Y-109434333D01*
X130357428Y-109434333D01*
X130452666Y-109481952D01*
X130500285Y-109529571D01*
X130547904Y-109624809D01*
X130547904Y-109862904D01*
X130500285Y-109958142D01*
X130452666Y-110005761D01*
X130357428Y-110053380D01*
X130071714Y-110053380D01*
X129976476Y-110005761D01*
X129928857Y-109958142D01*
%TO.C,U6*%
X92797380Y-45846904D02*
X93606904Y-45846904D01*
X93702142Y-45799285D01*
X93749761Y-45751666D01*
X93797380Y-45656428D01*
X93797380Y-45465952D01*
X93749761Y-45370714D01*
X93702142Y-45323095D01*
X93606904Y-45275476D01*
X92797380Y-45275476D01*
X92797380Y-44370714D02*
X92797380Y-44561190D01*
X92845000Y-44656428D01*
X92892619Y-44704047D01*
X93035476Y-44799285D01*
X93225952Y-44846904D01*
X93606904Y-44846904D01*
X93702142Y-44799285D01*
X93749761Y-44751666D01*
X93797380Y-44656428D01*
X93797380Y-44465952D01*
X93749761Y-44370714D01*
X93702142Y-44323095D01*
X93606904Y-44275476D01*
X93368809Y-44275476D01*
X93273571Y-44323095D01*
X93225952Y-44370714D01*
X93178333Y-44465952D01*
X93178333Y-44656428D01*
X93225952Y-44751666D01*
X93273571Y-44799285D01*
X93368809Y-44846904D01*
%TO.C,U22*%
X224242380Y-31718095D02*
X225051904Y-31718095D01*
X225147142Y-31670476D01*
X225194761Y-31622857D01*
X225242380Y-31527619D01*
X225242380Y-31337142D01*
X225194761Y-31241904D01*
X225147142Y-31194285D01*
X225051904Y-31146666D01*
X224242380Y-31146666D01*
X224337619Y-30718095D02*
X224290000Y-30670476D01*
X224242380Y-30575238D01*
X224242380Y-30337142D01*
X224290000Y-30241904D01*
X224337619Y-30194285D01*
X224432857Y-30146666D01*
X224528095Y-30146666D01*
X224670952Y-30194285D01*
X225242380Y-30765714D01*
X225242380Y-30146666D01*
X224337619Y-29765714D02*
X224290000Y-29718095D01*
X224242380Y-29622857D01*
X224242380Y-29384761D01*
X224290000Y-29289523D01*
X224337619Y-29241904D01*
X224432857Y-29194285D01*
X224528095Y-29194285D01*
X224670952Y-29241904D01*
X225242380Y-29813333D01*
X225242380Y-29194285D01*
%TO.C,R2*%
X140152380Y-24804666D02*
X139676190Y-25138000D01*
X140152380Y-25376095D02*
X139152380Y-25376095D01*
X139152380Y-24995142D01*
X139200000Y-24899904D01*
X139247619Y-24852285D01*
X139342857Y-24804666D01*
X139485714Y-24804666D01*
X139580952Y-24852285D01*
X139628571Y-24899904D01*
X139676190Y-24995142D01*
X139676190Y-25376095D01*
X139247619Y-24423714D02*
X139200000Y-24376095D01*
X139152380Y-24280857D01*
X139152380Y-24042761D01*
X139200000Y-23947523D01*
X139247619Y-23899904D01*
X139342857Y-23852285D01*
X139438095Y-23852285D01*
X139580952Y-23899904D01*
X140152380Y-24471333D01*
X140152380Y-23852285D01*
%TO.C,C28*%
X146550142Y-20042142D02*
X146502523Y-20089761D01*
X146359666Y-20137380D01*
X146264428Y-20137380D01*
X146121571Y-20089761D01*
X146026333Y-19994523D01*
X145978714Y-19899285D01*
X145931095Y-19708809D01*
X145931095Y-19565952D01*
X145978714Y-19375476D01*
X146026333Y-19280238D01*
X146121571Y-19185000D01*
X146264428Y-19137380D01*
X146359666Y-19137380D01*
X146502523Y-19185000D01*
X146550142Y-19232619D01*
X146931095Y-19232619D02*
X146978714Y-19185000D01*
X147073952Y-19137380D01*
X147312047Y-19137380D01*
X147407285Y-19185000D01*
X147454904Y-19232619D01*
X147502523Y-19327857D01*
X147502523Y-19423095D01*
X147454904Y-19565952D01*
X146883476Y-20137380D01*
X147502523Y-20137380D01*
X148073952Y-19565952D02*
X147978714Y-19518333D01*
X147931095Y-19470714D01*
X147883476Y-19375476D01*
X147883476Y-19327857D01*
X147931095Y-19232619D01*
X147978714Y-19185000D01*
X148073952Y-19137380D01*
X148264428Y-19137380D01*
X148359666Y-19185000D01*
X148407285Y-19232619D01*
X148454904Y-19327857D01*
X148454904Y-19375476D01*
X148407285Y-19470714D01*
X148359666Y-19518333D01*
X148264428Y-19565952D01*
X148073952Y-19565952D01*
X147978714Y-19613571D01*
X147931095Y-19661190D01*
X147883476Y-19756428D01*
X147883476Y-19946904D01*
X147931095Y-20042142D01*
X147978714Y-20089761D01*
X148073952Y-20137380D01*
X148264428Y-20137380D01*
X148359666Y-20089761D01*
X148407285Y-20042142D01*
X148454904Y-19946904D01*
X148454904Y-19756428D01*
X148407285Y-19661190D01*
X148359666Y-19613571D01*
X148264428Y-19565952D01*
%TO.C,R3*%
X140152380Y-40806666D02*
X139676190Y-41140000D01*
X140152380Y-41378095D02*
X139152380Y-41378095D01*
X139152380Y-40997142D01*
X139200000Y-40901904D01*
X139247619Y-40854285D01*
X139342857Y-40806666D01*
X139485714Y-40806666D01*
X139580952Y-40854285D01*
X139628571Y-40901904D01*
X139676190Y-40997142D01*
X139676190Y-41378095D01*
X139152380Y-40473333D02*
X139152380Y-39854285D01*
X139533333Y-40187619D01*
X139533333Y-40044761D01*
X139580952Y-39949523D01*
X139628571Y-39901904D01*
X139723809Y-39854285D01*
X139961904Y-39854285D01*
X140057142Y-39901904D01*
X140104761Y-39949523D01*
X140152380Y-40044761D01*
X140152380Y-40330476D01*
X140104761Y-40425714D01*
X140057142Y-40473333D01*
%TO.C,C21*%
X83685142Y-103227142D02*
X83637523Y-103274761D01*
X83494666Y-103322380D01*
X83399428Y-103322380D01*
X83256571Y-103274761D01*
X83161333Y-103179523D01*
X83113714Y-103084285D01*
X83066095Y-102893809D01*
X83066095Y-102750952D01*
X83113714Y-102560476D01*
X83161333Y-102465238D01*
X83256571Y-102370000D01*
X83399428Y-102322380D01*
X83494666Y-102322380D01*
X83637523Y-102370000D01*
X83685142Y-102417619D01*
X84066095Y-102417619D02*
X84113714Y-102370000D01*
X84208952Y-102322380D01*
X84447047Y-102322380D01*
X84542285Y-102370000D01*
X84589904Y-102417619D01*
X84637523Y-102512857D01*
X84637523Y-102608095D01*
X84589904Y-102750952D01*
X84018476Y-103322380D01*
X84637523Y-103322380D01*
X85589904Y-103322380D02*
X85018476Y-103322380D01*
X85304190Y-103322380D02*
X85304190Y-102322380D01*
X85208952Y-102465238D01*
X85113714Y-102560476D01*
X85018476Y-102608095D01*
%TO.C,C31*%
X129532142Y-20804142D02*
X129484523Y-20851761D01*
X129341666Y-20899380D01*
X129246428Y-20899380D01*
X129103571Y-20851761D01*
X129008333Y-20756523D01*
X128960714Y-20661285D01*
X128913095Y-20470809D01*
X128913095Y-20327952D01*
X128960714Y-20137476D01*
X129008333Y-20042238D01*
X129103571Y-19947000D01*
X129246428Y-19899380D01*
X129341666Y-19899380D01*
X129484523Y-19947000D01*
X129532142Y-19994619D01*
X129865476Y-19899380D02*
X130484523Y-19899380D01*
X130151190Y-20280333D01*
X130294047Y-20280333D01*
X130389285Y-20327952D01*
X130436904Y-20375571D01*
X130484523Y-20470809D01*
X130484523Y-20708904D01*
X130436904Y-20804142D01*
X130389285Y-20851761D01*
X130294047Y-20899380D01*
X130008333Y-20899380D01*
X129913095Y-20851761D01*
X129865476Y-20804142D01*
X131436904Y-20899380D02*
X130865476Y-20899380D01*
X131151190Y-20899380D02*
X131151190Y-19899380D01*
X131055952Y-20042238D01*
X130960714Y-20137476D01*
X130865476Y-20185095D01*
%TO.C,U17*%
X195032380Y-31718095D02*
X195841904Y-31718095D01*
X195937142Y-31670476D01*
X195984761Y-31622857D01*
X196032380Y-31527619D01*
X196032380Y-31337142D01*
X195984761Y-31241904D01*
X195937142Y-31194285D01*
X195841904Y-31146666D01*
X195032380Y-31146666D01*
X196032380Y-30146666D02*
X196032380Y-30718095D01*
X196032380Y-30432380D02*
X195032380Y-30432380D01*
X195175238Y-30527619D01*
X195270476Y-30622857D01*
X195318095Y-30718095D01*
X195032380Y-29813333D02*
X195032380Y-29146666D01*
X196032380Y-29575238D01*
%TO.C,C27*%
X93829142Y-81668857D02*
X93876761Y-81716476D01*
X93924380Y-81859333D01*
X93924380Y-81954571D01*
X93876761Y-82097428D01*
X93781523Y-82192666D01*
X93686285Y-82240285D01*
X93495809Y-82287904D01*
X93352952Y-82287904D01*
X93162476Y-82240285D01*
X93067238Y-82192666D01*
X92972000Y-82097428D01*
X92924380Y-81954571D01*
X92924380Y-81859333D01*
X92972000Y-81716476D01*
X93019619Y-81668857D01*
X93019619Y-81287904D02*
X92972000Y-81240285D01*
X92924380Y-81145047D01*
X92924380Y-80906952D01*
X92972000Y-80811714D01*
X93019619Y-80764095D01*
X93114857Y-80716476D01*
X93210095Y-80716476D01*
X93352952Y-80764095D01*
X93924380Y-81335523D01*
X93924380Y-80716476D01*
X92924380Y-80383142D02*
X92924380Y-79716476D01*
X93924380Y-80145047D01*
%TO.C,U9*%
X175768095Y-103802380D02*
X175768095Y-104611904D01*
X175815714Y-104707142D01*
X175863333Y-104754761D01*
X175958571Y-104802380D01*
X176149047Y-104802380D01*
X176244285Y-104754761D01*
X176291904Y-104707142D01*
X176339523Y-104611904D01*
X176339523Y-103802380D01*
X176863333Y-104802380D02*
X177053809Y-104802380D01*
X177149047Y-104754761D01*
X177196666Y-104707142D01*
X177291904Y-104564285D01*
X177339523Y-104373809D01*
X177339523Y-103992857D01*
X177291904Y-103897619D01*
X177244285Y-103850000D01*
X177149047Y-103802380D01*
X176958571Y-103802380D01*
X176863333Y-103850000D01*
X176815714Y-103897619D01*
X176768095Y-103992857D01*
X176768095Y-104230952D01*
X176815714Y-104326190D01*
X176863333Y-104373809D01*
X176958571Y-104421428D01*
X177149047Y-104421428D01*
X177244285Y-104373809D01*
X177291904Y-104326190D01*
X177339523Y-104230952D01*
%TO.C,C8*%
X225147142Y-63676666D02*
X225194761Y-63724285D01*
X225242380Y-63867142D01*
X225242380Y-63962380D01*
X225194761Y-64105238D01*
X225099523Y-64200476D01*
X225004285Y-64248095D01*
X224813809Y-64295714D01*
X224670952Y-64295714D01*
X224480476Y-64248095D01*
X224385238Y-64200476D01*
X224290000Y-64105238D01*
X224242380Y-63962380D01*
X224242380Y-63867142D01*
X224290000Y-63724285D01*
X224337619Y-63676666D01*
X224670952Y-63105238D02*
X224623333Y-63200476D01*
X224575714Y-63248095D01*
X224480476Y-63295714D01*
X224432857Y-63295714D01*
X224337619Y-63248095D01*
X224290000Y-63200476D01*
X224242380Y-63105238D01*
X224242380Y-62914761D01*
X224290000Y-62819523D01*
X224337619Y-62771904D01*
X224432857Y-62724285D01*
X224480476Y-62724285D01*
X224575714Y-62771904D01*
X224623333Y-62819523D01*
X224670952Y-62914761D01*
X224670952Y-63105238D01*
X224718571Y-63200476D01*
X224766190Y-63248095D01*
X224861428Y-63295714D01*
X225051904Y-63295714D01*
X225147142Y-63248095D01*
X225194761Y-63200476D01*
X225242380Y-63105238D01*
X225242380Y-62914761D01*
X225194761Y-62819523D01*
X225147142Y-62771904D01*
X225051904Y-62724285D01*
X224861428Y-62724285D01*
X224766190Y-62771904D01*
X224718571Y-62819523D01*
X224670952Y-62914761D01*
%TO.C,C49*%
X61952142Y-89923857D02*
X61999761Y-89971476D01*
X62047380Y-90114333D01*
X62047380Y-90209571D01*
X61999761Y-90352428D01*
X61904523Y-90447666D01*
X61809285Y-90495285D01*
X61618809Y-90542904D01*
X61475952Y-90542904D01*
X61285476Y-90495285D01*
X61190238Y-90447666D01*
X61095000Y-90352428D01*
X61047380Y-90209571D01*
X61047380Y-90114333D01*
X61095000Y-89971476D01*
X61142619Y-89923857D01*
X61380714Y-89066714D02*
X62047380Y-89066714D01*
X60999761Y-89304809D02*
X61714047Y-89542904D01*
X61714047Y-88923857D01*
X62047380Y-88495285D02*
X62047380Y-88304809D01*
X61999761Y-88209571D01*
X61952142Y-88161952D01*
X61809285Y-88066714D01*
X61618809Y-88019095D01*
X61237857Y-88019095D01*
X61142619Y-88066714D01*
X61095000Y-88114333D01*
X61047380Y-88209571D01*
X61047380Y-88400047D01*
X61095000Y-88495285D01*
X61142619Y-88542904D01*
X61237857Y-88590523D01*
X61475952Y-88590523D01*
X61571190Y-88542904D01*
X61618809Y-88495285D01*
X61666428Y-88400047D01*
X61666428Y-88209571D01*
X61618809Y-88114333D01*
X61571190Y-88066714D01*
X61475952Y-88019095D01*
%TO.C,C37*%
X225147142Y-90050857D02*
X225194761Y-90098476D01*
X225242380Y-90241333D01*
X225242380Y-90336571D01*
X225194761Y-90479428D01*
X225099523Y-90574666D01*
X225004285Y-90622285D01*
X224813809Y-90669904D01*
X224670952Y-90669904D01*
X224480476Y-90622285D01*
X224385238Y-90574666D01*
X224290000Y-90479428D01*
X224242380Y-90336571D01*
X224242380Y-90241333D01*
X224290000Y-90098476D01*
X224337619Y-90050857D01*
X224242380Y-89717523D02*
X224242380Y-89098476D01*
X224623333Y-89431809D01*
X224623333Y-89288952D01*
X224670952Y-89193714D01*
X224718571Y-89146095D01*
X224813809Y-89098476D01*
X225051904Y-89098476D01*
X225147142Y-89146095D01*
X225194761Y-89193714D01*
X225242380Y-89288952D01*
X225242380Y-89574666D01*
X225194761Y-89669904D01*
X225147142Y-89717523D01*
X224242380Y-88765142D02*
X224242380Y-88098476D01*
X225242380Y-88527047D01*
%TO.C,C42*%
X249801142Y-109704142D02*
X249753523Y-109751761D01*
X249610666Y-109799380D01*
X249515428Y-109799380D01*
X249372571Y-109751761D01*
X249277333Y-109656523D01*
X249229714Y-109561285D01*
X249182095Y-109370809D01*
X249182095Y-109227952D01*
X249229714Y-109037476D01*
X249277333Y-108942238D01*
X249372571Y-108847000D01*
X249515428Y-108799380D01*
X249610666Y-108799380D01*
X249753523Y-108847000D01*
X249801142Y-108894619D01*
X250658285Y-109132714D02*
X250658285Y-109799380D01*
X250420190Y-108751761D02*
X250182095Y-109466047D01*
X250801142Y-109466047D01*
X251134476Y-108894619D02*
X251182095Y-108847000D01*
X251277333Y-108799380D01*
X251515428Y-108799380D01*
X251610666Y-108847000D01*
X251658285Y-108894619D01*
X251705904Y-108989857D01*
X251705904Y-109085095D01*
X251658285Y-109227952D01*
X251086857Y-109799380D01*
X251705904Y-109799380D01*
%TO.C,X1*%
X96980476Y-18629380D02*
X97647142Y-19629380D01*
X97647142Y-18629380D02*
X96980476Y-19629380D01*
X98551904Y-19629380D02*
X97980476Y-19629380D01*
X98266190Y-19629380D02*
X98266190Y-18629380D01*
X98170952Y-18772238D01*
X98075714Y-18867476D01*
X97980476Y-18915095D01*
%TO.C,C41*%
X249801142Y-96877142D02*
X249753523Y-96924761D01*
X249610666Y-96972380D01*
X249515428Y-96972380D01*
X249372571Y-96924761D01*
X249277333Y-96829523D01*
X249229714Y-96734285D01*
X249182095Y-96543809D01*
X249182095Y-96400952D01*
X249229714Y-96210476D01*
X249277333Y-96115238D01*
X249372571Y-96020000D01*
X249515428Y-95972380D01*
X249610666Y-95972380D01*
X249753523Y-96020000D01*
X249801142Y-96067619D01*
X250658285Y-96305714D02*
X250658285Y-96972380D01*
X250420190Y-95924761D02*
X250182095Y-96639047D01*
X250801142Y-96639047D01*
X251705904Y-96972380D02*
X251134476Y-96972380D01*
X251420190Y-96972380D02*
X251420190Y-95972380D01*
X251324952Y-96115238D01*
X251229714Y-96210476D01*
X251134476Y-96258095D01*
%TO.C,C38*%
X225172542Y-102750857D02*
X225220161Y-102798476D01*
X225267780Y-102941333D01*
X225267780Y-103036571D01*
X225220161Y-103179428D01*
X225124923Y-103274666D01*
X225029685Y-103322285D01*
X224839209Y-103369904D01*
X224696352Y-103369904D01*
X224505876Y-103322285D01*
X224410638Y-103274666D01*
X224315400Y-103179428D01*
X224267780Y-103036571D01*
X224267780Y-102941333D01*
X224315400Y-102798476D01*
X224363019Y-102750857D01*
X224267780Y-102417523D02*
X224267780Y-101798476D01*
X224648733Y-102131809D01*
X224648733Y-101988952D01*
X224696352Y-101893714D01*
X224743971Y-101846095D01*
X224839209Y-101798476D01*
X225077304Y-101798476D01*
X225172542Y-101846095D01*
X225220161Y-101893714D01*
X225267780Y-101988952D01*
X225267780Y-102274666D01*
X225220161Y-102369904D01*
X225172542Y-102417523D01*
X224696352Y-101227047D02*
X224648733Y-101322285D01*
X224601114Y-101369904D01*
X224505876Y-101417523D01*
X224458257Y-101417523D01*
X224363019Y-101369904D01*
X224315400Y-101322285D01*
X224267780Y-101227047D01*
X224267780Y-101036571D01*
X224315400Y-100941333D01*
X224363019Y-100893714D01*
X224458257Y-100846095D01*
X224505876Y-100846095D01*
X224601114Y-100893714D01*
X224648733Y-100941333D01*
X224696352Y-101036571D01*
X224696352Y-101227047D01*
X224743971Y-101322285D01*
X224791590Y-101369904D01*
X224886828Y-101417523D01*
X225077304Y-101417523D01*
X225172542Y-101369904D01*
X225220161Y-101322285D01*
X225267780Y-101227047D01*
X225267780Y-101036571D01*
X225220161Y-100941333D01*
X225172542Y-100893714D01*
X225077304Y-100846095D01*
X224886828Y-100846095D01*
X224791590Y-100893714D01*
X224743971Y-100941333D01*
X224696352Y-101036571D01*
%TO.C,U33*%
X224369380Y-120618095D02*
X225178904Y-120618095D01*
X225274142Y-120570476D01*
X225321761Y-120522857D01*
X225369380Y-120427619D01*
X225369380Y-120237142D01*
X225321761Y-120141904D01*
X225274142Y-120094285D01*
X225178904Y-120046666D01*
X224369380Y-120046666D01*
X224369380Y-119665714D02*
X224369380Y-119046666D01*
X224750333Y-119380000D01*
X224750333Y-119237142D01*
X224797952Y-119141904D01*
X224845571Y-119094285D01*
X224940809Y-119046666D01*
X225178904Y-119046666D01*
X225274142Y-119094285D01*
X225321761Y-119141904D01*
X225369380Y-119237142D01*
X225369380Y-119522857D01*
X225321761Y-119618095D01*
X225274142Y-119665714D01*
X224369380Y-118713333D02*
X224369380Y-118094285D01*
X224750333Y-118427619D01*
X224750333Y-118284761D01*
X224797952Y-118189523D01*
X224845571Y-118141904D01*
X224940809Y-118094285D01*
X225178904Y-118094285D01*
X225274142Y-118141904D01*
X225321761Y-118189523D01*
X225369380Y-118284761D01*
X225369380Y-118570476D01*
X225321761Y-118665714D01*
X225274142Y-118713333D01*
%TO.C,C11*%
X250309142Y-58777142D02*
X250261523Y-58824761D01*
X250118666Y-58872380D01*
X250023428Y-58872380D01*
X249880571Y-58824761D01*
X249785333Y-58729523D01*
X249737714Y-58634285D01*
X249690095Y-58443809D01*
X249690095Y-58300952D01*
X249737714Y-58110476D01*
X249785333Y-58015238D01*
X249880571Y-57920000D01*
X250023428Y-57872380D01*
X250118666Y-57872380D01*
X250261523Y-57920000D01*
X250309142Y-57967619D01*
X251261523Y-58872380D02*
X250690095Y-58872380D01*
X250975809Y-58872380D02*
X250975809Y-57872380D01*
X250880571Y-58015238D01*
X250785333Y-58110476D01*
X250690095Y-58158095D01*
X252213904Y-58872380D02*
X251642476Y-58872380D01*
X251928190Y-58872380D02*
X251928190Y-57872380D01*
X251832952Y-58015238D01*
X251737714Y-58110476D01*
X251642476Y-58158095D01*
%TO.C,U14*%
X175291904Y-74001380D02*
X175291904Y-74810904D01*
X175339523Y-74906142D01*
X175387142Y-74953761D01*
X175482380Y-75001380D01*
X175672857Y-75001380D01*
X175768095Y-74953761D01*
X175815714Y-74906142D01*
X175863333Y-74810904D01*
X175863333Y-74001380D01*
X176863333Y-75001380D02*
X176291904Y-75001380D01*
X176577619Y-75001380D02*
X176577619Y-74001380D01*
X176482380Y-74144238D01*
X176387142Y-74239476D01*
X176291904Y-74287095D01*
X177720476Y-74334714D02*
X177720476Y-75001380D01*
X177482380Y-73953761D02*
X177244285Y-74668047D01*
X177863333Y-74668047D01*
%TO.C,R5*%
X143327380Y-40806666D02*
X142851190Y-41140000D01*
X143327380Y-41378095D02*
X142327380Y-41378095D01*
X142327380Y-40997142D01*
X142375000Y-40901904D01*
X142422619Y-40854285D01*
X142517857Y-40806666D01*
X142660714Y-40806666D01*
X142755952Y-40854285D01*
X142803571Y-40901904D01*
X142851190Y-40997142D01*
X142851190Y-41378095D01*
X142327380Y-39901904D02*
X142327380Y-40378095D01*
X142803571Y-40425714D01*
X142755952Y-40378095D01*
X142708333Y-40282857D01*
X142708333Y-40044761D01*
X142755952Y-39949523D01*
X142803571Y-39901904D01*
X142898809Y-39854285D01*
X143136904Y-39854285D01*
X143232142Y-39901904D01*
X143279761Y-39949523D01*
X143327380Y-40044761D01*
X143327380Y-40282857D01*
X143279761Y-40378095D01*
X143232142Y-40425714D01*
%TO.C,C45*%
X86606142Y-91162142D02*
X86558523Y-91209761D01*
X86415666Y-91257380D01*
X86320428Y-91257380D01*
X86177571Y-91209761D01*
X86082333Y-91114523D01*
X86034714Y-91019285D01*
X85987095Y-90828809D01*
X85987095Y-90685952D01*
X86034714Y-90495476D01*
X86082333Y-90400238D01*
X86177571Y-90305000D01*
X86320428Y-90257380D01*
X86415666Y-90257380D01*
X86558523Y-90305000D01*
X86606142Y-90352619D01*
X87463285Y-90590714D02*
X87463285Y-91257380D01*
X87225190Y-90209761D02*
X86987095Y-90924047D01*
X87606142Y-90924047D01*
X88463285Y-90257380D02*
X87987095Y-90257380D01*
X87939476Y-90733571D01*
X87987095Y-90685952D01*
X88082333Y-90638333D01*
X88320428Y-90638333D01*
X88415666Y-90685952D01*
X88463285Y-90733571D01*
X88510904Y-90828809D01*
X88510904Y-91066904D01*
X88463285Y-91162142D01*
X88415666Y-91209761D01*
X88320428Y-91257380D01*
X88082333Y-91257380D01*
X87987095Y-91209761D01*
X87939476Y-91162142D01*
%TO.C,R1*%
X136977380Y-24931666D02*
X136501190Y-25265000D01*
X136977380Y-25503095D02*
X135977380Y-25503095D01*
X135977380Y-25122142D01*
X136025000Y-25026904D01*
X136072619Y-24979285D01*
X136167857Y-24931666D01*
X136310714Y-24931666D01*
X136405952Y-24979285D01*
X136453571Y-25026904D01*
X136501190Y-25122142D01*
X136501190Y-25503095D01*
X136977380Y-23979285D02*
X136977380Y-24550714D01*
X136977380Y-24265000D02*
X135977380Y-24265000D01*
X136120238Y-24360238D01*
X136215476Y-24455476D01*
X136263095Y-24550714D01*
%TO.C,C29*%
X93722142Y-66555857D02*
X93769761Y-66603476D01*
X93817380Y-66746333D01*
X93817380Y-66841571D01*
X93769761Y-66984428D01*
X93674523Y-67079666D01*
X93579285Y-67127285D01*
X93388809Y-67174904D01*
X93245952Y-67174904D01*
X93055476Y-67127285D01*
X92960238Y-67079666D01*
X92865000Y-66984428D01*
X92817380Y-66841571D01*
X92817380Y-66746333D01*
X92865000Y-66603476D01*
X92912619Y-66555857D01*
X92912619Y-66174904D02*
X92865000Y-66127285D01*
X92817380Y-66032047D01*
X92817380Y-65793952D01*
X92865000Y-65698714D01*
X92912619Y-65651095D01*
X93007857Y-65603476D01*
X93103095Y-65603476D01*
X93245952Y-65651095D01*
X93817380Y-66222523D01*
X93817380Y-65603476D01*
X93817380Y-65127285D02*
X93817380Y-64936809D01*
X93769761Y-64841571D01*
X93722142Y-64793952D01*
X93579285Y-64698714D01*
X93388809Y-64651095D01*
X93007857Y-64651095D01*
X92912619Y-64698714D01*
X92865000Y-64746333D01*
X92817380Y-64841571D01*
X92817380Y-65032047D01*
X92865000Y-65127285D01*
X92912619Y-65174904D01*
X93007857Y-65222523D01*
X93245952Y-65222523D01*
X93341190Y-65174904D01*
X93388809Y-65127285D01*
X93436428Y-65032047D01*
X93436428Y-64841571D01*
X93388809Y-64746333D01*
X93341190Y-64698714D01*
X93245952Y-64651095D01*
%TO.C,C17*%
X183507142Y-20931142D02*
X183459523Y-20978761D01*
X183316666Y-21026380D01*
X183221428Y-21026380D01*
X183078571Y-20978761D01*
X182983333Y-20883523D01*
X182935714Y-20788285D01*
X182888095Y-20597809D01*
X182888095Y-20454952D01*
X182935714Y-20264476D01*
X182983333Y-20169238D01*
X183078571Y-20074000D01*
X183221428Y-20026380D01*
X183316666Y-20026380D01*
X183459523Y-20074000D01*
X183507142Y-20121619D01*
X184459523Y-21026380D02*
X183888095Y-21026380D01*
X184173809Y-21026380D02*
X184173809Y-20026380D01*
X184078571Y-20169238D01*
X183983333Y-20264476D01*
X183888095Y-20312095D01*
X184792857Y-20026380D02*
X185459523Y-20026380D01*
X185030952Y-21026380D01*
%TO.C,U29*%
X195159380Y-120618095D02*
X195968904Y-120618095D01*
X196064142Y-120570476D01*
X196111761Y-120522857D01*
X196159380Y-120427619D01*
X196159380Y-120237142D01*
X196111761Y-120141904D01*
X196064142Y-120094285D01*
X195968904Y-120046666D01*
X195159380Y-120046666D01*
X195254619Y-119618095D02*
X195207000Y-119570476D01*
X195159380Y-119475238D01*
X195159380Y-119237142D01*
X195207000Y-119141904D01*
X195254619Y-119094285D01*
X195349857Y-119046666D01*
X195445095Y-119046666D01*
X195587952Y-119094285D01*
X196159380Y-119665714D01*
X196159380Y-119046666D01*
X196159380Y-118570476D02*
X196159380Y-118380000D01*
X196111761Y-118284761D01*
X196064142Y-118237142D01*
X195921285Y-118141904D01*
X195730809Y-118094285D01*
X195349857Y-118094285D01*
X195254619Y-118141904D01*
X195207000Y-118189523D01*
X195159380Y-118284761D01*
X195159380Y-118475238D01*
X195207000Y-118570476D01*
X195254619Y-118618095D01*
X195349857Y-118665714D01*
X195587952Y-118665714D01*
X195683190Y-118618095D01*
X195730809Y-118570476D01*
X195778428Y-118475238D01*
X195778428Y-118284761D01*
X195730809Y-118189523D01*
X195683190Y-118141904D01*
X195587952Y-118094285D01*
%TO.C,C33*%
X195937142Y-90050857D02*
X195984761Y-90098476D01*
X196032380Y-90241333D01*
X196032380Y-90336571D01*
X195984761Y-90479428D01*
X195889523Y-90574666D01*
X195794285Y-90622285D01*
X195603809Y-90669904D01*
X195460952Y-90669904D01*
X195270476Y-90622285D01*
X195175238Y-90574666D01*
X195080000Y-90479428D01*
X195032380Y-90336571D01*
X195032380Y-90241333D01*
X195080000Y-90098476D01*
X195127619Y-90050857D01*
X195032380Y-89717523D02*
X195032380Y-89098476D01*
X195413333Y-89431809D01*
X195413333Y-89288952D01*
X195460952Y-89193714D01*
X195508571Y-89146095D01*
X195603809Y-89098476D01*
X195841904Y-89098476D01*
X195937142Y-89146095D01*
X195984761Y-89193714D01*
X196032380Y-89288952D01*
X196032380Y-89574666D01*
X195984761Y-89669904D01*
X195937142Y-89717523D01*
X195032380Y-88765142D02*
X195032380Y-88146095D01*
X195413333Y-88479428D01*
X195413333Y-88336571D01*
X195460952Y-88241333D01*
X195508571Y-88193714D01*
X195603809Y-88146095D01*
X195841904Y-88146095D01*
X195937142Y-88193714D01*
X195984761Y-88241333D01*
X196032380Y-88336571D01*
X196032380Y-88622285D01*
X195984761Y-88717523D01*
X195937142Y-88765142D01*
%TO.C,U10*%
X123231904Y-109053380D02*
X123231904Y-109862904D01*
X123279523Y-109958142D01*
X123327142Y-110005761D01*
X123422380Y-110053380D01*
X123612857Y-110053380D01*
X123708095Y-110005761D01*
X123755714Y-109958142D01*
X123803333Y-109862904D01*
X123803333Y-109053380D01*
X124803333Y-110053380D02*
X124231904Y-110053380D01*
X124517619Y-110053380D02*
X124517619Y-109053380D01*
X124422380Y-109196238D01*
X124327142Y-109291476D01*
X124231904Y-109339095D01*
X125422380Y-109053380D02*
X125517619Y-109053380D01*
X125612857Y-109101000D01*
X125660476Y-109148619D01*
X125708095Y-109243857D01*
X125755714Y-109434333D01*
X125755714Y-109672428D01*
X125708095Y-109862904D01*
X125660476Y-109958142D01*
X125612857Y-110005761D01*
X125517619Y-110053380D01*
X125422380Y-110053380D01*
X125327142Y-110005761D01*
X125279523Y-109958142D01*
X125231904Y-109862904D01*
X125184285Y-109672428D01*
X125184285Y-109434333D01*
X125231904Y-109243857D01*
X125279523Y-109148619D01*
X125327142Y-109101000D01*
X125422380Y-109053380D01*
%TO.C,C26*%
X97401142Y-103227142D02*
X97353523Y-103274761D01*
X97210666Y-103322380D01*
X97115428Y-103322380D01*
X96972571Y-103274761D01*
X96877333Y-103179523D01*
X96829714Y-103084285D01*
X96782095Y-102893809D01*
X96782095Y-102750952D01*
X96829714Y-102560476D01*
X96877333Y-102465238D01*
X96972571Y-102370000D01*
X97115428Y-102322380D01*
X97210666Y-102322380D01*
X97353523Y-102370000D01*
X97401142Y-102417619D01*
X97782095Y-102417619D02*
X97829714Y-102370000D01*
X97924952Y-102322380D01*
X98163047Y-102322380D01*
X98258285Y-102370000D01*
X98305904Y-102417619D01*
X98353523Y-102512857D01*
X98353523Y-102608095D01*
X98305904Y-102750952D01*
X97734476Y-103322380D01*
X98353523Y-103322380D01*
X99210666Y-102322380D02*
X99020190Y-102322380D01*
X98924952Y-102370000D01*
X98877333Y-102417619D01*
X98782095Y-102560476D01*
X98734476Y-102750952D01*
X98734476Y-103131904D01*
X98782095Y-103227142D01*
X98829714Y-103274761D01*
X98924952Y-103322380D01*
X99115428Y-103322380D01*
X99210666Y-103274761D01*
X99258285Y-103227142D01*
X99305904Y-103131904D01*
X99305904Y-102893809D01*
X99258285Y-102798571D01*
X99210666Y-102750952D01*
X99115428Y-102703333D01*
X98924952Y-102703333D01*
X98829714Y-102750952D01*
X98782095Y-102798571D01*
X98734476Y-102893809D01*
%TO.C,C24*%
X129405142Y-42902142D02*
X129357523Y-42949761D01*
X129214666Y-42997380D01*
X129119428Y-42997380D01*
X128976571Y-42949761D01*
X128881333Y-42854523D01*
X128833714Y-42759285D01*
X128786095Y-42568809D01*
X128786095Y-42425952D01*
X128833714Y-42235476D01*
X128881333Y-42140238D01*
X128976571Y-42045000D01*
X129119428Y-41997380D01*
X129214666Y-41997380D01*
X129357523Y-42045000D01*
X129405142Y-42092619D01*
X129786095Y-42092619D02*
X129833714Y-42045000D01*
X129928952Y-41997380D01*
X130167047Y-41997380D01*
X130262285Y-42045000D01*
X130309904Y-42092619D01*
X130357523Y-42187857D01*
X130357523Y-42283095D01*
X130309904Y-42425952D01*
X129738476Y-42997380D01*
X130357523Y-42997380D01*
X131214666Y-42330714D02*
X131214666Y-42997380D01*
X130976571Y-41949761D02*
X130738476Y-42664047D01*
X131357523Y-42664047D01*
%TO.C,C35*%
X195937142Y-115450857D02*
X195984761Y-115498476D01*
X196032380Y-115641333D01*
X196032380Y-115736571D01*
X195984761Y-115879428D01*
X195889523Y-115974666D01*
X195794285Y-116022285D01*
X195603809Y-116069904D01*
X195460952Y-116069904D01*
X195270476Y-116022285D01*
X195175238Y-115974666D01*
X195080000Y-115879428D01*
X195032380Y-115736571D01*
X195032380Y-115641333D01*
X195080000Y-115498476D01*
X195127619Y-115450857D01*
X195032380Y-115117523D02*
X195032380Y-114498476D01*
X195413333Y-114831809D01*
X195413333Y-114688952D01*
X195460952Y-114593714D01*
X195508571Y-114546095D01*
X195603809Y-114498476D01*
X195841904Y-114498476D01*
X195937142Y-114546095D01*
X195984761Y-114593714D01*
X196032380Y-114688952D01*
X196032380Y-114974666D01*
X195984761Y-115069904D01*
X195937142Y-115117523D01*
X195032380Y-113593714D02*
X195032380Y-114069904D01*
X195508571Y-114117523D01*
X195460952Y-114069904D01*
X195413333Y-113974666D01*
X195413333Y-113736571D01*
X195460952Y-113641333D01*
X195508571Y-113593714D01*
X195603809Y-113546095D01*
X195841904Y-113546095D01*
X195937142Y-113593714D01*
X195984761Y-113641333D01*
X196032380Y-113736571D01*
X196032380Y-113974666D01*
X195984761Y-114069904D01*
X195937142Y-114117523D01*
%TO.C,C2*%
X225147142Y-25566666D02*
X225194761Y-25614285D01*
X225242380Y-25757142D01*
X225242380Y-25852380D01*
X225194761Y-25995238D01*
X225099523Y-26090476D01*
X225004285Y-26138095D01*
X224813809Y-26185714D01*
X224670952Y-26185714D01*
X224480476Y-26138095D01*
X224385238Y-26090476D01*
X224290000Y-25995238D01*
X224242380Y-25852380D01*
X224242380Y-25757142D01*
X224290000Y-25614285D01*
X224337619Y-25566666D01*
X224337619Y-25185714D02*
X224290000Y-25138095D01*
X224242380Y-25042857D01*
X224242380Y-24804761D01*
X224290000Y-24709523D01*
X224337619Y-24661904D01*
X224432857Y-24614285D01*
X224528095Y-24614285D01*
X224670952Y-24661904D01*
X225242380Y-25233333D01*
X225242380Y-24614285D01*
%TO.C,C10*%
X195937142Y-64854057D02*
X195984761Y-64901676D01*
X196032380Y-65044533D01*
X196032380Y-65139771D01*
X195984761Y-65282628D01*
X195889523Y-65377866D01*
X195794285Y-65425485D01*
X195603809Y-65473104D01*
X195460952Y-65473104D01*
X195270476Y-65425485D01*
X195175238Y-65377866D01*
X195080000Y-65282628D01*
X195032380Y-65139771D01*
X195032380Y-65044533D01*
X195080000Y-64901676D01*
X195127619Y-64854057D01*
X196032380Y-63901676D02*
X196032380Y-64473104D01*
X196032380Y-64187390D02*
X195032380Y-64187390D01*
X195175238Y-64282628D01*
X195270476Y-64377866D01*
X195318095Y-64473104D01*
X195032380Y-63282628D02*
X195032380Y-63187390D01*
X195080000Y-63092152D01*
X195127619Y-63044533D01*
X195222857Y-62996914D01*
X195413333Y-62949295D01*
X195651428Y-62949295D01*
X195841904Y-62996914D01*
X195937142Y-63044533D01*
X195984761Y-63092152D01*
X196032380Y-63187390D01*
X196032380Y-63282628D01*
X195984761Y-63377866D01*
X195937142Y-63425485D01*
X195841904Y-63473104D01*
X195651428Y-63520723D01*
X195413333Y-63520723D01*
X195222857Y-63473104D01*
X195127619Y-63425485D01*
X195080000Y-63377866D01*
X195032380Y-63282628D01*
%TO.C,U8*%
X86868095Y-103846380D02*
X86868095Y-104655904D01*
X86915714Y-104751142D01*
X86963333Y-104798761D01*
X87058571Y-104846380D01*
X87249047Y-104846380D01*
X87344285Y-104798761D01*
X87391904Y-104751142D01*
X87439523Y-104655904D01*
X87439523Y-103846380D01*
X88058571Y-104274952D02*
X87963333Y-104227333D01*
X87915714Y-104179714D01*
X87868095Y-104084476D01*
X87868095Y-104036857D01*
X87915714Y-103941619D01*
X87963333Y-103894000D01*
X88058571Y-103846380D01*
X88249047Y-103846380D01*
X88344285Y-103894000D01*
X88391904Y-103941619D01*
X88439523Y-104036857D01*
X88439523Y-104084476D01*
X88391904Y-104179714D01*
X88344285Y-104227333D01*
X88249047Y-104274952D01*
X88058571Y-104274952D01*
X87963333Y-104322571D01*
X87915714Y-104370190D01*
X87868095Y-104465428D01*
X87868095Y-104655904D01*
X87915714Y-104751142D01*
X87963333Y-104798761D01*
X88058571Y-104846380D01*
X88249047Y-104846380D01*
X88344285Y-104798761D01*
X88391904Y-104751142D01*
X88439523Y-104655904D01*
X88439523Y-104465428D01*
X88391904Y-104370190D01*
X88344285Y-104322571D01*
X88249047Y-104274952D01*
%TO.C,U15*%
X92797380Y-86963095D02*
X93606904Y-86963095D01*
X93702142Y-86915476D01*
X93749761Y-86867857D01*
X93797380Y-86772619D01*
X93797380Y-86582142D01*
X93749761Y-86486904D01*
X93702142Y-86439285D01*
X93606904Y-86391666D01*
X92797380Y-86391666D01*
X93797380Y-85391666D02*
X93797380Y-85963095D01*
X93797380Y-85677380D02*
X92797380Y-85677380D01*
X92940238Y-85772619D01*
X93035476Y-85867857D01*
X93083095Y-85963095D01*
X92797380Y-84486904D02*
X92797380Y-84963095D01*
X93273571Y-85010714D01*
X93225952Y-84963095D01*
X93178333Y-84867857D01*
X93178333Y-84629761D01*
X93225952Y-84534523D01*
X93273571Y-84486904D01*
X93368809Y-84439285D01*
X93606904Y-84439285D01*
X93702142Y-84486904D01*
X93749761Y-84534523D01*
X93797380Y-84629761D01*
X93797380Y-84867857D01*
X93749761Y-84963095D01*
X93702142Y-85010714D01*
%TO.C,C32*%
X195987942Y-77655657D02*
X196035561Y-77703276D01*
X196083180Y-77846133D01*
X196083180Y-77941371D01*
X196035561Y-78084228D01*
X195940323Y-78179466D01*
X195845085Y-78227085D01*
X195654609Y-78274704D01*
X195511752Y-78274704D01*
X195321276Y-78227085D01*
X195226038Y-78179466D01*
X195130800Y-78084228D01*
X195083180Y-77941371D01*
X195083180Y-77846133D01*
X195130800Y-77703276D01*
X195178419Y-77655657D01*
X195083180Y-77322323D02*
X195083180Y-76703276D01*
X195464133Y-77036609D01*
X195464133Y-76893752D01*
X195511752Y-76798514D01*
X195559371Y-76750895D01*
X195654609Y-76703276D01*
X195892704Y-76703276D01*
X195987942Y-76750895D01*
X196035561Y-76798514D01*
X196083180Y-76893752D01*
X196083180Y-77179466D01*
X196035561Y-77274704D01*
X195987942Y-77322323D01*
X195178419Y-76322323D02*
X195130800Y-76274704D01*
X195083180Y-76179466D01*
X195083180Y-75941371D01*
X195130800Y-75846133D01*
X195178419Y-75798514D01*
X195273657Y-75750895D01*
X195368895Y-75750895D01*
X195511752Y-75798514D01*
X196083180Y-76369942D01*
X196083180Y-75750895D01*
%TO.C,C6*%
X225147142Y-50976666D02*
X225194761Y-51024285D01*
X225242380Y-51167142D01*
X225242380Y-51262380D01*
X225194761Y-51405238D01*
X225099523Y-51500476D01*
X225004285Y-51548095D01*
X224813809Y-51595714D01*
X224670952Y-51595714D01*
X224480476Y-51548095D01*
X224385238Y-51500476D01*
X224290000Y-51405238D01*
X224242380Y-51262380D01*
X224242380Y-51167142D01*
X224290000Y-51024285D01*
X224337619Y-50976666D01*
X224242380Y-50119523D02*
X224242380Y-50310000D01*
X224290000Y-50405238D01*
X224337619Y-50452857D01*
X224480476Y-50548095D01*
X224670952Y-50595714D01*
X225051904Y-50595714D01*
X225147142Y-50548095D01*
X225194761Y-50500476D01*
X225242380Y-50405238D01*
X225242380Y-50214761D01*
X225194761Y-50119523D01*
X225147142Y-50071904D01*
X225051904Y-50024285D01*
X224813809Y-50024285D01*
X224718571Y-50071904D01*
X224670952Y-50119523D01*
X224623333Y-50214761D01*
X224623333Y-50405238D01*
X224670952Y-50500476D01*
X224718571Y-50548095D01*
X224813809Y-50595714D01*
%TO.C,C46*%
X61952142Y-122689857D02*
X61999761Y-122737476D01*
X62047380Y-122880333D01*
X62047380Y-122975571D01*
X61999761Y-123118428D01*
X61904523Y-123213666D01*
X61809285Y-123261285D01*
X61618809Y-123308904D01*
X61475952Y-123308904D01*
X61285476Y-123261285D01*
X61190238Y-123213666D01*
X61095000Y-123118428D01*
X61047380Y-122975571D01*
X61047380Y-122880333D01*
X61095000Y-122737476D01*
X61142619Y-122689857D01*
X61380714Y-121832714D02*
X62047380Y-121832714D01*
X60999761Y-122070809D02*
X61714047Y-122308904D01*
X61714047Y-121689857D01*
X61047380Y-120880333D02*
X61047380Y-121070809D01*
X61095000Y-121166047D01*
X61142619Y-121213666D01*
X61285476Y-121308904D01*
X61475952Y-121356523D01*
X61856904Y-121356523D01*
X61952142Y-121308904D01*
X61999761Y-121261285D01*
X62047380Y-121166047D01*
X62047380Y-120975571D01*
X61999761Y-120880333D01*
X61952142Y-120832714D01*
X61856904Y-120785095D01*
X61618809Y-120785095D01*
X61523571Y-120832714D01*
X61475952Y-120880333D01*
X61428333Y-120975571D01*
X61428333Y-121166047D01*
X61475952Y-121261285D01*
X61523571Y-121308904D01*
X61618809Y-121356523D01*
%TO.C,U24*%
X224242380Y-57118095D02*
X225051904Y-57118095D01*
X225147142Y-57070476D01*
X225194761Y-57022857D01*
X225242380Y-56927619D01*
X225242380Y-56737142D01*
X225194761Y-56641904D01*
X225147142Y-56594285D01*
X225051904Y-56546666D01*
X224242380Y-56546666D01*
X224337619Y-56118095D02*
X224290000Y-56070476D01*
X224242380Y-55975238D01*
X224242380Y-55737142D01*
X224290000Y-55641904D01*
X224337619Y-55594285D01*
X224432857Y-55546666D01*
X224528095Y-55546666D01*
X224670952Y-55594285D01*
X225242380Y-56165714D01*
X225242380Y-55546666D01*
X224575714Y-54689523D02*
X225242380Y-54689523D01*
X224194761Y-54927619D02*
X224909047Y-55165714D01*
X224909047Y-54546666D01*
%TO.C,U5*%
X121793095Y-19772380D02*
X121793095Y-20581904D01*
X121840714Y-20677142D01*
X121888333Y-20724761D01*
X121983571Y-20772380D01*
X122174047Y-20772380D01*
X122269285Y-20724761D01*
X122316904Y-20677142D01*
X122364523Y-20581904D01*
X122364523Y-19772380D01*
X123316904Y-19772380D02*
X122840714Y-19772380D01*
X122793095Y-20248571D01*
X122840714Y-20200952D01*
X122935952Y-20153333D01*
X123174047Y-20153333D01*
X123269285Y-20200952D01*
X123316904Y-20248571D01*
X123364523Y-20343809D01*
X123364523Y-20581904D01*
X123316904Y-20677142D01*
X123269285Y-20724761D01*
X123174047Y-20772380D01*
X122935952Y-20772380D01*
X122840714Y-20724761D01*
X122793095Y-20677142D01*
%TO.C,U32*%
X224242380Y-107918095D02*
X225051904Y-107918095D01*
X225147142Y-107870476D01*
X225194761Y-107822857D01*
X225242380Y-107727619D01*
X225242380Y-107537142D01*
X225194761Y-107441904D01*
X225147142Y-107394285D01*
X225051904Y-107346666D01*
X224242380Y-107346666D01*
X224242380Y-106965714D02*
X224242380Y-106346666D01*
X224623333Y-106680000D01*
X224623333Y-106537142D01*
X224670952Y-106441904D01*
X224718571Y-106394285D01*
X224813809Y-106346666D01*
X225051904Y-106346666D01*
X225147142Y-106394285D01*
X225194761Y-106441904D01*
X225242380Y-106537142D01*
X225242380Y-106822857D01*
X225194761Y-106918095D01*
X225147142Y-106965714D01*
X224337619Y-105965714D02*
X224290000Y-105918095D01*
X224242380Y-105822857D01*
X224242380Y-105584761D01*
X224290000Y-105489523D01*
X224337619Y-105441904D01*
X224432857Y-105394285D01*
X224528095Y-105394285D01*
X224670952Y-105441904D01*
X225242380Y-106013333D01*
X225242380Y-105394285D01*
%TO.C,C20*%
X93702142Y-53728857D02*
X93749761Y-53776476D01*
X93797380Y-53919333D01*
X93797380Y-54014571D01*
X93749761Y-54157428D01*
X93654523Y-54252666D01*
X93559285Y-54300285D01*
X93368809Y-54347904D01*
X93225952Y-54347904D01*
X93035476Y-54300285D01*
X92940238Y-54252666D01*
X92845000Y-54157428D01*
X92797380Y-54014571D01*
X92797380Y-53919333D01*
X92845000Y-53776476D01*
X92892619Y-53728857D01*
X92892619Y-53347904D02*
X92845000Y-53300285D01*
X92797380Y-53205047D01*
X92797380Y-52966952D01*
X92845000Y-52871714D01*
X92892619Y-52824095D01*
X92987857Y-52776476D01*
X93083095Y-52776476D01*
X93225952Y-52824095D01*
X93797380Y-53395523D01*
X93797380Y-52776476D01*
X92797380Y-52157428D02*
X92797380Y-52062190D01*
X92845000Y-51966952D01*
X92892619Y-51919333D01*
X92987857Y-51871714D01*
X93178333Y-51824095D01*
X93416428Y-51824095D01*
X93606904Y-51871714D01*
X93702142Y-51919333D01*
X93749761Y-51966952D01*
X93797380Y-52062190D01*
X93797380Y-52157428D01*
X93749761Y-52252666D01*
X93702142Y-52300285D01*
X93606904Y-52347904D01*
X93416428Y-52395523D01*
X93178333Y-52395523D01*
X92987857Y-52347904D01*
X92892619Y-52300285D01*
X92845000Y-52252666D01*
X92797380Y-52157428D01*
%TO.C,U26*%
X195057780Y-82492695D02*
X195867304Y-82492695D01*
X195962542Y-82445076D01*
X196010161Y-82397457D01*
X196057780Y-82302219D01*
X196057780Y-82111742D01*
X196010161Y-82016504D01*
X195962542Y-81968885D01*
X195867304Y-81921266D01*
X195057780Y-81921266D01*
X195153019Y-81492695D02*
X195105400Y-81445076D01*
X195057780Y-81349838D01*
X195057780Y-81111742D01*
X195105400Y-81016504D01*
X195153019Y-80968885D01*
X195248257Y-80921266D01*
X195343495Y-80921266D01*
X195486352Y-80968885D01*
X196057780Y-81540314D01*
X196057780Y-80921266D01*
X195057780Y-80064123D02*
X195057780Y-80254600D01*
X195105400Y-80349838D01*
X195153019Y-80397457D01*
X195295876Y-80492695D01*
X195486352Y-80540314D01*
X195867304Y-80540314D01*
X195962542Y-80492695D01*
X196010161Y-80445076D01*
X196057780Y-80349838D01*
X196057780Y-80159361D01*
X196010161Y-80064123D01*
X195962542Y-80016504D01*
X195867304Y-79968885D01*
X195629209Y-79968885D01*
X195533971Y-80016504D01*
X195486352Y-80064123D01*
X195438733Y-80159361D01*
X195438733Y-80349838D01*
X195486352Y-80445076D01*
X195533971Y-80492695D01*
X195629209Y-80540314D01*
%TO.C,C25*%
X129151142Y-100433142D02*
X129103523Y-100480761D01*
X128960666Y-100528380D01*
X128865428Y-100528380D01*
X128722571Y-100480761D01*
X128627333Y-100385523D01*
X128579714Y-100290285D01*
X128532095Y-100099809D01*
X128532095Y-99956952D01*
X128579714Y-99766476D01*
X128627333Y-99671238D01*
X128722571Y-99576000D01*
X128865428Y-99528380D01*
X128960666Y-99528380D01*
X129103523Y-99576000D01*
X129151142Y-99623619D01*
X129532095Y-99623619D02*
X129579714Y-99576000D01*
X129674952Y-99528380D01*
X129913047Y-99528380D01*
X130008285Y-99576000D01*
X130055904Y-99623619D01*
X130103523Y-99718857D01*
X130103523Y-99814095D01*
X130055904Y-99956952D01*
X129484476Y-100528380D01*
X130103523Y-100528380D01*
X131008285Y-99528380D02*
X130532095Y-99528380D01*
X130484476Y-100004571D01*
X130532095Y-99956952D01*
X130627333Y-99909333D01*
X130865428Y-99909333D01*
X130960666Y-99956952D01*
X131008285Y-100004571D01*
X131055904Y-100099809D01*
X131055904Y-100337904D01*
X131008285Y-100433142D01*
X130960666Y-100480761D01*
X130865428Y-100528380D01*
X130627333Y-100528380D01*
X130532095Y-100480761D01*
X130484476Y-100433142D01*
%TO.C,C9*%
X250658333Y-46077142D02*
X250610714Y-46124761D01*
X250467857Y-46172380D01*
X250372619Y-46172380D01*
X250229761Y-46124761D01*
X250134523Y-46029523D01*
X250086904Y-45934285D01*
X250039285Y-45743809D01*
X250039285Y-45600952D01*
X250086904Y-45410476D01*
X250134523Y-45315238D01*
X250229761Y-45220000D01*
X250372619Y-45172380D01*
X250467857Y-45172380D01*
X250610714Y-45220000D01*
X250658333Y-45267619D01*
X251134523Y-46172380D02*
X251325000Y-46172380D01*
X251420238Y-46124761D01*
X251467857Y-46077142D01*
X251563095Y-45934285D01*
X251610714Y-45743809D01*
X251610714Y-45362857D01*
X251563095Y-45267619D01*
X251515476Y-45220000D01*
X251420238Y-45172380D01*
X251229761Y-45172380D01*
X251134523Y-45220000D01*
X251086904Y-45267619D01*
X251039285Y-45362857D01*
X251039285Y-45600952D01*
X251086904Y-45696190D01*
X251134523Y-45743809D01*
X251229761Y-45791428D01*
X251420238Y-45791428D01*
X251515476Y-45743809D01*
X251563095Y-45696190D01*
X251610714Y-45600952D01*
%TO.C,R4*%
X136977380Y-40806666D02*
X136501190Y-41140000D01*
X136977380Y-41378095D02*
X135977380Y-41378095D01*
X135977380Y-40997142D01*
X136025000Y-40901904D01*
X136072619Y-40854285D01*
X136167857Y-40806666D01*
X136310714Y-40806666D01*
X136405952Y-40854285D01*
X136453571Y-40901904D01*
X136501190Y-40997142D01*
X136501190Y-41378095D01*
X136310714Y-39949523D02*
X136977380Y-39949523D01*
X135929761Y-40187619D02*
X136644047Y-40425714D01*
X136644047Y-39806666D01*
%TO.C,C34*%
X194937142Y-102592142D02*
X194889523Y-102639761D01*
X194746666Y-102687380D01*
X194651428Y-102687380D01*
X194508571Y-102639761D01*
X194413333Y-102544523D01*
X194365714Y-102449285D01*
X194318095Y-102258809D01*
X194318095Y-102115952D01*
X194365714Y-101925476D01*
X194413333Y-101830238D01*
X194508571Y-101735000D01*
X194651428Y-101687380D01*
X194746666Y-101687380D01*
X194889523Y-101735000D01*
X194937142Y-101782619D01*
X195270476Y-101687380D02*
X195889523Y-101687380D01*
X195556190Y-102068333D01*
X195699047Y-102068333D01*
X195794285Y-102115952D01*
X195841904Y-102163571D01*
X195889523Y-102258809D01*
X195889523Y-102496904D01*
X195841904Y-102592142D01*
X195794285Y-102639761D01*
X195699047Y-102687380D01*
X195413333Y-102687380D01*
X195318095Y-102639761D01*
X195270476Y-102592142D01*
X196746666Y-102020714D02*
X196746666Y-102687380D01*
X196508571Y-101639761D02*
X196270476Y-102354047D01*
X196889523Y-102354047D01*
%TO.C,U11*%
X154336904Y-19982380D02*
X154336904Y-20791904D01*
X154384523Y-20887142D01*
X154432142Y-20934761D01*
X154527380Y-20982380D01*
X154717857Y-20982380D01*
X154813095Y-20934761D01*
X154860714Y-20887142D01*
X154908333Y-20791904D01*
X154908333Y-19982380D01*
X155908333Y-20982380D02*
X155336904Y-20982380D01*
X155622619Y-20982380D02*
X155622619Y-19982380D01*
X155527380Y-20125238D01*
X155432142Y-20220476D01*
X155336904Y-20268095D01*
X156860714Y-20982380D02*
X156289285Y-20982380D01*
X156575000Y-20982380D02*
X156575000Y-19982380D01*
X156479761Y-20125238D01*
X156384523Y-20220476D01*
X156289285Y-20268095D01*
%TO.C,C40*%
X249801142Y-84304142D02*
X249753523Y-84351761D01*
X249610666Y-84399380D01*
X249515428Y-84399380D01*
X249372571Y-84351761D01*
X249277333Y-84256523D01*
X249229714Y-84161285D01*
X249182095Y-83970809D01*
X249182095Y-83827952D01*
X249229714Y-83637476D01*
X249277333Y-83542238D01*
X249372571Y-83447000D01*
X249515428Y-83399380D01*
X249610666Y-83399380D01*
X249753523Y-83447000D01*
X249801142Y-83494619D01*
X250658285Y-83732714D02*
X250658285Y-84399380D01*
X250420190Y-83351761D02*
X250182095Y-84066047D01*
X250801142Y-84066047D01*
X251372571Y-83399380D02*
X251467809Y-83399380D01*
X251563047Y-83447000D01*
X251610666Y-83494619D01*
X251658285Y-83589857D01*
X251705904Y-83780333D01*
X251705904Y-84018428D01*
X251658285Y-84208904D01*
X251610666Y-84304142D01*
X251563047Y-84351761D01*
X251467809Y-84399380D01*
X251372571Y-84399380D01*
X251277333Y-84351761D01*
X251229714Y-84304142D01*
X251182095Y-84208904D01*
X251134476Y-84018428D01*
X251134476Y-83780333D01*
X251182095Y-83589857D01*
X251229714Y-83494619D01*
X251277333Y-83447000D01*
X251372571Y-83399380D01*
%TO.C,C50*%
X61698142Y-97797857D02*
X61745761Y-97845476D01*
X61793380Y-97988333D01*
X61793380Y-98083571D01*
X61745761Y-98226428D01*
X61650523Y-98321666D01*
X61555285Y-98369285D01*
X61364809Y-98416904D01*
X61221952Y-98416904D01*
X61031476Y-98369285D01*
X60936238Y-98321666D01*
X60841000Y-98226428D01*
X60793380Y-98083571D01*
X60793380Y-97988333D01*
X60841000Y-97845476D01*
X60888619Y-97797857D01*
X60793380Y-96893095D02*
X60793380Y-97369285D01*
X61269571Y-97416904D01*
X61221952Y-97369285D01*
X61174333Y-97274047D01*
X61174333Y-97035952D01*
X61221952Y-96940714D01*
X61269571Y-96893095D01*
X61364809Y-96845476D01*
X61602904Y-96845476D01*
X61698142Y-96893095D01*
X61745761Y-96940714D01*
X61793380Y-97035952D01*
X61793380Y-97274047D01*
X61745761Y-97369285D01*
X61698142Y-97416904D01*
X60793380Y-96226428D02*
X60793380Y-96131190D01*
X60841000Y-96035952D01*
X60888619Y-95988333D01*
X60983857Y-95940714D01*
X61174333Y-95893095D01*
X61412428Y-95893095D01*
X61602904Y-95940714D01*
X61698142Y-95988333D01*
X61745761Y-96035952D01*
X61793380Y-96131190D01*
X61793380Y-96226428D01*
X61745761Y-96321666D01*
X61698142Y-96369285D01*
X61602904Y-96416904D01*
X61412428Y-96464523D01*
X61174333Y-96464523D01*
X60983857Y-96416904D01*
X60888619Y-96369285D01*
X60841000Y-96321666D01*
X60793380Y-96226428D01*
%TO.C,C22*%
X128897142Y-93194142D02*
X128849523Y-93241761D01*
X128706666Y-93289380D01*
X128611428Y-93289380D01*
X128468571Y-93241761D01*
X128373333Y-93146523D01*
X128325714Y-93051285D01*
X128278095Y-92860809D01*
X128278095Y-92717952D01*
X128325714Y-92527476D01*
X128373333Y-92432238D01*
X128468571Y-92337000D01*
X128611428Y-92289380D01*
X128706666Y-92289380D01*
X128849523Y-92337000D01*
X128897142Y-92384619D01*
X129278095Y-92384619D02*
X129325714Y-92337000D01*
X129420952Y-92289380D01*
X129659047Y-92289380D01*
X129754285Y-92337000D01*
X129801904Y-92384619D01*
X129849523Y-92479857D01*
X129849523Y-92575095D01*
X129801904Y-92717952D01*
X129230476Y-93289380D01*
X129849523Y-93289380D01*
X130230476Y-92384619D02*
X130278095Y-92337000D01*
X130373333Y-92289380D01*
X130611428Y-92289380D01*
X130706666Y-92337000D01*
X130754285Y-92384619D01*
X130801904Y-92479857D01*
X130801904Y-92575095D01*
X130754285Y-92717952D01*
X130182857Y-93289380D01*
X130801904Y-93289380D01*
%TO.C,JP1*%
X153344666Y-103592380D02*
X153344666Y-104306666D01*
X153297047Y-104449523D01*
X153201809Y-104544761D01*
X153058952Y-104592380D01*
X152963714Y-104592380D01*
X153820857Y-104592380D02*
X153820857Y-103592380D01*
X154201809Y-103592380D01*
X154297047Y-103640000D01*
X154344666Y-103687619D01*
X154392285Y-103782857D01*
X154392285Y-103925714D01*
X154344666Y-104020952D01*
X154297047Y-104068571D01*
X154201809Y-104116190D01*
X153820857Y-104116190D01*
X155344666Y-104592380D02*
X154773238Y-104592380D01*
X155058952Y-104592380D02*
X155058952Y-103592380D01*
X154963714Y-103735238D01*
X154868476Y-103830476D01*
X154773238Y-103878095D01*
%TO.C,C36*%
X225167142Y-77350857D02*
X225214761Y-77398476D01*
X225262380Y-77541333D01*
X225262380Y-77636571D01*
X225214761Y-77779428D01*
X225119523Y-77874666D01*
X225024285Y-77922285D01*
X224833809Y-77969904D01*
X224690952Y-77969904D01*
X224500476Y-77922285D01*
X224405238Y-77874666D01*
X224310000Y-77779428D01*
X224262380Y-77636571D01*
X224262380Y-77541333D01*
X224310000Y-77398476D01*
X224357619Y-77350857D01*
X224262380Y-77017523D02*
X224262380Y-76398476D01*
X224643333Y-76731809D01*
X224643333Y-76588952D01*
X224690952Y-76493714D01*
X224738571Y-76446095D01*
X224833809Y-76398476D01*
X225071904Y-76398476D01*
X225167142Y-76446095D01*
X225214761Y-76493714D01*
X225262380Y-76588952D01*
X225262380Y-76874666D01*
X225214761Y-76969904D01*
X225167142Y-77017523D01*
X224262380Y-75541333D02*
X224262380Y-75731809D01*
X224310000Y-75827047D01*
X224357619Y-75874666D01*
X224500476Y-75969904D01*
X224690952Y-76017523D01*
X225071904Y-76017523D01*
X225167142Y-75969904D01*
X225214761Y-75922285D01*
X225262380Y-75827047D01*
X225262380Y-75636571D01*
X225214761Y-75541333D01*
X225167142Y-75493714D01*
X225071904Y-75446095D01*
X224833809Y-75446095D01*
X224738571Y-75493714D01*
X224690952Y-75541333D01*
X224643333Y-75636571D01*
X224643333Y-75827047D01*
X224690952Y-75922285D01*
X224738571Y-75969904D01*
X224833809Y-76017523D01*
%TO.C,C7*%
X250658333Y-33504142D02*
X250610714Y-33551761D01*
X250467857Y-33599380D01*
X250372619Y-33599380D01*
X250229761Y-33551761D01*
X250134523Y-33456523D01*
X250086904Y-33361285D01*
X250039285Y-33170809D01*
X250039285Y-33027952D01*
X250086904Y-32837476D01*
X250134523Y-32742238D01*
X250229761Y-32647000D01*
X250372619Y-32599380D01*
X250467857Y-32599380D01*
X250610714Y-32647000D01*
X250658333Y-32694619D01*
X250991666Y-32599380D02*
X251658333Y-32599380D01*
X251229761Y-33599380D01*
%TO.C,U21*%
X135215380Y-122015095D02*
X136024904Y-122015095D01*
X136120142Y-121967476D01*
X136167761Y-121919857D01*
X136215380Y-121824619D01*
X136215380Y-121634142D01*
X136167761Y-121538904D01*
X136120142Y-121491285D01*
X136024904Y-121443666D01*
X135215380Y-121443666D01*
X135310619Y-121015095D02*
X135263000Y-120967476D01*
X135215380Y-120872238D01*
X135215380Y-120634142D01*
X135263000Y-120538904D01*
X135310619Y-120491285D01*
X135405857Y-120443666D01*
X135501095Y-120443666D01*
X135643952Y-120491285D01*
X136215380Y-121062714D01*
X136215380Y-120443666D01*
X136215380Y-119491285D02*
X136215380Y-120062714D01*
X136215380Y-119777000D02*
X135215380Y-119777000D01*
X135358238Y-119872238D01*
X135453476Y-119967476D01*
X135501095Y-120062714D01*
%TO.C,R6*%
X171267380Y-30646666D02*
X170791190Y-30980000D01*
X171267380Y-31218095D02*
X170267380Y-31218095D01*
X170267380Y-30837142D01*
X170315000Y-30741904D01*
X170362619Y-30694285D01*
X170457857Y-30646666D01*
X170600714Y-30646666D01*
X170695952Y-30694285D01*
X170743571Y-30741904D01*
X170791190Y-30837142D01*
X170791190Y-31218095D01*
X170267380Y-29789523D02*
X170267380Y-29980000D01*
X170315000Y-30075238D01*
X170362619Y-30122857D01*
X170505476Y-30218095D01*
X170695952Y-30265714D01*
X171076904Y-30265714D01*
X171172142Y-30218095D01*
X171219761Y-30170476D01*
X171267380Y-30075238D01*
X171267380Y-29884761D01*
X171219761Y-29789523D01*
X171172142Y-29741904D01*
X171076904Y-29694285D01*
X170838809Y-29694285D01*
X170743571Y-29741904D01*
X170695952Y-29789523D01*
X170648333Y-29884761D01*
X170648333Y-30075238D01*
X170695952Y-30170476D01*
X170743571Y-30218095D01*
X170838809Y-30265714D01*
%TO.C,U13*%
X175291904Y-44117380D02*
X175291904Y-44926904D01*
X175339523Y-45022142D01*
X175387142Y-45069761D01*
X175482380Y-45117380D01*
X175672857Y-45117380D01*
X175768095Y-45069761D01*
X175815714Y-45022142D01*
X175863333Y-44926904D01*
X175863333Y-44117380D01*
X176863333Y-45117380D02*
X176291904Y-45117380D01*
X176577619Y-45117380D02*
X176577619Y-44117380D01*
X176482380Y-44260238D01*
X176387142Y-44355476D01*
X176291904Y-44403095D01*
X177196666Y-44117380D02*
X177815714Y-44117380D01*
X177482380Y-44498333D01*
X177625238Y-44498333D01*
X177720476Y-44545952D01*
X177768095Y-44593571D01*
X177815714Y-44688809D01*
X177815714Y-44926904D01*
X177768095Y-45022142D01*
X177720476Y-45069761D01*
X177625238Y-45117380D01*
X177339523Y-45117380D01*
X177244285Y-45069761D01*
X177196666Y-45022142D01*
%TO.C,C1*%
X195962542Y-25541266D02*
X196010161Y-25588885D01*
X196057780Y-25731742D01*
X196057780Y-25826980D01*
X196010161Y-25969838D01*
X195914923Y-26065076D01*
X195819685Y-26112695D01*
X195629209Y-26160314D01*
X195486352Y-26160314D01*
X195295876Y-26112695D01*
X195200638Y-26065076D01*
X195105400Y-25969838D01*
X195057780Y-25826980D01*
X195057780Y-25731742D01*
X195105400Y-25588885D01*
X195153019Y-25541266D01*
X196057780Y-24588885D02*
X196057780Y-25160314D01*
X196057780Y-24874600D02*
X195057780Y-24874600D01*
X195200638Y-24969838D01*
X195295876Y-25065076D01*
X195343495Y-25160314D01*
%TO.C,C52*%
X61825142Y-110497857D02*
X61872761Y-110545476D01*
X61920380Y-110688333D01*
X61920380Y-110783571D01*
X61872761Y-110926428D01*
X61777523Y-111021666D01*
X61682285Y-111069285D01*
X61491809Y-111116904D01*
X61348952Y-111116904D01*
X61158476Y-111069285D01*
X61063238Y-111021666D01*
X60968000Y-110926428D01*
X60920380Y-110783571D01*
X60920380Y-110688333D01*
X60968000Y-110545476D01*
X61015619Y-110497857D01*
X60920380Y-109593095D02*
X60920380Y-110069285D01*
X61396571Y-110116904D01*
X61348952Y-110069285D01*
X61301333Y-109974047D01*
X61301333Y-109735952D01*
X61348952Y-109640714D01*
X61396571Y-109593095D01*
X61491809Y-109545476D01*
X61729904Y-109545476D01*
X61825142Y-109593095D01*
X61872761Y-109640714D01*
X61920380Y-109735952D01*
X61920380Y-109974047D01*
X61872761Y-110069285D01*
X61825142Y-110116904D01*
X61015619Y-109164523D02*
X60968000Y-109116904D01*
X60920380Y-109021666D01*
X60920380Y-108783571D01*
X60968000Y-108688333D01*
X61015619Y-108640714D01*
X61110857Y-108593095D01*
X61206095Y-108593095D01*
X61348952Y-108640714D01*
X61920380Y-109212142D01*
X61920380Y-108593095D01*
%TO.C,U36*%
X92924380Y-99663095D02*
X93733904Y-99663095D01*
X93829142Y-99615476D01*
X93876761Y-99567857D01*
X93924380Y-99472619D01*
X93924380Y-99282142D01*
X93876761Y-99186904D01*
X93829142Y-99139285D01*
X93733904Y-99091666D01*
X92924380Y-99091666D01*
X92924380Y-98710714D02*
X92924380Y-98091666D01*
X93305333Y-98425000D01*
X93305333Y-98282142D01*
X93352952Y-98186904D01*
X93400571Y-98139285D01*
X93495809Y-98091666D01*
X93733904Y-98091666D01*
X93829142Y-98139285D01*
X93876761Y-98186904D01*
X93924380Y-98282142D01*
X93924380Y-98567857D01*
X93876761Y-98663095D01*
X93829142Y-98710714D01*
X92924380Y-97234523D02*
X92924380Y-97425000D01*
X92972000Y-97520238D01*
X93019619Y-97567857D01*
X93162476Y-97663095D01*
X93352952Y-97710714D01*
X93733904Y-97710714D01*
X93829142Y-97663095D01*
X93876761Y-97615476D01*
X93924380Y-97520238D01*
X93924380Y-97329761D01*
X93876761Y-97234523D01*
X93829142Y-97186904D01*
X93733904Y-97139285D01*
X93495809Y-97139285D01*
X93400571Y-97186904D01*
X93352952Y-97234523D01*
X93305333Y-97329761D01*
X93305333Y-97520238D01*
X93352952Y-97615476D01*
X93400571Y-97663095D01*
X93495809Y-97710714D01*
%TO.C,C19*%
X185158142Y-103354142D02*
X185110523Y-103401761D01*
X184967666Y-103449380D01*
X184872428Y-103449380D01*
X184729571Y-103401761D01*
X184634333Y-103306523D01*
X184586714Y-103211285D01*
X184539095Y-103020809D01*
X184539095Y-102877952D01*
X184586714Y-102687476D01*
X184634333Y-102592238D01*
X184729571Y-102497000D01*
X184872428Y-102449380D01*
X184967666Y-102449380D01*
X185110523Y-102497000D01*
X185158142Y-102544619D01*
X186110523Y-103449380D02*
X185539095Y-103449380D01*
X185824809Y-103449380D02*
X185824809Y-102449380D01*
X185729571Y-102592238D01*
X185634333Y-102687476D01*
X185539095Y-102735095D01*
X186586714Y-103449380D02*
X186777190Y-103449380D01*
X186872428Y-103401761D01*
X186920047Y-103354142D01*
X187015285Y-103211285D01*
X187062904Y-103020809D01*
X187062904Y-102639857D01*
X187015285Y-102544619D01*
X186967666Y-102497000D01*
X186872428Y-102449380D01*
X186681952Y-102449380D01*
X186586714Y-102497000D01*
X186539095Y-102544619D01*
X186491476Y-102639857D01*
X186491476Y-102877952D01*
X186539095Y-102973190D01*
X186586714Y-103020809D01*
X186681952Y-103068428D01*
X186872428Y-103068428D01*
X186967666Y-103020809D01*
X187015285Y-102973190D01*
X187062904Y-102877952D01*
%TO.C,R7*%
X168092380Y-30646666D02*
X167616190Y-30980000D01*
X168092380Y-31218095D02*
X167092380Y-31218095D01*
X167092380Y-30837142D01*
X167140000Y-30741904D01*
X167187619Y-30694285D01*
X167282857Y-30646666D01*
X167425714Y-30646666D01*
X167520952Y-30694285D01*
X167568571Y-30741904D01*
X167616190Y-30837142D01*
X167616190Y-31218095D01*
X167092380Y-30313333D02*
X167092380Y-29646666D01*
X168092380Y-30075238D01*
%TO.C,U34*%
X64166904Y-114006380D02*
X64166904Y-114815904D01*
X64214523Y-114911142D01*
X64262142Y-114958761D01*
X64357380Y-115006380D01*
X64547857Y-115006380D01*
X64643095Y-114958761D01*
X64690714Y-114911142D01*
X64738333Y-114815904D01*
X64738333Y-114006380D01*
X65119285Y-114006380D02*
X65738333Y-114006380D01*
X65405000Y-114387333D01*
X65547857Y-114387333D01*
X65643095Y-114434952D01*
X65690714Y-114482571D01*
X65738333Y-114577809D01*
X65738333Y-114815904D01*
X65690714Y-114911142D01*
X65643095Y-114958761D01*
X65547857Y-115006380D01*
X65262142Y-115006380D01*
X65166904Y-114958761D01*
X65119285Y-114911142D01*
X66595476Y-114339714D02*
X66595476Y-115006380D01*
X66357380Y-113958761D02*
X66119285Y-114673047D01*
X66738333Y-114673047D01*
%TO.C,C5*%
X193143142Y-48426666D02*
X193190761Y-48474285D01*
X193238380Y-48617142D01*
X193238380Y-48712380D01*
X193190761Y-48855238D01*
X193095523Y-48950476D01*
X193000285Y-48998095D01*
X192809809Y-49045714D01*
X192666952Y-49045714D01*
X192476476Y-48998095D01*
X192381238Y-48950476D01*
X192286000Y-48855238D01*
X192238380Y-48712380D01*
X192238380Y-48617142D01*
X192286000Y-48474285D01*
X192333619Y-48426666D01*
X192238380Y-47521904D02*
X192238380Y-47998095D01*
X192714571Y-48045714D01*
X192666952Y-47998095D01*
X192619333Y-47902857D01*
X192619333Y-47664761D01*
X192666952Y-47569523D01*
X192714571Y-47521904D01*
X192809809Y-47474285D01*
X193047904Y-47474285D01*
X193143142Y-47521904D01*
X193190761Y-47569523D01*
X193238380Y-47664761D01*
X193238380Y-47902857D01*
X193190761Y-47998095D01*
X193143142Y-48045714D01*
%TO.C,C39*%
X225147142Y-115450857D02*
X225194761Y-115498476D01*
X225242380Y-115641333D01*
X225242380Y-115736571D01*
X225194761Y-115879428D01*
X225099523Y-115974666D01*
X225004285Y-116022285D01*
X224813809Y-116069904D01*
X224670952Y-116069904D01*
X224480476Y-116022285D01*
X224385238Y-115974666D01*
X224290000Y-115879428D01*
X224242380Y-115736571D01*
X224242380Y-115641333D01*
X224290000Y-115498476D01*
X224337619Y-115450857D01*
X224242380Y-115117523D02*
X224242380Y-114498476D01*
X224623333Y-114831809D01*
X224623333Y-114688952D01*
X224670952Y-114593714D01*
X224718571Y-114546095D01*
X224813809Y-114498476D01*
X225051904Y-114498476D01*
X225147142Y-114546095D01*
X225194761Y-114593714D01*
X225242380Y-114688952D01*
X225242380Y-114974666D01*
X225194761Y-115069904D01*
X225147142Y-115117523D01*
X225242380Y-114022285D02*
X225242380Y-113831809D01*
X225194761Y-113736571D01*
X225147142Y-113688952D01*
X225004285Y-113593714D01*
X224813809Y-113546095D01*
X224432857Y-113546095D01*
X224337619Y-113593714D01*
X224290000Y-113641333D01*
X224242380Y-113736571D01*
X224242380Y-113927047D01*
X224290000Y-114022285D01*
X224337619Y-114069904D01*
X224432857Y-114117523D01*
X224670952Y-114117523D01*
X224766190Y-114069904D01*
X224813809Y-114022285D01*
X224861428Y-113927047D01*
X224861428Y-113736571D01*
X224813809Y-113641333D01*
X224766190Y-113593714D01*
X224670952Y-113546095D01*
%TO.C,C47*%
X67429142Y-113133142D02*
X67381523Y-113180761D01*
X67238666Y-113228380D01*
X67143428Y-113228380D01*
X67000571Y-113180761D01*
X66905333Y-113085523D01*
X66857714Y-112990285D01*
X66810095Y-112799809D01*
X66810095Y-112656952D01*
X66857714Y-112466476D01*
X66905333Y-112371238D01*
X67000571Y-112276000D01*
X67143428Y-112228380D01*
X67238666Y-112228380D01*
X67381523Y-112276000D01*
X67429142Y-112323619D01*
X68286285Y-112561714D02*
X68286285Y-113228380D01*
X68048190Y-112180761D02*
X67810095Y-112895047D01*
X68429142Y-112895047D01*
X68714857Y-112228380D02*
X69381523Y-112228380D01*
X68952952Y-113228380D01*
%TO.C,R8*%
X136866333Y-104592380D02*
X136533000Y-104116190D01*
X136294904Y-104592380D02*
X136294904Y-103592380D01*
X136675857Y-103592380D01*
X136771095Y-103640000D01*
X136818714Y-103687619D01*
X136866333Y-103782857D01*
X136866333Y-103925714D01*
X136818714Y-104020952D01*
X136771095Y-104068571D01*
X136675857Y-104116190D01*
X136294904Y-104116190D01*
X137437761Y-104020952D02*
X137342523Y-103973333D01*
X137294904Y-103925714D01*
X137247285Y-103830476D01*
X137247285Y-103782857D01*
X137294904Y-103687619D01*
X137342523Y-103640000D01*
X137437761Y-103592380D01*
X137628238Y-103592380D01*
X137723476Y-103640000D01*
X137771095Y-103687619D01*
X137818714Y-103782857D01*
X137818714Y-103830476D01*
X137771095Y-103925714D01*
X137723476Y-103973333D01*
X137628238Y-104020952D01*
X137437761Y-104020952D01*
X137342523Y-104068571D01*
X137294904Y-104116190D01*
X137247285Y-104211428D01*
X137247285Y-104401904D01*
X137294904Y-104497142D01*
X137342523Y-104544761D01*
X137437761Y-104592380D01*
X137628238Y-104592380D01*
X137723476Y-104544761D01*
X137771095Y-104497142D01*
X137818714Y-104401904D01*
X137818714Y-104211428D01*
X137771095Y-104116190D01*
X137723476Y-104068571D01*
X137628238Y-104020952D01*
%TO.C,C48*%
X61825142Y-135389857D02*
X61872761Y-135437476D01*
X61920380Y-135580333D01*
X61920380Y-135675571D01*
X61872761Y-135818428D01*
X61777523Y-135913666D01*
X61682285Y-135961285D01*
X61491809Y-136008904D01*
X61348952Y-136008904D01*
X61158476Y-135961285D01*
X61063238Y-135913666D01*
X60968000Y-135818428D01*
X60920380Y-135675571D01*
X60920380Y-135580333D01*
X60968000Y-135437476D01*
X61015619Y-135389857D01*
X61253714Y-134532714D02*
X61920380Y-134532714D01*
X60872761Y-134770809D02*
X61587047Y-135008904D01*
X61587047Y-134389857D01*
X61348952Y-133866047D02*
X61301333Y-133961285D01*
X61253714Y-134008904D01*
X61158476Y-134056523D01*
X61110857Y-134056523D01*
X61015619Y-134008904D01*
X60968000Y-133961285D01*
X60920380Y-133866047D01*
X60920380Y-133675571D01*
X60968000Y-133580333D01*
X61015619Y-133532714D01*
X61110857Y-133485095D01*
X61158476Y-133485095D01*
X61253714Y-133532714D01*
X61301333Y-133580333D01*
X61348952Y-133675571D01*
X61348952Y-133866047D01*
X61396571Y-133961285D01*
X61444190Y-134008904D01*
X61539428Y-134056523D01*
X61729904Y-134056523D01*
X61825142Y-134008904D01*
X61872761Y-133961285D01*
X61920380Y-133866047D01*
X61920380Y-133675571D01*
X61872761Y-133580333D01*
X61825142Y-133532714D01*
X61729904Y-133485095D01*
X61539428Y-133485095D01*
X61444190Y-133532714D01*
X61396571Y-133580333D01*
X61348952Y-133675571D01*
%TO.C,U25*%
X224242380Y-69818095D02*
X225051904Y-69818095D01*
X225147142Y-69770476D01*
X225194761Y-69722857D01*
X225242380Y-69627619D01*
X225242380Y-69437142D01*
X225194761Y-69341904D01*
X225147142Y-69294285D01*
X225051904Y-69246666D01*
X224242380Y-69246666D01*
X224337619Y-68818095D02*
X224290000Y-68770476D01*
X224242380Y-68675238D01*
X224242380Y-68437142D01*
X224290000Y-68341904D01*
X224337619Y-68294285D01*
X224432857Y-68246666D01*
X224528095Y-68246666D01*
X224670952Y-68294285D01*
X225242380Y-68865714D01*
X225242380Y-68246666D01*
X224242380Y-67341904D02*
X224242380Y-67818095D01*
X224718571Y-67865714D01*
X224670952Y-67818095D01*
X224623333Y-67722857D01*
X224623333Y-67484761D01*
X224670952Y-67389523D01*
X224718571Y-67341904D01*
X224813809Y-67294285D01*
X225051904Y-67294285D01*
X225147142Y-67341904D01*
X225194761Y-67389523D01*
X225242380Y-67484761D01*
X225242380Y-67722857D01*
X225194761Y-67818095D01*
X225147142Y-67865714D01*
%TO.C,C30*%
X129532142Y-66016142D02*
X129484523Y-66063761D01*
X129341666Y-66111380D01*
X129246428Y-66111380D01*
X129103571Y-66063761D01*
X129008333Y-65968523D01*
X128960714Y-65873285D01*
X128913095Y-65682809D01*
X128913095Y-65539952D01*
X128960714Y-65349476D01*
X129008333Y-65254238D01*
X129103571Y-65159000D01*
X129246428Y-65111380D01*
X129341666Y-65111380D01*
X129484523Y-65159000D01*
X129532142Y-65206619D01*
X129865476Y-65111380D02*
X130484523Y-65111380D01*
X130151190Y-65492333D01*
X130294047Y-65492333D01*
X130389285Y-65539952D01*
X130436904Y-65587571D01*
X130484523Y-65682809D01*
X130484523Y-65920904D01*
X130436904Y-66016142D01*
X130389285Y-66063761D01*
X130294047Y-66111380D01*
X130008333Y-66111380D01*
X129913095Y-66063761D01*
X129865476Y-66016142D01*
X131103571Y-65111380D02*
X131198809Y-65111380D01*
X131294047Y-65159000D01*
X131341666Y-65206619D01*
X131389285Y-65301857D01*
X131436904Y-65492333D01*
X131436904Y-65730428D01*
X131389285Y-65920904D01*
X131341666Y-66016142D01*
X131294047Y-66063761D01*
X131198809Y-66111380D01*
X131103571Y-66111380D01*
X131008333Y-66063761D01*
X130960714Y-66016142D01*
X130913095Y-65920904D01*
X130865476Y-65730428D01*
X130865476Y-65492333D01*
X130913095Y-65301857D01*
X130960714Y-65206619D01*
X131008333Y-65159000D01*
X131103571Y-65111380D01*
%TO.C,U31*%
X224242380Y-95218095D02*
X225051904Y-95218095D01*
X225147142Y-95170476D01*
X225194761Y-95122857D01*
X225242380Y-95027619D01*
X225242380Y-94837142D01*
X225194761Y-94741904D01*
X225147142Y-94694285D01*
X225051904Y-94646666D01*
X224242380Y-94646666D01*
X224242380Y-94265714D02*
X224242380Y-93646666D01*
X224623333Y-93980000D01*
X224623333Y-93837142D01*
X224670952Y-93741904D01*
X224718571Y-93694285D01*
X224813809Y-93646666D01*
X225051904Y-93646666D01*
X225147142Y-93694285D01*
X225194761Y-93741904D01*
X225242380Y-93837142D01*
X225242380Y-94122857D01*
X225194761Y-94218095D01*
X225147142Y-94265714D01*
X225242380Y-92694285D02*
X225242380Y-93265714D01*
X225242380Y-92980000D02*
X224242380Y-92980000D01*
X224385238Y-93075238D01*
X224480476Y-93170476D01*
X224528095Y-93265714D01*
%TO.C,U3*%
X92924380Y-71246904D02*
X93733904Y-71246904D01*
X93829142Y-71199285D01*
X93876761Y-71151666D01*
X93924380Y-71056428D01*
X93924380Y-70865952D01*
X93876761Y-70770714D01*
X93829142Y-70723095D01*
X93733904Y-70675476D01*
X92924380Y-70675476D01*
X92924380Y-70294523D02*
X92924380Y-69675476D01*
X93305333Y-70008809D01*
X93305333Y-69865952D01*
X93352952Y-69770714D01*
X93400571Y-69723095D01*
X93495809Y-69675476D01*
X93733904Y-69675476D01*
X93829142Y-69723095D01*
X93876761Y-69770714D01*
X93924380Y-69865952D01*
X93924380Y-70151666D01*
X93876761Y-70246904D01*
X93829142Y-70294523D01*
%TO.C,U12*%
X130135380Y-97504095D02*
X130944904Y-97504095D01*
X131040142Y-97456476D01*
X131087761Y-97408857D01*
X131135380Y-97313619D01*
X131135380Y-97123142D01*
X131087761Y-97027904D01*
X131040142Y-96980285D01*
X130944904Y-96932666D01*
X130135380Y-96932666D01*
X131135380Y-95932666D02*
X131135380Y-96504095D01*
X131135380Y-96218380D02*
X130135380Y-96218380D01*
X130278238Y-96313619D01*
X130373476Y-96408857D01*
X130421095Y-96504095D01*
X130230619Y-95551714D02*
X130183000Y-95504095D01*
X130135380Y-95408857D01*
X130135380Y-95170761D01*
X130183000Y-95075523D01*
X130230619Y-95027904D01*
X130325857Y-94980285D01*
X130421095Y-94980285D01*
X130563952Y-95027904D01*
X131135380Y-95599333D01*
X131135380Y-94980285D01*
%TO.C,U4*%
X92797380Y-58546904D02*
X93606904Y-58546904D01*
X93702142Y-58499285D01*
X93749761Y-58451666D01*
X93797380Y-58356428D01*
X93797380Y-58165952D01*
X93749761Y-58070714D01*
X93702142Y-58023095D01*
X93606904Y-57975476D01*
X92797380Y-57975476D01*
X93130714Y-57070714D02*
X93797380Y-57070714D01*
X92749761Y-57308809D02*
X93464047Y-57546904D01*
X93464047Y-56927857D01*
%TO.C,C13*%
X249801142Y-71477142D02*
X249753523Y-71524761D01*
X249610666Y-71572380D01*
X249515428Y-71572380D01*
X249372571Y-71524761D01*
X249277333Y-71429523D01*
X249229714Y-71334285D01*
X249182095Y-71143809D01*
X249182095Y-71000952D01*
X249229714Y-70810476D01*
X249277333Y-70715238D01*
X249372571Y-70620000D01*
X249515428Y-70572380D01*
X249610666Y-70572380D01*
X249753523Y-70620000D01*
X249801142Y-70667619D01*
X250753523Y-71572380D02*
X250182095Y-71572380D01*
X250467809Y-71572380D02*
X250467809Y-70572380D01*
X250372571Y-70715238D01*
X250277333Y-70810476D01*
X250182095Y-70858095D01*
X251086857Y-70572380D02*
X251705904Y-70572380D01*
X251372571Y-70953333D01*
X251515428Y-70953333D01*
X251610666Y-71000952D01*
X251658285Y-71048571D01*
X251705904Y-71143809D01*
X251705904Y-71381904D01*
X251658285Y-71477142D01*
X251610666Y-71524761D01*
X251515428Y-71572380D01*
X251229714Y-71572380D01*
X251134476Y-71524761D01*
X251086857Y-71477142D01*
%TO.C,U2*%
X122123295Y-41997380D02*
X122123295Y-42806904D01*
X122170914Y-42902142D01*
X122218533Y-42949761D01*
X122313771Y-42997380D01*
X122504247Y-42997380D01*
X122599485Y-42949761D01*
X122647104Y-42902142D01*
X122694723Y-42806904D01*
X122694723Y-41997380D01*
X123123295Y-42092619D02*
X123170914Y-42045000D01*
X123266152Y-41997380D01*
X123504247Y-41997380D01*
X123599485Y-42045000D01*
X123647104Y-42092619D01*
X123694723Y-42187857D01*
X123694723Y-42283095D01*
X123647104Y-42425952D01*
X123075676Y-42997380D01*
X123694723Y-42997380D01*
%TO.C,C51*%
X67429142Y-88368142D02*
X67381523Y-88415761D01*
X67238666Y-88463380D01*
X67143428Y-88463380D01*
X67000571Y-88415761D01*
X66905333Y-88320523D01*
X66857714Y-88225285D01*
X66810095Y-88034809D01*
X66810095Y-87891952D01*
X66857714Y-87701476D01*
X66905333Y-87606238D01*
X67000571Y-87511000D01*
X67143428Y-87463380D01*
X67238666Y-87463380D01*
X67381523Y-87511000D01*
X67429142Y-87558619D01*
X68333904Y-87463380D02*
X67857714Y-87463380D01*
X67810095Y-87939571D01*
X67857714Y-87891952D01*
X67952952Y-87844333D01*
X68191047Y-87844333D01*
X68286285Y-87891952D01*
X68333904Y-87939571D01*
X68381523Y-88034809D01*
X68381523Y-88272904D01*
X68333904Y-88368142D01*
X68286285Y-88415761D01*
X68191047Y-88463380D01*
X67952952Y-88463380D01*
X67857714Y-88415761D01*
X67810095Y-88368142D01*
X69333904Y-88463380D02*
X68762476Y-88463380D01*
X69048190Y-88463380D02*
X69048190Y-87463380D01*
X68952952Y-87606238D01*
X68857714Y-87701476D01*
X68762476Y-87749095D01*
%TO.C,U27*%
X195032380Y-95218095D02*
X195841904Y-95218095D01*
X195937142Y-95170476D01*
X195984761Y-95122857D01*
X196032380Y-95027619D01*
X196032380Y-94837142D01*
X195984761Y-94741904D01*
X195937142Y-94694285D01*
X195841904Y-94646666D01*
X195032380Y-94646666D01*
X195127619Y-94218095D02*
X195080000Y-94170476D01*
X195032380Y-94075238D01*
X195032380Y-93837142D01*
X195080000Y-93741904D01*
X195127619Y-93694285D01*
X195222857Y-93646666D01*
X195318095Y-93646666D01*
X195460952Y-93694285D01*
X196032380Y-94265714D01*
X196032380Y-93646666D01*
X195032380Y-93313333D02*
X195032380Y-92646666D01*
X196032380Y-93075238D01*
%TO.C,U7*%
X114554095Y-103973380D02*
X114554095Y-104782904D01*
X114601714Y-104878142D01*
X114649333Y-104925761D01*
X114744571Y-104973380D01*
X114935047Y-104973380D01*
X115030285Y-104925761D01*
X115077904Y-104878142D01*
X115125523Y-104782904D01*
X115125523Y-103973380D01*
X115506476Y-103973380D02*
X116173142Y-103973380D01*
X115744571Y-104973380D01*
%TO.C,C4*%
X225147142Y-38266666D02*
X225194761Y-38314285D01*
X225242380Y-38457142D01*
X225242380Y-38552380D01*
X225194761Y-38695238D01*
X225099523Y-38790476D01*
X225004285Y-38838095D01*
X224813809Y-38885714D01*
X224670952Y-38885714D01*
X224480476Y-38838095D01*
X224385238Y-38790476D01*
X224290000Y-38695238D01*
X224242380Y-38552380D01*
X224242380Y-38457142D01*
X224290000Y-38314285D01*
X224337619Y-38266666D01*
X224575714Y-37409523D02*
X225242380Y-37409523D01*
X224194761Y-37647619D02*
X224909047Y-37885714D01*
X224909047Y-37266666D01*
%TO.C,C43*%
X249674142Y-122277142D02*
X249626523Y-122324761D01*
X249483666Y-122372380D01*
X249388428Y-122372380D01*
X249245571Y-122324761D01*
X249150333Y-122229523D01*
X249102714Y-122134285D01*
X249055095Y-121943809D01*
X249055095Y-121800952D01*
X249102714Y-121610476D01*
X249150333Y-121515238D01*
X249245571Y-121420000D01*
X249388428Y-121372380D01*
X249483666Y-121372380D01*
X249626523Y-121420000D01*
X249674142Y-121467619D01*
X250531285Y-121705714D02*
X250531285Y-122372380D01*
X250293190Y-121324761D02*
X250055095Y-122039047D01*
X250674142Y-122039047D01*
X250959857Y-121372380D02*
X251578904Y-121372380D01*
X251245571Y-121753333D01*
X251388428Y-121753333D01*
X251483666Y-121800952D01*
X251531285Y-121848571D01*
X251578904Y-121943809D01*
X251578904Y-122181904D01*
X251531285Y-122277142D01*
X251483666Y-122324761D01*
X251388428Y-122372380D01*
X251102714Y-122372380D01*
X251007476Y-122324761D01*
X250959857Y-122277142D01*
%TO.C,C16*%
X183888142Y-74906142D02*
X183840523Y-74953761D01*
X183697666Y-75001380D01*
X183602428Y-75001380D01*
X183459571Y-74953761D01*
X183364333Y-74858523D01*
X183316714Y-74763285D01*
X183269095Y-74572809D01*
X183269095Y-74429952D01*
X183316714Y-74239476D01*
X183364333Y-74144238D01*
X183459571Y-74049000D01*
X183602428Y-74001380D01*
X183697666Y-74001380D01*
X183840523Y-74049000D01*
X183888142Y-74096619D01*
X184840523Y-75001380D02*
X184269095Y-75001380D01*
X184554809Y-75001380D02*
X184554809Y-74001380D01*
X184459571Y-74144238D01*
X184364333Y-74239476D01*
X184269095Y-74287095D01*
X185697666Y-74001380D02*
X185507190Y-74001380D01*
X185411952Y-74049000D01*
X185364333Y-74096619D01*
X185269095Y-74239476D01*
X185221476Y-74429952D01*
X185221476Y-74810904D01*
X185269095Y-74906142D01*
X185316714Y-74953761D01*
X185411952Y-75001380D01*
X185602428Y-75001380D01*
X185697666Y-74953761D01*
X185745285Y-74906142D01*
X185792904Y-74810904D01*
X185792904Y-74572809D01*
X185745285Y-74477571D01*
X185697666Y-74429952D01*
X185602428Y-74382333D01*
X185411952Y-74382333D01*
X185316714Y-74429952D01*
X185269095Y-74477571D01*
X185221476Y-74572809D01*
%TO.C,U28*%
X195159380Y-107918095D02*
X195968904Y-107918095D01*
X196064142Y-107870476D01*
X196111761Y-107822857D01*
X196159380Y-107727619D01*
X196159380Y-107537142D01*
X196111761Y-107441904D01*
X196064142Y-107394285D01*
X195968904Y-107346666D01*
X195159380Y-107346666D01*
X195254619Y-106918095D02*
X195207000Y-106870476D01*
X195159380Y-106775238D01*
X195159380Y-106537142D01*
X195207000Y-106441904D01*
X195254619Y-106394285D01*
X195349857Y-106346666D01*
X195445095Y-106346666D01*
X195587952Y-106394285D01*
X196159380Y-106965714D01*
X196159380Y-106346666D01*
X195587952Y-105775238D02*
X195540333Y-105870476D01*
X195492714Y-105918095D01*
X195397476Y-105965714D01*
X195349857Y-105965714D01*
X195254619Y-105918095D01*
X195207000Y-105870476D01*
X195159380Y-105775238D01*
X195159380Y-105584761D01*
X195207000Y-105489523D01*
X195254619Y-105441904D01*
X195349857Y-105394285D01*
X195397476Y-105394285D01*
X195492714Y-105441904D01*
X195540333Y-105489523D01*
X195587952Y-105584761D01*
X195587952Y-105775238D01*
X195635571Y-105870476D01*
X195683190Y-105918095D01*
X195778428Y-105965714D01*
X195968904Y-105965714D01*
X196064142Y-105918095D01*
X196111761Y-105870476D01*
X196159380Y-105775238D01*
X196159380Y-105584761D01*
X196111761Y-105489523D01*
X196064142Y-105441904D01*
X195968904Y-105394285D01*
X195778428Y-105394285D01*
X195683190Y-105441904D01*
X195635571Y-105489523D01*
X195587952Y-105584761D01*
%TO.C,U1*%
X122275695Y-65035180D02*
X122275695Y-65844704D01*
X122323314Y-65939942D01*
X122370933Y-65987561D01*
X122466171Y-66035180D01*
X122656647Y-66035180D01*
X122751885Y-65987561D01*
X122799504Y-65939942D01*
X122847123Y-65844704D01*
X122847123Y-65035180D01*
X123847123Y-66035180D02*
X123275695Y-66035180D01*
X123561409Y-66035180D02*
X123561409Y-65035180D01*
X123466171Y-65178038D01*
X123370933Y-65273276D01*
X123275695Y-65320895D01*
D11*
%TO.C,C15*%
X173385241Y-20000000D02*
X173385241Y-19370000D01*
X173700241Y-19685000D02*
X173070241Y-19685000D01*
%TO.C,C18*%
X83693000Y-22451042D02*
X83693000Y-23701042D01*
X84318000Y-23076042D02*
X83068000Y-23076042D01*
%TO.C,U37*%
X65558000Y-48972000D02*
G75*
G03*
X67558000Y-48972000I1000000J0D01*
G01*
X61308000Y-48912000D02*
X61308000Y-59312000D01*
X61308000Y-59312000D02*
X71808000Y-59312000D01*
X71808000Y-48912000D02*
X61308000Y-48912000D01*
X68808000Y-59252000D02*
X68808000Y-48972000D01*
X71808000Y-59312000D02*
X71808000Y-48912000D01*
X65558000Y-48972000D02*
X64308000Y-48972000D01*
X68808000Y-48972000D02*
X67558000Y-48972000D01*
X64308000Y-48972000D02*
X64308000Y-59252000D01*
X64308000Y-59252000D02*
X68808000Y-59252000D01*
%TO.C,SW3*%
X67171000Y-72954000D02*
X65671000Y-72954000D01*
X63171000Y-74204000D02*
X63171000Y-78704000D01*
X65671000Y-79954000D02*
X67171000Y-79954000D01*
X69671000Y-78704000D02*
X69671000Y-74204000D01*
%TO.C,R12*%
X71350000Y-43815000D02*
X70580000Y-43815000D01*
X63270000Y-43815000D02*
X64040000Y-43815000D01*
X64040000Y-42445000D02*
X64040000Y-45185000D01*
X70580000Y-45185000D02*
X70580000Y-42445000D01*
X64040000Y-45185000D02*
X70580000Y-45185000D01*
X70580000Y-42445000D02*
X64040000Y-42445000D01*
%TO.C,R11*%
X62865000Y-62682000D02*
X62865000Y-62752000D01*
X64235000Y-61312000D02*
G75*
G03*
X64235000Y-61312000I-1370000J0D01*
G01*
%TO.C,R10*%
X69850000Y-62682000D02*
X69850000Y-62752000D01*
X71220000Y-61312000D02*
G75*
G03*
X71220000Y-61312000I-1370000J0D01*
G01*
%TO.C,R9*%
X66675000Y-62682000D02*
X66675000Y-62752000D01*
X68045000Y-61312000D02*
G75*
G03*
X68045000Y-61312000I-1370000J0D01*
G01*
%TO.C,Q1*%
X65985000Y-69872000D02*
X65985000Y-66272000D01*
X65973478Y-66233522D02*
G75*
G03*
X61535000Y-68072000I-1838478J-1838478D01*
G01*
X61534999Y-68072000D02*
G75*
G03*
X65973478Y-69910478I2600001J0D01*
G01*
%TO.C,J4*%
X55475331Y-89470000D02*
X43135331Y-89470000D01*
X56369669Y-46490000D02*
X55936656Y-46240000D01*
X55475331Y-36250000D02*
X55475331Y-89470000D01*
X56369669Y-45990000D02*
X56369669Y-46490000D01*
X43135331Y-36250000D02*
X55475331Y-36250000D01*
X55936656Y-46240000D02*
X56369669Y-45990000D01*
%TO.C,J2*%
X55936656Y-103390000D02*
X56369669Y-103140000D01*
X43135331Y-93400000D02*
X55475331Y-93400000D01*
X56369669Y-103140000D02*
X56369669Y-103640000D01*
X55475331Y-93400000D02*
X55475331Y-146620000D01*
X56369669Y-103640000D02*
X55936656Y-103390000D01*
X55475331Y-146620000D02*
X43135331Y-146620000D01*
%TO.C,D1*%
X83780000Y-36195000D02*
G75*
G03*
X83780000Y-36195000I-2500000J0D01*
G01*
X81280462Y-33205000D02*
G75*
G03*
X79735170Y-38755000I-462J-2990000D01*
G01*
X82824830Y-38755000D02*
G75*
G03*
X81279538Y-33205000I-1544830J2560000D01*
G01*
X79735000Y-38755000D02*
X82825000Y-38755000D01*
%TO.C,C54*%
X75030000Y-54522000D02*
X74325000Y-54522000D01*
X72290000Y-54522000D02*
X72290000Y-58762000D01*
X75030000Y-54522000D02*
X75030000Y-58762000D01*
X72995000Y-58762000D02*
X72290000Y-58762000D01*
X72995000Y-54522000D02*
X72290000Y-54522000D01*
X75030000Y-58762000D02*
X74325000Y-58762000D01*
%TO.C,C53*%
X72290000Y-53682000D02*
X72995000Y-53682000D01*
X75030000Y-53682000D02*
X75030000Y-49442000D01*
X72290000Y-53682000D02*
X72290000Y-49442000D01*
X74325000Y-49442000D02*
X75030000Y-49442000D01*
X74325000Y-53682000D02*
X75030000Y-53682000D01*
X72290000Y-49442000D02*
X72995000Y-49442000D01*
%TO.C,C3*%
X197600000Y-34765000D02*
X197600000Y-34140000D01*
X193560000Y-36980000D02*
X193560000Y-36355000D01*
X197600000Y-36980000D02*
X193560000Y-36980000D01*
X197600000Y-36980000D02*
X197600000Y-36355000D01*
X193560000Y-34765000D02*
X193560000Y-34140000D01*
X197600000Y-34140000D02*
X193560000Y-34140000D01*
%TO.C,U19*%
X198695000Y-49820000D02*
X198695000Y-51070000D01*
X198635000Y-46820000D02*
X198635000Y-57320000D01*
X198695000Y-53070000D02*
X198695000Y-54320000D01*
X221735000Y-57320000D02*
X221735000Y-46820000D01*
X221735000Y-46820000D02*
X198635000Y-46820000D01*
X198695000Y-54320000D02*
X221675000Y-54320000D01*
X198635000Y-57320000D02*
X221735000Y-57320000D01*
X221675000Y-49820000D02*
X198695000Y-49820000D01*
X221675000Y-54320000D02*
X221675000Y-49820000D01*
X198695000Y-53070000D02*
G75*
G03*
X198695000Y-51070000I0J1000000D01*
G01*
%TO.C,U30*%
X227915000Y-79710000D02*
X250895000Y-79710000D01*
X227915000Y-75210000D02*
X227915000Y-76460000D01*
X250955000Y-82710000D02*
X250955000Y-72210000D01*
X227855000Y-82710000D02*
X250955000Y-82710000D01*
X227915000Y-78460000D02*
X227915000Y-79710000D01*
X250895000Y-79710000D02*
X250895000Y-75210000D01*
X227855000Y-72210000D02*
X227855000Y-82710000D01*
X250895000Y-75210000D02*
X227915000Y-75210000D01*
X250955000Y-72210000D02*
X227855000Y-72210000D01*
X227915000Y-78460000D02*
G75*
G03*
X227915000Y-76460000I0J1000000D01*
G01*
%TO.C,C44*%
X63650000Y-116090000D02*
X63650000Y-120130000D01*
X60810000Y-116090000D02*
X60810000Y-120130000D01*
X61435000Y-116090000D02*
X60810000Y-116090000D01*
X61435000Y-120130000D02*
X60810000Y-120130000D01*
X63650000Y-116090000D02*
X63025000Y-116090000D01*
X63650000Y-120130000D02*
X63025000Y-120130000D01*
%TO.C,U18*%
X198635000Y-34120000D02*
X198635000Y-44620000D01*
X221735000Y-44620000D02*
X221735000Y-34120000D01*
X198695000Y-41620000D02*
X221675000Y-41620000D01*
X198695000Y-37120000D02*
X198695000Y-38370000D01*
X221675000Y-37120000D02*
X198695000Y-37120000D01*
X221735000Y-34120000D02*
X198635000Y-34120000D01*
X198635000Y-44620000D02*
X221735000Y-44620000D01*
X221675000Y-41620000D02*
X221675000Y-37120000D01*
X198695000Y-40370000D02*
X198695000Y-41620000D01*
X198695000Y-40370000D02*
G75*
G03*
X198695000Y-38370000I0J1000000D01*
G01*
%TO.C,U16*%
X178100000Y-41960000D02*
X182600000Y-41960000D01*
X182600000Y-21520000D02*
X181350000Y-21520000D01*
X175100000Y-42020000D02*
X185600000Y-42020000D01*
X182600000Y-41960000D02*
X182600000Y-21520000D01*
X185600000Y-42020000D02*
X185600000Y-21460000D01*
X178100000Y-21520000D02*
X178100000Y-41960000D01*
X175100000Y-21460000D02*
X175100000Y-42020000D01*
X179350000Y-21520000D02*
X178100000Y-21520000D01*
X185600000Y-21460000D02*
X175100000Y-21460000D01*
X179350000Y-21520000D02*
G75*
G03*
X181350000Y-21520000I1000000J0D01*
G01*
%TO.C,C14*%
X95365000Y-36670000D02*
X95365000Y-36045000D01*
X91325000Y-38885000D02*
X91325000Y-38260000D01*
X91325000Y-36670000D02*
X91325000Y-36045000D01*
X95365000Y-38885000D02*
X91325000Y-38885000D01*
X95365000Y-38885000D02*
X95365000Y-38260000D01*
X95365000Y-36045000D02*
X91325000Y-36045000D01*
%TO.C,U20*%
X221675000Y-62520000D02*
X198695000Y-62520000D01*
X198635000Y-59520000D02*
X198635000Y-70020000D01*
X221735000Y-59520000D02*
X198635000Y-59520000D01*
X198695000Y-65770000D02*
X198695000Y-67020000D01*
X221735000Y-70020000D02*
X221735000Y-59520000D01*
X198695000Y-67020000D02*
X221675000Y-67020000D01*
X221675000Y-67020000D02*
X221675000Y-62520000D01*
X198695000Y-62520000D02*
X198695000Y-63770000D01*
X198635000Y-70020000D02*
X221735000Y-70020000D01*
X198695000Y-65770000D02*
G75*
G03*
X198695000Y-63770000I0J1000000D01*
G01*
%TO.C,C12*%
X178320000Y-43020000D02*
X178320000Y-42395000D01*
X182360000Y-42395000D02*
X178320000Y-42395000D01*
X178320000Y-45235000D02*
X178320000Y-44610000D01*
X182360000Y-43020000D02*
X182360000Y-42395000D01*
X182360000Y-45235000D02*
X178320000Y-45235000D01*
X182360000Y-45235000D02*
X182360000Y-44610000D01*
%TO.C,U35*%
X63975000Y-111215000D02*
X74475000Y-111215000D01*
X71475000Y-90715000D02*
X70225000Y-90715000D01*
X66975000Y-90715000D02*
X66975000Y-111155000D01*
X68225000Y-90715000D02*
X66975000Y-90715000D01*
X74475000Y-111215000D02*
X74475000Y-90655000D01*
X63975000Y-90655000D02*
X63975000Y-111215000D01*
X66975000Y-111155000D02*
X71475000Y-111155000D01*
X71475000Y-111155000D02*
X71475000Y-90715000D01*
X74475000Y-90655000D02*
X63975000Y-90655000D01*
X68225000Y-90715000D02*
G75*
G03*
X70225000Y-90715000I1000000J0D01*
G01*
%TO.C,U23*%
X227905000Y-40370000D02*
X227905000Y-41620000D01*
X227905000Y-41620000D02*
X250885000Y-41620000D01*
X250885000Y-41620000D02*
X250885000Y-37120000D01*
X227845000Y-44620000D02*
X250945000Y-44620000D01*
X227845000Y-34120000D02*
X227845000Y-44620000D01*
X250885000Y-37120000D02*
X227905000Y-37120000D01*
X227905000Y-37120000D02*
X227905000Y-38370000D01*
X250945000Y-44620000D02*
X250945000Y-34120000D01*
X250945000Y-34120000D02*
X227845000Y-34120000D01*
X227905000Y-40370000D02*
G75*
G03*
X227905000Y-38370000I0J1000000D01*
G01*
%TO.C,C23*%
X135355000Y-111910000D02*
X135355000Y-111285000D01*
X131315000Y-109695000D02*
X131315000Y-109070000D01*
X131315000Y-111910000D02*
X131315000Y-111285000D01*
X135355000Y-111910000D02*
X131315000Y-111910000D01*
X135355000Y-109070000D02*
X131315000Y-109070000D01*
X135355000Y-109695000D02*
X135355000Y-109070000D01*
%TO.C,U6*%
X114415000Y-36015000D02*
X96395000Y-36015000D01*
X114355000Y-39015000D02*
X96455000Y-39015000D01*
X96395000Y-36015000D02*
X96395000Y-46515000D01*
X96395000Y-46515000D02*
X114415000Y-46515000D01*
X96455000Y-42265000D02*
X96455000Y-43515000D01*
X96455000Y-43515000D02*
X114355000Y-43515000D01*
X96455000Y-39015000D02*
X96455000Y-40265000D01*
X114355000Y-43515000D02*
X114355000Y-39015000D01*
X114415000Y-46515000D02*
X114415000Y-36015000D01*
X96455000Y-42265000D02*
G75*
G03*
X96455000Y-40265000I0J1000000D01*
G01*
%TO.C,U22*%
X227905000Y-24420000D02*
X227905000Y-25670000D01*
X250885000Y-24420000D02*
X227905000Y-24420000D01*
X227905000Y-27670000D02*
X227905000Y-28920000D01*
X250885000Y-28920000D02*
X250885000Y-24420000D01*
X227845000Y-31920000D02*
X250945000Y-31920000D01*
X250945000Y-31920000D02*
X250945000Y-21420000D01*
X250945000Y-21420000D02*
X227845000Y-21420000D01*
X227845000Y-21420000D02*
X227845000Y-31920000D01*
X227905000Y-28920000D02*
X250885000Y-28920000D01*
X227905000Y-27670000D02*
G75*
G03*
X227905000Y-25670000I0J1000000D01*
G01*
%TO.C,R2*%
X139700000Y-28805000D02*
X139700000Y-28035000D01*
X138330000Y-28035000D02*
X141070000Y-28035000D01*
X141070000Y-21495000D02*
X138330000Y-21495000D01*
X141070000Y-28035000D02*
X141070000Y-21495000D01*
X139700000Y-20725000D02*
X139700000Y-21495000D01*
X138330000Y-21495000D02*
X138330000Y-28035000D01*
%TO.C,C28*%
X145530000Y-21105000D02*
X141490000Y-21105000D01*
X145530000Y-18265000D02*
X141490000Y-18265000D01*
X141490000Y-21105000D02*
X141490000Y-20480000D01*
X145530000Y-21105000D02*
X145530000Y-20480000D01*
X141490000Y-18890000D02*
X141490000Y-18265000D01*
X145530000Y-18890000D02*
X145530000Y-18265000D01*
%TO.C,R3*%
X139700000Y-36600000D02*
X139700000Y-37370000D01*
X141070000Y-37370000D02*
X138330000Y-37370000D01*
X141070000Y-43910000D02*
X141070000Y-37370000D01*
X138330000Y-43910000D02*
X141070000Y-43910000D01*
X138330000Y-37370000D02*
X138330000Y-43910000D01*
X139700000Y-44680000D02*
X139700000Y-43910000D01*
%TO.C,C21*%
X82665000Y-101450000D02*
X78625000Y-101450000D01*
X82665000Y-104290000D02*
X82665000Y-103665000D01*
X78625000Y-104290000D02*
X78625000Y-103665000D01*
X82665000Y-102075000D02*
X82665000Y-101450000D01*
X82665000Y-104290000D02*
X78625000Y-104290000D01*
X78625000Y-102075000D02*
X78625000Y-101450000D01*
%TO.C,C31*%
X128385000Y-18890000D02*
X128385000Y-18265000D01*
X128385000Y-21105000D02*
X128385000Y-20480000D01*
X124345000Y-18890000D02*
X124345000Y-18265000D01*
X128385000Y-21105000D02*
X124345000Y-21105000D01*
X124345000Y-21105000D02*
X124345000Y-20480000D01*
X128385000Y-18265000D02*
X124345000Y-18265000D01*
%TO.C,U17*%
X221685000Y-24410000D02*
X198705000Y-24410000D01*
X221685000Y-28910000D02*
X221685000Y-24410000D01*
X198645000Y-21410000D02*
X198645000Y-31910000D01*
X221745000Y-31910000D02*
X221745000Y-21410000D01*
X198645000Y-31910000D02*
X221745000Y-31910000D01*
X198705000Y-24410000D02*
X198705000Y-25660000D01*
X198705000Y-28910000D02*
X221685000Y-28910000D01*
X221745000Y-21410000D02*
X198645000Y-21410000D01*
X198705000Y-27660000D02*
X198705000Y-28910000D01*
X198705000Y-27660000D02*
G75*
G03*
X198705000Y-25660000I0J1000000D01*
G01*
%TO.C,C27*%
X95385000Y-76685000D02*
X91345000Y-76685000D01*
X95385000Y-77310000D02*
X95385000Y-76685000D01*
X95385000Y-79525000D02*
X95385000Y-78900000D01*
X95385000Y-79525000D02*
X91345000Y-79525000D01*
X91345000Y-79525000D02*
X91345000Y-78900000D01*
X91345000Y-77310000D02*
X91345000Y-76685000D01*
%TO.C,U9*%
X182590000Y-130870000D02*
X182590000Y-105350000D01*
X178090000Y-105350000D02*
X178090000Y-130870000D01*
X185590000Y-130930000D02*
X185590000Y-105290000D01*
X175090000Y-105290000D02*
X175090000Y-130930000D01*
X175090000Y-130930000D02*
X185590000Y-130930000D01*
X182590000Y-105350000D02*
X181340000Y-105350000D01*
X179340000Y-105350000D02*
X178090000Y-105350000D01*
X185590000Y-105290000D02*
X175090000Y-105290000D01*
X178090000Y-130870000D02*
X182590000Y-130870000D01*
X179340000Y-105350000D02*
G75*
G03*
X181340000Y-105350000I1000000J0D01*
G01*
%TO.C,C8*%
X226810000Y-62380000D02*
X226810000Y-61755000D01*
X226810000Y-62380000D02*
X222770000Y-62380000D01*
X222770000Y-60165000D02*
X222770000Y-59540000D01*
X226810000Y-59540000D02*
X222770000Y-59540000D01*
X222770000Y-62380000D02*
X222770000Y-61755000D01*
X226810000Y-60165000D02*
X226810000Y-59540000D01*
%TO.C,C49*%
X63015000Y-95345000D02*
X62390000Y-95345000D01*
X60175000Y-91305000D02*
X60175000Y-95345000D01*
X60800000Y-95345000D02*
X60175000Y-95345000D01*
X63015000Y-91305000D02*
X62390000Y-91305000D01*
X60800000Y-91305000D02*
X60175000Y-91305000D01*
X63015000Y-91305000D02*
X63015000Y-95345000D01*
%TO.C,C37*%
X222770000Y-85565000D02*
X222770000Y-84940000D01*
X226810000Y-87780000D02*
X226810000Y-87155000D01*
X226810000Y-87780000D02*
X222770000Y-87780000D01*
X226810000Y-85565000D02*
X226810000Y-84940000D01*
X222770000Y-87780000D02*
X222770000Y-87155000D01*
X226810000Y-84940000D02*
X222770000Y-84940000D01*
%TO.C,C42*%
X256517288Y-108015000D02*
X256067288Y-108015000D01*
X256292288Y-108240000D02*
X256292288Y-107790000D01*
X256099741Y-105620000D02*
G75*
G03*
X256099741Y-107740000I-2119741J-1060000D01*
G01*
%TO.C,X1*%
X115860000Y-32370000D02*
X115860000Y-20970000D01*
X94960000Y-20970000D02*
X94960000Y-33120000D01*
X94960000Y-33120000D02*
X115110000Y-33120000D01*
X115110000Y-20220000D02*
X95710000Y-20220000D01*
X115860000Y-20970000D02*
G75*
G03*
X115110000Y-20220000I-750000J0D01*
G01*
X95710000Y-20220000D02*
G75*
G03*
X94960000Y-20970000I0J-750000D01*
G01*
X115110000Y-33120000D02*
G75*
G03*
X115860000Y-32370000I0J750000D01*
G01*
%TO.C,C41*%
X256516144Y-95315000D02*
X256066144Y-95315000D01*
X256291144Y-95540000D02*
X256291144Y-95090000D01*
X256098597Y-92920000D02*
G75*
G03*
X256098597Y-95040000I-2119741J-1060000D01*
G01*
%TO.C,C38*%
X222770000Y-100480000D02*
X222770000Y-99855000D01*
X226810000Y-98265000D02*
X226810000Y-97640000D01*
X222770000Y-98265000D02*
X222770000Y-97640000D01*
X226810000Y-97640000D02*
X222770000Y-97640000D01*
X226810000Y-100480000D02*
X226810000Y-99855000D01*
X226810000Y-100480000D02*
X222770000Y-100480000D01*
%TO.C,U33*%
X227915000Y-116560000D02*
X227915000Y-117810000D01*
X227855000Y-120810000D02*
X250955000Y-120810000D01*
X250895000Y-113310000D02*
X227915000Y-113310000D01*
X250955000Y-120810000D02*
X250955000Y-110310000D01*
X250955000Y-110310000D02*
X227855000Y-110310000D01*
X250895000Y-117810000D02*
X250895000Y-113310000D01*
X227855000Y-110310000D02*
X227855000Y-120810000D01*
X227915000Y-113310000D02*
X227915000Y-114560000D01*
X227915000Y-117810000D02*
X250895000Y-117810000D01*
X227915000Y-116560000D02*
G75*
G03*
X227915000Y-114560000I0J1000000D01*
G01*
%TO.C,C11*%
X256332288Y-57440000D02*
X256332288Y-56990000D01*
X256557288Y-57215000D02*
X256107288Y-57215000D01*
X256139741Y-54820000D02*
G75*
G03*
X256139741Y-56940000I-2119741J-1060000D01*
G01*
%TO.C,U14*%
X185600000Y-101090000D02*
X185600000Y-75450000D01*
X175100000Y-75450000D02*
X175100000Y-101090000D01*
X182600000Y-75510000D02*
X181350000Y-75510000D01*
X179350000Y-75510000D02*
X178100000Y-75510000D01*
X175100000Y-101090000D02*
X185600000Y-101090000D01*
X178100000Y-101030000D02*
X182600000Y-101030000D01*
X182600000Y-101030000D02*
X182600000Y-75510000D01*
X178100000Y-75510000D02*
X178100000Y-101030000D01*
X185600000Y-75450000D02*
X175100000Y-75450000D01*
X179350000Y-75510000D02*
G75*
G03*
X181350000Y-75510000I1000000J0D01*
G01*
%TO.C,R5*%
X142875000Y-36600000D02*
X142875000Y-37370000D01*
X144245000Y-37370000D02*
X141505000Y-37370000D01*
X142875000Y-44680000D02*
X142875000Y-43910000D01*
X144245000Y-43910000D02*
X144245000Y-37370000D01*
X141505000Y-37370000D02*
X141505000Y-43910000D01*
X141505000Y-43910000D02*
X144245000Y-43910000D01*
%TO.C,C45*%
X95365000Y-92225000D02*
X91325000Y-92225000D01*
X95365000Y-90010000D02*
X95365000Y-89385000D01*
X95365000Y-92225000D02*
X95365000Y-91600000D01*
X95365000Y-89385000D02*
X91325000Y-89385000D01*
X91325000Y-92225000D02*
X91325000Y-91600000D01*
X91325000Y-90010000D02*
X91325000Y-89385000D01*
%TO.C,R1*%
X136525000Y-20725000D02*
X136525000Y-21495000D01*
X135155000Y-28035000D02*
X137895000Y-28035000D01*
X137895000Y-21495000D02*
X135155000Y-21495000D01*
X136525000Y-28805000D02*
X136525000Y-28035000D01*
X135155000Y-21495000D02*
X135155000Y-28035000D01*
X137895000Y-28035000D02*
X137895000Y-21495000D01*
%TO.C,C29*%
X91345000Y-64285000D02*
X91345000Y-63660000D01*
X95385000Y-61445000D02*
X91345000Y-61445000D01*
X95385000Y-62070000D02*
X95385000Y-61445000D01*
X95385000Y-64285000D02*
X91345000Y-64285000D01*
X95385000Y-64285000D02*
X95385000Y-63660000D01*
X91345000Y-62070000D02*
X91345000Y-61445000D01*
%TO.C,C17*%
X182360000Y-21105000D02*
X178320000Y-21105000D01*
X178320000Y-18890000D02*
X178320000Y-18265000D01*
X182360000Y-18265000D02*
X178320000Y-18265000D01*
X182360000Y-21105000D02*
X182360000Y-20480000D01*
X178320000Y-21105000D02*
X178320000Y-20480000D01*
X182360000Y-18890000D02*
X182360000Y-18265000D01*
%TO.C,U29*%
X198645000Y-120810000D02*
X221745000Y-120810000D01*
X221685000Y-113310000D02*
X198705000Y-113310000D01*
X198645000Y-110310000D02*
X198645000Y-120810000D01*
X221745000Y-120810000D02*
X221745000Y-110310000D01*
X198705000Y-117810000D02*
X221685000Y-117810000D01*
X221685000Y-117810000D02*
X221685000Y-113310000D01*
X198705000Y-113310000D02*
X198705000Y-114560000D01*
X221745000Y-110310000D02*
X198645000Y-110310000D01*
X198705000Y-116560000D02*
X198705000Y-117810000D01*
X198705000Y-116560000D02*
G75*
G03*
X198705000Y-114560000I0J1000000D01*
G01*
%TO.C,C33*%
X193560000Y-87780000D02*
X193560000Y-87155000D01*
X197600000Y-85565000D02*
X197600000Y-84940000D01*
X197600000Y-84940000D02*
X193560000Y-84940000D01*
X197600000Y-87780000D02*
X197600000Y-87155000D01*
X193560000Y-85565000D02*
X193560000Y-84940000D01*
X197600000Y-87780000D02*
X193560000Y-87780000D01*
%TO.C,U10*%
X126720000Y-110435000D02*
X125470000Y-110435000D01*
X122220000Y-135955000D02*
X126720000Y-135955000D01*
X119220000Y-136015000D02*
X129720000Y-136015000D01*
X129720000Y-110375000D02*
X119220000Y-110375000D01*
X123470000Y-110435000D02*
X122220000Y-110435000D01*
X126720000Y-135955000D02*
X126720000Y-110435000D01*
X129720000Y-136015000D02*
X129720000Y-110375000D01*
X122220000Y-110435000D02*
X122220000Y-135955000D01*
X119220000Y-110375000D02*
X119220000Y-136015000D01*
X123470000Y-110435000D02*
G75*
G03*
X125470000Y-110435000I1000000J0D01*
G01*
%TO.C,C26*%
X103640000Y-104290000D02*
X99600000Y-104290000D01*
X103640000Y-104290000D02*
X103640000Y-103665000D01*
X99600000Y-104290000D02*
X99600000Y-103665000D01*
X99600000Y-102075000D02*
X99600000Y-101450000D01*
X103640000Y-102075000D02*
X103640000Y-101450000D01*
X103640000Y-101450000D02*
X99600000Y-101450000D01*
%TO.C,C24*%
X128365000Y-40236000D02*
X124325000Y-40236000D01*
X128365000Y-43076000D02*
X124325000Y-43076000D01*
X128365000Y-43076000D02*
X128365000Y-42451000D01*
X124325000Y-40861000D02*
X124325000Y-40236000D01*
X128365000Y-40861000D02*
X128365000Y-40236000D01*
X124325000Y-43076000D02*
X124325000Y-42451000D01*
%TO.C,C35*%
X197620000Y-113180000D02*
X193580000Y-113180000D01*
X193580000Y-113180000D02*
X193580000Y-112555000D01*
X197620000Y-110340000D02*
X193580000Y-110340000D01*
X193580000Y-110965000D02*
X193580000Y-110340000D01*
X197620000Y-113180000D02*
X197620000Y-112555000D01*
X197620000Y-110965000D02*
X197620000Y-110340000D01*
%TO.C,C2*%
X226810000Y-24280000D02*
X222770000Y-24280000D01*
X222770000Y-24280000D02*
X222770000Y-23655000D01*
X222770000Y-22065000D02*
X222770000Y-21440000D01*
X226810000Y-22065000D02*
X226810000Y-21440000D01*
X226810000Y-21440000D02*
X222770000Y-21440000D01*
X226810000Y-24280000D02*
X226810000Y-23655000D01*
%TO.C,C10*%
X197600000Y-62380000D02*
X197600000Y-61755000D01*
X193560000Y-62380000D02*
X193560000Y-61755000D01*
X197600000Y-62380000D02*
X193560000Y-62380000D01*
X193560000Y-60165000D02*
X193560000Y-59540000D01*
X197600000Y-59540000D02*
X193560000Y-59540000D01*
X197600000Y-60165000D02*
X197600000Y-59540000D01*
%TO.C,U8*%
X93050000Y-135945000D02*
X93050000Y-105345000D01*
X96050000Y-136005000D02*
X96050000Y-105285000D01*
X80930000Y-135945000D02*
X93050000Y-135945000D01*
X77930000Y-136005000D02*
X96050000Y-136005000D01*
X77930000Y-105285000D02*
X77930000Y-136005000D01*
X85990000Y-105345000D02*
X80930000Y-105345000D01*
X96050000Y-105285000D02*
X77930000Y-105285000D01*
X80930000Y-105345000D02*
X80930000Y-135945000D01*
X93050000Y-105345000D02*
X87990000Y-105345000D01*
X85990000Y-105345000D02*
G75*
G03*
X87990000Y-105345000I1000000J0D01*
G01*
%TO.C,U15*%
X116950000Y-76655000D02*
X96390000Y-76655000D01*
X116890000Y-84155000D02*
X116890000Y-79655000D01*
X96450000Y-79655000D02*
X96450000Y-80905000D01*
X116950000Y-87155000D02*
X116950000Y-76655000D01*
X96390000Y-76655000D02*
X96390000Y-87155000D01*
X96390000Y-87155000D02*
X116950000Y-87155000D01*
X116890000Y-79655000D02*
X96450000Y-79655000D01*
X96450000Y-84155000D02*
X116890000Y-84155000D01*
X96450000Y-82905000D02*
X96450000Y-84155000D01*
X96450000Y-82905000D02*
G75*
G03*
X96450000Y-80905000I0J1000000D01*
G01*
%TO.C,C32*%
X197620000Y-72240000D02*
X193580000Y-72240000D01*
X193580000Y-72865000D02*
X193580000Y-72240000D01*
X197620000Y-72865000D02*
X197620000Y-72240000D01*
X193580000Y-75080000D02*
X193580000Y-74455000D01*
X197620000Y-75080000D02*
X197620000Y-74455000D01*
X197620000Y-75080000D02*
X193580000Y-75080000D01*
%TO.C,C6*%
X226810000Y-47465000D02*
X226810000Y-46840000D01*
X226810000Y-49680000D02*
X226810000Y-49055000D01*
X226810000Y-46840000D02*
X222770000Y-46840000D01*
X222770000Y-49680000D02*
X222770000Y-49055000D01*
X226810000Y-49680000D02*
X222770000Y-49680000D01*
X222770000Y-47465000D02*
X222770000Y-46840000D01*
%TO.C,C46*%
X61435000Y-123710000D02*
X60810000Y-123710000D01*
X60810000Y-123710000D02*
X60810000Y-127750000D01*
X63650000Y-127750000D02*
X63025000Y-127750000D01*
X63650000Y-123710000D02*
X63650000Y-127750000D01*
X63650000Y-123710000D02*
X63025000Y-123710000D01*
X61435000Y-127750000D02*
X60810000Y-127750000D01*
%TO.C,U24*%
X250885000Y-49820000D02*
X227905000Y-49820000D01*
X227845000Y-57320000D02*
X250945000Y-57320000D01*
X250885000Y-54320000D02*
X250885000Y-49820000D01*
X227905000Y-49820000D02*
X227905000Y-51070000D01*
X250945000Y-57320000D02*
X250945000Y-46820000D01*
X227845000Y-46820000D02*
X227845000Y-57320000D01*
X227905000Y-53070000D02*
X227905000Y-54320000D01*
X227905000Y-54320000D02*
X250885000Y-54320000D01*
X250945000Y-46820000D02*
X227845000Y-46820000D01*
X227905000Y-53070000D02*
G75*
G03*
X227905000Y-51070000I0J1000000D01*
G01*
%TO.C,U5*%
X131625000Y-21465000D02*
X121125000Y-21465000D01*
X121125000Y-21465000D02*
X121125000Y-39485000D01*
X131625000Y-39485000D02*
X131625000Y-21465000D01*
X128625000Y-21525000D02*
X127375000Y-21525000D01*
X128625000Y-39425000D02*
X128625000Y-21525000D01*
X125375000Y-21525000D02*
X124125000Y-21525000D01*
X121125000Y-39485000D02*
X131625000Y-39485000D01*
X124125000Y-39425000D02*
X128625000Y-39425000D01*
X124125000Y-21525000D02*
X124125000Y-39425000D01*
X125375000Y-21525000D02*
G75*
G03*
X127375000Y-21525000I1000000J0D01*
G01*
%TO.C,U32*%
X227905000Y-100620000D02*
X227905000Y-101870000D01*
X227905000Y-103870000D02*
X227905000Y-105120000D01*
X250885000Y-105120000D02*
X250885000Y-100620000D01*
X227845000Y-108120000D02*
X250945000Y-108120000D01*
X250945000Y-97620000D02*
X227845000Y-97620000D01*
X250945000Y-108120000D02*
X250945000Y-97620000D01*
X227845000Y-97620000D02*
X227845000Y-108120000D01*
X227905000Y-105120000D02*
X250885000Y-105120000D01*
X250885000Y-100620000D02*
X227905000Y-100620000D01*
X227905000Y-103870000D02*
G75*
G03*
X227905000Y-101870000I0J1000000D01*
G01*
%TO.C,C20*%
X95365000Y-49370000D02*
X95365000Y-48745000D01*
X91325000Y-51585000D02*
X91325000Y-50960000D01*
X91325000Y-49370000D02*
X91325000Y-48745000D01*
X95365000Y-51585000D02*
X95365000Y-50960000D01*
X95365000Y-48745000D02*
X91325000Y-48745000D01*
X95365000Y-51585000D02*
X91325000Y-51585000D01*
%TO.C,U26*%
X221735000Y-72220000D02*
X198635000Y-72220000D01*
X221675000Y-75220000D02*
X198695000Y-75220000D01*
X221675000Y-79720000D02*
X221675000Y-75220000D01*
X198695000Y-79720000D02*
X221675000Y-79720000D01*
X198695000Y-75220000D02*
X198695000Y-76470000D01*
X221735000Y-82720000D02*
X221735000Y-72220000D01*
X198635000Y-72220000D02*
X198635000Y-82720000D01*
X198695000Y-78470000D02*
X198695000Y-79720000D01*
X198635000Y-82720000D02*
X221735000Y-82720000D01*
X198695000Y-78470000D02*
G75*
G03*
X198695000Y-76470000I0J1000000D01*
G01*
%TO.C,C25*%
X131330000Y-101750000D02*
X131330000Y-101125000D01*
X135370000Y-101750000D02*
X131330000Y-101750000D01*
X135370000Y-98910000D02*
X131330000Y-98910000D01*
X135370000Y-99535000D02*
X135370000Y-98910000D01*
X135370000Y-101750000D02*
X135370000Y-101125000D01*
X131330000Y-99535000D02*
X131330000Y-98910000D01*
%TO.C,C9*%
X256332288Y-44740000D02*
X256332288Y-44290000D01*
X256557288Y-44515000D02*
X256107288Y-44515000D01*
X256139741Y-42120000D02*
G75*
G03*
X256139741Y-44240000I-2119741J-1060000D01*
G01*
%TO.C,R4*%
X137895000Y-37370000D02*
X135155000Y-37370000D01*
X135155000Y-37370000D02*
X135155000Y-43910000D01*
X137895000Y-43910000D02*
X137895000Y-37370000D01*
X136525000Y-36600000D02*
X136525000Y-37370000D01*
X135155000Y-43910000D02*
X137895000Y-43910000D01*
X136525000Y-44680000D02*
X136525000Y-43910000D01*
%TO.C,C34*%
X193560000Y-98265000D02*
X193560000Y-97640000D01*
X197600000Y-98265000D02*
X197600000Y-97640000D01*
X197600000Y-97640000D02*
X193560000Y-97640000D01*
X197600000Y-100480000D02*
X197600000Y-99855000D01*
X193560000Y-100480000D02*
X193560000Y-99855000D01*
X197600000Y-100480000D02*
X193560000Y-100480000D01*
%TO.C,U11*%
X164635000Y-21470000D02*
X146515000Y-21470000D01*
X149515000Y-72450000D02*
X161635000Y-72450000D01*
X161635000Y-21530000D02*
X156575000Y-21530000D01*
X146515000Y-21470000D02*
X146515000Y-72510000D01*
X161635000Y-72450000D02*
X161635000Y-21530000D01*
X149515000Y-21530000D02*
X149515000Y-72450000D01*
X154575000Y-21530000D02*
X149515000Y-21530000D01*
X146515000Y-72510000D02*
X164635000Y-72510000D01*
X164635000Y-72510000D02*
X164635000Y-21470000D01*
X154575000Y-21530000D02*
G75*
G03*
X156575000Y-21530000I1000000J0D01*
G01*
%TO.C,C40*%
X256291144Y-82840000D02*
X256291144Y-82390000D01*
X256516144Y-82615000D02*
X256066144Y-82615000D01*
X256098597Y-80220000D02*
G75*
G03*
X256098597Y-82340000I-2119741J-1060000D01*
G01*
%TO.C,C50*%
X61435000Y-98905000D02*
X60810000Y-98905000D01*
X61435000Y-102945000D02*
X60810000Y-102945000D01*
X60810000Y-98905000D02*
X60810000Y-102945000D01*
X63650000Y-98905000D02*
X63025000Y-98905000D01*
X63650000Y-102945000D02*
X63025000Y-102945000D01*
X63650000Y-98905000D02*
X63650000Y-102945000D01*
%TO.C,C22*%
X135390000Y-94130000D02*
X131350000Y-94130000D01*
X135390000Y-94130000D02*
X135390000Y-93505000D01*
X131350000Y-94130000D02*
X131350000Y-93505000D01*
X131350000Y-91915000D02*
X131350000Y-91290000D01*
X135390000Y-91915000D02*
X135390000Y-91290000D01*
X135390000Y-91290000D02*
X131350000Y-91290000D01*
%TO.C,JP1*%
X146685000Y-105470000D02*
X149285000Y-105470000D01*
X146685000Y-102810000D02*
X149285000Y-102810000D01*
X146685000Y-105470000D02*
X146685000Y-102810000D01*
X144085000Y-105470000D02*
X144085000Y-104140000D01*
X145415000Y-105470000D02*
X144085000Y-105470000D01*
X149285000Y-105470000D02*
X149285000Y-102810000D01*
%TO.C,C36*%
X226830000Y-72865000D02*
X226830000Y-72240000D01*
X226830000Y-75080000D02*
X222790000Y-75080000D01*
X226830000Y-72240000D02*
X222790000Y-72240000D01*
X222790000Y-72865000D02*
X222790000Y-72240000D01*
X226830000Y-75080000D02*
X226830000Y-74455000D01*
X222790000Y-75080000D02*
X222790000Y-74455000D01*
%TO.C,C7*%
X256332288Y-32040000D02*
X256332288Y-31590000D01*
X256557288Y-31815000D02*
X256107288Y-31815000D01*
X256139741Y-29420000D02*
G75*
G03*
X256139741Y-31540000I-2119741J-1060000D01*
G01*
%TO.C,U21*%
X136465000Y-119115000D02*
G75*
G03*
X136465000Y-117115000I0J1000000D01*
G01*
X136465000Y-124175000D02*
X167065000Y-124175000D01*
X136405000Y-109055000D02*
X136405000Y-127175000D01*
X136405000Y-127175000D02*
X167125000Y-127175000D01*
X136465000Y-112055000D02*
X136465000Y-117115000D01*
X167065000Y-112055000D02*
X136465000Y-112055000D01*
X136465000Y-119115000D02*
X136465000Y-124175000D01*
X167125000Y-127175000D02*
X167125000Y-109055000D01*
X167125000Y-109055000D02*
X136405000Y-109055000D01*
X167065000Y-124175000D02*
X167065000Y-112055000D01*
%TO.C,R6*%
X170815000Y-26440000D02*
X170815000Y-27210000D01*
X172185000Y-27210000D02*
X169445000Y-27210000D01*
X170815000Y-34520000D02*
X170815000Y-33750000D01*
X169445000Y-33750000D02*
X172185000Y-33750000D01*
X172185000Y-33750000D02*
X172185000Y-27210000D01*
X169445000Y-27210000D02*
X169445000Y-33750000D01*
%TO.C,U13*%
X182600000Y-45665000D02*
X181350000Y-45665000D01*
X182600000Y-71185000D02*
X182600000Y-45665000D01*
X175100000Y-45605000D02*
X175100000Y-71245000D01*
X185600000Y-71245000D02*
X185600000Y-45605000D01*
X178100000Y-45665000D02*
X178100000Y-71185000D01*
X179350000Y-45665000D02*
X178100000Y-45665000D01*
X178100000Y-71185000D02*
X182600000Y-71185000D01*
X185600000Y-45605000D02*
X175100000Y-45605000D01*
X175100000Y-71245000D02*
X185600000Y-71245000D01*
X179350000Y-45665000D02*
G75*
G03*
X181350000Y-45665000I1000000J0D01*
G01*
%TO.C,C1*%
X193560000Y-24280000D02*
X193560000Y-23655000D01*
X197600000Y-24280000D02*
X197600000Y-23655000D01*
X197600000Y-22065000D02*
X197600000Y-21440000D01*
X197600000Y-21440000D02*
X193560000Y-21440000D01*
X193560000Y-22065000D02*
X193560000Y-21440000D01*
X197600000Y-24280000D02*
X193560000Y-24280000D01*
%TO.C,C52*%
X60810000Y-108065000D02*
X60810000Y-104025000D01*
X60810000Y-104025000D02*
X61435000Y-104025000D01*
X60810000Y-108065000D02*
X61435000Y-108065000D01*
X63650000Y-108065000D02*
X63650000Y-104025000D01*
X63025000Y-104025000D02*
X63650000Y-104025000D01*
X63025000Y-108065000D02*
X63650000Y-108065000D01*
%TO.C,U36*%
X96455000Y-92355000D02*
X96455000Y-93605000D01*
X114355000Y-96855000D02*
X114355000Y-92355000D01*
X96395000Y-89355000D02*
X96395000Y-99855000D01*
X114355000Y-92355000D02*
X96455000Y-92355000D01*
X96395000Y-99855000D02*
X114415000Y-99855000D01*
X96455000Y-95605000D02*
X96455000Y-96855000D01*
X96455000Y-96855000D02*
X114355000Y-96855000D01*
X114415000Y-89355000D02*
X96395000Y-89355000D01*
X114415000Y-99855000D02*
X114415000Y-89355000D01*
X96455000Y-95605000D02*
G75*
G03*
X96455000Y-93605000I0J1000000D01*
G01*
%TO.C,C19*%
X182360000Y-104417000D02*
X182360000Y-103792000D01*
X178320000Y-104417000D02*
X178320000Y-103792000D01*
X182360000Y-102202000D02*
X182360000Y-101577000D01*
X178320000Y-102202000D02*
X178320000Y-101577000D01*
X182360000Y-104417000D02*
X178320000Y-104417000D01*
X182360000Y-101577000D02*
X178320000Y-101577000D01*
%TO.C,R7*%
X169010000Y-27210000D02*
X166270000Y-27210000D01*
X166270000Y-33750000D02*
X169010000Y-33750000D01*
X167640000Y-34520000D02*
X167640000Y-33750000D01*
X166270000Y-27210000D02*
X166270000Y-33750000D01*
X167640000Y-26440000D02*
X167640000Y-27210000D01*
X169010000Y-33750000D02*
X169010000Y-27210000D01*
%TO.C,U34*%
X63965000Y-115440000D02*
X63965000Y-136000000D01*
X68215000Y-115500000D02*
X66965000Y-115500000D01*
X74465000Y-136000000D02*
X74465000Y-115440000D01*
X63965000Y-136000000D02*
X74465000Y-136000000D01*
X66965000Y-115500000D02*
X66965000Y-135940000D01*
X71465000Y-115500000D02*
X70215000Y-115500000D01*
X74465000Y-115440000D02*
X63965000Y-115440000D01*
X71465000Y-135940000D02*
X71465000Y-115500000D01*
X66965000Y-135940000D02*
X71465000Y-135940000D01*
X68215000Y-115500000D02*
G75*
G03*
X70215000Y-115500000I1000000J0D01*
G01*
%TO.C,C5*%
X197600000Y-49680000D02*
X193560000Y-49680000D01*
X197600000Y-46840000D02*
X193560000Y-46840000D01*
X193560000Y-49680000D02*
X193560000Y-49055000D01*
X197600000Y-47465000D02*
X197600000Y-46840000D01*
X193560000Y-47465000D02*
X193560000Y-46840000D01*
X197600000Y-49680000D02*
X197600000Y-49055000D01*
%TO.C,C39*%
X226810000Y-113180000D02*
X222770000Y-113180000D01*
X222770000Y-113180000D02*
X222770000Y-112555000D01*
X226810000Y-110340000D02*
X222770000Y-110340000D01*
X222770000Y-110965000D02*
X222770000Y-110340000D01*
X226810000Y-110965000D02*
X226810000Y-110340000D01*
X226810000Y-113180000D02*
X226810000Y-112555000D01*
%TO.C,C47*%
X73755000Y-115085000D02*
X73755000Y-114460000D01*
X73755000Y-112870000D02*
X73755000Y-112245000D01*
X69715000Y-115085000D02*
X69715000Y-114460000D01*
X73755000Y-115085000D02*
X69715000Y-115085000D01*
X73755000Y-112245000D02*
X69715000Y-112245000D01*
X69715000Y-112870000D02*
X69715000Y-112245000D01*
%TO.C,R8*%
X133125000Y-104140000D02*
X133895000Y-104140000D01*
X140435000Y-102770000D02*
X133895000Y-102770000D01*
X141205000Y-104140000D02*
X140435000Y-104140000D01*
X133895000Y-105510000D02*
X140435000Y-105510000D01*
X140435000Y-105510000D02*
X140435000Y-102770000D01*
X133895000Y-102770000D02*
X133895000Y-105510000D01*
%TO.C,C48*%
X60810000Y-132830000D02*
X60810000Y-128790000D01*
X60810000Y-128790000D02*
X61435000Y-128790000D01*
X63025000Y-132830000D02*
X63650000Y-132830000D01*
X60810000Y-132830000D02*
X61435000Y-132830000D01*
X63025000Y-128790000D02*
X63650000Y-128790000D01*
X63650000Y-132830000D02*
X63650000Y-128790000D01*
%TO.C,U25*%
X250885000Y-67020000D02*
X250885000Y-62520000D01*
X250885000Y-62520000D02*
X227905000Y-62520000D01*
X227905000Y-65770000D02*
X227905000Y-67020000D01*
X227845000Y-59520000D02*
X227845000Y-70020000D01*
X227845000Y-70020000D02*
X250945000Y-70020000D01*
X227905000Y-62520000D02*
X227905000Y-63770000D01*
X250945000Y-70020000D02*
X250945000Y-59520000D01*
X227905000Y-67020000D02*
X250885000Y-67020000D01*
X250945000Y-59520000D02*
X227845000Y-59520000D01*
X227905000Y-65770000D02*
G75*
G03*
X227905000Y-63770000I0J1000000D01*
G01*
%TO.C,C30*%
X128385000Y-63340000D02*
X128385000Y-62715000D01*
X128385000Y-65555000D02*
X124345000Y-65555000D01*
X124345000Y-63340000D02*
X124345000Y-62715000D01*
X128385000Y-65555000D02*
X128385000Y-64930000D01*
X128385000Y-62715000D02*
X124345000Y-62715000D01*
X124345000Y-65555000D02*
X124345000Y-64930000D01*
%TO.C,U31*%
X250955000Y-95410000D02*
X250955000Y-84910000D01*
X227915000Y-92410000D02*
X250895000Y-92410000D01*
X227915000Y-87910000D02*
X227915000Y-89160000D01*
X250895000Y-87910000D02*
X227915000Y-87910000D01*
X250955000Y-84910000D02*
X227855000Y-84910000D01*
X227915000Y-91160000D02*
X227915000Y-92410000D01*
X250895000Y-92410000D02*
X250895000Y-87910000D01*
X227855000Y-95410000D02*
X250955000Y-95410000D01*
X227855000Y-84910000D02*
X227855000Y-95410000D01*
X227915000Y-91160000D02*
G75*
G03*
X227915000Y-89160000I0J1000000D01*
G01*
%TO.C,U3*%
X116890000Y-64415000D02*
X96450000Y-64415000D01*
X116890000Y-68915000D02*
X116890000Y-64415000D01*
X96390000Y-71915000D02*
X116950000Y-71915000D01*
X96450000Y-64415000D02*
X96450000Y-65665000D01*
X96450000Y-68915000D02*
X116890000Y-68915000D01*
X96450000Y-67665000D02*
X96450000Y-68915000D01*
X96390000Y-61415000D02*
X96390000Y-71915000D01*
X116950000Y-71915000D02*
X116950000Y-61415000D01*
X116950000Y-61415000D02*
X96390000Y-61415000D01*
X96450000Y-67665000D02*
G75*
G03*
X96450000Y-65665000I0J1000000D01*
G01*
%TO.C,U12*%
X162050000Y-101760000D02*
X162050000Y-91260000D01*
X161990000Y-94260000D02*
X136470000Y-94260000D01*
X161990000Y-98760000D02*
X161990000Y-94260000D01*
X136410000Y-91260000D02*
X136410000Y-101760000D01*
X136470000Y-97510000D02*
X136470000Y-98760000D01*
X162050000Y-91260000D02*
X136410000Y-91260000D01*
X136410000Y-101760000D02*
X162050000Y-101760000D01*
X136470000Y-94260000D02*
X136470000Y-95510000D01*
X136470000Y-98760000D02*
X161990000Y-98760000D01*
X136470000Y-97510000D02*
G75*
G03*
X136470000Y-95510000I0J1000000D01*
G01*
%TO.C,U4*%
X96455000Y-56215000D02*
X114355000Y-56215000D01*
X96395000Y-48715000D02*
X96395000Y-59215000D01*
X114355000Y-56215000D02*
X114355000Y-51715000D01*
X96455000Y-51715000D02*
X96455000Y-52965000D01*
X96455000Y-54965000D02*
X96455000Y-56215000D01*
X114415000Y-59215000D02*
X114415000Y-48715000D01*
X114415000Y-48715000D02*
X96395000Y-48715000D01*
X96395000Y-59215000D02*
X114415000Y-59215000D01*
X114355000Y-51715000D02*
X96455000Y-51715000D01*
X96455000Y-54965000D02*
G75*
G03*
X96455000Y-52965000I0J1000000D01*
G01*
%TO.C,C13*%
X256557288Y-69915000D02*
X256107288Y-69915000D01*
X256332288Y-70140000D02*
X256332288Y-69690000D01*
X256139741Y-67520000D02*
G75*
G03*
X256139741Y-69640000I-2119741J-1060000D01*
G01*
%TO.C,U2*%
X131625000Y-43690000D02*
X121125000Y-43690000D01*
X124125000Y-61650000D02*
X128625000Y-61650000D01*
X128625000Y-43750000D02*
X127375000Y-43750000D01*
X131625000Y-61710000D02*
X131625000Y-43690000D01*
X121125000Y-61710000D02*
X131625000Y-61710000D01*
X121125000Y-43690000D02*
X121125000Y-61710000D01*
X124125000Y-43750000D02*
X124125000Y-61650000D01*
X128625000Y-61650000D02*
X128625000Y-43750000D01*
X125375000Y-43750000D02*
X124125000Y-43750000D01*
X125375000Y-43750000D02*
G75*
G03*
X127375000Y-43750000I1000000J0D01*
G01*
%TO.C,C51*%
X73775000Y-88040000D02*
X73775000Y-87415000D01*
X73775000Y-87415000D02*
X69735000Y-87415000D01*
X73775000Y-90255000D02*
X73775000Y-89630000D01*
X69735000Y-90255000D02*
X69735000Y-89630000D01*
X73775000Y-90255000D02*
X69735000Y-90255000D01*
X69735000Y-88040000D02*
X69735000Y-87415000D01*
%TO.C,U27*%
X198645000Y-84910000D02*
X198645000Y-95410000D01*
X198705000Y-91160000D02*
X198705000Y-92410000D01*
X221745000Y-95410000D02*
X221745000Y-84910000D01*
X221685000Y-92410000D02*
X221685000Y-87910000D01*
X198645000Y-95410000D02*
X221745000Y-95410000D01*
X198705000Y-92410000D02*
X221685000Y-92410000D01*
X198705000Y-87910000D02*
X198705000Y-89160000D01*
X221685000Y-87910000D02*
X198705000Y-87910000D01*
X221745000Y-84910000D02*
X198645000Y-84910000D01*
X198705000Y-91160000D02*
G75*
G03*
X198705000Y-89160000I0J1000000D01*
G01*
%TO.C,U7*%
X98885000Y-136005000D02*
X117005000Y-136005000D01*
X117005000Y-136005000D02*
X117005000Y-105285000D01*
X101885000Y-135945000D02*
X114005000Y-135945000D01*
X101885000Y-105345000D02*
X101885000Y-135945000D01*
X117005000Y-105285000D02*
X98885000Y-105285000D01*
X114005000Y-135945000D02*
X114005000Y-105345000D01*
X114005000Y-105345000D02*
X108945000Y-105345000D01*
X106945000Y-105345000D02*
X101885000Y-105345000D01*
X98885000Y-105285000D02*
X98885000Y-136005000D01*
X106945000Y-105345000D02*
G75*
G03*
X108945000Y-105345000I1000000J0D01*
G01*
%TO.C,C4*%
X226810000Y-34140000D02*
X222770000Y-34140000D01*
X226810000Y-34765000D02*
X226810000Y-34140000D01*
X226810000Y-36980000D02*
X222770000Y-36980000D01*
X222770000Y-34765000D02*
X222770000Y-34140000D01*
X222770000Y-36980000D02*
X222770000Y-36355000D01*
X226810000Y-36980000D02*
X226810000Y-36355000D01*
%TO.C,C43*%
X256557288Y-120715000D02*
X256107288Y-120715000D01*
X256332288Y-120940000D02*
X256332288Y-120490000D01*
X256139741Y-118320000D02*
G75*
G03*
X256139741Y-120440000I-2119741J-1060000D01*
G01*
%TO.C,C16*%
X178320000Y-74572000D02*
X178320000Y-73947000D01*
X182360000Y-74572000D02*
X178320000Y-74572000D01*
X182360000Y-74572000D02*
X182360000Y-73947000D01*
X182360000Y-72357000D02*
X182360000Y-71732000D01*
X182360000Y-71732000D02*
X178320000Y-71732000D01*
X178320000Y-72357000D02*
X178320000Y-71732000D01*
%TO.C,U28*%
X198645000Y-97610000D02*
X198645000Y-108110000D01*
X221685000Y-105110000D02*
X221685000Y-100610000D01*
X221745000Y-97610000D02*
X198645000Y-97610000D01*
X221685000Y-100610000D02*
X198705000Y-100610000D01*
X198705000Y-105110000D02*
X221685000Y-105110000D01*
X198645000Y-108110000D02*
X221745000Y-108110000D01*
X198705000Y-100610000D02*
X198705000Y-101860000D01*
X198705000Y-103860000D02*
X198705000Y-105110000D01*
X221745000Y-108110000D02*
X221745000Y-97610000D01*
X198705000Y-103860000D02*
G75*
G03*
X198705000Y-101860000I0J1000000D01*
G01*
%TO.C,U1*%
X124115000Y-66615000D02*
X124115000Y-84515000D01*
X131615000Y-84575000D02*
X131615000Y-66555000D01*
X124115000Y-84515000D02*
X128615000Y-84515000D01*
X121115000Y-66555000D02*
X121115000Y-84575000D01*
X128615000Y-84515000D02*
X128615000Y-66615000D01*
X125365000Y-66615000D02*
X124115000Y-66615000D01*
X131615000Y-66555000D02*
X121115000Y-66555000D01*
X121115000Y-84575000D02*
X131615000Y-84575000D01*
X128615000Y-66615000D02*
X127365000Y-66615000D01*
X125365000Y-66615000D02*
G75*
G03*
X127365000Y-66615000I1000000J0D01*
G01*
%TD*%
%LPC*%
D12*
%TO.C,J3*%
X137795000Y-137165004D03*
D13*
X137795000Y-134625004D03*
X140335000Y-137165004D03*
X140335000Y-134625004D03*
X142875000Y-137165004D03*
X142875000Y-134625004D03*
X145415000Y-137165004D03*
X145415000Y-134625004D03*
X147955000Y-137165004D03*
X147955000Y-134625004D03*
X150495000Y-137165004D03*
X150495000Y-134625004D03*
X153035000Y-137165004D03*
X153035000Y-134625004D03*
X155575000Y-137165004D03*
X155575000Y-134625004D03*
X158115000Y-137165004D03*
X158115000Y-134625004D03*
X160655000Y-137165004D03*
X160655000Y-134625004D03*
X163195000Y-137165004D03*
X163195000Y-134625004D03*
X165735000Y-137165004D03*
X165735000Y-134625004D03*
X168275000Y-137165004D03*
X168275000Y-134625004D03*
X170815000Y-137165004D03*
X170815000Y-134625004D03*
X173355000Y-137165004D03*
X173355000Y-134625004D03*
X175895000Y-137165004D03*
X175895000Y-134625004D03*
X178435000Y-137165004D03*
X178435000Y-134625004D03*
X180975000Y-137165004D03*
X180975000Y-134625004D03*
X183515000Y-137165004D03*
X183515000Y-134625004D03*
X186055000Y-137165004D03*
X186055000Y-134625004D03*
%TD*%
D14*
%TO.C,SW4*%
X70256400Y-30454600D03*
X70256400Y-34264600D03*
X70256400Y-38074600D03*
X72796400Y-17754600D03*
X67716400Y-17754600D03*
%TD*%
D15*
%TO.C,J1*%
X50165000Y-25400000D03*
D16*
X44165000Y-25400000D03*
D17*
X47165000Y-30100000D03*
%TD*%
D18*
%TO.C,C15*%
X171450000Y-19685000D03*
D19*
X168950000Y-19685000D03*
%TD*%
D20*
%TO.C,C18*%
X86995000Y-28076042D03*
D21*
X86995000Y-23076042D03*
%TD*%
D18*
%TO.C,SW1*%
X81703494Y-64008000D03*
D22*
X81703494Y-66548000D03*
X81703494Y-69088000D03*
X81703494Y-71628000D03*
X81703494Y-74168000D03*
X81703494Y-76708000D03*
X89323494Y-76708000D03*
X89323494Y-74168000D03*
X89323494Y-71628000D03*
X89323494Y-69088000D03*
X89323494Y-66548000D03*
X89323494Y-64008000D03*
%TD*%
%TO.C,SW2*%
X89323494Y-45593000D03*
X89323494Y-48133000D03*
X89323494Y-50673000D03*
X89323494Y-53213000D03*
X89323494Y-55753000D03*
X89323494Y-58293000D03*
X81703494Y-58293000D03*
X81703494Y-55753000D03*
X81703494Y-53213000D03*
X81703494Y-50673000D03*
X81703494Y-48133000D03*
D18*
X81703494Y-45593000D03*
%TD*%
D23*
%TO.C,U37*%
X70368000Y-50302000D03*
X70368000Y-52842000D03*
X70368000Y-55382000D03*
X70368000Y-57922000D03*
X62748000Y-57922000D03*
X62748000Y-55382000D03*
X62748000Y-52842000D03*
D24*
X62748000Y-50302000D03*
%TD*%
D25*
%TO.C,SW3*%
X64171000Y-73204000D03*
X64171000Y-79704000D03*
X68671000Y-73204000D03*
X68671000Y-79704000D03*
%TD*%
D19*
%TO.C,R12*%
X62230000Y-43815000D03*
D22*
X72390000Y-43815000D03*
%TD*%
D19*
%TO.C,R11*%
X62865000Y-61312000D03*
D22*
X62865000Y-63852000D03*
%TD*%
D19*
%TO.C,R10*%
X69850000Y-61312000D03*
D22*
X69850000Y-63852000D03*
%TD*%
D19*
%TO.C,R9*%
X66675000Y-61312000D03*
D22*
X66675000Y-63852000D03*
%TD*%
D26*
%TO.C,Q1*%
X64135000Y-69342000D03*
D27*
X62865000Y-68072000D03*
X64135000Y-66802000D03*
%TD*%
D28*
%TO.C,J4*%
X52195331Y-86410000D03*
X52195331Y-39310000D03*
D18*
X53615331Y-46240000D03*
D19*
X53615331Y-49010000D03*
X53615331Y-51780000D03*
X53615331Y-54550000D03*
X53615331Y-57320000D03*
X53615331Y-60090000D03*
X53615331Y-62860000D03*
X53615331Y-65630000D03*
X53615331Y-68400000D03*
X53615331Y-71170000D03*
X53615331Y-73940000D03*
X53615331Y-76710000D03*
X53615331Y-79480000D03*
X50775331Y-47625000D03*
X50775331Y-50395000D03*
X50775331Y-53165000D03*
X50775331Y-55935000D03*
X50775331Y-58705000D03*
X50775331Y-61475000D03*
X50775331Y-64245000D03*
X50775331Y-67015000D03*
X50775331Y-69785000D03*
X50775331Y-72555000D03*
X50775331Y-75325000D03*
X50775331Y-78095000D03*
%TD*%
%TO.C,J2*%
X50775331Y-135245000D03*
X50775331Y-132475000D03*
X50775331Y-129705000D03*
X50775331Y-126935000D03*
X50775331Y-124165000D03*
X50775331Y-121395000D03*
X50775331Y-118625000D03*
X50775331Y-115855000D03*
X50775331Y-113085000D03*
X50775331Y-110315000D03*
X50775331Y-107545000D03*
X50775331Y-104775000D03*
X53615331Y-136630000D03*
X53615331Y-133860000D03*
X53615331Y-131090000D03*
X53615331Y-128320000D03*
X53615331Y-125550000D03*
X53615331Y-122780000D03*
X53615331Y-120010000D03*
X53615331Y-117240000D03*
X53615331Y-114470000D03*
X53615331Y-111700000D03*
X53615331Y-108930000D03*
X53615331Y-106160000D03*
D18*
X53615331Y-103390000D03*
D28*
X52195331Y-96460000D03*
X52195331Y-143560000D03*
%TD*%
D29*
%TO.C,D1*%
X81280000Y-34925000D03*
D30*
X81280000Y-37465000D03*
%TD*%
D19*
%TO.C,C54*%
X73660000Y-55392000D03*
X73660000Y-57892000D03*
%TD*%
%TO.C,C53*%
X73660000Y-52812000D03*
X73660000Y-50312000D03*
%TD*%
%TO.C,C3*%
X196830000Y-35560000D03*
X194330000Y-35560000D03*
%TD*%
D31*
%TO.C,U19*%
X200025000Y-55880000D03*
D32*
X202565000Y-55880000D03*
X205105000Y-55880000D03*
X207645000Y-55880000D03*
X210185000Y-55880000D03*
X212725000Y-55880000D03*
X215265000Y-55880000D03*
X217805000Y-55880000D03*
X220345000Y-55880000D03*
X220345000Y-48260000D03*
X217805000Y-48260000D03*
X215265000Y-48260000D03*
X212725000Y-48260000D03*
X210185000Y-48260000D03*
X207645000Y-48260000D03*
X205105000Y-48260000D03*
X202565000Y-48260000D03*
X200025000Y-48260000D03*
%TD*%
D31*
%TO.C,U30*%
X229245000Y-81270000D03*
D32*
X231785000Y-81270000D03*
X234325000Y-81270000D03*
X236865000Y-81270000D03*
X239405000Y-81270000D03*
X241945000Y-81270000D03*
X244485000Y-81270000D03*
X247025000Y-81270000D03*
X249565000Y-81270000D03*
X249565000Y-73650000D03*
X247025000Y-73650000D03*
X244485000Y-73650000D03*
X241945000Y-73650000D03*
X239405000Y-73650000D03*
X236865000Y-73650000D03*
X234325000Y-73650000D03*
X231785000Y-73650000D03*
X229245000Y-73650000D03*
%TD*%
D19*
%TO.C,C44*%
X62230000Y-116860000D03*
X62230000Y-119360000D03*
%TD*%
D31*
%TO.C,U18*%
X200025000Y-43180000D03*
D32*
X202565000Y-43180000D03*
X205105000Y-43180000D03*
X207645000Y-43180000D03*
X210185000Y-43180000D03*
X212725000Y-43180000D03*
X215265000Y-43180000D03*
X217805000Y-43180000D03*
X220345000Y-43180000D03*
X220345000Y-35560000D03*
X217805000Y-35560000D03*
X215265000Y-35560000D03*
X212725000Y-35560000D03*
X210185000Y-35560000D03*
X207645000Y-35560000D03*
X205105000Y-35560000D03*
X202565000Y-35560000D03*
X200025000Y-35560000D03*
%TD*%
D24*
%TO.C,U16*%
X176540000Y-22850000D03*
D23*
X176540000Y-25390000D03*
X176540000Y-27930000D03*
X176540000Y-30470000D03*
X176540000Y-33010000D03*
X176540000Y-35550000D03*
X176540000Y-38090000D03*
X176540000Y-40630000D03*
X184160000Y-40630000D03*
X184160000Y-38090000D03*
X184160000Y-35550000D03*
X184160000Y-33010000D03*
X184160000Y-30470000D03*
X184160000Y-27930000D03*
X184160000Y-25390000D03*
X184160000Y-22850000D03*
%TD*%
D19*
%TO.C,C14*%
X94595000Y-37465000D03*
X92095000Y-37465000D03*
%TD*%
D31*
%TO.C,U20*%
X200025000Y-68580000D03*
D32*
X202565000Y-68580000D03*
X205105000Y-68580000D03*
X207645000Y-68580000D03*
X210185000Y-68580000D03*
X212725000Y-68580000D03*
X215265000Y-68580000D03*
X217805000Y-68580000D03*
X220345000Y-68580000D03*
X220345000Y-60960000D03*
X217805000Y-60960000D03*
X215265000Y-60960000D03*
X212725000Y-60960000D03*
X210185000Y-60960000D03*
X207645000Y-60960000D03*
X205105000Y-60960000D03*
X202565000Y-60960000D03*
X200025000Y-60960000D03*
%TD*%
D19*
%TO.C,C12*%
X181590000Y-43815000D03*
X179090000Y-43815000D03*
%TD*%
D24*
%TO.C,U35*%
X65415000Y-92045000D03*
D23*
X65415000Y-94585000D03*
X65415000Y-97125000D03*
X65415000Y-99665000D03*
X65415000Y-102205000D03*
X65415000Y-104745000D03*
X65415000Y-107285000D03*
X65415000Y-109825000D03*
X73035000Y-109825000D03*
X73035000Y-107285000D03*
X73035000Y-104745000D03*
X73035000Y-102205000D03*
X73035000Y-99665000D03*
X73035000Y-97125000D03*
X73035000Y-94585000D03*
X73035000Y-92045000D03*
%TD*%
D31*
%TO.C,U23*%
X229235000Y-43180000D03*
D32*
X231775000Y-43180000D03*
X234315000Y-43180000D03*
X236855000Y-43180000D03*
X239395000Y-43180000D03*
X241935000Y-43180000D03*
X244475000Y-43180000D03*
X247015000Y-43180000D03*
X249555000Y-43180000D03*
X249555000Y-35560000D03*
X247015000Y-35560000D03*
X244475000Y-35560000D03*
X241935000Y-35560000D03*
X239395000Y-35560000D03*
X236855000Y-35560000D03*
X234315000Y-35560000D03*
X231775000Y-35560000D03*
X229235000Y-35560000D03*
%TD*%
D19*
%TO.C,C23*%
X134585000Y-110490000D03*
X132085000Y-110490000D03*
%TD*%
D31*
%TO.C,U6*%
X97785000Y-45075000D03*
D32*
X100325000Y-45075000D03*
X102865000Y-45075000D03*
X105405000Y-45075000D03*
X107945000Y-45075000D03*
X110485000Y-45075000D03*
X113025000Y-45075000D03*
X113025000Y-37455000D03*
X110485000Y-37455000D03*
X107945000Y-37455000D03*
X105405000Y-37455000D03*
X102865000Y-37455000D03*
X100325000Y-37455000D03*
X97785000Y-37455000D03*
%TD*%
D31*
%TO.C,U22*%
X229235000Y-30480000D03*
D32*
X231775000Y-30480000D03*
X234315000Y-30480000D03*
X236855000Y-30480000D03*
X239395000Y-30480000D03*
X241935000Y-30480000D03*
X244475000Y-30480000D03*
X247015000Y-30480000D03*
X249555000Y-30480000D03*
X249555000Y-22860000D03*
X247015000Y-22860000D03*
X244475000Y-22860000D03*
X241935000Y-22860000D03*
X239395000Y-22860000D03*
X236855000Y-22860000D03*
X234315000Y-22860000D03*
X231775000Y-22860000D03*
X229235000Y-22860000D03*
%TD*%
D19*
%TO.C,R2*%
X139700000Y-19685000D03*
D22*
X139700000Y-29845000D03*
%TD*%
D19*
%TO.C,C28*%
X144760000Y-19685000D03*
X142260000Y-19685000D03*
%TD*%
%TO.C,R3*%
X139700000Y-45720000D03*
D22*
X139700000Y-35560000D03*
%TD*%
D19*
%TO.C,C21*%
X81895000Y-102870000D03*
X79395000Y-102870000D03*
%TD*%
%TO.C,C31*%
X127615000Y-19685000D03*
X125115000Y-19685000D03*
%TD*%
D31*
%TO.C,U17*%
X200035000Y-30470000D03*
D32*
X202575000Y-30470000D03*
X205115000Y-30470000D03*
X207655000Y-30470000D03*
X210195000Y-30470000D03*
X212735000Y-30470000D03*
X215275000Y-30470000D03*
X217815000Y-30470000D03*
X220355000Y-30470000D03*
X220355000Y-22850000D03*
X217815000Y-22850000D03*
X215275000Y-22850000D03*
X212735000Y-22850000D03*
X210195000Y-22850000D03*
X207655000Y-22850000D03*
X205115000Y-22850000D03*
X202575000Y-22850000D03*
X200035000Y-22850000D03*
%TD*%
D19*
%TO.C,C27*%
X94615000Y-78105000D03*
X92115000Y-78105000D03*
%TD*%
D24*
%TO.C,U9*%
X176530000Y-106680000D03*
D23*
X176530000Y-109220000D03*
X176530000Y-111760000D03*
X176530000Y-114300000D03*
X176530000Y-116840000D03*
X176530000Y-119380000D03*
X176530000Y-121920000D03*
X176530000Y-124460000D03*
X176530000Y-127000000D03*
X176530000Y-129540000D03*
X184150000Y-129540000D03*
X184150000Y-127000000D03*
X184150000Y-124460000D03*
X184150000Y-121920000D03*
X184150000Y-119380000D03*
X184150000Y-116840000D03*
X184150000Y-114300000D03*
X184150000Y-111760000D03*
X184150000Y-109220000D03*
X184150000Y-106680000D03*
%TD*%
D19*
%TO.C,C8*%
X226040000Y-60960000D03*
X223540000Y-60960000D03*
%TD*%
%TO.C,C49*%
X61595000Y-92075000D03*
X61595000Y-94575000D03*
%TD*%
%TO.C,C37*%
X226040000Y-86360000D03*
X223540000Y-86360000D03*
%TD*%
D18*
%TO.C,C42*%
X255230000Y-106680000D03*
D19*
X252730000Y-106680000D03*
%TD*%
D18*
%TO.C,X1*%
X97790000Y-30480000D03*
D19*
X113030000Y-30480000D03*
X113030000Y-22860000D03*
X97790000Y-22860000D03*
%TD*%
D18*
%TO.C,C41*%
X255228856Y-93980000D03*
D19*
X252728856Y-93980000D03*
%TD*%
%TO.C,C38*%
X226040000Y-99060000D03*
X223540000Y-99060000D03*
%TD*%
D31*
%TO.C,U33*%
X229245000Y-119370000D03*
D32*
X231785000Y-119370000D03*
X234325000Y-119370000D03*
X236865000Y-119370000D03*
X239405000Y-119370000D03*
X241945000Y-119370000D03*
X244485000Y-119370000D03*
X247025000Y-119370000D03*
X249565000Y-119370000D03*
X249565000Y-111750000D03*
X247025000Y-111750000D03*
X244485000Y-111750000D03*
X241945000Y-111750000D03*
X239405000Y-111750000D03*
X236865000Y-111750000D03*
X234325000Y-111750000D03*
X231785000Y-111750000D03*
X229245000Y-111750000D03*
%TD*%
D18*
%TO.C,C11*%
X255270000Y-55880000D03*
D19*
X252770000Y-55880000D03*
%TD*%
D24*
%TO.C,U14*%
X176540000Y-76840000D03*
D23*
X176540000Y-79380000D03*
X176540000Y-81920000D03*
X176540000Y-84460000D03*
X176540000Y-87000000D03*
X176540000Y-89540000D03*
X176540000Y-92080000D03*
X176540000Y-94620000D03*
X176540000Y-97160000D03*
X176540000Y-99700000D03*
X184160000Y-99700000D03*
X184160000Y-97160000D03*
X184160000Y-94620000D03*
X184160000Y-92080000D03*
X184160000Y-89540000D03*
X184160000Y-87000000D03*
X184160000Y-84460000D03*
X184160000Y-81920000D03*
X184160000Y-79380000D03*
X184160000Y-76840000D03*
%TD*%
D19*
%TO.C,R5*%
X142875000Y-45720000D03*
D22*
X142875000Y-35560000D03*
%TD*%
D19*
%TO.C,C45*%
X94595000Y-90805000D03*
X92095000Y-90805000D03*
%TD*%
%TO.C,R1*%
X136525000Y-19685000D03*
D22*
X136525000Y-29845000D03*
%TD*%
D19*
%TO.C,C29*%
X94615000Y-62865000D03*
X92115000Y-62865000D03*
%TD*%
%TO.C,C17*%
X181590000Y-19685000D03*
X179090000Y-19685000D03*
%TD*%
D31*
%TO.C,U29*%
X200035000Y-119370000D03*
D32*
X202575000Y-119370000D03*
X205115000Y-119370000D03*
X207655000Y-119370000D03*
X210195000Y-119370000D03*
X212735000Y-119370000D03*
X215275000Y-119370000D03*
X217815000Y-119370000D03*
X220355000Y-119370000D03*
X220355000Y-111750000D03*
X217815000Y-111750000D03*
X215275000Y-111750000D03*
X212735000Y-111750000D03*
X210195000Y-111750000D03*
X207655000Y-111750000D03*
X205115000Y-111750000D03*
X202575000Y-111750000D03*
X200035000Y-111750000D03*
%TD*%
D19*
%TO.C,C33*%
X196830000Y-86360000D03*
X194330000Y-86360000D03*
%TD*%
D24*
%TO.C,U10*%
X120660000Y-111765000D03*
D23*
X120660000Y-114305000D03*
X120660000Y-116845000D03*
X120660000Y-119385000D03*
X120660000Y-121925000D03*
X120660000Y-124465000D03*
X120660000Y-127005000D03*
X120660000Y-129545000D03*
X120660000Y-132085000D03*
X120660000Y-134625000D03*
X128280000Y-134625000D03*
X128280000Y-132085000D03*
X128280000Y-129545000D03*
X128280000Y-127005000D03*
X128280000Y-124465000D03*
X128280000Y-121925000D03*
X128280000Y-119385000D03*
X128280000Y-116845000D03*
X128280000Y-114305000D03*
X128280000Y-111765000D03*
%TD*%
D19*
%TO.C,C26*%
X102870000Y-102870000D03*
X100370000Y-102870000D03*
%TD*%
%TO.C,C24*%
X127595000Y-41656000D03*
X125095000Y-41656000D03*
%TD*%
%TO.C,C35*%
X196850000Y-111760000D03*
X194350000Y-111760000D03*
%TD*%
%TO.C,C2*%
X226040000Y-22860000D03*
X223540000Y-22860000D03*
%TD*%
%TO.C,C10*%
X196830000Y-60960000D03*
X194330000Y-60960000D03*
%TD*%
D24*
%TO.C,U8*%
X79370000Y-106675000D03*
D23*
X79370000Y-109215000D03*
X79370000Y-111755000D03*
X79370000Y-114295000D03*
X79370000Y-116835000D03*
X79370000Y-119375000D03*
X79370000Y-121915000D03*
X79370000Y-124455000D03*
X79370000Y-126995000D03*
X79370000Y-129535000D03*
X79370000Y-132075000D03*
X79370000Y-134615000D03*
X94610000Y-134615000D03*
X94610000Y-132075000D03*
X94610000Y-129535000D03*
X94610000Y-126995000D03*
X94610000Y-124455000D03*
X94610000Y-121915000D03*
X94610000Y-119375000D03*
X94610000Y-116835000D03*
X94610000Y-114295000D03*
X94610000Y-111755000D03*
X94610000Y-109215000D03*
X94610000Y-106675000D03*
%TD*%
D31*
%TO.C,U15*%
X97780000Y-85715000D03*
D32*
X100320000Y-85715000D03*
X102860000Y-85715000D03*
X105400000Y-85715000D03*
X107940000Y-85715000D03*
X110480000Y-85715000D03*
X113020000Y-85715000D03*
X115560000Y-85715000D03*
X115560000Y-78095000D03*
X113020000Y-78095000D03*
X110480000Y-78095000D03*
X107940000Y-78095000D03*
X105400000Y-78095000D03*
X102860000Y-78095000D03*
X100320000Y-78095000D03*
X97780000Y-78095000D03*
%TD*%
D19*
%TO.C,C32*%
X196850000Y-73660000D03*
X194350000Y-73660000D03*
%TD*%
%TO.C,C6*%
X226040000Y-48260000D03*
X223540000Y-48260000D03*
%TD*%
%TO.C,C46*%
X62230000Y-124480000D03*
X62230000Y-126980000D03*
%TD*%
D31*
%TO.C,U24*%
X229235000Y-55880000D03*
D32*
X231775000Y-55880000D03*
X234315000Y-55880000D03*
X236855000Y-55880000D03*
X239395000Y-55880000D03*
X241935000Y-55880000D03*
X244475000Y-55880000D03*
X247015000Y-55880000D03*
X249555000Y-55880000D03*
X249555000Y-48260000D03*
X247015000Y-48260000D03*
X244475000Y-48260000D03*
X241935000Y-48260000D03*
X239395000Y-48260000D03*
X236855000Y-48260000D03*
X234315000Y-48260000D03*
X231775000Y-48260000D03*
X229235000Y-48260000D03*
%TD*%
D24*
%TO.C,U5*%
X122565000Y-22855000D03*
D23*
X122565000Y-25395000D03*
X122565000Y-27935000D03*
X122565000Y-30475000D03*
X122565000Y-33015000D03*
X122565000Y-35555000D03*
X122565000Y-38095000D03*
X130185000Y-38095000D03*
X130185000Y-35555000D03*
X130185000Y-33015000D03*
X130185000Y-30475000D03*
X130185000Y-27935000D03*
X130185000Y-25395000D03*
X130185000Y-22855000D03*
%TD*%
D31*
%TO.C,U32*%
X229235000Y-106680000D03*
D32*
X231775000Y-106680000D03*
X234315000Y-106680000D03*
X236855000Y-106680000D03*
X239395000Y-106680000D03*
X241935000Y-106680000D03*
X244475000Y-106680000D03*
X247015000Y-106680000D03*
X249555000Y-106680000D03*
X249555000Y-99060000D03*
X247015000Y-99060000D03*
X244475000Y-99060000D03*
X241935000Y-99060000D03*
X239395000Y-99060000D03*
X236855000Y-99060000D03*
X234315000Y-99060000D03*
X231775000Y-99060000D03*
X229235000Y-99060000D03*
%TD*%
D19*
%TO.C,C20*%
X94595000Y-50165000D03*
X92095000Y-50165000D03*
%TD*%
D31*
%TO.C,U26*%
X200025000Y-81280000D03*
D32*
X202565000Y-81280000D03*
X205105000Y-81280000D03*
X207645000Y-81280000D03*
X210185000Y-81280000D03*
X212725000Y-81280000D03*
X215265000Y-81280000D03*
X217805000Y-81280000D03*
X220345000Y-81280000D03*
X220345000Y-73660000D03*
X217805000Y-73660000D03*
X215265000Y-73660000D03*
X212725000Y-73660000D03*
X210185000Y-73660000D03*
X207645000Y-73660000D03*
X205105000Y-73660000D03*
X202565000Y-73660000D03*
X200025000Y-73660000D03*
%TD*%
D19*
%TO.C,C25*%
X134600000Y-100330000D03*
X132100000Y-100330000D03*
%TD*%
D18*
%TO.C,C9*%
X255270000Y-43180000D03*
D19*
X252770000Y-43180000D03*
%TD*%
%TO.C,R4*%
X136525000Y-45720000D03*
D22*
X136525000Y-35560000D03*
%TD*%
D19*
%TO.C,C34*%
X196830000Y-99060000D03*
X194330000Y-99060000D03*
%TD*%
D24*
%TO.C,U11*%
X147955000Y-22860000D03*
D23*
X147955000Y-25400000D03*
X147955000Y-27940000D03*
X147955000Y-30480000D03*
X147955000Y-33020000D03*
X147955000Y-35560000D03*
X147955000Y-38100000D03*
X147955000Y-40640000D03*
X147955000Y-43180000D03*
X147955000Y-45720000D03*
X147955000Y-48260000D03*
X147955000Y-50800000D03*
X147955000Y-53340000D03*
X147955000Y-55880000D03*
X147955000Y-58420000D03*
X147955000Y-60960000D03*
X147955000Y-63500000D03*
X147955000Y-66040000D03*
X147955000Y-68580000D03*
X147955000Y-71120000D03*
X163195000Y-71120000D03*
X163195000Y-68580000D03*
X163195000Y-66040000D03*
X163195000Y-63500000D03*
X163195000Y-60960000D03*
X163195000Y-58420000D03*
X163195000Y-55880000D03*
X163195000Y-53340000D03*
X163195000Y-50800000D03*
X163195000Y-48260000D03*
X163195000Y-45720000D03*
X163195000Y-43180000D03*
X163195000Y-40640000D03*
X163195000Y-38100000D03*
X163195000Y-35560000D03*
X163195000Y-33020000D03*
X163195000Y-30480000D03*
X163195000Y-27940000D03*
X163195000Y-25400000D03*
X163195000Y-22860000D03*
%TD*%
D18*
%TO.C,C40*%
X255228856Y-81280000D03*
D19*
X252728856Y-81280000D03*
%TD*%
%TO.C,C50*%
X62230000Y-99675000D03*
X62230000Y-102175000D03*
%TD*%
%TO.C,C22*%
X134620000Y-92710000D03*
X132120000Y-92710000D03*
%TD*%
D12*
%TO.C,JP1*%
X145415000Y-104140000D03*
D13*
X147955000Y-104140000D03*
%TD*%
D19*
%TO.C,C36*%
X226060000Y-73660000D03*
X223560000Y-73660000D03*
%TD*%
D18*
%TO.C,C7*%
X255270000Y-30480000D03*
D19*
X252770000Y-30480000D03*
%TD*%
D32*
%TO.C,U21*%
X137795000Y-110495000D03*
X140335000Y-110495000D03*
X142875000Y-110495000D03*
X145415000Y-110495000D03*
X147955000Y-110495000D03*
X150495000Y-110495000D03*
X153035000Y-110495000D03*
X155575000Y-110495000D03*
X158115000Y-110495000D03*
X160655000Y-110495000D03*
X163195000Y-110495000D03*
X165735000Y-110495000D03*
X165735000Y-125735000D03*
X163195000Y-125735000D03*
X160655000Y-125735000D03*
X158115000Y-125735000D03*
X155575000Y-125735000D03*
X153035000Y-125735000D03*
X150495000Y-125735000D03*
X147955000Y-125735000D03*
X145415000Y-125735000D03*
X142875000Y-125735000D03*
X140335000Y-125735000D03*
D31*
X137795000Y-125735000D03*
%TD*%
D19*
%TO.C,R6*%
X170815000Y-35560000D03*
D22*
X170815000Y-25400000D03*
%TD*%
D24*
%TO.C,U13*%
X176540000Y-46995000D03*
D23*
X176540000Y-49535000D03*
X176540000Y-52075000D03*
X176540000Y-54615000D03*
X176540000Y-57155000D03*
X176540000Y-59695000D03*
X176540000Y-62235000D03*
X176540000Y-64775000D03*
X176540000Y-67315000D03*
X176540000Y-69855000D03*
X184160000Y-69855000D03*
X184160000Y-67315000D03*
X184160000Y-64775000D03*
X184160000Y-62235000D03*
X184160000Y-59695000D03*
X184160000Y-57155000D03*
X184160000Y-54615000D03*
X184160000Y-52075000D03*
X184160000Y-49535000D03*
X184160000Y-46995000D03*
%TD*%
D19*
%TO.C,C1*%
X196830000Y-22860000D03*
X194330000Y-22860000D03*
%TD*%
%TO.C,C52*%
X62230000Y-107295000D03*
X62230000Y-104795000D03*
%TD*%
D31*
%TO.C,U36*%
X97785000Y-98415000D03*
D32*
X100325000Y-98415000D03*
X102865000Y-98415000D03*
X105405000Y-98415000D03*
X107945000Y-98415000D03*
X110485000Y-98415000D03*
X113025000Y-98415000D03*
X113025000Y-90795000D03*
X110485000Y-90795000D03*
X107945000Y-90795000D03*
X105405000Y-90795000D03*
X102865000Y-90795000D03*
X100325000Y-90795000D03*
X97785000Y-90795000D03*
%TD*%
D19*
%TO.C,C19*%
X181590000Y-102997000D03*
X179090000Y-102997000D03*
%TD*%
%TO.C,R7*%
X167640000Y-25400000D03*
D22*
X167640000Y-35560000D03*
%TD*%
D24*
%TO.C,U34*%
X65405000Y-116830000D03*
D23*
X65405000Y-119370000D03*
X65405000Y-121910000D03*
X65405000Y-124450000D03*
X65405000Y-126990000D03*
X65405000Y-129530000D03*
X65405000Y-132070000D03*
X65405000Y-134610000D03*
X73025000Y-134610000D03*
X73025000Y-132070000D03*
X73025000Y-129530000D03*
X73025000Y-126990000D03*
X73025000Y-124450000D03*
X73025000Y-121910000D03*
X73025000Y-119370000D03*
X73025000Y-116830000D03*
%TD*%
D19*
%TO.C,C5*%
X196830000Y-48260000D03*
X194330000Y-48260000D03*
%TD*%
%TO.C,C39*%
X226040000Y-111760000D03*
X223540000Y-111760000D03*
%TD*%
%TO.C,C47*%
X72985000Y-113665000D03*
X70485000Y-113665000D03*
%TD*%
%TO.C,R8*%
X132085000Y-104140000D03*
D22*
X142245000Y-104140000D03*
%TD*%
D19*
%TO.C,C48*%
X62230000Y-132060000D03*
X62230000Y-129560000D03*
%TD*%
D31*
%TO.C,U25*%
X229235000Y-68580000D03*
D32*
X231775000Y-68580000D03*
X234315000Y-68580000D03*
X236855000Y-68580000D03*
X239395000Y-68580000D03*
X241935000Y-68580000D03*
X244475000Y-68580000D03*
X247015000Y-68580000D03*
X249555000Y-68580000D03*
X249555000Y-60960000D03*
X247015000Y-60960000D03*
X244475000Y-60960000D03*
X241935000Y-60960000D03*
X239395000Y-60960000D03*
X236855000Y-60960000D03*
X234315000Y-60960000D03*
X231775000Y-60960000D03*
X229235000Y-60960000D03*
%TD*%
D19*
%TO.C,C30*%
X127615000Y-64135000D03*
X125115000Y-64135000D03*
%TD*%
D31*
%TO.C,U31*%
X229245000Y-93970000D03*
D32*
X231785000Y-93970000D03*
X234325000Y-93970000D03*
X236865000Y-93970000D03*
X239405000Y-93970000D03*
X241945000Y-93970000D03*
X244485000Y-93970000D03*
X247025000Y-93970000D03*
X249565000Y-93970000D03*
X249565000Y-86350000D03*
X247025000Y-86350000D03*
X244485000Y-86350000D03*
X241945000Y-86350000D03*
X239405000Y-86350000D03*
X236865000Y-86350000D03*
X234325000Y-86350000D03*
X231785000Y-86350000D03*
X229245000Y-86350000D03*
%TD*%
D31*
%TO.C,U3*%
X97780000Y-70475000D03*
D32*
X100320000Y-70475000D03*
X102860000Y-70475000D03*
X105400000Y-70475000D03*
X107940000Y-70475000D03*
X110480000Y-70475000D03*
X113020000Y-70475000D03*
X115560000Y-70475000D03*
X115560000Y-62855000D03*
X113020000Y-62855000D03*
X110480000Y-62855000D03*
X107940000Y-62855000D03*
X105400000Y-62855000D03*
X102860000Y-62855000D03*
X100320000Y-62855000D03*
X97780000Y-62855000D03*
%TD*%
D31*
%TO.C,U12*%
X137800000Y-100320000D03*
D32*
X140340000Y-100320000D03*
X142880000Y-100320000D03*
X145420000Y-100320000D03*
X147960000Y-100320000D03*
X150500000Y-100320000D03*
X153040000Y-100320000D03*
X155580000Y-100320000D03*
X158120000Y-100320000D03*
X160660000Y-100320000D03*
X160660000Y-92700000D03*
X158120000Y-92700000D03*
X155580000Y-92700000D03*
X153040000Y-92700000D03*
X150500000Y-92700000D03*
X147960000Y-92700000D03*
X145420000Y-92700000D03*
X142880000Y-92700000D03*
X140340000Y-92700000D03*
X137800000Y-92700000D03*
%TD*%
D31*
%TO.C,U4*%
X97785000Y-57775000D03*
D32*
X100325000Y-57775000D03*
X102865000Y-57775000D03*
X105405000Y-57775000D03*
X107945000Y-57775000D03*
X110485000Y-57775000D03*
X113025000Y-57775000D03*
X113025000Y-50155000D03*
X110485000Y-50155000D03*
X107945000Y-50155000D03*
X105405000Y-50155000D03*
X102865000Y-50155000D03*
X100325000Y-50155000D03*
X97785000Y-50155000D03*
%TD*%
D18*
%TO.C,C13*%
X255270000Y-68580000D03*
D19*
X252770000Y-68580000D03*
%TD*%
D24*
%TO.C,U2*%
X122565000Y-45080000D03*
D23*
X122565000Y-47620000D03*
X122565000Y-50160000D03*
X122565000Y-52700000D03*
X122565000Y-55240000D03*
X122565000Y-57780000D03*
X122565000Y-60320000D03*
X130185000Y-60320000D03*
X130185000Y-57780000D03*
X130185000Y-55240000D03*
X130185000Y-52700000D03*
X130185000Y-50160000D03*
X130185000Y-47620000D03*
X130185000Y-45080000D03*
%TD*%
D19*
%TO.C,C51*%
X73005000Y-88835000D03*
X70505000Y-88835000D03*
%TD*%
D31*
%TO.C,U27*%
X200035000Y-93970000D03*
D32*
X202575000Y-93970000D03*
X205115000Y-93970000D03*
X207655000Y-93970000D03*
X210195000Y-93970000D03*
X212735000Y-93970000D03*
X215275000Y-93970000D03*
X217815000Y-93970000D03*
X220355000Y-93970000D03*
X220355000Y-86350000D03*
X217815000Y-86350000D03*
X215275000Y-86350000D03*
X212735000Y-86350000D03*
X210195000Y-86350000D03*
X207655000Y-86350000D03*
X205115000Y-86350000D03*
X202575000Y-86350000D03*
X200035000Y-86350000D03*
%TD*%
D24*
%TO.C,U7*%
X100325000Y-106675000D03*
D23*
X100325000Y-109215000D03*
X100325000Y-111755000D03*
X100325000Y-114295000D03*
X100325000Y-116835000D03*
X100325000Y-119375000D03*
X100325000Y-121915000D03*
X100325000Y-124455000D03*
X100325000Y-126995000D03*
X100325000Y-129535000D03*
X100325000Y-132075000D03*
X100325000Y-134615000D03*
X115565000Y-134615000D03*
X115565000Y-132075000D03*
X115565000Y-129535000D03*
X115565000Y-126995000D03*
X115565000Y-124455000D03*
X115565000Y-121915000D03*
X115565000Y-119375000D03*
X115565000Y-116835000D03*
X115565000Y-114295000D03*
X115565000Y-111755000D03*
X115565000Y-109215000D03*
X115565000Y-106675000D03*
%TD*%
D19*
%TO.C,C4*%
X226040000Y-35560000D03*
X223540000Y-35560000D03*
%TD*%
D18*
%TO.C,C43*%
X255270000Y-119380000D03*
D19*
X252770000Y-119380000D03*
%TD*%
%TO.C,C16*%
X181590000Y-73152000D03*
X179090000Y-73152000D03*
%TD*%
D31*
%TO.C,U28*%
X200035000Y-106670000D03*
D32*
X202575000Y-106670000D03*
X205115000Y-106670000D03*
X207655000Y-106670000D03*
X210195000Y-106670000D03*
X212735000Y-106670000D03*
X215275000Y-106670000D03*
X217815000Y-106670000D03*
X220355000Y-106670000D03*
X220355000Y-99050000D03*
X217815000Y-99050000D03*
X215275000Y-99050000D03*
X212735000Y-99050000D03*
X210195000Y-99050000D03*
X207655000Y-99050000D03*
X205115000Y-99050000D03*
X202575000Y-99050000D03*
X200035000Y-99050000D03*
%TD*%
D24*
%TO.C,U1*%
X122555000Y-67945000D03*
D23*
X122555000Y-70485000D03*
X122555000Y-73025000D03*
X122555000Y-75565000D03*
X122555000Y-78105000D03*
X122555000Y-80645000D03*
X122555000Y-83185000D03*
X130175000Y-83185000D03*
X130175000Y-80645000D03*
X130175000Y-78105000D03*
X130175000Y-75565000D03*
X130175000Y-73025000D03*
X130175000Y-70485000D03*
X130175000Y-67945000D03*
%TD*%
D33*
X141605000Y-69215000D03*
X144348200Y-49555400D03*
X155702000Y-49530000D03*
X66665000Y-57922000D03*
D34*
X196850000Y-89916000D03*
X255228856Y-89957144D03*
X255270000Y-39370000D03*
X255230000Y-102830000D03*
X107823000Y-139700000D03*
X76200000Y-139700000D03*
X59690000Y-89789000D03*
D33*
X166370000Y-81987011D03*
X124460000Y-102108000D03*
X166229200Y-104140000D03*
X161925000Y-104140000D03*
X124460000Y-105283000D03*
D34*
X196850000Y-134620000D03*
D33*
X181590000Y-34310000D03*
D34*
X94615000Y-104775000D03*
D33*
X94615000Y-73025000D03*
D34*
X196850000Y-127533400D03*
D33*
X107950000Y-55245000D03*
D34*
X94615000Y-55245000D03*
D33*
X75565000Y-95885000D03*
D34*
X127635000Y-99695000D03*
D33*
X132715000Y-24130000D03*
X119380000Y-33020000D03*
X119380000Y-22860000D03*
X97194108Y-122594108D03*
X143510000Y-30480000D03*
X134874000Y-136779000D03*
X135128000Y-132588000D03*
X152908000Y-30480000D03*
X152743400Y-78613000D03*
X165227000Y-78613000D03*
X96774000Y-137287000D03*
X167767000Y-130302000D03*
X167005000Y-133350000D03*
X152108400Y-35560000D03*
X168199800Y-108839000D03*
X164465000Y-77851000D03*
X169545000Y-130302000D03*
X152108400Y-77851000D03*
X164465000Y-108712000D03*
X169545000Y-133350000D03*
X173736000Y-132588000D03*
X173736000Y-130175000D03*
X168783000Y-37846000D03*
X174079400Y-37846000D03*
X179120800Y-79273400D03*
D34*
X92075000Y-102870000D03*
D33*
X115570000Y-82550000D03*
D34*
X142240000Y-22860000D03*
D33*
X92115000Y-61000000D03*
X179090000Y-49510000D03*
X59685000Y-62860000D03*
D34*
X125095000Y-85725000D03*
X118110000Y-52705000D03*
D33*
X158115000Y-102870000D03*
D34*
X125095000Y-98425000D03*
D33*
X59690000Y-120015000D03*
X83820000Y-76708000D03*
X118707400Y-25400000D03*
X117983000Y-44450000D03*
X83562811Y-58293000D03*
X90805000Y-113030000D03*
X90805000Y-115570000D03*
X81661000Y-79883000D03*
X89916000Y-79883000D03*
X180340000Y-132715000D03*
X126365000Y-50165000D03*
X133350000Y-85052400D03*
X180340000Y-107950000D03*
X126365000Y-85052400D03*
X180340000Y-129336800D03*
X133350000Y-135890000D03*
X133350000Y-107950000D03*
X133350000Y-114300000D03*
X126365000Y-75565000D03*
X145161000Y-47117000D03*
X145128286Y-76824095D03*
X150114000Y-47117000D03*
X157861000Y-41910000D03*
X107950000Y-80645000D03*
X180340000Y-78105000D03*
X181610000Y-130175000D03*
X145923000Y-77597000D03*
X174752000Y-39497000D03*
X145923000Y-79375000D03*
X157861000Y-44450000D03*
X145923000Y-45720000D03*
X163322000Y-77089000D03*
X163449000Y-105029000D03*
X126365000Y-27940000D03*
X126365000Y-48895000D03*
X121183400Y-62788800D03*
X133312400Y-62865000D03*
X134620000Y-86830889D03*
X120650000Y-86743200D03*
X249555000Y-58420000D03*
X134620000Y-73025000D03*
X133985000Y-59055000D03*
X151765000Y-89789000D03*
X136652000Y-89789000D03*
X135509000Y-60325000D03*
X151765000Y-97663000D03*
X151765000Y-95250000D03*
X133350000Y-57785000D03*
X133604000Y-25400000D03*
X132588000Y-65405000D03*
X132588000Y-55245000D03*
X120573800Y-66446400D03*
X122555000Y-128270000D03*
X135763000Y-90551000D03*
X97790000Y-136525000D03*
X134747000Y-52832000D03*
X97790000Y-124460000D03*
X100330000Y-53975000D03*
X113030000Y-53975000D03*
X143637000Y-67310000D03*
X153669220Y-67308269D03*
X153632400Y-39370000D03*
X143637000Y-88392000D03*
X154305000Y-36830000D03*
X144399000Y-88011000D03*
X144399000Y-64770000D03*
X154308189Y-64770000D03*
X119430800Y-66878200D03*
X119253000Y-61366400D03*
X119507000Y-83566000D03*
X131953000Y-34290000D03*
X120015000Y-34290000D03*
X110490000Y-42545000D03*
X103505000Y-39370000D03*
X108966000Y-127000000D03*
X108966000Y-138417800D03*
X118110000Y-138049000D03*
X118110000Y-135890000D03*
X140335000Y-130810000D03*
X142875000Y-132715000D03*
X137744200Y-132435600D03*
X139065000Y-128270000D03*
X146685000Y-127635000D03*
X149225000Y-121882400D03*
X151765000Y-121882400D03*
X154305000Y-118707400D03*
X157480000Y-114808000D03*
X173317400Y-109220000D03*
X173317400Y-113627400D03*
X173228000Y-41021000D03*
X158115000Y-113665000D03*
X135255000Y-113411000D03*
X134022600Y-117322600D03*
X172682400Y-43180000D03*
X161163000Y-115405400D03*
X135890000Y-114897400D03*
X172847000Y-115189000D03*
X172751211Y-111760000D03*
X135890000Y-118707400D03*
X163195000Y-116040400D03*
X172047400Y-45720000D03*
X130175000Y-116205000D03*
X172203677Y-116167400D03*
X130175000Y-121920000D03*
X172107880Y-114311106D03*
X171412400Y-48260000D03*
X131056800Y-116840000D03*
X131051800Y-124460000D03*
X165735000Y-116840000D03*
X171487600Y-116840000D03*
X170777400Y-50800000D03*
X134022600Y-127000000D03*
X164719000Y-119380000D03*
X170852600Y-119380000D03*
X134620000Y-119380000D03*
X170142400Y-53340000D03*
X161925000Y-121916811D03*
X170315741Y-121666000D03*
X134022600Y-129540000D03*
X134695200Y-121920000D03*
X169507400Y-55880000D03*
X159385000Y-122551811D03*
X134022600Y-132080000D03*
X135367800Y-122592600D03*
X169697400Y-124460000D03*
X156870400Y-123367800D03*
X168872400Y-58420000D03*
X135852400Y-134620000D03*
X169545000Y-125476000D03*
X136040400Y-123190000D03*
X168910000Y-123316999D03*
X160655000Y-44450000D03*
X157480000Y-45720000D03*
X159639000Y-87630000D03*
X160016811Y-48260000D03*
X159987400Y-59690000D03*
X155575000Y-87884000D03*
X158237092Y-86322400D03*
X158712400Y-64770000D03*
X158750000Y-50800000D03*
X153670000Y-97155000D03*
X154584400Y-86436200D03*
X153289000Y-86360000D03*
X161417000Y-69596000D03*
X157597671Y-85687400D03*
X158008589Y-53340000D03*
X158111811Y-69887600D03*
X165735000Y-71120000D03*
X159004000Y-86995000D03*
X159306306Y-62230000D03*
X159347400Y-55880000D03*
X152146000Y-86995000D03*
X156672978Y-58420000D03*
X161332600Y-60961159D03*
X142621000Y-98171000D03*
X156168658Y-60960000D03*
X161293189Y-54610000D03*
X140335000Y-98171000D03*
X155499258Y-63500000D03*
X162560000Y-94615000D03*
X155499269Y-79349600D03*
X161332600Y-79375000D03*
X154826658Y-66040000D03*
X154940000Y-80006811D03*
X162002000Y-80010000D03*
X162002000Y-89535000D03*
X162671400Y-84455000D03*
X154305000Y-80641811D03*
X154051000Y-68072000D03*
X162776400Y-80492600D03*
X165666189Y-67310000D03*
X166370000Y-69850000D03*
X153670000Y-81280000D03*
X153378400Y-71120000D03*
X142875000Y-89027000D03*
X167005000Y-68580000D03*
X142875000Y-69850000D03*
X167640000Y-75692000D03*
X137414000Y-75692000D03*
X137414000Y-87338400D03*
X167643189Y-60960000D03*
X142875173Y-95885000D03*
X150495000Y-94615000D03*
X201422000Y-52705000D03*
X230505000Y-53340000D03*
X229235000Y-53308789D03*
X200025000Y-53305598D03*
X233045000Y-63503189D03*
X203200000Y-63500000D03*
X234315000Y-65786000D03*
X205105000Y-65786000D03*
X236855000Y-66675000D03*
X207645000Y-66675000D03*
X216535000Y-62738000D03*
X245745000Y-62865000D03*
X212725000Y-53978200D03*
X241935000Y-53721000D03*
X210820000Y-51963589D03*
X239903000Y-52197000D03*
X130810000Y-105410000D03*
X151765000Y-120396000D03*
X168199800Y-107950000D03*
X130810000Y-113538000D03*
X161036000Y-120904000D03*
X168199800Y-86995000D03*
X142875000Y-131445000D03*
X159385000Y-131445000D03*
X167568000Y-92075000D03*
X142875000Y-106680000D03*
X167568000Y-107277400D03*
X166898600Y-106611200D03*
X140335000Y-129972297D03*
X140335000Y-105410000D03*
X166898600Y-97155000D03*
X139065000Y-95466400D03*
X156247600Y-130175000D03*
X139065000Y-103034600D03*
X207655000Y-88255000D03*
X207645000Y-50618388D03*
X236855000Y-50673000D03*
X205105000Y-50546000D03*
X203835000Y-78105000D03*
X186652400Y-78105000D03*
X234315000Y-50800000D03*
X187452000Y-42164000D03*
X188468000Y-121285000D03*
X188468000Y-108712000D03*
X188303400Y-40640000D03*
X188976000Y-38100000D03*
X189484000Y-96012000D03*
X189724189Y-35560000D03*
X189865000Y-83185000D03*
X190393589Y-33020000D03*
X190510000Y-70485000D03*
X191097400Y-57785000D03*
X191063000Y-30480000D03*
X191780000Y-45085000D03*
X191732400Y-27940000D03*
X191897000Y-25390000D03*
X192415000Y-32385000D03*
X108077000Y-137668000D03*
X107315000Y-136906000D03*
X186436000Y-76708000D03*
X190754000Y-76708000D03*
X165989000Y-41910000D03*
X165989000Y-38100000D03*
X186436000Y-43307000D03*
X190754000Y-130048000D03*
X191643000Y-136017000D03*
X143510000Y-25400000D03*
X191643000Y-130048000D03*
X192277999Y-24130001D03*
X87630000Y-114300000D03*
X89154000Y-80645000D03*
X87630000Y-111725600D03*
X82931000Y-80645000D03*
X70485000Y-119380000D03*
X70485000Y-94615000D03*
X57912000Y-121285000D03*
X57225200Y-123190000D03*
X56552600Y-132638800D03*
X55880000Y-134620000D03*
X106553000Y-136144000D03*
X105613200Y-135864600D03*
X104925526Y-135132218D03*
X104165400Y-134721600D03*
X58166000Y-98298000D03*
X57404000Y-100965000D03*
X56515000Y-103759000D03*
X55753000Y-104902000D03*
X117983000Y-90805000D03*
X118110000Y-71755000D03*
X113665000Y-130810000D03*
X118782600Y-74295000D03*
X92329000Y-127000000D03*
X92456000Y-110490000D03*
X90043000Y-132080000D03*
X90170000Y-118110000D03*
X90805000Y-120396000D03*
X90805000Y-129540000D03*
X91440000Y-134620000D03*
X91556900Y-107950000D03*
X84201000Y-55753000D03*
X112140998Y-74168000D03*
X84455000Y-74168000D03*
X110490000Y-68580000D03*
X84908011Y-71628000D03*
X84836000Y-53213000D03*
X85467811Y-50673000D03*
X100330000Y-67818000D03*
X85577411Y-69088000D03*
X86106000Y-48133000D03*
X86246811Y-66548000D03*
X102870000Y-66675000D03*
X86741000Y-45593000D03*
X86813011Y-64008000D03*
X110490000Y-40640000D03*
X107950000Y-66294000D03*
X174625000Y-130175000D03*
X175006000Y-83185000D03*
M02*
